<svg xmlns="http://www.w3.org/2000/svg" viewBox="0 0 64 64"><defs><style>.cls-1{fill:#dee2f8;}.cls-2,.cls-3{fill:#2942d1;}.cls-2{opacity:0.1;}.cls-4{opacity:0.6;}.cls-5{fill:#fff;}.cls-6{opacity:0.3;}</style></defs><g id="bg"><path class="cls-1" d="M0,0H64a0,0,0,0,1,0,0V64a0,0,0,0,1,0,0H14.54545A14.54545,14.54545,0,0,1,0,49.45455V0A0,0,0,0,1,0,0Z"/></g><g id="shadow"><polygon class="cls-2" points="17.601 46.245 35.355 64 64 63.846 64 35.048 46.399 17.447 17.601 46.245"/></g><g id="Слой_1" data-name="Слой 1"><path class="cls-3" d="M32,11.63636A20.36364,20.36364,0,1,0,52.36364,32H32Z"/><g class="cls-4"><path class="cls-5" d="M32,11.63636A20.36364,20.36364,0,1,0,52.36364,32H32Z"/></g><path class="cls-3" d="M52.36364,32A20.36364,20.36364,0,0,0,32,11.63636V32Z"/><g class="cls-6"><path class="cls-5" d="M52.36364,32A20.36364,20.36364,0,0,0,32,11.63636V32Z"/></g><rect class="cls-3" x="30.82877" y="39.16095" width="2.32727" height="2.14815"/><path class="cls-3" d="M33.18672,37.24234l-2.32727-.0213.03835-4.20966,1.00554-.12983c1.56662-.20213,4.19489-1.00653,4.19489-4.12273a3.74491,3.74491,0,0,0-3.74077-3.74062V22.69092a6.07486,6.07486,0,0,1,6.068,6.0679,6.20005,6.20005,0,0,1-5.21846,6.254Z"/><path class="cls-3" d="M28.61684,28.75882H26.28956a6.07474,6.07474,0,0,1,6.0679-6.0679V25.0182A3.74479,3.74479,0,0,0,28.61684,28.75882Z"/></g></svg>