<?xml version="1.0" encoding="UTF-8"?>
<svg width="64px" height="64px" viewBox="0 0 64 64" version="1.1" xmlns="http://www.w3.org/2000/svg" xmlns:xlink="http://www.w3.org/1999/xlink">
    <title>02-2-02-insurance coverage@3x</title>
    <g id="--------Autonomy-Cover" stroke="none" stroke-width="1" fill="none" fill-rule="evenodd">
        <g id="02-2-1-Autonomy-Cover-1920" transform="translate(-832.000000, -3084.000000)" fill-rule="nonzero">
            <g id="02-2-02-insurance-coverage" transform="translate(832.000000, 3084.000000)">
                <g id="bg" fill="#DEE2F8">
                    <path d="M0,0 L64,0 L64,64 L14.54545,64 C6.51221979,64 0,57.4877802 0,49.45455 L0,0 Z" id="Path"></path>
                </g>
                <g id="shadow" transform="translate(22.374000, 13.443000)" fill="#2942D1" opacity="0.1">
                    <polygon id="Path" points="-3.55271368e-15 32.49 18.068 50.557 41.594 50.557 41.594 15.68 25.915 1.77635684e-15"></polygon>
                </g>
                <g id="Слой_1" transform="translate(15.708870, 11.636340)">
                    <path d="M16.29105,1.77635684e-15 L16.28878,1.77635684e-15 C10.8215621,0.193226065 5.3766157,0.797322763 0,1.80718 L0,19.00611 C0,34.23736 16.18281,40.68303 16.28878,40.72642 L16.28878,40.72728 L16.28991,40.72685 L16.29105,40.72728 L16.29105,40.72642 C16.39687,40.68303 32.57983,34.23736 32.57983,19.00611 L32.57983,1.80718 C27.2032142,0.79732351 21.7582679,0.193226819 16.29105,1.77635684e-15 Z" id="Path" fill="#2942D1"></path>
                    <g id="Group" opacity="0.6" fill="#FFFFFF">
                        <path d="M16.29105,1.77635684e-15 L16.28878,1.77635684e-15 C10.8215621,0.193226065 5.3766157,0.797322763 0,1.80718 L0,19.00611 C0,34.23736 16.18281,40.68303 16.28878,40.72642 L16.28878,40.72728 L16.28991,40.72685 L16.29105,40.72728 L16.29105,40.72642 C16.39687,40.68303 32.57983,34.23736 32.57983,19.00611 L32.57983,1.80718 C27.2032142,0.79732351 21.7582679,0.193226819 16.29105,1.77635684e-15 Z" id="Path"></path>
                    </g>
                    <rect id="Rectangle" fill="#2942D1" x="15.11983" y="25.11609" width="2.32727" height="2.14815"></rect>
                    <path d="M17.47779,23.19766 L15.15051,23.17636 L15.18887,18.9667 L16.19441,18.83687 C17.76103,18.63474 20.38929,17.83033 20.38929,14.71414 C20.3870085,12.6491741 18.7136358,10.9757343 16.64867,10.97337 L16.64867,8.64606 C19.9983276,8.64989559 22.7127896,11.3644023 22.71657,14.71406 C22.782441,17.8092233 20.5550319,20.4786296 17.4981,20.96806 L17.47779,23.19766 Z" id="Path" fill="#2942D1"></path>
                    <path d="M12.90804,14.7141 L10.58077,14.7141 C10.5845504,11.3644423 13.2990124,8.64993559 16.64867,8.6461 L16.64867,10.97337 C14.5837181,10.9757342 12.910349,12.6491481 12.90804,14.7141 Z" id="Path" fill="#2942D1"></path>
                </g>
            </g>
        </g>
    </g>
</svg>