<?xml version="1.0" encoding="UTF-8"?>
<svg width="64px" height="64px" viewBox="0 0 64 64" version="1.1" xmlns="http://www.w3.org/2000/svg" xmlns:xlink="http://www.w3.org/1999/xlink">
    <title>02-2-03-claims handling@3x</title>
    <g id="--------Autonomy-Cover" stroke="none" stroke-width="1" fill="none" fill-rule="evenodd">
        <g id="02-2-1-Autonomy-Cover-1920" transform="translate(-1404.000000, -2998.000000)" fill-rule="nonzero">
            <g id="02-2-03-claims-handling" transform="translate(1404.000000, 2998.000000)">
                <g id="bg" fill="#DEE2F8">
                    <path d="M0,0 L64,0 L64,64 L14.54545,64 C6.51221979,64 0,57.4877802 0,49.45455 L0,0 Z" id="Path"></path>
                </g>
                <g id="shadow" transform="translate(17.455000, 11.636000)" fill="#2942D1" opacity="0.1">
                    <polygon id="Path" points="0 40.728 11.636 52.364 46.545 52.364 46.545 17.455 29.09 3.55271368e-15"></polygon>
                </g>
                <g id="Слой_1" transform="translate(17.455000, 11.636000)">
                    <polygon id="Path" fill="#2942D1" points="17.454 40.728 3.55271368e-15 40.728 3.55271368e-15 0 29.09 0 29.09 29.123"></polygon>
                    <g id="Group" opacity="0.6" transform="translate(0.000000, 0.000000)" fill="#FFFFFF">
                        <polygon id="Path" points="17.454 40.728 0 40.728 0 0 29.09 0 29.09 29.123"></polygon>
                    </g>
                    <polygon id="Path" fill="#2942D1" points="17.454 40.728 17.454 29.091 29.09 29.091"></polygon>
                    <rect id="Rectangle" fill="#2942D1" x="13.37375" y="25.11643" width="2.32727" height="2.14815"></rect>
                    <path d="M15.7317,23.198 L13.40443,23.1767 L13.44278,18.96704 L14.44832,18.83721 C16.01494,18.63508 18.64321,17.83067 18.64321,14.71448 C18.640923,12.6495125 16.9675474,10.9760743 14.90258,10.97371 L14.90258,8.6464 C18.2522376,8.65023559 20.9666996,11.3647423 20.97048,14.7144 C21.036351,17.8095633 18.8089419,20.4789696 15.75201,20.9684 L15.7317,23.198 Z" id="Path" fill="#2942D1"></path>
                    <path d="M11.16181,14.71444 L8.83454,14.71444 C8.83839748,11.3647753 11.5528753,8.65029748 14.90254,8.64644 L14.90254,10.97371 C12.8375673,10.9760631 11.1641631,12.6494673 11.16181,14.71444 L11.16181,14.71444 Z" id="Path" fill="#2942D1"></path>
                </g>
            </g>
        </g>
    </g>
</svg>