<?xml version="1.0" encoding="UTF-8"?>
<svg width="550px" height="420px" viewBox="0 0 550 420" version="1.1" xmlns="http://www.w3.org/2000/svg" xmlns:xlink="http://www.w3.org/1999/xlink">
    <title>Coverage</title>
    <g id="Coverage" stroke="none" stroke-width="1" fill="none" fill-rule="evenodd">
        <rect fill="#000000" opacity="0" x="0" y="0" width="550" height="420"></rect>
        <g id="Group-5" transform="translate(55.000000, 32.000000)">
            <rect id="Rectangle" fill="#FAFAFB" fill-rule="nonzero" x="0" y="53.2" width="303" height="303" rx="151.5"></rect>
            <g id="Group-2" transform="translate(151.418642, 278.294391) scale(1, -1) translate(-151.418642, -278.294391) translate(62.476333, 234.610663)" opacity="0.441359747" stroke="#DCDCE1" stroke-width="13">
                <path d="M138.504986,87.7781192 C126.164412,74.2491292 108.504357,65.7781192 88.8922338,65.7781192 C70.4303446,65.7781192 53.6982631,73.2846326 41.504986,85.4506119" id="Path"></path>
                <path d="M160.504986,65.7781192 C143.116674,46.1657491 117.560962,33.7781192 89.07202,33.7781192 C63.1351878,33.7781192 39.6295934,44.045731 22.504986,60.6849928" id="Path"></path>
                <path d="M177.504986,35.0181207 C154.428742,13.1783866 123.235855,-0.221880849 88.9030926,-0.221880849 C54.1738483,-0.221880849 22.6574173,13.489672 -0.495013955,35.7781192" id="Path"></path>
            </g>
            <g id="Group-3" transform="translate(230.000000, 0.000000)">
                <path d="M0,0 L210,0 L210,265 L40,265 C17.90861,265 2.705415e-15,247.09139 0,225 L0,0 L0,0 Z" id="Rectangle" fill="#A1AEE9"></path>
                <path d="M9,10 L198,10 L198,254 L37,254 C21.536027,254 9,241.463973 9,226 L9,10 L9,10 Z" id="Rectangle" fill="#FFFFFF"></path>
                <circle id="Oval" fill="#848495" opacity="0.11265346" cx="160" cy="220" r="26"></circle>
                <g id="Group-7" transform="translate(36.000000, 73.000000)">
                    <rect id="Rectangle" fill="#222222" x="0" y="0" width="25.5540543" height="5" rx="2.5"></rect>
                    <rect id="Rectangle" fill="#848495" opacity="0.59736101" x="33.783783" y="0" width="102.216217" height="5"></rect>
                </g>
                <g id="Group-7" transform="translate(36.000000, 94.000000)">
                    <rect id="Rectangle" fill="#222222" x="0" y="0" width="25.5540543" height="5" rx="2.5"></rect>
                    <rect id="Rectangle" fill="#848495" opacity="0.59736101" x="33.783783" y="0" width="102.216217" height="5"></rect>
                </g>
                <g id="Group-7" transform="translate(36.000000, 116.000000)">
                    <rect id="Rectangle" fill="#222222" x="0" y="0" width="25.5540543" height="5" rx="2.5"></rect>
                    <rect id="Rectangle" fill="#848495" opacity="0.59736101" x="33.783783" y="0" width="102.216217" height="5"></rect>
                </g>
                <g id="Group-7-Copy" transform="translate(36.000000, 137.000000)">
                    <rect id="Rectangle" fill="#222222" x="0" y="0" width="25.5540543" height="5" rx="2.5"></rect>
                    <rect id="Rectangle" fill="#848495" opacity="0.59736101" x="33.783783" y="0" width="102.216217" height="5"></rect>
                </g>
                <g id="Group-7-Copy-2" transform="translate(36.000000, 173.000000)">
                    <rect id="Rectangle" fill="#222222" x="0" y="0" width="25.5540543" height="5" rx="2.5"></rect>
                    <rect id="Rectangle" fill="#848495" opacity="0.59736101" x="33.783783" y="0" width="102.216217" height="5"></rect>
                </g>
                <g id="Group-7-Copy-2" transform="translate(36.000000, 195.000000)" fill="#848495" opacity="0.59736101">
                    <rect id="Rectangle" x="0" y="0" width="76" height="5"></rect>
                </g>
                <g id="Insurance" transform="translate(66.000000, 45.000000)" fill="#2942D1" fill-rule="nonzero">
                    <polygon id="Path" points="1.78705212 0 1.78705212 10.859375 0 10.859375 0 0"></polygon>
                    <path d="M8.4963355,2.109375 C9.17562432,2.109375 9.78437161,2.25 10.3225774,2.53125 C10.8607831,2.8125 11.2814197,3.22916667 11.584487,3.78125 C11.8875543,4.33333333 12.0390879,5 12.0390879,5.78125 L12.0390879,10.859375 L10.2677117,10.859375 L10.2677117,6.046875 C10.2677117,5.27604167 10.0743757,4.68489583 9.68770358,4.2734375 C9.30103149,3.86197917 8.77327633,3.65625 8.10443811,3.65625 C7.43559989,3.65625 6.90523208,3.86197917 6.51333469,4.2734375 C6.1214373,4.68489583 5.9254886,5.27604167 5.9254886,6.046875 L5.9254886,10.859375 L4.13843648,10.859375 L4.13843648,2.25 L5.9254886,2.25 L5.9254886,3.234375 C6.21810532,2.88020833 6.59171417,2.60416667 7.04631515,2.40625 C7.50091612,2.20833333 7.98425624,2.109375 8.4963355,2.109375 Z" id="Path"></path>
                    <path d="M17.447272,11 C16.7679832,11 16.1592359,10.8776042 15.6210301,10.6328125 C15.0828244,10.3880208 14.6569625,10.0546875 14.3434446,9.6328125 C14.0299267,9.2109375 13.8627172,8.73958333 13.841816,8.21875 L15.6915717,8.21875 C15.7229235,8.58333333 15.897971,8.88802083 16.2167142,9.1328125 C16.5354574,9.37760417 16.9351927,9.5 17.4159202,9.5 C17.9175489,9.5 18.3068336,9.40364583 18.5837744,9.2109375 C18.8607153,9.01822917 18.9991857,8.77083333 18.9991857,8.46875 C18.9991857,8.14583333 18.8450394,7.90625 18.5367467,7.75 C18.2284541,7.59375 17.7398887,7.421875 17.0710505,7.234375 C16.4231135,7.05729167 15.8953583,6.88541667 15.487785,6.71875 C15.0802117,6.55208333 14.7275041,6.296875 14.4296621,5.953125 C14.13182,5.609375 13.982899,5.15625 13.982899,4.59375 C13.982899,4.13541667 14.1187568,3.71614583 14.3904723,3.3359375 C14.6621878,2.95572917 15.0514726,2.65625 15.5583265,2.4375 C16.0651805,2.21875 16.6478013,2.109375 17.3061889,2.109375 C18.2885451,2.109375 19.0801778,2.35677083 19.6810871,2.8515625 C20.2819965,3.34635417 20.6033523,4.02083333 20.6451547,4.875 L18.8581026,4.875 C18.8267508,4.48958333 18.6699919,4.18229167 18.3878257,3.953125 C18.1056596,3.72395833 17.7242128,3.609375 17.2434853,3.609375 C16.7732085,3.609375 16.4126629,3.69791667 16.1618485,3.875 C15.9110342,4.05208333 15.785627,4.28645833 15.785627,4.578125 C15.785627,4.80729167 15.8692318,5 16.0364414,5.15625 C16.2036509,5.3125 16.4074376,5.43489583 16.6478013,5.5234375 C16.888165,5.61197917 17.2434853,5.72395833 17.7137622,5.859375 C18.340798,6.02604167 18.85549,6.1953125 19.2578379,6.3671875 C19.6601859,6.5390625 20.0076683,6.79166667 20.300285,7.125 C20.5929017,7.45833333 20.7444354,7.90104167 20.754886,8.453125 C20.754886,8.94270833 20.6190282,9.38020833 20.3473127,9.765625 C20.0755972,10.1510417 19.6915377,10.453125 19.1951344,10.671875 C18.698731,10.890625 18.1161102,11 17.447272,11 Z" id="Path"></path>
                    <path d="M30.5052932,2.25 L30.5052932,10.859375 L28.718241,10.859375 L28.718241,9.84375 C28.4360749,10.1979167 28.0676914,10.4765625 27.6130904,10.6796875 C27.1584894,10.8828125 26.6751493,10.984375 26.16307,10.984375 C25.4837812,10.984375 24.8750339,10.84375 24.3368282,10.5625 C23.7986224,10.28125 23.3753732,9.86458333 23.0670806,9.3125 C22.758788,8.76041667 22.6046417,8.09375 22.6046417,7.3125 L22.6046417,2.25 L24.3760179,2.25 L24.3760179,7.046875 C24.3760179,7.81770833 24.569354,8.40885417 24.9560261,8.8203125 C25.3426982,9.23177083 25.8704533,9.4375 26.5392915,9.4375 C27.2081298,9.4375 27.7384976,9.23177083 28.130395,8.8203125 C28.5222923,8.40885417 28.718241,7.81770833 28.718241,7.046875 L28.718241,2.25 L30.5052932,2.25 Z" id="Path"></path>
                    <path d="M34.6437296,3.5 C34.9049946,3.0625 35.2524769,2.72135417 35.6861767,2.4765625 C36.1198765,2.23177083 36.6345684,2.109375 37.2302524,2.109375 L37.2302524,3.953125 L36.7756515,3.953125 C36.0754615,3.953125 35.5450936,4.13020833 35.184548,4.484375 C34.8240024,4.83854167 34.6437296,5.453125 34.6437296,6.328125 L34.6437296,10.859375 L32.8566775,10.859375 L32.8566775,2.25 L34.6437296,2.25 L34.6437296,3.5 Z" id="Path"></path>
                    <path d="M38.2805375,6.515625 C38.2805375,5.65104167 38.4608103,4.88541667 38.8213559,4.21875 C39.1819015,3.55208333 39.6730795,3.03385417 40.2948901,2.6640625 C40.9167006,2.29427083 41.6038274,2.109375 42.3562704,2.109375 C43.0355592,2.109375 43.6286306,2.2421875 44.1354845,2.5078125 C44.6423385,2.7734375 45.0472991,3.10416667 45.3503664,3.5 L45.3503664,2.25 L47.1530945,2.25 L47.1530945,10.859375 L45.3503664,10.859375 L45.3503664,9.578125 C45.0472991,9.984375 44.6345005,10.3229167 44.1119707,10.59375 C43.5894408,10.8645833 42.9937568,11 42.3249186,11 C41.5829262,11 40.9036374,10.8098958 40.2870521,10.4296875 C39.6704669,10.0494792 39.1819015,9.51822917 38.8213559,8.8359375 C38.4608103,8.15364583 38.2805375,7.38020833 38.2805375,6.515625 Z M45.3503664,6.546875 C45.3503664,5.953125 45.2275719,5.4375 44.9819829,5 C44.7363939,4.5625 44.415038,4.22916667 44.0179153,4 C43.6207926,3.77083333 43.1923181,3.65625 42.7324919,3.65625 C42.2726656,3.65625 41.8441911,3.76822917 41.4470684,3.9921875 C41.0499457,4.21614583 40.7285898,4.54427083 40.4830008,4.9765625 C40.2374118,5.40885417 40.1146173,5.921875 40.1146173,6.515625 C40.1146173,7.109375 40.2374118,7.63020833 40.4830008,8.078125 C40.7285898,8.52604167 41.0525584,8.8671875 41.4549064,9.1015625 C41.8572543,9.3359375 42.2831162,9.453125 42.7324919,9.453125 C43.1923181,9.453125 43.6207926,9.33854167 44.0179153,9.109375 C44.415038,8.88020833 44.7363939,8.54427083 44.9819829,8.1015625 C45.2275719,7.65885417 45.3503664,7.140625 45.3503664,6.546875 Z" id="Shape"></path>
                    <path d="M53.8623779,2.109375 C54.5416667,2.109375 55.150414,2.25 55.6886197,2.53125 C56.2268255,2.8125 56.647462,3.22916667 56.9505293,3.78125 C57.2535966,4.33333333 57.4051303,5 57.4051303,5.78125 L57.4051303,10.859375 L55.6337541,10.859375 L55.6337541,6.046875 C55.6337541,5.27604167 55.440418,4.68489583 55.0537459,4.2734375 C54.6670738,3.86197917 54.1393187,3.65625 53.4704805,3.65625 C52.8016422,3.65625 52.2712744,3.86197917 51.879377,4.2734375 C51.4874796,4.68489583 51.2915309,5.27604167 51.2915309,6.046875 L51.2915309,10.859375 L49.5044788,10.859375 L49.5044788,2.25 L51.2915309,2.25 L51.2915309,3.234375 C51.5841477,2.88020833 51.9577565,2.60416667 52.4123575,2.40625 C52.8669585,2.20833333 53.3502986,2.109375 53.8623779,2.109375 Z" id="Path"></path>
                    <path d="M59.0824511,6.546875 C59.0824511,5.66145833 59.2627239,4.8828125 59.6232695,4.2109375 C59.9838151,3.5390625 60.4828312,3.02083333 61.1203176,2.65625 C61.757804,2.29166667 62.4893458,2.109375 63.314943,2.109375 C64.3600027,2.109375 65.2247896,2.35677083 65.9093037,2.8515625 C66.5938179,3.34635417 67.0562568,4.05208333 67.2966205,4.96875 L65.3684853,4.96875 C65.2117264,4.54166667 64.9609121,4.20833333 64.6160423,3.96875 C64.2711726,3.72916667 63.8374729,3.609375 63.314943,3.609375 C62.5834012,3.609375 62.0007804,3.8671875 61.5670806,4.3828125 C61.1333808,4.8984375 60.9165309,5.61979167 60.9165309,6.546875 C60.9165309,7.47395833 61.1333808,8.19791667 61.5670806,8.71875 C62.0007804,9.23958333 62.5834012,9.5 63.314943,9.5 C64.3495521,9.5 65.0340662,9.046875 65.3684853,8.140625 L67.2966205,8.140625 C67.0458062,9.015625 66.5755293,9.7109375 65.8857899,10.2265625 C65.1960505,10.7421875 64.3391015,11 63.314943,11 C62.4893458,11 61.757804,10.8151042 61.1203176,10.4453125 C60.4828312,10.0755208 59.9838151,9.5546875 59.6232695,8.8828125 C59.2627239,8.2109375 59.0824511,7.43229167 59.0824511,6.546875 Z" id="Path"></path>
                    <path d="M77,6.34375 C77,6.66666667 76.9790988,6.95833333 76.9372964,7.21875 L70.3377443,7.21875 C70.3899973,7.90625 70.6460369,8.45833333 71.1058632,8.875 C71.5656895,9.29166667 72.1300217,9.5 72.7988599,9.5 C73.7603149,9.5 74.4396037,9.09895833 74.8367264,8.296875 L76.7648616,8.296875 C76.5035966,9.08854167 76.0307071,9.73697917 75.346193,10.2421875 C74.6616789,10.7473958 73.8125679,11 72.7988599,11 C71.9732628,11 71.233883,10.8151042 70.5807207,10.4453125 C69.9275584,10.0755208 69.4154791,9.5546875 69.0444829,8.8828125 C68.6734867,8.2109375 68.4879886,7.43229167 68.4879886,6.546875 C68.4879886,5.66145833 68.6682614,4.8828125 69.028807,4.2109375 C69.3893526,3.5390625 69.8962066,3.02083333 70.5493689,2.65625 C71.2025312,2.29166667 71.9523616,2.109375 72.7988599,2.109375 C73.6140065,2.109375 74.340323,2.28645833 74.9778094,2.640625 C75.6152959,2.99479167 76.1116992,3.4921875 76.4670195,4.1328125 C76.8223398,4.7734375 77,5.51041667 77,6.34375 Z M75.1345684,5.78125 C75.1241178,5.125 74.8889794,4.59895833 74.4291531,4.203125 C73.9693268,3.80729167 73.3997693,3.609375 72.7204805,3.609375 C72.1038952,3.609375 71.5761401,3.8046875 71.137215,4.1953125 C70.6982899,4.5859375 70.437025,5.11458333 70.3534202,5.78125 L75.1345684,5.78125 Z" id="Shape"></path>
                </g>
                <polyline id="Path-3" stroke="#2942D1" stroke-width="3" stroke-linecap="round" stroke-linejoin="round" transform="translate(160.406629, 217.154055) rotate(-45.000000) translate(-160.406629, -217.154055) " points="150.66733 211.52497 150.66733 222.78314 170.145928 222.78314"></polyline>
            </g>
            <g id="03-1-03-engineering" transform="translate(50.981319, 75.200000)" fill-rule="nonzero">
                <g id="Слой_1">
                    <polygon id="Path" fill="#2942D1" points="173.476793 162.894169 173.476793 87.5206156 28.91694 87.5206156 28.91694 162.894169 0 162.894169 0 174.533173 28.91694 174.533173 173.476793 174.533173 202.393733 174.533173 202.393733 162.894169"></polygon>
                    <g id="Group" opacity="0.3" transform="translate(0.000000, 87.520616)" fill="#FFFFFF">
                        <polygon id="Path" points="173.476793 75.3735529 173.476793 0 28.91694 0 28.91694 75.3735529 0 75.3735529 0 87.0125574 28.91694 87.0125574 173.476793 87.0125574 202.393733 87.0125574 202.393733 75.3735529"></polygon>
                    </g>
                    <polygon id="Path" fill="#2942D1" points="79.6445777 162.894169 84.26612 145.440661 52.456989 87.2656374 7.23047736 87.2656374 7.23047736 109.083771 0 123.627527 0 162.894169"></polygon>
                    <g id="Group" opacity="0.6" transform="translate(0.000000, 87.265637)" fill="#FFFFFF">
                        <polygon id="Path" points="79.6445777 75.6285311 84.26612 58.175024 52.456989 0 7.23047736 0 7.23047736 21.8181338 0 36.3618898 0 75.6285311"></polygon>
                    </g>
                    <polygon id="Path" fill="#2942D1" points="123.355422 162.894169 118.73388 145.440661 150.543011 87.2656374 195.774492 87.2656374 195.774492 109.083771 203 123.627527 203 162.894169"></polygon>
                    <g id="Group" opacity="0.6" transform="translate(118.733880, 87.265637)" fill="#FFFFFF">
                        <polygon id="Path" points="4.62154223 75.6285311 0 58.175024 31.809131 0 77.040612 0 77.040612 21.8181338 84.26612 36.3618898 84.26612 75.6285311"></polygon>
                    </g>
                    <g id="Group-4" transform="translate(65.631366, 0.000000)" fill="#2942D1">
                        <path d="M35.5655006,29.0884636 C29.6864774,29.0909523 24.1007237,31.672213 20.2683449,36.157509 L28.4184595,44.516144 C30.0327792,42.1428901 32.7071018,40.7238848 35.5655255,40.7238848 C38.4239491,40.7238848 41.0982717,42.1428901 42.7125914,44.516144 L50.862706,36.1578589 C47.0304954,31.6722665 41.4446376,29.0908383 35.5655006,29.0884636 Z" id="Path"></path>
                        <path d="M35.5655006,0 C22.1159535,-0.00351830737 9.25613382,5.55455932 -1.13686838e-13,15.3715869 L8.09753831,23.6758766 C15.1933311,15.9974432 25.1446082,11.6353535 35.5656994,11.6353535 C45.9867906,11.6353535 55.9380677,15.9974432 63.0338605,23.6758766 L71.1310012,15.3715869 C61.8748811,5.55453955 49.0150526,-0.003541905 35.5655006,0 L35.5655006,0 Z" id="Path"></path>
                    </g>
                    <path d="M188.243316,82.4133025 L188.243316,87.2712369 L14.7657777,87.2712369 L14.7657777,82.4133025 C71.4636671,66.1628258 131.545427,66.1628258 188.243316,82.4133025 L188.243316,82.4133025 Z" id="Path" fill="#2942D1"></path>
                    <g id="Group" opacity="0.6" transform="translate(14.765778, 70.225445)" fill="#FFFFFF">
                        <path d="M173.477539,12.1878575 L173.477539,17.0457919 L0,17.0457919 L0,12.1878575 C56.6978894,-4.06261916 116.779649,-4.06261916 173.477539,12.1878575 L173.477539,12.1878575 Z" id="Path"></path>
                    </g>
                    <rect id="Rectangle" fill="#2942D1" x="0.00163990208" y="81.447735" width="202.390453" height="11.6354048"></rect>
                    <ellipse id="Oval" fill="#2942D1" cx="36.1427958" cy="168.183666" rx="21.6846737" ry="21.8163339"></ellipse>
                    <ellipse id="Oval" fill="#2942D1" cx="166.250937" cy="168.183666" rx="21.6846737" ry="21.8163339"></ellipse>
                </g>
            </g>
        </g>
    </g>
</svg>