<?xml version="1.0" encoding="UTF-8"?>
<svg width="550px" height="420px" viewBox="0 0 550 420" version="1.1" xmlns="http://www.w3.org/2000/svg" xmlns:xlink="http://www.w3.org/1999/xlink">
    <title>Impact</title>
    <defs>
        <path d="M0.00221361054,10.390272 C1.57381386,53.7896348 -6.60848586,75.8617914 41.462525,87 C89.5460089,75.9098527 81.3761822,53.8256808 82.9976746,10.426318 C83.5090683,-3.45138526 -0.496707104,-3.48743125 0.00221361054,10.390272" id="path-1"></path>
        <linearGradient x1="100%" y1="50%" x2="0%" y2="50%" id="linearGradient-3">
            <stop stop-color="#A1AEE9" offset="0%"></stop>
            <stop stop-color="#A1AEE9" stop-opacity="0" offset="100%"></stop>
        </linearGradient>
    </defs>
    <g id="Impact" stroke="none" stroke-width="1" fill="none" fill-rule="evenodd">
        <rect fill="#000000" opacity="0" x="0" y="0" width="550" height="420"></rect>
        <g id="Group-2" transform="translate(78.000000, 13.000000)">
            <g id="Group-8">
                <circle id="Oval" fill="#FAFAFB" cx="197" cy="197" r="197"></circle>
                <circle id="Oval" fill="#F2F3F9" cx="197" cy="197" r="162"></circle>
                <ellipse id="Oval" fill="#EAECF6" cx="197.239437" cy="196.56338" rx="118.239437" ry="118.56338"></ellipse>
                <circle id="Oval" fill="#E5E7F2" cx="196.577465" cy="196.577465" r="83.5774648"></circle>
            </g>
            <g id="Group-4" transform="translate(360.565501, 197.258072) scale(-1, 1) rotate(-88.000000) translate(-360.565501, -197.258072) translate(325.000000, 175.000000)" fill="#2942D1" fill-rule="nonzero">
                <path d="M35.5655006,29.0884636 C29.6864774,29.0909523 24.1007237,31.672213 20.2683449,36.157509 L28.4184595,44.516144 C30.0327792,42.1428901 32.7071018,40.7238848 35.5655255,40.7238848 C38.4239491,40.7238848 41.0982717,42.1428901 42.7125914,44.516144 L50.862706,36.1578589 C47.0304954,31.6722665 41.4446376,29.0908383 35.5655006,29.0884636 Z" id="Path"></path>
                <path d="M35.5655006,0 C22.1159535,-0.00351830737 9.25613382,5.55455932 -1.13686838e-13,15.3715869 L8.09753831,23.6758766 C15.1933311,15.9974432 25.1446082,11.6353535 35.5656994,11.6353535 C45.9867906,11.6353535 55.9380677,15.9974432 63.0338605,23.6758766 L71.1310012,15.3715869 C61.8748811,5.55453955 49.0150526,-0.003541905 35.5655006,0 L35.5655006,0 Z" id="Path"></path>
            </g>
            <g id="Group" transform="translate(116.000000, 190.000000)" fill="#2942D1">
                <rect id="Rectangle" fill-rule="nonzero" x="20" y="138" width="129" height="20"></rect>
                <rect id="Rectangle" fill-rule="nonzero" x="20" y="165" width="129" height="8"></rect>
                <path d="M87.3725992,129 L126.802768,129 L130.284917,117.855882 C152.653196,102.824914 164.762372,91.6655345 166.612445,84.3777432 C168.357416,77.5039682 168.456547,52.0924283 166.909838,8.14312355 C166.749926,3.60020193 163.020793,-8.90988589e-15 158.475058,0 C153.831963,-7.39487035e-15 149.921077,3.46937038 149.367523,8.0793493 L144.860435,45.6141855 L144.860435,45.6141855 L141.225456,70.7744084 C129.247156,83.3142406 122.424703,90.3980177 120.758097,92.0257396 C119.091491,93.6534615 116.935793,93.6534615 114.291004,92.0257396 L134.545099,71.3270102 C138.074459,67.7201708 138.011649,61.9351382 134.40481,58.4057782 C134.308262,58.3113042 134.209631,58.2189828 134.108989,58.1288821 C130.169686,54.602165 124.123316,54.9125449 120.565843,58.8240959 L94.8645144,87.0835005 C88.5683831,94.0062912 85.4038169,103.217987 86.1163201,112.548509 L87.3725992,129 L87.3725992,129 Z" id="Path-5"></path>
                <path d="M2.37259919,129 L41.8027684,129 L45.2849167,117.855882 C67.6531961,102.824914 79.7623723,91.6655345 81.6124453,84.3777432 C83.3574164,77.5039682 83.4565475,52.0924283 81.9098384,8.14312355 C81.7499259,3.60020193 78.0207932,-8.90988589e-15 73.475058,0 C68.8319633,-7.39487035e-15 64.9210775,3.46937038 64.3675228,8.0793493 L59.8604347,45.6141855 L59.8604347,45.6141855 L56.2254561,70.7744084 C44.2471557,83.3142406 37.4247026,90.3980177 35.7580968,92.0257396 C34.091491,93.6534615 31.9357932,93.6534615 29.2910035,92.0257396 L49.5450985,71.3270102 C53.0744585,67.7201708 53.0116491,61.9351382 49.4048097,58.4057782 C49.3082617,58.3113042 49.2096306,58.2189828 49.1089892,58.1288821 C45.169686,54.602165 39.123316,54.9125449 35.5658434,58.8240959 L9.86451443,87.0835005 C3.5683831,94.0062912 0.403816914,103.217987 1.1163201,112.548509 L2.37259919,129 L2.37259919,129 Z" id="Path-5" transform="translate(41.500000, 64.500000) scale(-1, 1) translate(-41.500000, -64.500000) "></path>
            </g>
            <g id="Group-17" transform="translate(156.000000, 146.000000)">
                <g id="Fill-2707">
                    <mask id="mask-2" fill="white">
                        <use xlink:href="#path-1"></use>
                    </mask>
                    <use id="Mask" fill="#697BDE" xlink:href="#path-1"></use>
                    <path d="M41.5252356,43.5 L41.5,87 L41.5126178,87 C76.3630283,79.2476409 82.0031925,65.9830143 83,43.5 L41.5252356,43.5" fill="#A1AEE9" mask="url(#mask-2)"></path>
                </g>
                <path d="M0.0022399546,10.7788406 C0.456679198,23.5389558 0.115849765,34.5171409 0.507172447,43.9626168 L41.9747534,44 L42,0 C20.8811985,-0.0124287117 -0.250226292,3.5763537 0.0022399546,10.7788406" id="Fill-2708" fill="#A1AEE9"></path>
            </g>
            <path d="M213.321192,40 L257.964275,83.3645201 L213.494031,126.72904 L213.45,104.865 L137,104.865832 L137,61.8658322 L213.365,61.865 L213.321192,40 Z" id="Scheme-arrow-Copy" fill="url(#linearGradient-3)" transform="translate(197.482138, 83.364520) scale(-1, -1) rotate(90.000000) translate(-197.482138, -83.364520) "></path>
            <circle id="Oval" fill="#222222" cx="197.5" cy="81.5" r="2.5"></circle>
            <circle id="Oval" fill="#222222" cx="188.5" cy="105.5" r="2.5"></circle>
            <circle id="Oval" fill="#222222" cx="209.5" cy="118.5" r="2.5"></circle>
            <g id="Group-4" transform="translate(33.565501, 197.258072) rotate(-88.000000) translate(-33.565501, -197.258072) translate(-2.000000, 175.000000)" fill="#2942D1" fill-rule="nonzero">
                <path d="M35.5655006,29.0884636 C29.6864774,29.0909523 24.1007237,31.672213 20.2683449,36.157509 L28.4184595,44.516144 C30.0327792,42.1428901 32.7071018,40.7238848 35.5655255,40.7238848 C38.4239491,40.7238848 41.0982717,42.1428901 42.7125914,44.516144 L50.862706,36.1578589 C47.0304954,31.6722665 41.4446376,29.0908383 35.5655006,29.0884636 Z" id="Path"></path>
                <path d="M35.5655006,0 C22.1159535,-0.00351830737 9.25613382,5.55455932 -1.13686838e-13,15.3715869 L8.09753831,23.6758766 C15.1933311,15.9974432 25.1446082,11.6353535 35.5656994,11.6353535 C45.9867906,11.6353535 55.9380677,15.9974432 63.0338605,23.6758766 L71.1310012,15.3715869 C61.8748811,5.55453955 49.0150526,-0.003541905 35.5655006,0 L35.5655006,0 Z" id="Path"></path>
            </g>
        </g>
    </g>
</svg>