<?xml version="1.0" encoding="UTF-8"?>
<svg width="550px" height="420px" viewBox="0 0 550 420" version="1.1" xmlns="http://www.w3.org/2000/svg" xmlns:xlink="http://www.w3.org/1999/xlink">
    <title>Technology</title>
    <defs>
        <path d="M26.9754829,0 C41.8736307,0 53.9509658,12.0970639 53.9509658,27.0195484 C53.9509658,41.9420329 41.8736307,54.0390968 26.9754829,54.0390968 C12.0773351,54.0390968 0,41.9420329 0,27.0195484 C0,12.0970639 12.0773351,0 26.9754829,0 Z M26.9754829,11.3620665 C18.3421972,11.3620665 11.3435364,18.3721599 11.3435364,27.0195484 C11.3435364,35.6669369 18.3421972,42.6770303 26.9754829,42.6770303 C35.6087686,42.6770303 42.6074294,35.6669369 42.6074294,27.0195484 C42.6074294,18.3721599 35.6087686,11.3620665 26.9754829,11.3620665 Z" id="path-1"></path>
        <linearGradient x1="100%" y1="50%" x2="0%" y2="50%" id="linearGradient-3">
            <stop stop-color="#848495" offset="0%"></stop>
            <stop stop-color="#848495" stop-opacity="0" offset="100%"></stop>
        </linearGradient>
    </defs>
    <g id="Technology" stroke="none" stroke-width="1" fill="none" fill-rule="evenodd">
        <rect fill="#000000" opacity="0" x="0" y="0" width="550" height="420"></rect>
        <g id="Group-10" transform="translate(48.000000, 13.000000)">
            <g id="Group-8" transform="translate(54.000000, 0.000000)">
                <circle id="Oval" fill="#FAFAFB" cx="197" cy="197" r="197"></circle>
                <circle id="Oval" fill="#F2F3F9" cx="197" cy="197" r="162"></circle>
                <ellipse id="Oval" fill="#EAECF6" cx="197.239437" cy="196.56338" rx="118.239437" ry="118.56338"></ellipse>
                <circle id="Oval" fill="#E5E7F2" cx="196.577465" cy="196.577465" r="83.5774648"></circle>
            </g>
            <g id="Слой_1" transform="translate(167.000000, 84.000000)">
                <path d="M277.062503,0 L8.9376039,0 C6.56722224,0 4.29391571,1.0036158 2.61780276,2.79015423 C0.941689815,4.57669266 0.000107249961,6.99976891 0.000107249961,9.52631579 L0.000107249961,181 L286,181 L286,9.52631579 C286,6.99977046 285.058411,4.57669715 283.382299,2.79015981 C281.706187,1.00362248 279.432884,0 277.062503,0 Z" id="Path" fill="#2942D1" fill-rule="nonzero"></path>
                <g id="Group" opacity="0.6" transform="translate(0.000107, 0.000000)" fill="#FFFFFF" fill-rule="nonzero">
                    <path d="M277.062396,0 L8.93749665,0 C6.56711499,0 4.29380846,1.0036158 2.61769551,2.79015423 C0.941582565,4.57669266 0,6.99976891 0,9.52631579 L0,181 L285.999893,181 L285.999893,9.52631579 C285.999893,6.99977046 285.058304,4.57669715 283.382192,2.79015981 C281.70608,1.00362248 279.432776,0 277.062396,0 Z" id="Path"></path>
                </g>
                <line x1="214.49992" y1="225.605738" x2="71.4999732" y2="225.605738" id="Path" stroke="#2942D1" stroke-width="3.81818182" stroke-linejoin="round"></line>
                <rect id="Rectangle" fill="#2942D1" fill-rule="nonzero" x="89.3749665" y="175.605738" width="107.24996" height="50"></rect>
                <rect id="Rectangle" fill="#2942D1" fill-rule="nonzero" x="0" y="173.921076" width="285.999893" height="16"></rect>
            </g>
            <g id="Group-13" transform="translate(176.105498, 93.497855)">
                <rect id="Rectangle" fill="#FFFFFF" x="0" y="0.1375" width="52" height="153"></rect>
                <rect id="Rectangle" fill="#848495" opacity="0.59736101" x="11.3997028" y="44.22" width="29.7280832" height="3.675"></rect>
                <rect id="Rectangle" fill="#848495" opacity="0.59736101" x="11.3997028" y="57.0825" width="29.7280832" height="3.675"></rect>
                <rect id="Rectangle" fill="#848495" opacity="0.59736101" x="11.3997028" y="69.945" width="29.7280832" height="3.675"></rect>
                <rect id="Rectangle" fill="#848495" opacity="0.59736101" x="11.3997028" y="82.8075" width="29.7280832" height="3.675"></rect>
                <rect id="Rectangle" fill="#848495" opacity="0.59736101" x="11.3997028" y="95.67" width="29.7280832" height="3.675"></rect>
                <rect id="Rectangle" fill="#222222" x="11.3997028" y="119.925" width="29.7280832" height="9.1875" rx="4.59375"></rect>
                <rect id="Rectangle" fill="#FFFFFF" x="57.5052006" y="0" width="210" height="153"></rect>
                <rect id="Rectangle" fill="#848495" opacity="0.59736101" x="72.1857355" y="22.17" width="131.757801" height="3.675"></rect>
                <rect id="Rectangle" fill="#848495" opacity="0.59736101" x="72.1857355" y="30.99" width="72.3016345" height="3.675"></rect>
                <ellipse id="Oval" fill="#848495" opacity="0.59736101" cx="26.6307578" cy="25.29375" rx="6.7897474" ry="6.79875"></ellipse>
                <path d="M146.322437,94.2 L257.894502,94.2 L257.894502,146.2 L160.322437,146.2 C152.59045,146.2 146.322437,139.931986 146.322437,132.2 L146.322437,94.2 L146.322437,94.2 Z" id="Rectangle" fill="#2942D1"></path>
                <g id="Group-7" transform="translate(162.471025, 111.105000)" fill="#FFFFFF">
                    <rect id="Rectangle" x="64.9854072" y="0" width="15.0235081" height="4.0425" rx="2.02125"></rect>
                    <rect id="Rectangle" opacity="0.6" x="0" y="0.67375" width="60.0940325" height="2.695"></rect>
                </g>
                <g id="Group-7" transform="translate(162.471025, 122.130000)" fill="#FFFFFF">
                    <rect id="Rectangle" x="64.9854072" y="0" width="15.0235081" height="4.0425" rx="2.02125"></rect>
                    <rect id="Rectangle" opacity="0.6" x="0" y="0.67375" width="60.0940325" height="2.695"></rect>
                </g>
                <g id="Group-7" transform="translate(162.471025, 132.787500)" fill="#FFFFFF">
                    <rect id="Rectangle" x="64.9854072" y="0" width="15.0235081" height="4.0425" rx="2.02125"></rect>
                    <rect id="Rectangle" opacity="0.6" x="0" y="0.67375" width="60.0940325" height="2.695"></rect>
                </g>
                <g id="Group-3" transform="translate(72.185736, 112.575000)" fill="#848495">
                    <ellipse id="Oval" opacity="0.6" cx="1.57533432" cy="1.65375" rx="1.57533432" ry="1.65375"></ellipse>
                    <rect id="Rectangle" opacity="0.59736101" x="5.25111441" y="0.735" width="17.5037147" height="2.205"></rect>
                </g>
                <g id="Group-4" transform="translate(72.185736, 121.027500)">
                    <ellipse id="Oval" fill="#222222" cx="1.57533432" cy="1.65375" rx="1.57533432" ry="1.65375"></ellipse>
                    <rect id="Rectangle" fill="#848495" opacity="0.59736101" x="5.25111441" y="0.735" width="17.5037147" height="2.205"></rect>
                </g>
                <g id="Group-5" transform="translate(101.546805, 112.575000)" fill="#848495">
                    <ellipse id="Oval" opacity="0.283959" cx="1.57533432" cy="1.65375" rx="1.57533432" ry="1.65375"></ellipse>
                    <rect id="Rectangle" opacity="0.59736101" x="5.25111441" y="0.735" width="17.5037147" height="2.205"></rect>
                </g>
                <g id="Group-6" transform="translate(101.546805, 121.027500)">
                    <ellipse id="Oval" fill="#F2F2F2" cx="1.57533432" cy="1.65375" rx="1.57533432" ry="1.65375"></ellipse>
                    <rect id="Rectangle" fill="#848495" opacity="0.59736101" x="5.25111441" y="0.735" width="17.5037147" height="2.205"></rect>
                </g>
                <g id="Group" transform="translate(147.137852, 49.065623)">
                    <path d="M59.4408141,-23.4724952 L23.4724952,-23.4724952 C38.5621591,-13.5029157 43.2145631,-2.42432095 37.4297074,9.76328907 C31.4902116,22.2766967 27.3173691,26.8895784 27.0075618,33.0329354 C26.8647573,35.8646923 26.5827904,38.4981215 29.0436077,43.3165843 C32.9113097,50.8898314 43.0437118,56.2645747 59.4408141,59.4408141" id="Path" fill="#848495" opacity="0.109170603" transform="translate(41.456655, 17.984159) rotate(90.000000) translate(-41.456655, -17.984159) "></path>
                    <path d="M23.4724952,-23.4724952 C38.5621591,-13.5029157 43.2145631,-2.42432095 37.4297074,9.76328907 C31.4902116,22.2766967 27.3173691,26.8895784 27.0075618,33.0329354 C26.8647573,35.8646923 26.5827904,38.4981215 29.0436077,43.3165843 C32.9113097,50.8898314 43.0437118,56.2645747 59.4408141,59.4408141" id="Path" stroke="#222222" stroke-width="2" transform="translate(41.456655, 17.984159) rotate(90.000000) translate(-41.456655, -17.984159) "></path>
                    <ellipse id="Oval" fill="#222222" cx="3.36896519" cy="23.1625053" rx="2" ry="1.99874967"></ellipse>
                    <ellipse id="Oval" fill="#222222" cx="17.6614016" cy="4.93468711" rx="2" ry="1.99874967"></ellipse>
                    <ellipse id="Oval" fill="#222222" cx="42.2024184" cy="10.3764257" rx="2" ry="1.99874967"></ellipse>
                    <ellipse id="Oval" fill="#222222" cx="63.3433163" cy="16.0782135" rx="2" ry="1.99874967"></ellipse>
                </g>
                <g id="Path-8" transform="translate(71.819541, 49.505703)">
                    <mask id="mask-2" fill="white">
                        <use xlink:href="#path-1"></use>
                    </mask>
                    <use id="Combined-Shape" fill="#F2F2F2" xlink:href="#path-1"></use>
                    <polygon fill="#848495" opacity="0.6" mask="url(#mask-2)" points="26.274821 26.5529439 26.274821 -4.56174194 73.9198298 14.9787748 53.3616336 50.8809677"></polygon>
                    <polygon id="Path-9" fill="#222222" mask="url(#mask-2)" points="26.4058391 27.0195484 53.2503039 49.0663966 29.868171 58.9517419 2.45231663 54.3184209"></polygon>
                    <polygon id="Path-10" fill="#848495" opacity="0.283959" mask="url(#mask-2)" points="26.274821 27.3704516 -4.20397136 22.1660699 4.95562428 0.331094173 26.274821 -7.01806452"></polygon>
                </g>
                <rect id="Rectangle" fill="#2942D1" x="217.890045" y="39.81" width="40.0044577" height="11.3925"></rect>
                <g id="Group-6" transform="translate(223.028232, 43.852500)">
                    <ellipse id="Oval" fill="#FFFFFF" cx="1.57474343" cy="1.65375" rx="1.57474343" ry="1.65375"></ellipse>
                    <rect id="Rectangle" fill="#A1AEE9" opacity="0.59736101" x="5.94903072" y="0.735" width="24.1460659" height="2.205"></rect>
                </g>
            </g>
            <g id="Group-2" transform="translate(0.000000, 132.000000)">
                <g id="Group-9" transform="translate(13.000000, 0.000000)" fill="url(#linearGradient-3)">
                    <path d="M71.5304987,2.66838635e-13 L103,30.4994469 L71.656196,63.0740741 L71.624,47.305 L0,47.3055556 L0,15.7685185 L71.561,15.768 L71.5304987,2.66838635e-13 Z" id="Scheme-arrow-Copy"></path>
                    <path d="M71.5304987,67.9259259 L103,98.4253728 L71.656196,131 L71.624,115.230926 L4.54747351e-13,115.231481 L4.54747351e-13,83.6944444 L71.561,83.6939259 L71.5304987,67.9259259 Z" id="Scheme-arrow-Copy" transform="translate(51.500000, 99.462963) scale(-1, 1) translate(-51.500000, -99.462963) "></path>
                </g>
                <circle id="Oval" fill="#222222" cx="91.5" cy="93.5" r="2.5"></circle>
                <circle id="Oval" fill="#222222" cx="70.5" cy="104.5" r="2.5"></circle>
                <circle id="Oval" fill="#222222" cx="118.5" cy="104.5" r="2.5"></circle>
                <circle id="Oval" fill="#222222" cx="23.5" cy="25.5" r="2.5"></circle>
                <circle id="Oval" fill="#222222" cx="2.5" cy="36.5" r="2.5"></circle>
                <circle id="Oval" fill="#222222" cx="50.5" cy="36.5" r="2.5"></circle>
            </g>
        </g>
    </g>
</svg>