<svg width="64" height="64" viewBox="0 0 64 64" xmlns="http://www.w3.org/2000/svg">
    <g fill="none" fill-rule="evenodd">
        <path d="M63.45 0v63.45H12.088C5.412 63.45 0 58.036 0 51.36V0h63.45z" fill="#DEE2F8"/>
        <path fill="#2942D1" opacity=".08" d="M63.45 32.417v31.032H34.766L9.48 29l.945-8 4.66-5.5 4.242-1.59 1.584-1.72h4.66L37.1 29l2-15.723L55.1 21"/>
        <g>
            <path d="M20.875 11C13.82 11 8.1 16.72 8.1 23.775c0 7.055 5.72 12.775 12.775 12.775h8.275a.5.5 0 0 1 .5.5v8.275c0 7.055 5.72 12.775 12.775 12.775 7.055 0 12.775-5.72 12.775-12.775 0-7.055-5.72-12.775-12.775-12.775H34.15a.5.5 0 0 1-.5-.5v-8.275C33.642 16.723 27.927 11.008 20.875 11zm21.55 43.1a8.784 8.784 0 0 1-8.775-8.775V37.05a.5.5 0 0 1 .5-.5h8.275a8.775 8.775 0 1 1 0 17.55zM29.15 32.55h-8.275a8.775 8.775 0 1 1 8.775-8.775v8.275a.5.5 0 0 1-.5.5z" fill="#2942D1" fill-rule="nonzero"/>
            <path d="M34.15 32.55h-5c-.276 0-.5-.448-.5-1s.224-1 .5-1h5c.276 0 .5.448.5 1s-.224 1-.5 1zM34.15 38.55h-5c-.276 0-.5-.448-.5-1s.224-1 .5-1h5c.276 0 .5.448.5 1s-.224 1-.5 1z" stroke="#A1AEE9" fill="#A1AEE9" fill-rule="nonzero"/>
            <g fill="#A1AEE9">
                <path d="M37.1 10h3v19h-3z"/>
                <path d="M37.1 10h18v11h-18z"/>
            </g>
        </g>
    </g>
</svg>
