<svg width="64" height="64" viewBox="0 0 64 64" xmlns="http://www.w3.org/2000/svg">
    <g fill="none" fill-rule="evenodd">
        <path d="M11.9 63.73h51.83V0H0v51.83c0 6.572 5.328 11.9 11.9 11.9z" fill="#DEE2F8"/>
        <path fill="#2942D1" opacity=".08" d="M63.73 63.725H40.24L20.124 43.607l-.147-.16-.128-.173-.005-.009-3.322-3.317-.182-.315-.062-.364.062-.355.182-.319.302-.222.43-.084h2.209v-2.812l-2.94-2.94-.183-.315-.062-.36.062-.359.182-.315.302-.221.43-.085h2.209V28.07l-2.94-2.94-.183-.315-.062-.36.062-.363.182-.315.302-.222.43-.084h2.209v-1.77l.013-.23.031-.222.058-.213.075-.204.098-.195.11-.186.13-.173.146-.16.155-.142.177-.133.182-.11.195-.098.209-.076.212-.053.222-.035.23-.01h1.77v-2.213l.085-.425.222-.302.314-.186.36-.058.363.058.31.182 2.946 2.945h2.807v-2.214l.085-.425.221-.306.315-.182.364-.058.36.058.314.186 2.94 2.94h2.813v-2.213l.084-.425.222-.306.31-.182.364-.058.359.058.315.186 3.322 3.318.009.004.173.133.155.142.146.16L63.73 40.254v23.471"/>
        <path d="m41.622 43.874-1.77-.004v2.213c-.004 1.3-1.964 1.3-1.964 0V43.87H32.44v2.209c0 1.3-1.964 1.3-1.964 0l.004-2.191v-.023h-5.446V46.074c0 1.3-1.965 1.3-1.965 0v-2.213H21.3a2.245 2.245 0 0 1-2.24-2.24v-1.774h-2.213c-1.295 0-1.295-1.96 0-1.96h2.213l.005-5.447h-2.213c-1.295 0-1.295-1.964 0-1.964l2.195.004h.018v-5.446h-2.209c-1.3 0-1.3-1.965 0-1.965h2.213v-1.77a2.245 2.245 0 0 1 2.24-2.24h1.774v-2.208c0-1.3 1.965-1.3 1.965 0v2.19l-.004.018 5.446.005.004-2.213c0-1.3 1.96-1.295 1.96 0v2.213l5.447.004v-2.213c0-1.3 1.965-1.3 1.965 0l-.004 2.195v.018h1.77a2.245 2.245 0 0 1 2.239 2.24v1.774h2.213c1.295 0 1.295 1.965 0 1.965l-2.195-.005h-.018v5.447h2.209c1.3.004 1.295 1.965 0 1.965h-2.213V37.9h2.208c1.3 0 1.3 1.96 0 1.96h-2.213v1.77a2.246 2.246 0 0 1-2.24 2.244" fill="#2942D1"/>
        <path d="M40.25 22.903 23.173 22.9a.304.304 0 0 0-.306.306l-.009 17.071c0 .169.138.306.306.31l17.076.005a.307.307 0 0 0 .306-.306l.008-17.076a.307.307 0 0 0-.306-.306" fill="#A1AEE9"/>
        <path d="m37.393 25.862-11.363-.005a.203.203 0 0 0-.204.204l-.004 11.363c0 .111.088.2.204.2l11.363.009c.11 0 .2-.093.2-.204l.008-11.363a.206.206 0 0 0-.204-.204" fill="#2942D1"/>
    </g>
</svg>
