<svg width="64" height="64" viewBox="0 0 64 64" xmlns="http://www.w3.org/2000/svg">
    <g fill="none" fill-rule="evenodd">
        <path d="M63.422 0v63.422H11.034C4.94 63.422 0 58.482 0 52.387V0h63.422z" fill="#DEE2F8"/>
        <path fill="#2942D1" opacity=".08" d="M63.422 33.412v30.01h-25.45L22.93 48.38l-.15-.124-.124-.15-.102-.168-.07-.18-.031-.19.004-.137-5.565-5.566-.164-.15-.15-.168-.137-.18-.114-.195-.106-.203-.075-.216-.058-.226-.035-.23-.013-.242V21.102l-.552-.547-.053-.062-.035-.088-.014-.115v-2.118l.01-.071.017-.07.035-.062.044-.053.053-.045.062-.03.07-.023.071-.008h14.923v-1.96l.023-.234.066-.207.101-.177.133-.141.159-.11.176-.08.185-.049.195-.013.194.013.19.049.176.08.155.11 2.723 2.719h12.526l.071.008.07.023.058.03.057.045 15.493 15.496"/>
        <path d="M15.982 20.652h-.061c-.252 0-.535-.022-.535-.362v-2.118c0-.199.164-.362.362-.362h31.925c.199 0 .362.163.362.362v2.118c0 .34-.282.362-.534.362H15.982" fill="#2942D1"/>
        <path d="M47.382 20.652v19.403a2.352 2.352 0 0 1-2.344 2.348H18.383a2.352 2.352 0 0 1-2.343-2.348V20.652h31.342" fill="#A1AEE9"/>
        <path d="M30.671 17.81v-1.96c0-1.35 2.08-1.35 2.08 0v1.96h-2.08M30.671 42.377v5.195c0 1.35 2.08 1.35 2.08 0v-5.195h-2.08M36.233 42.377l4.427 4.427c.953.953-.517 2.423-1.47 1.47l-5.901-5.897h2.944M27.189 42.377l-4.427 4.427c-.953.953.512 2.423 1.47 1.47l5.897-5.897h-2.94M34.052 30.764l6.475-6.48c.958-.953 2.428.517 1.475 1.475a6748.893 6748.893 0 0 0-7.95 7.95l-4.13-4.132-7.01 7.009c-.953.958-2.423-.516-1.47-1.47 3.222-3.222 5.257-5.261 8.48-8.479l4.13 4.127" fill="#2942D1"/>
    </g>
</svg>
