<svg width="64" height="64" viewBox="0 0 64 64" xmlns="http://www.w3.org/2000/svg">
    <g fill="none" fill-rule="evenodd">
        <path d="M63.472 0v63.472h-51.62C5.306 63.472 0 58.165 0 51.62V0h63.472z" fill="#DEE2F8"/>
        <path fill="#2942D1" opacity=".08" d="M63.472 40.723v22.749h-22.75L22.586 45.339l-3.701-3.702 1.378-2.672-4.24-4.237v-5.23l3.878-1.236.848-2.054-1.864-3.618 3.701-3.702 3.618 1.864 2.059-.852 1.236-3.879h5.222l4.24 4.24 2.673-1.373 3.706 3.702 18.133 18.133"/>
        <path d="m35.96 19.9 2.055.852 3.618-1.864c1.236 1.233 2.473 2.465 3.706 3.702l-1.869 3.618.853 2.054 3.874 1.236v5.23l-3.879 1.237-.848 2.054 1.869 3.618-3.706 3.702-3.618-1.869-2.054.857-1.241 3.87h-5.222l-1.236-3.87-2.059-.857-3.618 1.869-3.701-3.702 1.864-3.618-.848-2.054-3.879-1.237v-5.23l3.879-1.236.848-2.054-1.864-3.618c1.232-1.237 2.469-2.47 3.701-3.702l3.618 1.864 2.059-.852 1.236-3.879h5.222l1.24 3.879zm-3.847 8.905a3.31 3.31 0 0 0 0 6.617 3.308 3.308 0 0 0 0-6.617z" fill="#2942D1"/>
        <path d="M32.113 22.864c5.107 0 9.246 4.143 9.246 9.25 0 5.106-4.14 9.25-9.246 9.25-5.115 0-9.254-4.144-9.254-9.25 0-5.107 4.14-9.25 9.254-9.25zm0 5.94a3.31 3.31 0 0 0 0 6.617 3.308 3.308 0 0 0 0-6.616z" fill="#A1AEE9"/>
        <path d="M32.113 39.137a7.024 7.024 0 0 0 0-14.047 7.025 7.025 0 0 0-7.027 7.023 7.025 7.025 0 0 0 7.027 7.024z" fill="#A1AEE9"/>
        <path d="M32.113 28.805a3.308 3.308 0 0 1 0 6.617 3.31 3.31 0 0 1 0-6.617z" fill="#2942D1"/>
    </g>
</svg>
