<svg width="64" height="64" viewBox="0 0 64 64" xmlns="http://www.w3.org/2000/svg">
    <g fill="none" fill-rule="evenodd">
        <path d="M63.422 0v63.422H11.034C4.94 63.422 0 58.482 0 52.387V0h63.422z" fill="#DEE2F8"/>
        <path d="M63.422 38.047v25.375H32.428l-17.615-17.62-.049-.057-.035-.062-.022-.066-.01-.071v-1.417l.01-.07.022-.067a.335.335 0 0 1 .19-.19l.066-.022.07-.004h.614l1.214-25.291.009-.066a.364.364 0 0 1 .348-.274h3.015a.35.35 0 0 1 .247.102l.013.008 5.372 5.376.137-2.683.009-.075a.353.353 0 0 1 .348-.265h3.01c.098 0 .181.035.248.097l.008.005 4.503 4.506.114-1.576a.354.354 0 0 1 .358-.33h.688l2.693.321 10.324 9.954L63.422 49.08" fill="#2942D1" opacity=".08"/>
        <path d="M34.264 23.64a.354.354 0 0 1 .358-.33h3.023c.19 0 .349.14.358.33.247 3.447.494 6.903.737 10.35l-5.283.972c.035-.512.075-1.016.11-1.519.207-2.944.485-6.859.697-9.803M20.612 18.485a.355.355 0 0 0-.357-.34H17.24c-.19 0-.348.15-.357.34-.406 8.43-.808 16.86-1.214 25.291h6.157c-.401-8.43-.808-16.86-1.214-25.291M26.024 20.948a.352.352 0 0 1 .357-.34h3.01c.19 0 .345.146.358.34.207 4.343.42 8.695.627 13.043l-5.05.97c.208-4.351.486-9.67.698-14.013M14.698 45.546v-1.417c0-.194.163-.353.357-.353h33.943c.194 0 .357.159.357.353v1.417a.358.358 0 0 1-.357.353H15.055a.358.358 0 0 1-.357-.353" fill="#2942D1"/>
        <path d="M22.603 43.776v-8.068c0-.292.199-.53.486-.583l8.21-1.536v1.55l8.337-1.55.004 1.55 8.33-1.55c.193-.035.357.163.357.357v9.83H22.603" fill="#A1AEE9"/>
        <path fill="#2942D1" d="M32.764 40.338h5.406v-2.48h-5.406zM24.704 40.338h5.407v-2.48h-5.407zM40.823 40.338h5.407v-2.48h-5.407z"/>
    </g>
</svg>
