<svg width="64" height="64" viewBox="0 0 64 64" xmlns="http://www.w3.org/2000/svg">
    <g fill="none" fill-rule="evenodd">
        <path d="M63.417 0v63.422H11.034C4.94 63.422 0 58.482 0 52.387V0h63.417z" fill="#DEE2F8"/>
        <path d="M63.417 33.638v29.784H33.615L12.381 42.187c-.031-.03-.062-.066-.106-.115-.036-.03-.066-.075-.102-.114-.035-.04-.062-.08-.097-.124-.026-.04-.057-.08-.088-.124-.031-.044-.058-.088-.084-.128-.026-.044-.049-.088-.08-.136-.026-.049-.048-.098-.07-.142a1.364 1.364 0 0 1-.062-.141 3.565 3.565 0 0 1-.062-.146c-.017-.048-.03-.097-.048-.15-.013-.044-.031-.097-.044-.154a1.152 1.152 0 0 1-.036-.155c-.013-.057-.022-.11-.03-.159-.005-.048-.014-.101-.018-.158a1.061 1.061 0 0 1-.013-.164c-.005-.062-.005-.119-.005-.163V23.512c0-.048 0-.106.005-.163 0-.057.004-.11.013-.163.004-.062.013-.115.017-.164.01-.048.018-.101.031-.159.01-.057.022-.11.036-.154.013-.057.03-.106.044-.155.017-.048.03-.101.048-.145.018-.049.04-.097.062-.146.018-.053.04-.101.062-.145.022-.045.044-.093.07-.137.031-.053.054-.097.08-.137.026-.044.053-.088.084-.128.03-.049.062-.088.088-.128.035-.044.062-.084.097-.124.036-.04.066-.08.102-.114.04-.045.075-.084.106-.115l.114-.106h-.004c.035-.031.075-.062.12-.102.039-.03.079-.061.123-.092.04-.031.08-.062.123-.093.04-.027.089-.053.128-.084.045-.022.089-.048.137-.075.049-.026.097-.053.137-.07.049-.023.093-.045.146-.067.048-.022.101-.04.145-.057.049-.018.097-.035.15-.049.045-.017.098-.03.15-.048h.005l.154-.036c.058-.008.106-.022.16-.026.048-.009.096-.013.158-.022l.163-.013c.062 0 .12-.005.164-.005h34.105c.053 0 .106.005.168.005l.163.013c.058.009.115.013.16.022.052.004.1.018.158.026.062.014.11.027.159.036.053.017.101.03.15.048.053.014.101.031.15.049.049.017.097.04.146.057.053.022.101.044.14.066.05.018.094.045.142.071a2.86 2.86 0 0 1 .265.159c.044.03.088.062.124.093.044.03.083.061.123.092.04.031.075.067.12.102.043.044.083.08.11.106.026.03.066.07.106.115.026.03.061.066.092.105l12.182 12.183" fill="#2942D1" opacity=".08"/>
        <path d="M14.411 42.783h34.105a3.05 3.05 0 0 0 3.042-3.041V23.345a3.05 3.05 0 0 0-3.042-3.046H14.411a3.048 3.048 0 0 0-3.041 3.046v16.397a3.047 3.047 0 0 0 3.041 3.04" fill="#2942D1"/>
        <path d="M48.666 22.457c.561 0 1.02.5 1.02 1.113v15.876c0 .61-.459 1.108-1.02 1.108h-34.41c-.56 0-1.015-.499-1.015-1.108V23.57c0-.614.455-1.113 1.016-1.113h34.41" fill="#A1AEE9"/>
        <path d="M51.558 31.541v-8.196a3.05 3.05 0 0 0-3.042-3.046H14.411a3.048 3.048 0 0 0-3.041 3.046v8.196h40.188" fill="#2942D1"/>
        <path d="M48.666 22.457c.561 0 1.02.604 1.02 1.347v9.653H13.241v-9.653c0-.743.455-1.347 1.016-1.347h34.41" fill="#A1AEE9"/>
        <path d="M32.11 27.255v3.235c.985.036 1.784.124 2.397.27a2.67 2.67 0 0 1 1.496.918c.384.468.57 1.156.57 2.065 0 .932-.137 1.66-.41 2.185-.274.53-.703.91-1.29 1.139-.582.234-1.372.37-2.37.415h-.393v1.249h-1.293v-1.25c-.68 0-1.289-.052-1.823-.154a3.915 3.915 0 0 1-1.39-.542 2.536 2.536 0 0 1-.914-1.073c-.216-.459-.326-1.033-.326-1.721l-.014-.424h2.053c0 .516.04.914.123 1.192.084.278.221.48.402.609.185.128.397.207.631.242.234.031.658.067 1.258.102v-3.518a21.102 21.102 0 0 1-1.889-.198 3.652 3.652 0 0 1-1.258-.45c-.38-.221-.666-.552-.874-.994-.203-.441-.304-1.028-.304-1.76 0-.91.18-1.607.538-2.093.353-.49.843-.82 1.465-.989.623-.167 1.395-.256 2.322-.256v-1.099h1.293v1.1c1.033.043 1.832.15 2.401.313.57.163 1.007.485 1.307.98.304.49.459 1.231.459 2.215h-2.004a1.25 1.25 0 0 1-.018-.238c0-.578-.128-.962-.375-1.165-.251-.203-.67-.305-1.266-.305h-.504zm0 4.94v3.517h.393c.684 0 1.183-.124 1.514-.366.327-.248.49-.707.49-1.369 0-.52-.093-.9-.278-1.143a1.212 1.212 0 0 0-.72-.463c-.295-.07-.759-.128-1.399-.177zm-1.293-4.94H30.5c-.454.005-.816.035-1.081.097a1.058 1.058 0 0 0-.64.406c-.159.212-.234.543-.234.993 0 .65.19 1.09.565 1.333.375.243.945.362 1.708.362v-3.19z" fill="#2942D1"/>
    </g>
</svg>
