<svg width="64" height="64" viewBox="0 0 64 64" xmlns="http://www.w3.org/2000/svg">
    <g fill="none" fill-rule="evenodd">
        <path d="M11.034 63.417h52.388V0H0v52.383c0 6.094 4.94 11.034 11.034 11.034z" fill="#DEE2F8"/>
        <path d="M63.422 63.417H32.958L14.799 45.26c-.017-.018-.035-.03-.048-.049a.482.482 0 0 1-.035-.066.208.208 0 0 1-.027-.066c-.004-.026-.009-.044-.009-.07v-1.422c0-.022.005-.044.01-.07a.282.282 0 0 1 .026-.071c.008-.022.022-.04.035-.057a.383.383 0 0 1 .176-.133.373.373 0 0 1 .075-.022c.027-.004.049-.009.08-.009h2.578V30.265L16.388 29a.314.314 0 0 1-.079-.12.292.292 0 0 1-.022-.066c-.005-.026-.005-.048-.005-.075l1.378-.527c-.716-.576-1.14-.93-1.272-1.062-.197-.197-.727-.178-1.589.058-.017-.018-.035-.036-.048-.058-.013-.022-.027-.044-.035-.066-.01-.026-.022-.049-.027-.07-.004-.027-.004-.054-.004-.084v-.689c0-.057 0-.115.009-.163.008-.058.022-.11.035-.16.017-.057.035-.105.057-.154.022-.044.049-.092.075-.137.031-.048.066-.083.097-.128.036-.04.075-.075.115-.114.044-.031.088-.062.137-.093a.976.976 0 0 1 .15-.08l15.872-7.057c.318-.141.64-.141.953 0l15.877 7.058a.976.976 0 0 1 .15.079c.044.03.093.062.132.093.053.044.097.092.142.141l14.936 14.94v22.952z" fill="#2942D1" opacity=".08"/>
        <path fill="#A1AEE9" d="M17.66 45.007h28.102V26.178H17.66z"/>
        <path d="M27.463 28.738v-1.06c0-.193.163-.357.366-.357h7.768c.199 0 .358.164.358.358v1.06a.36.36 0 0 1-.358.361H27.83a.365.365 0 0 1-.366-.362" fill="#2942D1"/>
        <path d="M14.68 45.007v-1.42c0-.195.181-.363.402-.363H48.34c.22 0 .397.168.397.362v1.421c0 .2-.176.358-.397.358H15.082c-.22 0-.402-.159-.402-.358" fill="#A1AEE9"/>
        <path d="M21.213 24.74h20.992c.07 0 .132-.045.145-.111a.139.139 0 0 0-.084-.163L31.77 20.052a.184.184 0 0 0-.119 0l-10.496 4.414a.146.146 0 0 0-.088.163c.018.066.075.11.146.11" fill="#ECF0F1"/>
        <path d="m15.36 25.212 15.872-7.058c.318-.141.64-.141.953 0l15.877 7.058c.42.185.675.573.675 1.028v.689a.398.398 0 0 1-.397.392H15.082a.395.395 0 0 1-.397-.392v-.689a1.1 1.1 0 0 1 .675-1.028" fill="#2942D1"/>
        <path fill="#A1AEE9" d="M19.399 25.454h24.624L31.71 19.981l-12.31 5.473"/>
        <path d="M16.278 28.738v-1.06c0-.193.163-.357.362-.357h7.768a.36.36 0 0 1 .362.358v1.06a.364.364 0 0 1-.362.361H16.64a.364.364 0 0 1-.362-.362M38.652 28.738v-1.06a.36.36 0 0 1 .362-.357h7.768c.198 0 .357.164.357.358v1.06a.36.36 0 0 1-.357.361h-7.768a.36.36 0 0 1-.362-.362" fill="#2942D1"/>
        <path fill="#2942D1" opacity=".6" d="M17.66 43.224h5.733V29.1H17.66zM28.844 43.224h5.734V29.1h-5.734zM40.029 43.224h5.733V29.1H40.03z"/>
    </g>
</svg>
