<svg width="64" height="64" viewBox="0 0 64 64" xmlns="http://www.w3.org/2000/svg">
    <g fill="none" fill-rule="evenodd">
        <path d="M63.422 0v63.422H11.034C4.94 63.422 0 58.482 0 52.387V0h63.422z" fill="#DEE2F8"/>
        <path fill="#2942D1" opacity=".08" d="M21.88 40.355v1.903l21.163 21.164h20.379V37.274l-7.164-7.163-22.312-6.497-22.311 6.497 10.244 10.244"/>
        <path d="M46.01 30.11H21.88v12.148c0 .776 5.402 1.403 12.066 1.403 6.66 0 12.063-.627 12.063-1.403V30.11" fill="#2942D1"/>
        <path d="M46.01 30.11h-7.014v.643h3.774v11.496c1.12-.131 2-.286 2.555-.458V31.26h.684v-1.15M53.76 43.11h.834V30.557h-.834z" fill="#2942D1"/>
        <path d="M39.393 30.11H22.841v11.484c3.21.288 9.133.523 16.552.655V30.11M52.785 40.69v5.522h2.785v-5.521a1.393 1.393 0 0 0-2.785 0z" fill="#2942D1"/>
        <path fill="#A1AEE9" d="m33.946 23.614 22.312 6.497-22.312 6.497-22.311-6.497 22.311-6.497"/>
        <path d="M33.946 30.358c1.232 0 2.234-.296 2.234-.653 0-.362-1.002-.649-2.234-.649-1.231 0-2.237.287-2.237.649 0 .357 1.006.653 2.237.653" fill="#2942D1"/>
        <path d="M33.946 30.358c-1.235 0-2.237-.291-2.237-.653 0-.358 1.002-.649 2.237-.649v1.302" fill="#2942D1"/>
    </g>
</svg>
