<svg width="44" height="44" viewBox="0 0 44 44" xmlns="http://www.w3.org/2000/svg">
    <g fill="none" fill-rule="evenodd">
        <circle fill="#222" cx="22" cy="22" r="22"/>
        <path d="M29.326 32c.788-.014 1.44-.283 1.955-.806.516-.522.78-1.17.795-1.944v-11c-.014-.773-.28-1.422-.795-1.944-.515-.523-1.167-.792-1.955-.806H14.674c-.788.014-1.44.283-1.955.806-.516.522-.78 1.17-.795 1.944v11c.014.773.28 1.422.795 1.944.515.523 1.167.792 1.955.806h14.652zM22 23.557l-8.143-5.715a.801.801 0 0 1 .323-.365c.143-.086.308-.137.494-.15h14.652c.186.013.351.064.494.15.144.085.251.207.323.365L22 23.557zm7.326 6.617H14.674a.995.995 0 0 1-.655-.28.857.857 0 0 1-.269-.644v-9.238l7.734 5.414c.158.1.33.15.516.15s.358-.05.516-.15l7.734-5.414v9.238c0 .258-.09.473-.269.645a.995.995 0 0 1-.655.279z" fill="#FFF" fill-rule="nonzero"/>
    </g>
</svg>
