<svg width="44" height="44" viewBox="0 0 44 44" xmlns="http://www.w3.org/2000/svg">
    <g fill="none" fill-rule="evenodd">
        <circle fill="#222" cx="22" cy="22" r="22"/>
        <path d="M22 33.75c.186 0 .358-.05.516-.15l.365-.28a28.56 28.56 0 0 0 3.91-3.416c1.375-1.432 2.446-2.9 3.212-4.404s1.157-3.03 1.17-4.576c-.07-2.607-.97-4.77-2.695-6.488-1.726-1.72-3.886-2.614-6.478-2.686-2.592.072-4.752.967-6.478 2.686-1.725 1.718-2.624 3.881-2.696 6.488.014 1.547.405 3.072 1.171 4.576.766 1.504 1.837 2.972 3.212 4.404a28.56 28.56 0 0 0 3.91 3.416l.365.28c.158.1.33.15.516.15zm0-2.041a25.972 25.972 0 0 1-3.459-3.05c-1.232-1.29-2.184-2.586-2.857-3.89-.674-1.303-1.01-2.585-1.01-3.845.043-2.077.755-3.806 2.138-5.189 1.382-1.382 3.111-2.102 5.188-2.159 2.077.057 3.806.777 5.188 2.16 1.383 1.382 2.095 3.111 2.138 5.188 0 1.26-.336 2.542-1.01 3.846-.673 1.303-1.625 2.6-2.857 3.888a28.397 28.397 0 0 1-2.75 2.492c-.244.2-.48.387-.709.559zm0-7.133c1.046-.028 1.912-.387 2.6-1.074.687-.688 1.045-1.547 1.074-2.578-.029-1.046-.387-1.912-1.074-2.6-.688-.687-1.554-1.045-2.6-1.074a3.59 3.59 0 0 0-1.826.483 3.636 3.636 0 0 0-1.343 1.354 3.605 3.605 0 0 0-.505 1.837c0 .644.168 1.253.505 1.826.337.573.784 1.02 1.343 1.343a3.59 3.59 0 0 0 1.826.483zm0-1.826c-.516-.014-.945-.193-1.29-.537-.343-.344-.515-.777-.515-1.3s.172-.956.516-1.3c.344-.343.773-.515 1.289-.515.516 0 .945.172 1.29.515.343.344.515.777.515 1.3s-.172.956-.516 1.3c-.344.344-.773.523-1.289.537z" fill="#FFF" fill-rule="nonzero"/>
    </g>
</svg>
