<svg width="44" height="44" viewBox="0 0 44 44" xmlns="http://www.w3.org/2000/svg">
    <g fill="none" fill-rule="evenodd">
        <circle fill="#222" cx="22" cy="22" r="22"/>
        <path d="M29.047 31.826c.4.029.784-.018 1.15-.14a2.77 2.77 0 0 0 .988-.58c.293-.265.515-.572.666-.923.15-.351.225-.727.225-1.128v-2.729c0-.716-.218-1.332-.655-1.847-.437-.516-1.006-.831-1.708-.946a11.386 11.386 0 0 1-2.406-.601 2.727 2.727 0 0 0-1.547-.108 2.79 2.79 0 0 0-1.354.73l-.666.667a13.624 13.624 0 0 1-2.352-1.88 14.033 14.033 0 0 1-1.88-2.331l.666-.666a2.765 2.765 0 0 0 .623-2.922 11.004 11.004 0 0 1-.602-2.363c-.114-.702-.426-1.275-.934-1.72-.509-.443-1.114-.665-1.816-.665h-2.771a2.78 2.78 0 0 0-1.107.225c-.35.15-.658.373-.923.666-.265.294-.459.62-.58.978a2.868 2.868 0 0 0-.14 1.139c.157 1.49.487 2.943.988 4.361a18.449 18.449 0 0 0 1.998 4.018 18.72 18.72 0 0 0 5.8 5.8 18.826 18.826 0 0 0 3.997 1.966c1.404.494 2.85.827 4.34 1zM29.24 30a17.838 17.838 0 0 1-7.54-2.686 16.97 16.97 0 0 1-5.243-5.242 17.126 17.126 0 0 1-2.686-7.584.887.887 0 0 1 .248-.676.934.934 0 0 1 .655-.312h2.771c.244 0 .451.075.623.226.172.15.272.34.301.569.129.945.365 1.87.71 2.771a.975.975 0 0 1-.216.989l-1.16 1.16a.793.793 0 0 0-.268.515.98.98 0 0 0 .118.58 15.623 15.623 0 0 0 2.535 3.33 15.623 15.623 0 0 0 3.33 2.536c.186.1.38.136.58.107.2-.028.38-.114.537-.258l1.16-1.16a.881.881 0 0 1 .451-.247.975.975 0 0 1 .516.032c.902.344 1.833.58 2.793.71a.94.94 0 0 1 .58.322c.143.172.215.38.215.623v2.771a.972.972 0 0 1-.312.666.898.898 0 0 1-.698.258z" fill="#FFF" fill-rule="nonzero"/>
    </g>
</svg>
