<svg width="843" height="592" viewBox="0 0 843 592" xmlns="http://www.w3.org/2000/svg" xmlns:xlink="http://www.w3.org/1999/xlink">
    <defs>
        <path id="568vsngvwa" d="M0 0h843v592H0z"/>
    </defs>
    <g fill="none" fill-rule="evenodd">
        <mask id="zls2zvda1b" fill="#fff">
            <use xlink:href="#568vsngvwa"/>
        </mask>
        <g fill-rule="nonzero" mask="url(#zls2zvda1b)">
            <g stroke="#FFF" stroke-width="2" fill="#E1E1E5">
                <path d="m514.992 462.35 3.1 1.605-3.89 1.464-2.802.187-3.742-.845 3.97-1.64 3.364-.771zm36.318-108.224 1.032 3.521.8 2.73.8 2.73.8 2.731.8 2.73.8 2.728 1.62 5.46.81 2.73 1.62 5.458.82 2.73 1.64 5.461.82 2.73.794 2.646.612 1.211.604 1.982 3.33 5.716 1.202 2.752-.096 1.054 1.412 1.162-.102 1.819-1.204 1.279-.496 1.013-.286 2.037-.65 3.738.221 1.963 1.414 2.887.459 1.559.02 6.173.884 3.582 2.157 3.598-7.64.925-6.129.71-6.128.69-6.139.671-6.14.651-6.138.621-6.138.602-5.295.502-.047.63.214 1.198.62 1.062 3.041 2.497.546 1.107-.307 2.31.237 1.554-.329 1.222-.57.689-.137.965-.68.401-1.99 2.622-9.964 1.926 1.865-2.895 1.858-.297 1.052-.456-.7-.976-.78-.077-1.033-1.311-.208-2.596-.482-1.083-.53 1.222-.429 3.341-.442 1.831-2.94.36-1.934-.069-1.854.27-.773-5.518-.543-4.12-.544-4.12-.543-4.11-1.087-8.22-.543-4.111-.554-4.19.12-4.18.12-4.091.118-4.091.118-4.088.109-4.09.109-4.091.108-4.09.109-4.092.109-4.078.296-12.242.099-4.078.178-8.162.088-4.078.02-1.027-2.886-2.57 4.532-1.355 5.892-.461 2.895-.237 2.89-.236 2.896-.246 2.89-.246 2.896-.257 2.89-.256 2.896-.266 2.89-.266 2.895-.276 2.882-.275 2.884-.286 2.891-.287 3.686-.342zM470.512 321.728l1.2 2.267.958 1.245.282 1.245-.148 1.29-1.456 2.314-1.183.958-.578.925-.844.925-.439.871 1.276-.101 3.046-.253 3.052-.263 4.214-.353.65 2.221.095 1.221-1.404.918-.199 1.936-2.21 1.545-.55 1.188.426 1.944-.743 2.546-1.712 2.201-.52 1.984.45 2.621-.976 2.648-2.126 1.8-.398.624.404 1.177-1.01 1.755-1.803 1.266-.625.79-.07 1.05-.757 1.012-.547.201-.235.988-.168 3.782-1.075 2.714-1.72.696-.398.439-.047 1.04-1.062 1.702-1.595 1.501-.284.817.622 1.202-.183 1.216-.912.84-1.446.568-.025.553.287 1.042-.228 2.143-.528.935-.5.87-1.49 1.25.523.524-.023 1.587-.622.67 1.002 1.013.487 2.056-.446 1.946.123 1.064.863 1.092.394.914-.692 4.352.215 1.507-4.883.284-3.482.18-3.476.179-3.485.169-3.472.158-3.485.158-3.482.147-3.478.148-3.48.126-3.487.138-3.472.116-3.485.116-3.486.105-3.472.095-3.485.095-4.477.108-.121-4.174-.104-3.195-.092-3.182-.076-2.601-1.763-.355-.89.199-.861-.1-.848.64-1.643-.678-1.014-.4-1.438-1.588.012-2.937.01-2.55.01-2.56.011-2.55.02-5.104.021-2.557.021-5.1.03-7.65.011-2.549.02-5.1.01-2.475-1.41-9.697-.464-3.253-.474-3.259-.464-3.256-.463-3.256-.624-4.378 6.27-.103 5.15-.105 5.147-.116 5.147-.137 5.149-.158 5.149-.168 5.137-.18 5.147-.2 5.139-.22 5.147-.232 5.139-.253 5.147-.263 5.139-.284 5.136-.295 5.14-.316 5.785-.368zM48.656 288.665l6.367 1.275 5.391 1.05 5.393 1.03 5.402 1.02 5.401 1 5.412.982 5.401.961 5.411.942 5.421.922 5.423.903 5.42.893 5.423.863 5.43.854 5.432.834 5.43.814 6.435.94-1.261 8.646-1.117 7.657-1.116 7.657-1.117 7.667-1.116 7.666-1.117 7.667-1.117 7.667-1.116 7.677-1.117 7.677-1.126 7.676-1.117 7.686-1.116 7.698-1.127 7.685-1.116 7.697-1.127 7.706-1.27 8.712-5.258-.75-6.646-.962-6.643-1.002-6.633-1.022-6.634-1.04-6.808-1.1-8.48-4.802-8.285-4.744-8.257-4.784-8.196-4.823-8.167-4.863-8.116-4.9-8.079-4.932-9.161-5.676 2.014-1.827 2.071-3.364 3.053.134.92-.381.748-.981.359-1.145-.058-1.173-.604-.97-1.748-1.214-.722-2.854.495-3.827.984-2.485 1.345-.122.74-.46.991-1.08.854-1.286.679-1.445.483-1.939.3-2.825 2.534-3.139 2.158-1.751 3.499-1.802.306-.218-.103-.513-2.264-2.144-1.128-1.825.142-1.338-.126-.912-1.92-4.952-.495-2.901.43-1.994 1.91-7.483-.448-2.746.093-1.799.695-1.793.11-.852-.269-1.086.287-2.028.365-2.006-.462-1.487-.032-1.071 1.022-1.9 1.36-.861 1.763-.336 1.814.148 1.993.61 1.487 1.224.66 1.436.418.449.97-.423 1.186-1.577 2.2-9.068 1.905-9.342z"/>
                <path d="m-91.376 120.253 5.07 1.266 4.127 1.428 4.095 1.403 4.093 1.391 4.105 1.37 4.105 1.361 4.104 1.35 4.113 1.337 4.114 1.317 4.115 1.307 4.124 1.295 4.125 1.286 4.122 1.273 4.134 1.253 4.127 1.24 5.06 1.468-1.3 5.251-1.068 4.318-1.068 4.318-1.069 4.319-1.068 4.318-1.069 4.318-1.068 4.319-1.069 4.306-1.068 4.32-1.069 4.307-1.068 4.307-1.069 4.307-1.068 4.308-1.069 4.307-1.068 4.308-.97 3.907 2.709 4.53 2.94 4.883 2.957 4.882 2.987 4.872 3.008 4.862 3.027 4.861 3.047 4.852 3.077 4.867 2.37 4.03 2.37 4.016 2.39 4.015 2.401 4.006 2.41 4.005 2.429 4.004 2.44 3.996 2.454 4.002 3.393 5.703 3.41 5.686 3.439 5.677 3.458 5.675 3.487 5.664 3.517 5.654 3.546 5.654 4.036 6.37-.425 2.168.4 2.585 1.92 5.446.149 1.426-.074 1.042.664 1.181 2.353 2.452.621 1.467-.265 1.387-1.168.908-3.401 1.933-1.823 1.628-2.04 2.769-.253 2.636-.544 2.445-.809 1.885-1.006 1.667-1.265 1.515-1.374.94-.587.06-.454 1.26-.417 3.55.46 2.006 1.482 1.127 1.062 1.877.097 2.16-.551 1.92-1.26 1.831-1.874.855-2.783-.36-2.226-.022-5.338-.705-5.288-.719-5.275-.74-5.278-.75-5.278-.772-5.277-.793-5.276-.815-6.26-.98.52-3.383-1.88.252.338-4.95.62-1.519.177-1.337-.176-3.788-1.58-4.994-4.351-6.97-2.491-2.68-1.71-2.937-1.026-.834-.956-.364-.9 1.084-3.282-2.249 1.077-2.991-.955-3.522-1.04-.58-4.223-.912-5.29-3.779-1.633-2.035-.04-2.312-1.85-2.288-2.611-2.508-1.782-.106-2.652-1.11-3.145-2.338-1.781-.69-4.108-.803-1.847-.94-1.022-2.234-1.614-1.627 1.048-2.45.284-1.908.567-1.323.148-3.365 1.212-2.672-.105-.707-.438-.753-2.478-2.162-.125-2.323.925-1.877-.199-.966-1.736-1.877-1.23-3.527-2.166-2.457-.348-3.107-1.112-2.13-.155-1.705-1.964-6.085-2.605-5.353.078-2.848.814-3.681 2.13-1.654.989-1.195.277-1.29.07-.973-.538-1.856-4.391-2.691-2.787-6.866.834-4.003-.454-4.388.704-2.659.64-3.444.146-.025-.592-1.132-1.362-1.12-1.152-1.58-1.334-2.438-3.042 2.046.786-3.54 1.04-1.587.773-3.46-.76-.911-.305-3.723-2.12-2.804-1.341-4.044-3.102-7.059 1.077-4.942.06-6.55 1.703-3.192.537-2.18.224-3.656-.243-2.037-1.988-6.383-2.474-4.964.317-3.22.618-3.052 1.557-2.308 1.476-2.464 1.304-1.008.684-.966 1.937-2.83 1.115-4.216 2.636-4.789.399-1.525.35-3.793-.053-2.216-.919-2.302 1.406-2.397.82-3.013zm3.603 107.636-.079.21-.151 1.668.622 1.454.696.721-.002-.105-.38-2.535-.706-1.413zm-.555-4.296-.193 2.028.577.328.016-1.072-.348-.691-.052-.593zm1.022-3.712-.739 2.223 1.848-.862.996-.13-.941-1.156-1.164-.075zm37.631 134.615.723 3.188 1.422 3.151 1.38 2.314-3.244-.256-1.474-1.274-.485-2.914-.834-2.857 2.512-1.352zm.714-10.183 4.582 3.171.8 1.181 1.08 4.116-3.038-1.381-1.9-.385-.329-1.736-.074-.967-1.121-.796v-3.203zm-19.282-.565 2.435.46 1.218.634.915 2.543-2.236.496-1.744-.884-.588-3.25zm1.151-19.786 3.205 2.044h2.417l.596 1.84-1.042 1.19-5.184-.4-1.801-1.453.122-1.155-.489-1.787 2.176-.279zm-8.43-.298 4.963 1.027 1.786 2.21-2.031 2.113-1.916-.064-1.278-.895-1.524-4.391zm-.685-1.739 2.387 3.492-3.278-.602-3.353-1.345 2.703-1.333 1.541-.212zM147.744 219.091l6.125.879 5.137.718 5.137.698 5.145.687 5.148.659 5.146.649 5.145.629 5.156.609 5.158.59 5.156.58 5.154.56 5.157.53 5.168.522 5.164.51 5.157.482 5.164.472 4.108.354 4.12.344 4.105.344 4.108.324 4.107.315 4.116.305 4.11.285 5.112.354-.24 3.721-.187 2.72-.176 2.735-.177 2.728-.186 2.721-.177 2.725-.177 2.724-.176 2.724-.265 4.09-.255 4.093-.265 4.09-.255 4.091-.255 4.092-.255 4.093-.265 4.09-.255 4.091-.255 4.094-.265 4.09-.255 4.08-.255 4.095-.264 4.089-.255 4.091-.256 4.092-.317 5.096-5.32-.364-4.313-.296-4.306-.324-4.32-.325-6.586-.522-6.586-.551-6.595-.58-6.578-.601-6.585-.64-6.577-.659-6.586-.689-6.565-.718-6.578-.739-6.566-.777-6.566-.797-6.556-.827-6.558-.846-6.556-.886-6.547-.905-7.533-1.076.917-6.402.785-5.408.775-5.41.784-5.408.775-5.412.785-5.407.775-5.412.785-5.397.775-5.412.784-5.407.775-5.412.785-5.407.775-5.412.784-5.407.776-5.411.927-6.408zM754.268 159.348l.665 2.236.437 1.525.32 1.107.45 1.535.496 1.732.469 1.61.408 1.434.193.882.339 1.606-.286.65.195 1.873-2.219.403-2.04.843-3.006 1.58-1.684.019-1.393 1.095-6.11 1.793-.933-.06-.994 1.498-2.408 1.538-5.406 4.611-1.213 1.603-1.954-1.856-1.665-1.554 1.805-1.838.826-.852.578-.6-.879-.857-.44-2.288-.369-1.978-1.14-5.927-.37-1.97-.379-1.974-.566-2.957 2.29-.46 1.341-.276 1.328-.265 1.332-.275 1.32-.274 1.34-.286 1.333-.275 2.208-.459.108.341 1.522-.768 1.992-.483 1.878-.455 1.87-.456 1.866-.455 1.883-.465 1.865-.455 2.797-.696zM684.946 242.381l2.15 2.397 1.463 1.64-2.338 5.197-1.119-4.204-1.486-.592 1.33-4.438zM706.849 220.623l3.268.516-1.217 2.018-.307 1.444-.889 1.671.184.55.452.78.236 1.5 1.014 1.1 2.515 2.298 1.27 3.937 1.797 2.144 2.577 2.395 2.086.584.579 1.866-.274 1.923.8.307 1.275 1.866.438 2.151-2.72.652-3.684.843-3.682.843-2.523.567-1.555-4.074-.929-3.322-.927-3.291-.918-3.28-1.834-6.578-.917-3.28-1.012-3.63 1.023-2.368.568-.872.932-.62 2.374-.64zM659.39 571.775l-2.92 2.998-3.696.926 2.88-3.55 3.737-.374zm-.231-4.312 2.513 2.99.216 1.537-1.28.855-4.969 1.685 3.202-3.618.318-3.45zm.47-1.008 6.58 2.198-1.993 4.113-1.314-2.357-3.274-3.954zm17.706-2.966-5.402 4.56-1.09.438-1.094.889-3.663-.812 2.877-2.089 8.372-2.986zm-3.463.024 1.844.774-.442 1.055-1.844-.774.442-1.055zm5.73-7.063-.847 6.362-3.74 1.413 4.587-7.775zm5.699-8.61-2.278 8.48-6.435 9.519 1.545-6.537 1.19-2.524.38-1.33 1.027-.93.536-.945-.186-1.57 4.221-4.162zm-52.858-112.532 4.091.822 3.748-.348 1.6 2.443 2.671 7.922 1.365 2.637 2.893 7.3 3.923 6.82 5.338 8.17 8.271 9.683 1.404 1.898-.768 1.797-.024 1.128.254 1.896.531 1.785 1.13 2.18 4.352 7.085-2.533-1.596 7.364 12.28 2.452 2.378 1.184 2.024 1.542 4.112 1.135 5.392.326 9.913 1.457 11.428-1.824-3.107-.336 1.066-1.096 2.839.192 4.23-.475 2.598-2.369 3.176-1.653.22-3.375 2.338-2.678-.01-2.797 1.43-2.73.31-2.056-2.528.046-1.435.479-1.533.209-.096-2.98-4.289-3-2.994-.625-1.781-3.832-.609-3.617-1.725-2.722-3.626-1.993-5.915-1.058-.389-1.36-.908.104-.304-1.466-.352-1.52-3.854-.378-3.721-.267 1.81-2.292-.019-1.332-.458-1.689-1.412-2.229-2.583-4.64-7.002-.722-.825-2.288-1.614 1.625-1.372.744-.274 1.602-3.409 1.403-2.232.179-.721-.858.595-.965-.901.027 1.944-.29 1.075-1.09 1.311-1.086-.164-.665.864-1.6-1.032-.91-.994-1.15-1.778.615-9.254.89-5.634-.718-6.183-.009-.885-.31-1.291-2.553-2.98-11.241-7.322-9.1-9.264-6.67-2.788-4.326 1.327-.425.49-.118.518.568 1.353-1.012 1.36-1.722.15-1.529.426-4.533 3.407-1.75.111-1.235.767-1.236.759-3.067.671-2.666.986-1.857-.321-1.25-2.084-.358-2.991-1.51-.897-4.472-3.478-1.223-.07-1.442-.85-6.195-1.868-7.695-1.262-1.53.706-5.492 1.25-7.19 1.927.123-.162-2.788 1.033-1.911-1.069.363-.486.358-2.544.651-.789-.11-1.817.264-1.989-3.057-2.625-.976-1.678-.318-1.795.19-2.563 6.943-.661 6.104-.601 6.102-.62 6.104-.65 6.103-.67 6.094-.69 6.092-.708 6.721-.817 1.324 2.2 2.025 3.555.026.136.915-.045 3.035-.167 3.036-.177 3.039-.188 3.035-.187 6.074-.394 3.039-.206 3.035-.207 3.04-.217 3.035-.216 3.035-.227 3.039-.236 3.035-.237 3.039-.246 3.035-.246 3.948-.333.253 1.423.648 1.023.332 1.298.936-.162.267-1.276-.11-1.544-.67-1.958-.243-2.031.476-1.64.656-.42.57-.878 2.102-.071zm-98.297 20.82-.116.853.802-.319-.686-.534zm104.011 70.908 4.614 4.286 3.837-.1-2.579 2.872-2.265-.314-1.336-.956-2.271-5.788zm.44-2.205 4.045 2.38 1.33 2.805.736 5.723-3.756-5.673-2.355-5.235zm28.661-33.555 5.265 5.634 1.28 2.503 4.855 8.273 3.458 8.973-7.06-9.874-3.294-5.582-4.504-9.927zm-80.247-26.831-7.935 6.24-2.196 1.231-8.004-1.208 6.897-1.436.772.095 1.862-1.183 1.215-1.08 7.389-2.66z"/>
                <path d="m597.263 348.726-1.663 3.41-2.175 2.986-.23 1.225 3.161 1.559 2.3 1.585 1.238.445 1.53.02 1.482.745.868 1.649 5.166 6.686 4.852 3.16 2.2 1.76 1.135 1.642 4.118 2.4 1.85 1.723.282 1.319.302.414.837.36 1.177 1.195.98 1.504 1.473 1.05 2.58.945 2.372 2.93 1.803 4.358 1.287 2.098 1.729.787 3.072 3.71 1.233 2.397.275 1.832.96.951 4.825 1.252-1.082 3.3-2.498 1.798.4.297.166 1.31-.833 1.456-1.161.397.572.782.059.939.076-.039-.054.395.03.45-.1.079-.39 2.942-.66.969-.564 1.816-.299.124 1.22 1.228-1.727 3.418-1.241-.026-.006.122.276.808-.068 1.981-.21 2.052.073 2.269.851 2.578-4.657.445-4.289-.84-.583-.066-.537.53-.455.7.171 1.39.698 1.982.15 2.069-.451 2.102-1.338 1.35-1.601.08-1.187-.518-.56-.977-.323-1.23-.7-1.075-.004-.018-2.185.18-3.086.243-3.09.244-3.085.234-3.09.234-3.088.225-6.175.429-3.086.204-3.089.205-3.086.195-3.089.195-3.086.185-3.089.186-3.089.175-3.09.166-2.682.13-.293-1.501-1.876-3.205-.994-1.61-1.538-2.508-1.026-4.068-.02-6.057-.332-1.104-1.509-3.014-.297-2.572.702-3.938.33-2.307.78-1.558.731-.76-.529-.559-.698-1.347.103-1.103-.958-2.143-3.426-5.752-.628-2.017-.62-1.2-.855-2.786-1.658-5.398-.829-2.7-.83-2.702-1.638-5.399-1.638-5.399-.82-2.702-1.617-5.399-.81-2.699-1.617-5.399-1.156-3.858 7.112-.727 5.909-.623 5.899-.643 5.888-.66 5.465-.768 5.47-.79 5.469-.807 7.356-1.114zm43.707 80.688.05 12.8-2.656-6.602-.34-1.74.55-1.807 2.396-2.651zM441.45 176.55l.28 2.191.258.706.449.504 1.266.715.36 1.872-.595 1.899-.096 1.96.331 2.417.573 2.169.748 1.732 1.485 1.138 2.815.814 2.106 1.709.648 2.09.992 1.356 1.742 1.249 1.263 1.485.309 1.152.853.933 1.9 1.217 1.371 1.365.492 1.371.056 1.842-.276 2.384-.669 1.897-.918 1.05-.512 1.155-.39 1.883-1.606 1.983-2.56 1.746-2.85 1.243-2.871.68-1.27.995-.325 1.45.243 1.164 1.054 1.169.827 1.629.291 1.836-.695 2.785-1.577 3.715-1.953 2.596-1.93 1.083-.54.986.29 1.763-.188 1.8-1.86.96-2.263-1.64-.282-.769-1.213-.772-1.036-.847-.745-1.312-3.564.188-4.187.22-4.184.2-4.184.19-4.184.18-4.184.17-4.186.16-4.184.14-4.194.131-4.184.12-4.184.11-4.196.1-4.184.08-4.194.07-4.186.06-4.707.046-1.37-2.22-.724-2.02.43-.905.062-2.24-.21-4.143-.335-1.99-.628-.569-.13-1.403.316-.662-.545-.349-.416-1.495.28-1.317-.488-.296-.595-1.052.041-.228-.849-.28-.46-2.202.147-2.77-.246-1.63-.677-1.063-.452-1.336-.009-.936-.63-1.304-1.553-2.2-1.06-3.074-.42-3.425-1.004-1.836-.883-1.964-.516-.96-.057-.523-1.325-1.582-.139-1.077.25-1.093.895-1.53.74-2.264.205-1.731.615-1.199-.062-1.07-1.307-1.002-.4-2.046.573-.742-.62-2.08-.524-2.67 3.506-.106 5.184.02h5.165l5.169-.03 5.167-.04 5.167-.06 5.168-.08 5.165-.09 5.167-.12 5.169-.14 5.167-.15 5.165-.17 5.169-.199 5.157-.21 5.168-.23 5.153-.24 6.178-.34zM56.904 21.532l5.592 1.296 6.12 1.394 4.45.995-1.428 6.32-1.207 5.356-1.217 5.352-1.134 5.026.94 2.175.897 1.658.434 1.634.817 1.792.146.78.047 2.04-.496.985.336 1.277-.403.966.763 1.084 1.178 1.82 1.784 1.535.595.935 2.02 3.82.933 2.269 1.201 1.86.364 1.83 1.18 1.76 1.121.367 1.043 1.525-.067.677 3.308.45.729 2.646-.616 1.522-.753.86-.092.869-1.056 2.448-.749 1.394-.391 1.683-.639.634.084.86-.482 1.36.627 1.203-.155 2.885-2.135 1.04-.232 2.75-.917 1.169.726.857 1.303 1.528 1.107-.792 1.617-.518 2.042-1.385 1.912-.545 1.208 1.751 1.065 1.005-.105 1.735.35.924-.116 1.45.247 1.377.055 1.569.932 2.223.423 1.476.661.798.44 1.122.223 1.202-.014 1.148-.74 1.266 1.08 1.852 1.373.225 1.038.583.772 1.118.6 1.403.322 1.41-.116 1.282.478 1.58-.126 1.173.808 1.058.822-.707 1.71-.741 1.424.28 3.38 1.188 1.031-.885.943-.535 1.271.014 2.445.732 2.92.34 1.347.562 2.176-.058 1.579.486.22-.857.71-.983.391-1.002.998-.689 1.138-.248 1.087.26.72.89.555 1.043.704 2.285.358.694.448.607 1.286 1.032-.66 3.96-.574 3.377-.564 3.368-.564 3.382-.574 3.377-.563 3.369-.565 3.382-.573 3.377-.564 3.369-.564 3.372-.573 3.367-.564 3.368-.564 3.38-.564 3.37-.564 3.361-.74 4.364-4.013-.677-3.03-.511-3.027-.52-3.033-.522-3.023-.54-3.034-.532-3.016-.55-3.028-.55-3.02-.55-3.02-.561-3.02-.57-3.017-.58-3.017-.58-3.023-.58-3.018-.6-3.01-.6-5.987-1.208-5.99-1.23-5.977-1.257-5.97-1.278-5.967-1.307-5.97-1.328-5.948-1.356-6.935-1.601 1.36-5.732 3.353-14.264 1.128-4.763 1.118-4.756 1.127-4.762 1.26-5.375 1.794-3.165.48-1.245-.05-.989.57-1.224.698-.606-.156-.918-.71-.644-1.844-.805-.906-1.99.514-2.527 2.176-2.975 3.601-3.507 1.981-2.408.628-1.602 2.566-3.695 4.269-5.458 1.81-3.34-.195-1.385-.92-1.732-1.873-2.096-1.262-2.442-.226-1.18-.25-1.386.102-1.96.575-.744.028-1.094-.505-2.286-.109-1.862.286-.62.934-3.526.798-3.426.81-3.445.802-3.448.802-3.45.81-3.445.802-3.46.811-3.459.81-3.444.802-3.46.811-3.458.811-3.465.802-3.46.81-3.468.811-3.463 1.015-4.425z"/>
                <path d="m496.977 194.992.378 4.358.469 2.623.508 1.01.511.699.75.587 1.004 2.03 1.087 3.027.85 1.8.78.92.552 6.154.591 6.55.582 6.547.591 6.55.592 6.55.582 6.537.591 6.55.59 6.604-.875 1.019-.276.764.234 1.121-.179 1.382-.345.4.196.678 1.254 2.026.916 2.248.455 2.31-.073 1.89-.838 1.534-.619 3.055-.858 1.663-.943.503-.52.844-.596 1.938-1.106 1.475-1.023.024.495 1.382-.198 1.502-.797.777-.186.908-.194.894.179 1.678-.37 1.53.874 1.885-.92.812-.649 1.267-.037 1.311.88 2.182-1.83 2.298-3.508 1.523-1.309.875.243 1.32.855 1.802.312 1.71-.857 1.648-3.285-.346-4.564-1.265-2.404.235-1.043 1.386-.297.94.997 4.027-3.716-3.417-1.708 1.116-1.874-2.169-1.593-2.53-.518-2.382.64-1.54-.075-1.046-.773-1.417-.526-1.714-.092-1.273-1.6-1.792-3.556-2.667-2.533-1.595-1.697-.6-2.16-1.497-2.436-2.26-1.458-1.948-.296-1.642.848-3.55 2.407-7.272-.91-1.272-2.005-.483-1.75-.218-2.02 1.168-2.272-2.329-1.528-4.236-3.194-4.106-5.14-4.42-3.15-3.19-.986-1.863-.86-2.631-.79-3.499-.117-3.038.936-3.997.768-.39-.314-2.591 1.159-2.076 2.08-1.142 1.561-2.034 1.428-3.295.56-2.196-.178-1.096-.565-1.09-1.248-1.356-.449-2.101.584-2.55 2.192-1.682 3.143-.729 2.535-1.083 2.177-1.455 1.12-1.354.337-1.592.729-1.609.87-.975.467-1.298.234-1.982-.042-1.352-.23-.631-.905-.882-1.953-1.226-1.372-1.469-.32-1.172-.816-.939-1.815-1.274-2.289-3.066 9.314-.493 7.302-.434 7.291-.463 7.3-.503 7.293-.542 7.293-.572 3.062-.248z"/>
                <path d="m548.558 204.902.287 2.297.842 7.304.852 7.296.842 7.296.843 7.285 1.684 14.59.842 7.28.925 7.694-.442 1.033.409.676.138 1.348-.055.09.433.255.684 1.14-.102 1.863-2.046 1.675-3.269 1.686-.727.488-1.01.383-1.22-.358-.597-.382-.69-.065-1.088.233.362 2.13-.569 2.138-1.542 1.31-.782 1.245-.493 1.827-1.24 1.521-1.33.498-.731 1.255-.577 2.82-.932 2.165-1.47 1.155-2.014-.014-2.263-.927-1.503-1.165-.441-1.127-.265-.298-.88.639.252.442-.412 1.212-.637.401-.006 1.383-.481 1.443-1.26 1.643-2.17-.312-1.88-1.398-1.178-.12-1.3.79-1.01 1.076-.81 1.69-1.646.916-1.748-1.307-2.803-1.159-1.13-.141-1.051.475-.534-.063-.038.172-.251 1.202-1.589 1.347-1.084-1.642-.877.197-1.446-.073-.005-.003-.038.15-.136 1.034-.75 1.07-1.229.35-1.425-.331-2.328-2.524 1.1-1.043-.079-2.13.348-1.601.554-.41.41-1.243-.457-.913-.207-1.311.581-1.317 1.093-.729.657-.015.335-.447.585-1.903.96-1.557.897-.478.462-.897.642-3.168.782-1.428.047-1.231-.385-1.952-.804-1.974-1.348-2.176-.584-2.023.676-.781-.226-1.859.616-1.707.572-.587-.528-6.005-.61-6.738-.598-6.726-.608-6.737-.61-6.739-.598-6.735-.609-6.738-.749-8.365 2.573 2.09.528.279.518.401.647.14 1.527-.035 1.368-.31 1.218-.573 3.481-2.508 4.422-.442 5.092-.537 5.1-.548 5.09-.567 5.09-.589 5.08-.598 6.084-.74zM261.5 251.835l4.498.306 3.513.219 3.5.218 3.51.208 3.51.199 3.511.188 3.513.18 3.51.178 3.5.169 3.51.158 3.51.15 3.52.138 7.024.258 3.51.12 3.51.109 3.51.099 3.51.09 3.513.079 3.52.079 3.51.07 3.51.059 3.52.05 3.513.04 3.51.039 3.517.03 7.026.02 3.517.01 7.02-.02 3.35-.033 3.91 2.83.513.01 1.51-.576 1.606 1.119.822 2.264-.174 1.971-1.253.078-.628.68-.94 1.689.207 1.285 1.647 1.65 1.336 2.01.6 1.792.957 1.136 3.025 1.706-.034 1.423.147 8.61.05 2.88.048 2.87.05 2.88.049 2.871.098 5.757.059 2.873.049 2.88.049 2.87.098 5.76.049 2.871.066 3.882-5.05.075-8.088.08-4.048.029-4.043.01-4.047.01-8.091-.02-4.045-.03-4.046-.04-4.042-.05-4.048-.049-4.045-.07-4.036-.08-4.045-.089-4.045-.099-4.046-.11-4.045-.118-4.045-.13-4.046-.139-4.037-.149-4.043-.169-4.046-.169-4.038-.179-4.042-.198-4.038-.2-4.043-.218-4.038-.218-4.043-.239-4.038-.239-4.035-.258-5.026-.334.316-5.125.255-4.131.255-4.134.265-4.13.255-4.13.256-4.125.264-4.129.51-8.265.266-4.129.255-4.131.255-4.132.255-4.134.265-4.129.255-4.134.33-5.133z"/>
                <path d="m556.214 253.901 1.017.905.55.028 1.423-.673 1.902.148 1.699 1.117 1.528 2.004 1.314 2.555 1.709 1.158 2.762.183 2.517.919 1.46 1.398 1.182-.676 1.725-.898 1.887.42 1.7.941 2.016-.581 3.311-2.612 3.083-.393 1.107 2.61 1.58 1.8 2.643 1.954.891 1.018.741 4.221-.025.987-.365 1.596.62 1.471 2.285 2.802.324 1.133.808.946.852 1.642 2.295 3.145 3.127 2.253 3.946.563L603 296.95l-2.797 2.916-2.446 2.186-.57 2.403-1.577 2.174-.912 2.213-2.506 2.11-1.641 2.551-4.678 3.088-2.466 1.144-1.742 1.623-7.511 1.456-6.202.708-6.162.667-6.162.644-6.164.62-6.172.584-6.173.56-6.137.522-5.855.866-5.884.834-5.894.81-6.463.863-.64-.833-1.09-.009-1.026-.015.44 1.422.275 3.433-3.798.432-3.075.31-3.073.31-3.073.298-6.142.572-3.07.274-5.042.443 1.359-4.095 1.336-1.177 1.386.207.68-.408.55-1.998.3-2.42-.036-2.443-.664-1.982-.329-1.575.536-2.031 1.756-2.799 3.745-.438 4.807 1.587 1.667.211-.16-1.053-.83-2.1-.413-1.856.212-1.668 2.149-1.733 3.246-1.69.908-1.367-.645-1.918.058-2.461.98-2.337.895-.926 1.414-.13.345-.911-.303-2.336 2.653.22.694.043 1.118-.585.799.359.026-2.48 2.137 1.208 1.285-.525 1.996.283 3.246 1.61.765.686.602-1.533 1.368-1.736 2.091-1.532 2.453.317 1.86 1.668.733-.485.273-.982-.08-1.354.414-1.396.61-.449-.275-1.161.95-1.242 1.253-.312 1.474-1.073 1.308 1.746.36 1.126.851.793 1.58.776.81.007.508-.478.663-1.847.586-3.437 1.194-2.456 1.453-.652.647-.952.444-2.03 1.055-1.998 1.295-1.331.3-1.314-.588-2.319.878-2.09 2.338-.596 1.522.17.8.616.884-.495 3.116-1.927 1.23-1.207.03-.658-.941-.377-.592-1.386.48-.948-.662-1.701.416-1.78 1.466-1.727 1.817-.458zm-79.77 76.716 2.207 1.115.71 2.019-3.064.339-.305-1.205.046-.756.406-1.512zM454.884 405.297l.238 1.521.96.61.177 1.884-.708 1.73.906 1.09v1.655l-.906.82.517.632.449 1.303v.996l.632.987 1.283.828 1.178 1.38.159.877.117.738-.222 1.24-1.162 1.468-.858 1.02-.397 1.804-1.353 2.078-2.323 2.023-1.326 2.232-.633 2.9-.844 2.176-.787.794-.268 1.143.112 2.356-.766 1.96-.96.255.727 2.816-.317 1.399 2.762-.124 4.567-.237 4.567-.245 4.565-.256 4.567-.275 4.567-.286 4.567-.295 5.808-.388-.58 3.875-1.081 3.436.006.554.415 1.068.033.53.326.52 1.118.822 1.234 1.55 1.117 2.64.294 1.099.617 1.164 1.957.893-2.278 2.19-.714-.178.09.6-1.313 1.339-1.1.759.629.859 1.598.307.325-1.695 1.76-1.894 3.475.263-.402 1.62 1.166 1.644.057 2.621-2.238 1.801-1.367.358.801.981-2.745 1.464-.278 1.264 1.795.968 1.311 1.29 4.902 1.41 1.623-.192 1.611 2.132.756.426 1.61.434-.019 2.638-1.786 1.201-.3.955-1.051 1.881-1.709-1.563-1.302 1.42-2.768 1.46.51-3.438-.465-.446-1.15-1.819-1.318-.905-1.14-.335-.863-.689-.625-.142-.86.138-2.336-.54-.243-1.512-1.134-1.033-1.955-.487.161 2.618-.369.978-.083 1.193-.323 1.53-.821 1.436-2.268 1.23-1.414-1.072-1.201-2.604-1.026-.512-1.947.032-1.11.502-1.637 2.808-2.014.75-5.315-1.187-6.562-2.082.332-2.169 1.527-.484-.923-1.311-.28-.777-.218.225-4.478-.93-1.298-1.319-1.967-2.656-2.927.04-1.263-1.63-1.523.578-.944.744-.526.73 1.711 1.652-1.256 1.52-3.865 1.064-8.282-.602-2.554-.81-3.169-1.648-4.17-1.233-1.853-.149-1.958.334-5.858.301-1.143.347-1.665.923-1.528-1.292-.765-2.43 1.415-.43.444-.431.505-1.083-.671-.989 1.544-2.796.193-.52-.265-3.358-.632-1.415.07-1.132.536-2-.144-1.958 1.124-2.574.716-1.162.737-2.225.156-1.543.29-1.02-.322-1.404.549-.872-.317-.926-.139-1.39-.587-.486-1.592-2.845.01-1.067-1.411-2.26-.04-.636-1.223-1.076-.413-1.146-.186-3.2-.28-.696-1.053-1.647-2.873-2.833-.246-11.546-.059-2.785-.199-9.352 4.33-.102 3.336-.089 3.332-.088 3.333-.099 3.336-.108 3.332-.108 3.333-.118 3.335-.128 3.333-.128 3.333-.138 3.335-.147 3.333-.148 3.332-.157 3.336-.167 3.319-.167 4.536-.258zM475.3 464.3l-1.502 1.87-.96 2.184 1.696.996 1.778.542 2.943-.765 1.914-1.672 1.723-.064.246-.268-3.436-.852-1.84-1.68-1.223-.222-1.34-.07zm-32.563 15.949 1.482.03 1.74 1.005 1.026.44.305 1.934-.944 1.42-1.402.709-4.125-2.217-.581-2.004 2.499-1.317zm60.984-8.235-1.233 4.576-5.687 7.365 3.663-8.818 3.257-3.123zm-5.359-9.228 4.861 6.463.46 1.786-.091 3.215-2.78 4.3.558-7.134-3.008-8.63zm-.315-.48-2.394 5.496-.14.67.384 2.658-2.424-1.099-4.741.2 3.508-2.332 5.807-5.592zM775.616 165.916l2.412.7 1.254 1.931-5.41 3.09-2.88-1.534 2.196-1.382.928-2.014 1.5-.79zm7.571-4.239 4.194 5.203.734 1.568-2.085 1.324-6.814.112 4.735-3.025.185-.788-.949-4.394zm-12.923 5.829-1.616.703-1.658 2.134-1.408-1.466-1.124-2.98.013-.14-1.203-1.212-.55-.27-1.125-.54-.303-1.254-.125-.5-.654-.045-.682-2.09-1.188.34-1.53.454-1.59.474-1.237.368-1.955.259-1.805.47-5.581 1.422-1.873.475-1.861.464-1.05.261-2.322 1.311-.209-.698-.421.091-1.327.287-1.327.286-1.328.287-2.654.572-1.334.288-1.775.37-1.311-1.002.061-2.426.049-1.916.048-1.916.048-1.916.049-1.91.077-3.832.055-2.704 2.3-.504 1.53-.336 1.525-.335 1.53-.345 1.531-.346 1.531-.346 1.53-.345 1.525-.344 2.205-.513 2.208-.523 2.204-.523 2.199-.533 4.394-1.065 4.181-1.033.85-.69 1.136-2.136.964-.706 1.318-1.465.975-.591 3.27-.794-.087 2.154.563.723.555.958.436.39.845-.4 2.049.637.062 1.952-1.084.545-1.077 1.337-.898.59-.209 1.01-.567 1.735-.771 1.71 2.687-.053 1.876.526 3.64 4.22-.375.632 1.522.467 1.355 2.743 1.092.382h1.718l1.9-1.358 1.225-1.284-1.927-1.951-.276-.432-.333.72-2.671-1.814.861-2.04 1.409-.24 1.283.225 3.13 2.138 1.632 3.36.8 2.248-.071 1.88-1.363.064-.883.386-4.816 2.53-.883 1.229-3.412 2.529-1.043-1.53-.108-1.233-.216-.584-2.75 3.873zM643.832 117.494l36.649 111.543 2.49-.51 3.86-.801 3.862-.812 3.861-.821 3.872-.833 4.725-.934 1.19 4.172.94 3.287.938 3.287.938 3.287.939 3.287 1.876 6.57.687 2.375 1.119-.25 3.761-.84 3.757-.85 2.813-.658.36 1.717.014 1.37-1.125 1.651.013.13-.17 1.658-1.11.553-.482 2.26-.735 1.568-.263 1.36-2.083.767-2.079.749-.56 1.364-1.968-.177-3.109.748.144-2.795.168-.683-.474-.331-.542-.008-1.87-.808.891-1.89.063-.518-.983 1.13-.365-.563-.67.65-1.862-.805-2.034-.635-1.492-1.627-1.012-1.427.027-3.198 1.698-1.038-.31-.175-.486-.518-.33.435-2.56 2.032.373-5.029-.645.37-.532-2.604.035-2.154 1.426-.301-1.048-2.957.169-.613-1.012-1.176-.383.335.194.716-.463 1.77-.286-.041.682.264.696 1.95-1.172 1.874.486.765-.24 1.23.294 1.039.171 1.283-.044.9 1.454 3.907.846.886 1.053 1.072 1.308 2.07-1.228.536.656.413 1.189 1.483 1.01 1.285.304 3.208-2.896-1.38-1.044-.77-2.34-.574-3.46-.106-.819-.834-.234 1.416-2.657-1.935-1.057-1.036-1.596.93-2.534.072-.836-2.736.184-1.372 1.061-2.84 1.068-1.373.197-1.15-.731-2.336-.281.276-2.132-.504-2.248-1.38-3.423-.66-1.039-.988-.156-1.206.105-.548-2.824-.738-1.557-.793-.645-1.284-1.116-.503v-1.419l-1.111-.554-.707-.825-.644.088-1.659-.309-1.268-.69-.888.066-2.1 1.369-1.143.435-.256 1.261-.928 1.096-1.782.348-2.065-.022-1.391-.461-.066.077-2.517 3.425-1.406-.268-3.205 3.882-1.047.776-3.188 3.333-.808-4.66-.469-2.717-.47-2.717-.638-3.696 4.87-.87 3.88-.706 3.882-.715 3.881-.724 3.881-.735 3.881-.744 3.871-.753 3.872-.763 3.87-.773 3.557-.72-34.953-111.89zm78.472 127.253-.246 10.72-.63 2.659-1.317 4.268-1.059-4.422.713-4.1 2.54-9.125zM775.09 30.235l2.8.969 3.16 1.544 2.827 1.375 1.21 3.46 1.114 3.252 1.173 3.43.832 2.446 1.152 3.356.922 2.664 1.203 3.478.57 1.654.528.55.103 1.006.587 1.659-.112.668.189.918 1.285.208.86.4.812.145.691-.093.724-.381 1.642.106.99 1.271.165 1.438-.546.783.517.631.961 1.089.155 1.285-.133.786 1.148.87.832.661-.003-.704 1.354-.645.963.026 1.575.079.23 1.18.686.815 1.231 2.346-.198 1.138 1.24.213 1.491.836-2.349 5.947-2.988.422-1.026 1.16-1.105.559-.177 1.51-1.228.95-1.522.348-.667-.059-.451 3.223-.895.038-.512 1.218-1.35 1.366-1.691-1.741-.494-.672-.734-.06-.79.922-1.205 1.542-1.004-.36-.148 1.099.58 1.477.069 2.339-2.098-.208-.863-.64-1.418-.108-2.476.866v-2.629l.024-.047-.104-.574-.695.786.52 1.438-.507 4.22.45 1.735-.848 1.978-1.36 1.927-1.968.24-.73.887-.434 1.461-1.773 1.064-.025-.043-1.551.866.06.768-.746-.053.011.05-.154 2.352-1.987-.732-.099-.068-.185.192-1.919 1.125-.396-1.32-1.16 1.637-.464 1.341 1.32.837-1.875 4.567-1.644 3.344-.605 5.155-.705.857-.901 2.16-3.038-2.675-.694-1.482-1.862-1.401-1.098-1.337-.692-1.602-.38-1.614-.776-2.254-.792-2.302-1.584-4.603-.792-2.301-.792-2.302-.792-2.301-.792-2.302-.792-2.301-.792-2.302-.792-2.301-.792-2.302-.792-2.302-1.584-4.6-.874-2.527.594-.89 1.047-1.187 1.485-.184.306.299-.058-.479.599-1.672 1.027-.503-.355-.79-.341-1.596 1.216-2.827 1.612-1.925.275-.478-.19-1.33.804-1.935.242-.725-.513-.958-.531-1.895-.21-2.165-.182-2.412.498-2.441.987-2.415-.355-2.601-.454-3.272 1.239-3.63 1.303-3.868.74-2.197 1.312-3.991.93-2.872.497-1.324.672-2.207 2.255-.057 2.367-.061.519 2.626.297.6.782.703.745.161.536-.027.538-.165 1.922-1.681 2.546-1.524.948-.791.087-.745 1.195-.81 1.632-.22zm14.564 66.65 1.987 2.014-1.249 1.627-1.88.167-.856-2.507 1.998-1.3zm3.411-5.89 2.013.167 1.61 1.74.596 1.455-1.519 1.367-.128.016.359 1.058-2.722.429-1.194-.572-.64-2.184.646-2.12.98-1.356zM536.018 119.704l1.993.51 2.126 1.103 1.728.484h1.758l1.638.371 1.15.788.842.903.373.663 1.638.113 1.393.314.853.556 4.315 1.077 2.044.692 1.36.907.64.944-.012.715.809 1.093.7.778.236 1.137 3.823 2.834-5.524-.79 2.1 2.565.819 2.075.433 2.43-.094.959.083 1.825.272 2.921.133 1.25-.569 1.43-1.43 1.762-.96 1.032-.15 2.03-.572 1.818-.883.389-1.162 1.29-1.331.343-.405.395-.311 1.5.14.865-.157 1.172.095.62 1.07.834 1.626.484.645-.012.718-1.44.967-.897.642-.253 1-2.531-2.276-.588 2.962-1.541.8-.981 1.065-.74 2.03-.963 1.107-.996 1.192-.386 1.516.353 1.794.87 1.526 1.424 1.22 1.908 1.8 4.718 2.413 7.498 1.455 4.019.526.73.504.7-.24 6.602-.606 2.942-1.544 1.874-1.339 1.576-1.7 2.73-2.14 1.567-.79.654-.754 1.454-.247 1.588-.015 1.117.428 1.043-.713.98-.505.733.021.919-1.538 1.817-.872 2.444-.315 1.03-6.106 1.218-5.386.924-5.372.903-6.388 1.05-.172-1.307-3.93.479-4.92.578-4.923.57-4.922.549-4.921.53-4.922.52-7.692.788 3.9-2.85 1.45-1.45.733-1.19.706-1.642.68-2.158 1.506-3.28.654-1.861.575-2.348.359-2.44.151-2.538-.085-2.608-.31-2.65-.699-2.61-1.107-2.646-.585-1.342-2.103-3.786-2.397-5.233 1.295-3.735-.368-2.449-.385-.984-1.225-1.955 1.65-3.16.779-1.618.637-1.874.309-2.14-.01-2.469-.171-1.495-.384-.85-.068-1.146.587-1.033 1.612-.76.229-.523-.066-1.721.482-1.743.965-.08.583-1.026 1.28-.571.577.152.52-.626 1.149-2.632 1.142-1.831 2.887-1.52-.67 3.058-.04.573.294.88-.025.369.173-.313.903 1.105.103-.447v-.792l-.483-2.502-.093-1.248.235-1.136.991-1.194 1.556-1.226 1.641-.764.819-.135-.32-.19-.844-1.114-.39-1.316.038-1.497.599-1.48.905-1.18-1.414-1.574 3.646-.51.554-.158.675-.733zM475.203 93.83l.686 2.534 1.108.524.88 1.029-.024.85.797.675.361 1.59-.106 1.418 2.36-2.47 1.818.32 3.851.275 1.732.342 1.81.906.772.44 2.329 3.099.834.967.6.295.6.766.208.618 2.36.196.918-.235.95-.684 1.58.365 1.046.922 1.07-.404 1.373-.108.946.43 1.15-1.202 1.858-1.647 2.499-1.831 1.595-.936 2.948-.693 2.247-.299 2.812-.02 2.342-.594 2.247-1.253 2.219-.873 2.158-.402 2.145.572-.841 1.66-.074.91.163 1.63-.027.973 1.271.498.796.33.646-.064 1.245-.68 1.629.116.748.758.675-.429.634-.72.93-.57 1.59.111.656.795 1.009 1.307.6 1.017.455 1.462.425 1.718-.051.067.735.012 1.315.473.882 1.023-.19.764 1.765.963 1.108 1.003-.992 1.85-1.279.409-5.74-.12-1.719.072-1.888-.355-.48-.267-.616 1.302.222 1.83-2.26 1.231-3.325-2.515-1.924-.922-2.366-.587-1.782-.204-1.043.138-.702.5-.773 1.378-1.695 1.123-1.983.409-.592.915-1.6.203-1.336-.36h-1.016l-.999.275-.549.364-.65 1.277-.138.923-.95 1.05-1.75 1.182-.804 1.403.11 2.752-3.248-1.882-.227-1.711.672-1.651.391-.497-.524.13-.971 1.398-.794 1.325-1.546 1.063-1.45-1.054-.01-.031-.411.955-.595.421-.677 1.337-1.05 2.802-1.26 2.813-1.449 2.739-.8 1.333-.576 2.655-2.074-.612-.97-1.105-.603-1.105-.17-1.299.47-1.569-.126.02-1.954.308-1.103-2.041.267-1.18.5-1.236-.105-1.22.207-.63-.375-1.158-1.277-1.321-3.753-1.176.255-2.018-.463-.565-2.856-.686-1.991-.263-2.105.158-1.553-.26-1.825.01-1.335-.627-1.123-.533-2.118-1.022-1.82-.359-7.765-1.57-6.246-1.3-1.963-3.648-.54-.202-.726-.272-.108-.134-.96.32-1.15-2.525 1.98-.844 2.681-1.284 2.204-1.464 1.94-1.821 2.685-1.3 3.015-.59 1.89-.662 1.034-.753 1.646-1.718 1.2-.682 1.136-.222.494-.378.479-1.001 1.188-1.44 1.703-1.579 2.154-1.452zm44.6 42.157 2.065 4.624-6.372-3.816 4.308-.808zm4.4-14.535 2.18.718.336 2.91-.243 1.348-1.005.924-1.616.528-.924-2.378.396-2.257.876-1.793zm17.465-2.542 2.905 1.149-3.826 2.35-3.779-2.779 4.7-.72zm11.73-7.996.931.588 1.015 1.217 1.033 1.05-.6 1.736-1.54.77-2.428.286-1.77-.108-1.288-.76-.659-2.767 2.077.43.921-.654-.728-1.314 3.037-.474zm-8.397-3.549.824 1.1.219.893-.11.938-1.184.889-1.649-1.427-.832-1.846 2.732-.547zm-1.814-5.006 1.472.41.367 1.423-.298 1.1.094.61 1.262 2.059-2.879.536-.816-1.075-.55-1.245-1.09-1.315 1.31-2.07 1.128-.433zm-57.509-14.495 1.669.328 2.034 1.591-1.864 1.498-2.23.477-.528 1.456-2.866 2.673-.179.61-1.615 2.51-.686 1.529-1.665.727-1.115-1.695-.097-1.29.109-.141-1.075.202-1.393-1.274.05-1.618.74-1.566 2.443-2.957 1.217-.941 3.23-1.491 1.87-.452 1.951-.176zm-7.812-15.525-2.955 4.118-.572 1.734-3.797 2.502.284.25-1.588 1.394-1.81.905-1.484.411-1.775-.592.556-2.034.324-1.49 5.87-4.017 2.472-1.472 4.475-1.709z"/>
                <path d="m375.693 48.589 4.525.591 1.488 1.049.302 1.78.293 3.056.574 2.411 1.396 3.14.122 1.152.768.868 2.788.734 5.355.9 3.454 1.23.734 1.267.846.284 1.759-.253 1.158-.457 1.294-1.34 2.18-.4 1.63.032 1.607.073.982.174 2.511.94 1.654.786 2.27 1.395 1.543.749.803 1.866.315.798.581-.608 2.56-.389 2.955.833 2.373 2.3 3.091 1.828 1.703.805 1.503-.076 2.13-1.007 2.606-2.178 2.272-.536 1.853.209.85 1.748 2.001-.071 4.256.039 3.786-.718 1.293 1.302.63 1.085.726.177 1.74-.536 7.494.247-5.155 2.288-.591.676-1.683 1.208-2.537 1.535-2.929 1.421-5.776 2.51-3.46 2.376-1.48 1.362-6.073 7.13-3.787 3.865-6.093 5.35-.32 1-1.439 1.441-.546 1.075-.68.176.095 2.36.128 3.168.128 3.167.15 3.715-.823.574-.733.917-1.032.254-3.788 2.586-.456.543-.666 1.705-1.266 1.97-.215.745.05.657 1.827.908 1.065 1.38.528 1.633-.013 1.518-1.009 2.372-.117.676.22 2.936-.46.809.442 1.909.072.938-.264 2.638-.142.497.262.71 1.82 1.59 1.47.782 1.54.258 1.527.897.905 1.167.882.55 1.456.312 1.761 1.081 2.536 2.502 1.175 1.941 1.783 1.217 3.243 1.42 2.346 1.389 1.32 1.424.9 3.301 1.022 7.565-6.363.33-5.198.246-5.208.226-5.207.206-5.208.186-5.208.167-5.206.147-5.208.138-5.208.117-5.208.099-5.208.078-5.208.059-5.208.04-5.208.019h-5.208l-6.204-.024.043-10.827.03-4.911.02-4.923.02-4.924.029-4.923.03-4.92.018-4.6-.846-1.18-2.546-1.33-.815-1.012-1.23-2.058-.564-1.04-.152-1.263.897-1.119 2.349-2.092.605-.785.3-.76.49-1.943-.196-1.594.164-2.563-.444-1.89-.099-.98-.24-1.026-1.735-3.253-.407-2.673-.443-1.332-.115-3.468.067-1.04.3-1.463-.634-1.064-.124-1.244-.265-7.77-.222-1.148.096-3.562-1.197-3.612-.64-1.366-.34-1.814.026-.657-.985-2.491-.718-3.087.101-2.553-.198-1.897.1-1.475-.173-2.267.246-1.293.035-1.751-1.564-8.033 3.02.033 6.253.059 6.255.03h6.244l6.263-.03h2.462l.008-3.69.013-4.833zM435.297 240.505l1.038 1.789 1.006.454.234.579 1.238.772.306.814 1.82 1.29-.917 3.913.099 2.565.725 3.205.773 2.362.764 1.44 2.87 2.904 5.208 4.467 3.495 4.486 1.482 4.1.876.896 1.247-.72 2.518.313 2.529.607 1.832 1.095.14 2.445-2.432 7.332-.726 3.036.136.756 1.06 1.414 2.188 2.026 1.814 1.255 1.647.58 2.779 1.747 3.763 2.818 2.177 2.435.125 1.716.398 1.294.88 1.61.14 1.944-.578 1.389.308 1.412 1.318 2.09 1.004 1.16 1.609-1.03 2.125 1.95.84 2.084.055 2.463-.34 2.278-.794 2.367-1.502 1.266-1.423-.397-.475.294-1.13 2.814-1.155-.768.231.908-.274 1.838-.57.359.607 1.009-1.335 1.368.316.907-.055 1.95-.9 1.736-.174 1.26-4.035.33-2.908.245-2.908.236-4.692.364 2.12-4.118.867-.926.63-.985 1.13-.893.972-1.508-.795-1.795-.63-1.16-4.262.264-4.9.294-4.9.275-4.9.265-4.909.245-4.9.235-4.91.216-4.9.205-4.911.187-4.9.166-4.908.157-4.91.147-4.911.128-4.909.108-4.91.098-5.895.094-.067-3.725-.04-2.714-.039-2.724-.04-2.72-.048-2.842-.05-2.832-.048-2.84-.05-2.842-.048-2.832-.05-2.837-.058-2.836-.05-2.84-.049-2.842-.049-2.832-.049-2.84-.049-2.832-.049-2.842-.049-2.831-.049-2.842-.05-2.861-2.282-1.523-1.44-1.684-.637-1.878-1.076-1.6-1.967-1.941-.423-2.589 1.4-2.478 1.335-1.425.244-.016-.38-1.032-1.108.183-1.522-.029-4.281-3.058-1.698-2.346-.505-2.24-.71-1.054-1.46-.674-1.174-1.878-.408-2.351-.85-2.093-1.32-2.116 5.93-.056 4.188-.059 4.198-.068 4.186-.078 4.197-.098 4.188-.108 4.188-.117 4.198-.128 4.186-.137 4.188-.156 4.188-.167 4.188-.176 4.188-.186 4.185-.196 4.19-.215 4.8-.247zM506.72 356.975l2.492 1.857-.04 1.05-.01 1.401-.092 4.146-.091 4.138-.092 4.14-.305 12.415-.102 4.14-.112 4.138-.447 16.595-.367 12.444-.12 4.077.55 4.087.559 4.168.56 4.168.559 4.168.56 4.169 1.117 8.348.792 5.569-6.975.984-2.746-.997-.832-.109-3.12 1.277-3.608 1.153-.943-.235-.517.018-2.073 2.707-2.043 1.087-.87-.267-.892-.244-1.562-2.314-.34-1.251-.986-2.298-.929-1.149-1.247-.903-.82-1.287-.047-.74-.447-1.135-.014-1.255 1.164-3.647.198-1.3-3.47.228-4.713.3-4.712.29-4.713.28-4.712.26-4.712.25-4.716.24-5.805.26.137-2.09.833-.893-.667-2.818.305-2.234 1.307-.34.252-.638-.108-2.245.475-1.994.918-.912.657-1.671.69-3.112 1.704-2.827 2.427-2.083.906-1.371v-1.2l.422-1.07.63-.45.704-.826.859-1.07-.708-1.905-1.444-.918-1.215-1.87v-1.266l-.23-.658-.85-1.019.183-1.613.59-.528-.599-.56-.114-1.89.715-1.721-.965-1.01-.245-1.544-.105-.71.638-3.856-1.092-1.373-.23-1.908.414-1.73-.172-.72-.69-.416-.351-.87-.465-1.403.703-.729-.752-.768.795-1.843 1.58-1.283.317-.53.314-.522.137-1.246-.178-.622-.915-1.382 3.147-1.844.01-.011-.584-1.307.735-2.02 1.747-1.59.632-.962.045-1.176 1.198-1.27 1.325-.506.614-1.49.16-3.44.516-2.142 1.002-.35.098-1.063 1.189-1.447 1.655-1.126.259-.432-.24-2.1 5.747-.352 4.942-.32 4.93-.33 4.93-.349 4.93-.36 4.932-.38 4.937-.39 5.418-.407zm-8.98 107.054 21.202 1-12.845 1.692-8.358-2.692zM69.084 24.38l3.659.818 6.214 1.36 6.216 1.33 6.223 1.309 6.242 1.271 1.397.289 4.83.96 6.246 1.21 6.245 1.189 6.253 1.16 6.256 1.12 6.264 1.1 6.275 1.069 6.275 1.04 6.276 1.01 4.736.749 1.548.23 6.283.96 6.295.92 6.305.89 6.296.86 6.303.84 6.316.8 6.314.779 6.316.74 6.313.72 6.326.68 6.325.66 6.333.63 6.328.59 5.721.52-.432 5.271-.722 8.585-.361 4.292-.361 4.292-.361 4.28-.352 4.285-.36 4.282-.362 4.272-.36 4.27-.352 4.275-.361 4.27-.351 4.274-.361 4.26-.351 4.275-.361 4.26-.432 5.195-.441 5.18-.431 5.193-.51 6.119-4.987-.1-3.52-.324-3.473-.33-3.47-.34-3.474-.34-3.476-.351-3.468-.37-3.476-.361-3.474-.38-3.46-.39-3.477-.392-3.47-.41-3.464-.41-3.463-.421-3.471-.43-3.467-.431-3.46-.45-3.454-.451-3.463-.46-3.464-.471-3.453-.48-3.461-.491-3.454-.49-3.456-.502-3.45-.52-3.451-.52-3.456-.522-3.451-.54-3.446-.541-3.451-.56-3.444-.561-2.454-.407-.298 1.79-.472 2.77-.47 2.768-.743 4.461-2.377-1.917-.706-.96-.519-1.01-.71-2.315-.382-.722-.014-.017-.91.676-.607.846.505 2.188-4.419-.602-2.39.064-1.503-.63-2.856-.333-2.377-.715-1.908 1.534-5-1.369-.72-.142-.8.348-.617 1.677-2.693-1.082-1.015-1.217-.56-1.01.152-1.424-.479-1.592.124-1.376-.216-.95-.457-1.076-.404-.586-1.908-.283-1.788-2.366-.446-1.015-.036-1.09.775-1.332-.15-1.28-.259-.663-.733-.888-.513-1.795-1.04-2.495-.064-1.822-.271-1.518.103-1.286-.381-1.01.21-.868-.694-.885-.528-.767-2.235 1.523-1.59.512-.854.646-1.263.473-1.347-.663-1.324-1.56-1.54-1.074.338-2.145.737-.943-.142-2.106.534-1.15.903-.679 1.067-.355.189-1.415-.617-.948.496-2.306-.141-1.446.914-.912.326-1.41.845-1.58.917-2.133.127-1.213.96-1.102.34-.847.025-.102-1.9-.209-.87-.267-.855-.537-.565-.938.07-.723-1.19-.105-.726-1.61-1.278-1.917-.373-1.88-1.11-1.728-.98-2.391-1.965-3.734-.4-.632-1.804-1.558-1.296-2.012-1.91-2.099 1.009-1.19-.31-1.506.62-1.235-.033-1.411-.87-2.149-.423-1.597-.837-1.556-1.25-2.9 1.296-5.76 1.233-5.451 1.224-5.453 1.443-6.417zM715.545 291.854l-.124 2.812.228.447 1.083.747 1.71 2.474 3.55 7.236-4.737-3.778-1.032-.359-1.921-.139-.173-.058.291 2.524-1.026-.139.817 1.073-3.74-.258-.665 1.33-.775 1.088 1.23-.235 1.344-.576 1.026-.876 3.588-.115.496 1.58 2.119-2.146 1.603-.15 1.413 1.535.588 1.351.69 1.806.08 3.185-2.842 3.988-1.863 3.453-1.533 1.168-2.241.097-2.147-.247-.703.055-1.227.7-1.274-1.51-.286-.677-.023.869-1.214.597 1.768.33 1.054.441 1.646 1.156-.998 2.096-.363 1.232.12 1.012-.19 1.173-1.181 1.232 3.62-1.61 3.22 1.312-1.321 3.332-1.293 2.118-2.038.638-1.002.487-.283 1.19-1.692.47-1.753.441-2.786.701-1.148.067-1.518 2.225-1.208.728-1.004-.119 1.044 1.057-2.762 2.81-1.94 2.536-.69.69-.644 1.055-1.278 3.115-.055 2.101-.73 7.893-1.057-3.692-.016.082-7.563 1.376-3.064 1.673-3.6-2.486-2.894-2.024-2.883-2.024-2.884-2.033-2.875-2.036-2.862-2.042-2.866-2.045-2.524-1.817-2.127.31-2.528.37-2.532.368-2.528.36-2.528.358-2.531.36-5.966.822-.587-2.605-.2-.905-1.696-1.604-.502-.478-2.203 1.685-.709-1.89-.044-.525-2.57.29-2.836.34-2.833.328-2.836.33-8.502.956-2.96.323-1.28.657-3.172 1.592-1.675 1.353-.725.036-2.52 1.262-2.853 1.414-5.87.92-5.393.828-5.394.808-6.563.957.1-6.08.464-1.626.985-.631 1.854-.26.578-.363.629-2.782 2.287-2.816 1.182-.85 1.684-.716 3.566-1.024 3.525-2.579 2.698-2.537 2.116-.858.36-.506.286-.8.195-1.943 1.83-.487.697-1.08 1.064-.97 1.165-.66 1.52-.257.62 1.352.448-.396 1.691-2.329 1.395-1.139 2.472-.955 1.495.757 1.895-4.33 1.114-1.117.962-.554.527-.11.146-2.055-.127-1.237.776-2.637 7.3-.743 6.275-.992 6.3-1.015 6.291-1.046 6.29-1.066 6.291-1.095 6.282-1.125 6.28-1.145 6.273-1.176 6.27-1.195 6.263-1.225 6.26-1.244 6.253-1.275 6.251-1.294 6.245-1.326 5.523-1.176zm-10.587 15.544.055.427.953-.065-1.008-.362zm17.283 16.062-5.385 9.467-1.906 4.192-3.39 3.082 2.3-6.813 2.572-4.353 5.81-5.575zM711.7 334.751l6.573 2.45-6.19.272-3.688-.873 3.305-1.849zm20.332-17.902-20.193 16.14 10.411-11.326 9.782-4.814zm-7.805-13.52 3.654 5.422 1.203 3.401.45 2.693.053 4.1-.643 1.544-9.088 4.665 7.243-6.67-.122-4.02-.31-1.872-1.192-3.416-1.248-5.847zm-5.536-.3 5.04 1.85.607 1.008.265.965-.849 2.53-5.063-6.353zm-1.792-11.504 3.578 7.185 5.121 6.736 4.126 6.928-6.022-5.423-3.767-4.508-2.295-3.395-3.25-6.922 2.509-.6z"/>
                <path d="m245.982 51.484 2.583.229 6.253.54 6.244.509 6.251.479 6.255.44 6.253.419 6.263.39 6.253.359 6.263.33 6.253.3 6.263.269 6.273.24 6.265.21 6.261.19 6.263.149 6.274.12 5.282.082 1.528 7.969-.044 2.166-.228 1.232.164 2.183-.108 1.482.206 1.903-.097 2.48.627 2.737 1.089 2.8-.045.857.253 1.37.584 1.268 1.358 4.137-.1 3.764.21 1.11.27 8.01.074.76.803 1.368-.427 2.112-.043.824.103 3.154.407 1.253.383 2.554 1.703 3.246.319 1.428.098.995.483 2.078-.171 2.724.333 2.757-4.739-.04-3.599-.04-3.604-.04-3.608-.06-3.604-.06-7.2-.16-3.614-.09-3.599-.11-3.6-.11-3.602-.12-3.602-.13-3.598-.14-3.604-.14-3.601-.16-3.602-.17-3.598-.18-3.605-.18-3.588-.2-3.604-.2-3.599-.22-3.591-.22-3.602-.23-3.59-.24-3.605-.25-3.586-.27-3.594-.26-3.601-.28-3.592-.29-3.591-.3-3.589-.31-4.582-.396.439-5.25.346-4.27.356-4.255.346-4.27.355-4.265.347-4.27.356-4.268.355-4.268.356-4.275.346-4.28.356-4.278 1.068-12.863.356-4.286.427-5.282zM234.134 183.619l6.543.577 5.535.459 5.531.449 5.545.419 5.542.409 5.543.38 5.543.358 5.543.34 5.552.319 5.543.29 5.555.269 5.551.26 5.543.229 5.551.21 5.556.179 6.66.21 4.856 3.538 2.23.861 1.123-.774 3.25-.55 4.706-.062 3.222.565 1.307 1.176 2.156 1.124 3.515 1.36 2.4 1.667.695 1.577.848.694 1.375.341 1.934 2.585.451 3.664.9 2.601 1.488 2.098.9 1.854.01 1.063.273.802.775 1.215.342 2.248-.146 2.707.146.695 1.343 1.102-.095.517.666.39.334 1.492-.27 1.261.795.468.316 1.466-.48.998.574.584.47 2.788.221 4.33-.075 2.738-.255.534.372 1.036.969 1.562.467.762.993 2.494.378 2.22.656 1.069 1.426.67 1.23 1.857.501 2.272 2.024 3.137-4.46.371-7.075.02-3.524-.01-3.515-.01-3.52-.01-3.527-.03-3.515-.04-3.517-.04-3.528-.05-3.517-.06-3.518-.07-3.524-.08-3.518-.08-3.517-.09-3.517-.1-3.518-.109-3.517-.12-3.515-.13-3.517-.13-3.528-.14-3.517-.15-3.518-.16-3.507-.17-3.515-.179-3.517-.18-3.518-.19-3.517-.2-3.518-.21-3.504-.22-3.52-.22-4.499-.307.417-6.525.177-2.77.186-2.761.177-2.766.177-2.78.186-2.762.114-1.774-3.132-.22-4.119-.29-4.125-.31-4.116-.32-4.119-.33-4.113-.349-4.126-.35-5.107-.446.556-6.536.47-5.53.462-5.543.471-5.53.462-5.543.471-5.542.471-5.54.545-6.542zM746.962 85.816l1.366 4.012.782 2.297.78 2.304.782 2.295.782 2.3.77 2.291.781 2.296.78 2.293.793 2.311.769 2.287.792 2.29.781 2.296 1.562 4.59.782 2.287.797 2.343.356 1.532.513 1.178.757.933 2.049 1.552.72 1.542 1.978 1.762.091 3.374-.076 2.257-2.465.557-.468.269-1.284 1.392-.785.552-1.124 2.066-1.54 1.21-2.459.588-2.257.538-2.245.528-2.258.528-2.241.517-2.262.53-2.24.506-2.922.671-.78-1.15-1.231-1.108-.547-.78-.175-.954.022-2.067.232-.664.077-.845-.495-3.993-.117-2.365-.777-4.272.022-1.493.182-.867.113-2.199.73-1.926.2-2.09.42-1.84-.126-.95.079-2.347-.609-4.178.513-1.31 2.082-1.182.402-.435 1.664-2.104.41-.69.171-.557.027-1.032.027-.674-1.367-2.172-.411-1.317.845-3.226-.78-1.503.516-5.378 1.154-3.076 2.609.136.487-.162 1.494-2.304zM711.946 184.996l4.115 1.332 1.784.577 1.79.576 1.795.568 1.794.568 1.789.566 2.432.734.2 2.506-.798 3.94-.567 1.109-.721 1.028-.494.418-.29.46-.334.77-.145 1.35.296.57 2.173-.131 1.28-1.207 1.411 2.003.708 1.67.198 1.906-.108 1.796.11 2.039.443 3.19.706 10.698-1.841-5.51-.678 2.488-1.077 2.576-.4.009.068.14-.224.966.052 1.58-.848 1.836-.915.098-.475.497.127 1.085-.583 1.209-1.438 5.035-2.338 2.282-1.937-.237.108-3.03-.072-1.452-.775-.306-1.007-.138-1.613.45-2.173-1.402-2.282-.71-3.977-2.85-.163-1.245-.44-1.568.34-2.75.503-2.084 1.195-1.418 2.832-1.494.35-1.02.25-1.332.806-1.117 1.591-1.8 1.625-1.491-3.996-3.384-1.144-.1-1.687-2.429-1.199-.39-.776-.658-.607-2.31-.174-1.286.034-1.21.957-.87.182-.742-1.214-1.794-.296-1.246 1.439-1.739 1.257-2.385.546-2.562.356-.971.563-.83 1.601-1.427zm19.307 24.236-.575 9.756-2.09 6.742-1.263-3.904 3.928-12.594zM134.683 304.34l7.566 1.072 6.58.903 6.588.883 6.59.844 6.59.824 6.6.795 6.597.775 6.61.736 6.6.716 6.618.687 6.61.657 6.618.638 6.61.599 6.629.578 6.619.55 7.617.598-.283 3.715-.207 2.72-.207 2.719-.283 3.707-.747-.05-.422 5.136-.503 6.126-1.007 12.233-.503 6.128-.514 6.125-.503 6.126-.503 6.128-.514 6.124-.503 6.136-.504 6.138-.513 6.135-.503 6.137-.513 6.145-.504 6.147-.596 7.136-5.21-.4-4.217-.344-4.215-.354-4.209-.353-4.217-.374-4.217-.383-4.207-.393-4.207-.403-4.217-.412-4.208-.423-4.207-.432-4.21-.442-4.204-.462-4.197-.461-4.21-.472-2.658-.311.747 2.356 5.538 3.596-8.628-1.135-4.121-.512-4.116-.53-4.109-.53-4.12-.54-4.106-.56-4.12-.56-3.107-.432-.206 1.456-.346 2.444-.345 2.455-.485 3.428-7.64-1.026-6.64-.914-3.37-.487 1.27-8.717 1.125-7.706 1.116-7.699 1.125-7.686 1.115-7.697 1.116-7.689 1.125-7.676 2.23-15.355 1.116-7.668 1.116-7.668 2.23-15.335 1.116-7.658 1.115-7.658 1.259-8.644zM-23.591 159.326l6.87 1.84 5.91 1.552 5.91 1.523 5.92 1.503 5.927 1.484 5.94 1.454 5.938 1.435 5.938 1.405 5.94 1.376 5.928 1.355 5.95 1.327 5.948 1.307 5.95 1.277 5.957 1.258 5.97 1.228 6.952 1.408-.88 4.33-.671 3.357-.68 3.34-1.344 6.709-.68 3.34-.673 3.356-.68 3.34-.671 3.353-.672 3.345-.68 3.35-.672 3.344-.672 3.345-.68 3.35-.672 3.344-.672 3.345-.68 3.35-.672 3.344-.671 3.346-.68 3.34-.672 3.353-.672 3.346-.68 3.34-.672 3.343-.672 3.345-.68 3.35-.672 3.344-.671 3.343-.672 3.345-.68 3.35-.672 3.347-.681 3.342-1.709 8.4-1.95 9.488-2.073 2.305-1.807 1.047-1.531-.372-1.045-1.124-.603-1.314-.825-.682-1.404-.43-1.326-.109-1.12.214-.595.377-.52.97.533 1.961-.445 2.453-.227 1.609.265 1.075-.187 1.465-.667 1.725-.065 1.267.48 2.952-2.507 9.82-5.136-7.147-3.582-5.203-3.546-5.195-3.517-5.206-3.486-5.212-3.478-5.216-3.438-5.225-3.4-5.214-2.476-3.664-2.46-3.67-2.45-3.68-2.429-3.678-2.431-3.682-2.4-3.678-2.4-3.69-2.37-3.674-3.084-4.444-3.061-4.456-3.053-4.466-3.033-4.469-3.002-4.475-2.994-4.478-2.964-4.487-3.188-4.87 1.193-4.385 1.067-3.954 1.076-3.963 1.075-3.95 1.067-3.955 1.076-3.963 1.075-3.95 1.067-3.965 1.076-3.952 2.152-7.926 1.076-3.952 1.076-3.96 1.067-3.965 1.076-3.962 1.337-4.924z"/>
                <path d="m724.793 198.599 1.732.213.423 1.523-.08 1.085-.93 1.531-.97.822-2.456.907.518-4.185 1.763-1.896zm40.213-21.246-12.045 10.783-1.332.78-1.742 1.57-1.863 1.34-1.337.644-6.34 4.469-.908.33-.591-.089-5.207 2.707-2.34.755-6.551 3.233 1.621-1.831-1.062-2.11.33-1.489.46-1.203 1.164-1.994 1.813-1.428 1.273-1.617.281.162.38-.634.815-.692 1.523-.389.477-.225.498-.478.916-.334 1.638.03 1.12-.387 1.027-.855 1.38-.594 3.28-.992 2.942-1.184.926-.91 2.241-2.892 5.354-3.798-3.227 5.478 1.611-.971 1.008-.484.883.5.945-.707 8.639-4.494zm-50.612-74.832.814 2.396.107 1.726.712 1.716.599 3.82 1.713 2.717.297 2.173.62 2.207-.06.854-.45 1.43-.12 1.145.043 1.087.164.59 1.518 3.286.545 1.596.25 1.036.093 1.891 2.912 1.546.677 2.875.415 1.768.464 1.97.691 2.957.503 2.162.464 1.969.376 1.596.06 1.009.722 1.263-.045 2.195-.04 1.918-.04 1.923-.049 1.918-.049 1.918-.05 1.918-.085 3.321.451.34.457 2.438.385 2.056.385 2.057.385 2.056.385 2.057.77 4.113.33 1.757 1.843 1.873-1.167 1.238-.787.827-.84.892-.417.439 2.004 1.954-.994 1.372-1.271 2.299-1.063 1.499-.77.494-.314.798-2.688 3.675.466-5.6.274-1.668-.052-.835-1.509-.42-1.854-.588-1.836-.583-1.841-.585-1.838-.594-1.827-.593-1.826-.593-2.132-.693-.619-.838-3.494-.65-1.175-.703-1.047-.956-.858-1.248-.606-1.361-.293-1.182-.032-.765-.728-.512-.176-.686-2.273-.46-.935-1.172-.982-.54-1.83.419-2.207.505-2.201.494-2.202.495-2.203.494-2.215.496-2.212.484-2.216.486-2.211.474-2.212.475-4.427.95-2.212.464-2.216.466-2.211.455-2.212.455-2.216.455-2.212.445-2.221.445-2.217.446-2.221.435-2.222.435-2.225.436-2.222.425-2.221.425-2.226.426-2.221.416-2.222.415-2.226.416-2.221.405-2.222.406-3.208.585-.7-3.904-.616-3.434 1.213-1.201 2.66-2.48 1.255-1.685 1.483-1.569 1.48-1.231.973-1.276.71-1.646 1.011-1.486 1.034-.92.264-.472-.357-1.163-.826-1.312-.383-1.469.157-.569-2.684-.482-.815-5.154 6.193-3.285 3.667-1.32 4.569-1.062 5.655-.265 2.447.35 1.416.643 1.113-.042 1.512-.739 2.474-.682 3.149-.5 1.424-.102.994-.905 2.21-1.336.738-1.093 1.042-1.465 1.545-1.645 1.618-1.088 1.377-.354.481-.278-.96-3.416-.347-.627-1.6-1.084 1.305-2.355.123-1.648-.986.514-2.666-1.988 1.989-2.897 5.212-5.985.33-.592-.385-.894 4.83-8.113 2.858-3.65 2.569-2.291 2.197-1.378 1.563-.254.755-.284.758-.182 3.541-.859 6.325-1.561 6.326-1.591 4.628-1.177zm-76.591 61.252-.25 2.22-1 2.401-3.369-3.643 4.619-.978zm38.991-30.63-1.842 3.798-1.728.944-.433-2.549 4.003-2.192zm.748-5.822-1.643 2.9-2.68 1.729.832-3.858 3.491-.771zM616.316 188.804l.545 3.233.397 2.277.397 2.282.386 2.272.397 2.273.386 2.273.397 2.282.386 2.273.397 2.282.386 2.273.397 2.281.386 2.263.528 2.917-1.998 1.422.556.855.654 1.605.384 2.008-.467 4.25-1.24 6.387-.494 3.793.254 1.733-1.357 2.655-2.638 3.12-1.94 1.947-1.395.896-1.551.183-.638-.34-.82 1.539-1.115 1.238-.727.152-.278.494-.313 1.821-.552 1.495.463 1.87.129 1.465-1.387.594-1.138 2.101-1.688-2.457-.45-.489-.557.569-1.06 2.585-.334 1.388.356.895.471 2.028-.522 1.416-.873.415-.285.557-.246 1.773-1.392 1.592-2.339.884-2.53-.518-3.027-1.797-1.958-1.868-.646-1.248-1.132.115-3.182 2.09-3.094.746-2.134-.984-.974-.18-.883.384-1.447 1.124-1.801-.462-1.505-1.192-1.882-.573-2.997-.154-2.57-1.45-1.473-2.387-1.193-1.303-.998-.547-.933-.06-1.397.55-1.668-.072-.764-.566-2.373 2.106-1.115-9.263-.823-7.11-1.645-14.24-.823-7.11-.822-7.117-.833-7.122-.932-8.076 6.369-1.045 5.428-.91 5.426-.93 5.588-.99 2.139.343 1.272.365.89.58 3.053.936 1.008.715.616.216.887-1.321 1.853.68 4.765.952-2.282.978 2.437.623 1.435-.628 1.737-.968 2.622-1.238 2.666-.76 2.447-.227 1.222-.378 1.055-.858 2.67-3.17 3.326-2.823 5.478-3.695 6.59-3.783zM241.152 315.764l5.3.401 4.288.325 4.293.296 4.3.296 4.018.266 4.015.257 4.019.237 4.025.236 4.02.217 4.024.217 4.02.197 4.024.198 4.017.177 4.03.168 4.024.167 4.017.148 4.027.138 4.027.129 4.027.118 4.027.108 4.027.099 4.027.089 4.017.079 4.025.069 4.029.049 4.027.05 4.027.039 4.024.03 4.03.01 4.024.01 4.03-.01 4.024-.01 4.027-.03 4.03-.04 4.024-.04 5.03-.073.053 3.744.04 2.743.038 2.73.048 2.68.431 2.987.44 3.05.44 3.045.45 3.053.44 3.046.9 6.098.46 3.124-.02 4.851-.009 2.388-.039 9.552-.01 2.388-.01 2.392-.02 2.394-.009 2.388-.02 4.776-.01 2.398-.01 2.388-.014 3.67-5.535-1.415-1.096-.73-1.98-.814-1.767-1.69-3.192-1.91-.587-.224-.754.748-2.111.964-1.266.052-2.287-.372-.828-1.226-2.282 1.044-.479.756-2.134.044-1.256-.382-3.12 1.164-1.275 1.073-1.142.323-1.078 1.624-2.434-1.972-1.343-.373-2.437-1.63-.01-.177-.458.197-.807.399-3.029-.907-.962-1.432-.428 1.316-.88.417-.868 2.306-1.05.949-1.84-.938-.577-.975-.25-.887-.638-.39-.866.53-1.043.308-1.14-.332-.962-1.104-1.753-.746-.504-1.024-.587-.015-1.684 1.386-1.11.636-1.131.136-1.125-.288-.927-.873-.062-1.72-1.951-1.259-.499-1.423-1.248-.4-2.202-.169-1.03.988-1.145.392-1.215-.431-1.841-1.5-1.935.224-1.497-.262-2.997-1.264-2.327-.181-1.205-.298-1.095-.605-.206-2.135-.77-1.344-.758-.67-.648 1.038-2.852-.453-1.973.324-1.333-.897-3.14-2.924-1.08-.652-1.685-.444.14-3.432.118-2.63.108-2.626.107-2.628.118-2.621.107-2.625.108-2.629.117-2.62.108-2.626.107-2.628.118-2.621.107-2.629.118-2.621.107-2.615.108-2.629.073-1.626-2.29-.103-3.29-.158-3.286-.168-3.29-.168-3.288-.178-3.286-.187-3.29-.188-3.289-.197-3.276-.207-3.29-.208-3.288-.217-3.28-.227-3.286-.237-3.279-.237-3.286-.247-4.274-.322.28-3.73.206-2.733.205-2.734.28-3.731zM-59.143 51.314l2.288 2.975 2.996.947 2.662-.159 1.234.921.55 1.372.644.35 1.268.212 1.866-.09 1.403 1.033 1.428 1.705.628 3.706-.03 5.412-.154 1.42.453.728 1.013.346 5.03 2.293.634.141.766.076 3.543-.96 3.715.375 4.005 1.32 2.554 1.396.563 1.082 1.523.52 5.09.3 5.582.748 2.956.01 3.722-.722 8.226-.05 3.731.739 1.76-.241.735-.384 4.568 1.174 3.939 1.008 3.94.988 3.95.98 3.95.968 3.949.959 3.961.95 4.318 1.03.29 1.535 1.006 1.976 1.85 2.104 1.185 2.268.334 2.393-2.183 4.09-4.3 5.583-2.38 3.482-.652 1.69-2.233 2.758-3.53 3.492-1.806 2.507-.297 1.482.32.714 1.43.633 1.315 1.212.565 1.624-.308 1.508-.877.774-.135 1.32-.68 1.791-1.683 2.958-1.213 5.241-1.117 4.797-1.109 4.79-1.118 4.796-1.108 4.788-2.217 9.578-1.347 5.767-6.886-1.65-5.908-1.445-5.909-1.465-5.897-1.495-5.888-1.514-5.88-1.535-5.879-1.564-5.878-1.594-4.14-1.138-4.141-1.148-4.143-1.159-4.14-1.177-4.133-1.179-4.134-1.198-4.119-1.217-4.123-1.218-4.122-1.238-4.112-1.247-4.111-1.257-4.114-1.268-4.102-1.286-4.102-1.297-4.092-1.307-4.705-1.516-1.389-3.867.398-4.355.382-1.795 1.55-4.085v-1.742l-.551-3.76 1.703-2.771 1.175-1.363 3.91-6.464 1.161-.873.017.005 1.72-2.665 1.67-2.197.683-.57 2.623-7.334 2.39-5.858 1.311-1.596.34-1.94 1.177-2.626.639-2.804 5.775-12.589.293-1.705 1.18-1.991 1.283-5.68 2.121-6.034-.134-.795.27-3.663zM761.024 156.48l.61 1.803.25.746.743.05.473 1.854 1.173.822 1.42 1.433-1.43 2.248-.987-.734-.33.972.753 3.73-1.036 2.436-3.932 2.243-2.373.43-.259-2.535.233-.541-.201-.973-.162-.798-.387-1.358-.443-1.586-.482-1.72-.423-1.518-.312-1.1-.425-1.514-.568-2.034 2.082-.604 1.548-.451 1.486-.431.928-.274 2.051-.595zm.856 8.188 2.57 1.92.267 1.98-1.52 2.313-1.263-2.767-.054-3.446zm3.264-2.943 1.465 6.185-1.132 1.448-2.754.447.541-2.156-.13-1.041.095-1.649 1.915-3.234zM631.446 338.556l1.36.303.211.88 1.339-1.021 1.742 1.654 2.166 2.034.333 1.509.184.816 1.634-.226 2.54-.35 2.544-.36 2.553-.36 2.54-.36 2.544-.37 2.544-.371 2.942-.428 3.198 2.286 2.868 2.05 2.888 2.052 2.889 2.04 2.889 2.032 2.898 2.031 2.906 2.03 4.102 2.827-5.164 5.105-1.058 1.564-2.814 6.068-.572 6.007-.377-.464-.616 1.182-2.486 2.79-1.534.665-1.006.585-.134 1.904-2.115 2.559-1.477 1.388-.984-.032.317.507-.896 2.17-1.54 1.546-2.045 1.188-1.063.098-.437.273-.55.957-2.079 1.453-1.933-.143.876.7.072 2.348-.621 1.073-1.489 1.409-1.5-.053-.204-.312.56 1.343-1.217 2.41-.813.702-.8.34.774 2.691-6.252-1.758-1.792-1.826-.32-2.217-.98-1.974-2.622-3.281-1.848-.883-1.67-2.811-1.738-4.355-1.829-2.34-2.292-.871-1.985-1.466-1.067-1.697-.751-.792-.972-.42-.866-1.232-.237-1.152-1.221-1.18-4.272-2.59-1.21-1.816-1.87-1.557-5.008-3.38-5.429-7.283-.645-1.272-.485-.253-1.402-.019-1.779-.667-2.364-1.676-4.353-2.236.562-3.2 2.31-3.273.771-1.885 3.523-1.598 2.886-1.433.5-.033 1.35-1.08 3.19-1.613 1.434-1.131.984.159 2.723-.296 2.85-.32 2.852-.32 2.856-.32 2.848-.33 2.85-.34 2.86-.341 3.021-.36zm17.928 62.534-.325.253.732.37-.407-.623zM239.224 119.686l4.575.39 3.574.306 3.573.295 3.573.286 3.581.276 3.579.256 3.57.266 3.584.246 3.573.236 3.583.227 3.576.217 3.58.216 3.587.198 3.57.196 7.17.355 3.583.168 3.58.157 7.17.276 3.582.128 3.584.118 3.586.109 3.58.108 3.593.088 3.586.08 3.58.078 3.586.06 3.59.058 3.587.04 3.583.04 4.853.04-.862 3.48-.45 1.15-.892 1.162-2.361 2.115.1 1.065 1.138 1.906.466.588 2.605 1.353 1.5 2.106-.032 5.279-.02 4.95-.03 4.946-.019 4.94-.03 4.947-.02 4.94-.029 4.937-.023 5.905-2.109.063.654 1.482.152 1.092-.208 1.042-.338.429 1.029.753.534 1.173.124 1.116-.029.98-.662 1.265-.187 1.545-.874 2.624-.853 1.428 1.263 2.132.08.73.417.76.785 3.523-3.03-.74-1.573-1.267-.663-1.48-1.748-1.193-3.409-1.298-2.485-1.276-1.074-.95-2.486-.428-4.383.057-2.674.444-1.628 1.105-3.466-1.315-4.587-3.289-6.07-.188-5.582-.177-5.58-.207-5.57-.227-5.578-.257-5.58-.266-5.571-.286-5.58-.316-5.57-.335-5.569-.355-5.571-.375-5.568-.405-5.571-.414-5.558-.444-5.562-.453-6.562-.57.559-6.475.463-5.472.473-5.479.463-5.482.473-5.48.473-5.48.472-5.49.467-5.536.956-5.332.42-5.07.433-5.104.506-6.115zM617.741 309.983l-.915 3.02.108 1.022-.185 1.676.277 1.892-2.065.404-.448.254-.663.64-1.94 4.408-1.55.912-1.691-.832-1.357.51-.948.752-1.595 2.125-.799.88-1.395.79-1.304-1.554-.661.224-.696.616-1.046 1.569-1.067.078-.204.965-.46 1.23-.863 1.165-2.31.92-2.53 2.294-3.91 2.781-3.783 1.059-1.373.567-.784.54-1.819 2.176-.72 3.053-1.636 1.007-2.06.28.056.566-.08 5.386-6.696.759-5.83.64-5.821.62-5.833.602-2.872.281-2.887.291-2.878.282-2.884.27-2.878.273-5.771.523-2.875.252-2.888.253-5.771.485-2.875.232-2.887.233-2.885.223-2.887.223-2.82.209-4.516.93-4.848.383-4.778.368-4.776.35-4.786.339-4.779.33-4.787.31-6.5.398 1.707-2.8 1.875-1.529.563-1.469-.414-2.312.715-2.62 1.653-2.047.457-1.508-.442-1.943 1.037-2.159 1.969-1.325.941-1.772-.192-1.45.18-1.335.85-1.62.023-.79-.966-1.316.814-1.53.298-.732.182-1.332.834-.519.078-.515-.64-2.508 2.407-.247 4.167-.233 3.035-.232 3.036-.222 3.041-.243 3.042-.242 3.039-.242 3.04-.252 1.778-.15-.053-.812-1.418-3.392 3.996.047 1.986.012.532.57 5.328-.586 5.832-.658 5.824-.688 5.853-.71 6.134-.428 6.1-.456 6.108-.474 6.1-.504 6.1-.523 6.108-.543 6.09-.571 5.915-.573 1.027-.525 4.136-.546 8.48-1.133 6.013-.843 4.927-.697 2.914-.427 3.405-.495.763-.584 2.111-.233 4.006-.468z"/>
                <path d="m239.549 326.95 1.722.091 3.313.257 3.3.245 3.301.236 3.314.226 3.31.226 3.311.216 3.314.207 3.311.206 3.31.197 3.314.186 3.311.187 3.311.177 6.624.334 3.311.157 4.31.192-.15 3.611-.108 2.616-.109 2.615-.108 2.615-.109 2.616-.108 2.615-.109 2.62-.118 2.61-.109 2.616-.108 2.616-.109 2.615-.108 2.615-.109 2.616-.108 2.615-.109 2.615-.075 1.81 1.926 1.01 3.206 2.95.556.375 1.553-.252 1.649.362.534-1.519 3.293 1.516.486.688 1.04 1.79.136 1.413.745.26 2.513.193 3.111 1.296 1 .173 2.5-.287 2.244 1.796 1.699-1.234 2.958.224 3.005-.224.225 2.183.186.52 1.573.967.724.897.037 1.247 1.23-.069 1.895-1.54 1.314-.866 2.033 2.088 1.66.699.886 1.004 1.436-.772.767.038 2.007-1.377.408 3.524-.273.794.85-1.181-.076-1.206 1.149-.305.781-1.483 1.564-.654 1.447.757.725 1.065 1.283.45 1.771-1.616 1.676 2.036 1.644 1.088 1.484.406.901.84.555-.456 1.309-.353 1.217-1.013 4.1-1.51 1.61.472.76-.016.277-.438 2.8-.93.934-.58 1.519.884.194.463 1.48.388.632-.025 1.352-.61.925-1.358 2.504.628 3.614 2.137 1.67 1.58 1.834.744.981.655 4.213 1.002 1.024 1.103 1.998.076.947.108.865-.188 2.047.26 1.642.826.106 3.565.09 2.98.088 2.978.089 2.988.06 2.782.058 2.783.06 2.782.059 2.783.059 2.782.059 2.783.06 2.782.05 2.377 2.453 2.419 1.275 1.993.47 1.172.19 3.234 1.6 1.673.058.958 1.45 2.323-.01 1.117 1.15 2.054.933.772.197 1.975.55 1.611-.614.978.25 1.094-.381 1.341-.16 1.585-.88 2.654-.764 1.239-.869 1.99.132 1.8-.57 2.13.544 1.722.327 4.138-.399 1.073-1.565 2.833-.902-.03-1.382 2.637 1.08 1.808-.15 1.866-4.693.594-8.921 4.182-5.587 3.565.837-3.526 1.535-1.049-.341.106-2.25-.673 1.338-3.146-.172-.99-1.483 1.708-1.639-.124-.235-.162.345 2.103 1.039 1.425 1.293 2.7-3.03 3.009-2.064 1.822-.23 1.906-2.646 2.905-2.326 1.535-5.278 3.465-1.494.735-2.413 1.624-3.3 1.199-3.184 1.9-5.179 1.386-.717.606-1.638.973-2.933.728-.97-.92-.385 2.981-.962.842-1.796 1.399-1.002-1.124-.309.182-1.276 3.851-2.279 2.703-2.096.696-2.142-.338 2.375 3.21-2.108 6.152-1.456 2.428-.975.293.266.077.283 2.166-.05 1.566-.934 1.588-.612 1.455.425 1.05.606 3.327.543 1.554.545 4.618.579 1.84 3.405 6.807 1.44.088.414 1.672-.225 2.477-3.346.49-.696.394-.384.956-2.849-.26-3.041-2.2-4.062-1.298-5.67-.618-4.14-1.222-2.102-1.69-1.914-.893-2.27-.365-2.14-1.056-1.44-1.464-1.864-.852-2.914-.503-2.248-1.393-1.37-3.025-1.004-4.43-1.256-2.587-2.678-3.472-.406-.745v-.923l.406-1.87-.175-1.01-.861-1.208-.224-1.745.57-1.358.072-1.25-.273-1.437-1.466-1.722-3.078-2.22-2.708-3.345-2.045-4.128-1.922-2.69-2.083-1.643-1.558-2.208-.751-2.496-.168-1.298-.81-2.691-2.691-4.675-1.595-3.602-.312-2.047-1.556-2.346-3.095-3.056-1.859-2.2-.34-1.248-4.818-4.041-1.326-2.45-.671-.497h-1.199l-1.28-.526-.349.107-2.935-.074-4.703-.605-3.468-.927-1.842-1.075-.668.018-.788 1.069-2.218.87-2.512.164-2.086 1.872-2.147 4.057-.957 2.49.151 1.398-.962 1.448-1.438.532-1.168 1.006-1.53 1.98-2.065 1.092-2.252-.268-3.32-1.936-4.44-3.4-3.37-2.092-2.625-.945-2.44-1.751-1.876-2.291-1.591-1.408-1.75-.898-1.97-2.74-1.99-4.262-.919-3.366.304-3.134-2.214-6.935-1.216-2.99-.894-1.293-1.977-1.741-3.22-2.265-4.22-4.37-5.045-6.308-3.5-3.747-2.235-1.449-1.976-2.51-1.391-3.161-1.28-1.815-2.426-1.567-2.068-6.014 5.885.671 4.196.481 4.2.462 4.198.452 4.2.442 4.199.433 4.199.422 4.199.413 4.199.403 4.198.393 4.21.383 4.208.374 4.209.363 4.209.354 4.206.344 3.22.248.43-5.163.504-6.157.513-6.153.503-6.147.513-6.143 1.005-12.29.503-6.136 1.006-12.27.503-6.136.503-6.135 1.006-12.251 1.086-13.22zm119.134 179.27-2.556 1.548-1.284-1.021.59 1.297.586.131 2.378 1.098 3.21-2.542-2.094-.49-.83-.02zm-20.74 22.71.962 16.66 2.536 11.072.581 3.357-1.22 4.7-2.48-8.296-2.313-11.026-.01-6.377 1.943-10.09zm9.43-9.297-6.563 10.13-2.226 5.373-3.14 5.968.785-7.289 1.858-4.584 3.71-6 5.576-3.598zm.88-3.932.91 2.534-2.084 1.95-5.354 6.904 2.314-7.13.233-.862 1.906-2.601 2.075-.795zm9.176-6.891.446 3.716-3.213 1.639-4.593 2.717-3.356.391 2.596-3.27 1.631-.634 3.385-2.307 1.194-.13 1.91-2.122zm28.963-19.83 3.711.144-3.202 3.74-3.5 2.803-5.01 1.31 6.907-6.392 1.094-1.606zM68.91 182.107l3.985.795 3.014.599 6.04 1.161 3.018.58 3.017.57 3.017.561 3.02.551 3.03.551 3.013.55 3.033.532 3.024.54 6.057 1.043 3.03.512 4.012.678-.608 3.683-.456 2.696-.455 2.707-.455 2.693-.446 2.7-.456 2.707-.455 2.697-.289 1.707 3.126.515 4.127.669 4.127.659 4.125.649 4.126.63 4.127.62 4.127.609 5.13.744-.937 6.412-.783 5.415-.792 5.411-.782 5.415-.792 5.411-.783 5.415-.791 5.411-.783 5.416-.792 5.4-.782 5.416-.792 5.41-.783 5.416-.792 5.411-.782 5.415-.792 5.411-.926 6.405-6.45-.943-5.45-.817-5.45-.837-5.448-.857-5.441-.867-5.438-.896-5.44-.906-5.44-.926-5.43-.945-5.42-.965-5.43-.985-5.42-1.005-5.418-1.024-5.41-1.034-5.411-1.054-6.39-1.28.883-4.327.673-3.348.683-3.354.674-3.346.673-3.346.674-3.349.682-3.354.674-3.346.674-3.35.682-3.343.674-3.345.674-3.36.682-3.343.674-3.347.673-3.348.683-3.354.673-3.346.674-3.349.683-3.354.673-3.346.674-3.348.683-3.354.673-3.346.674-3.36.683-3.342.674-3.36.682-3.343.674-3.356.674-3.36.682-3.342.674-3.36.882-4.331zM661.164 238.668l3.564 1.884 1.44.766 3.285 1.725 1.002.525.12-.6.839-4.084 2.17 1.145 2.488.495 1.827 1.252-.287 1.552 3.281.938 2.252 1.432 1.104.27 1.542.428.933.916.317 3.08-.668 1.756-1.09 1.261-1.078 1.696-.064 1.294.075 2.488 2.327-.712 1.777.093 3.102 2.931 4.444.382 2.101.579 1.699 1.496 2.12.569 2.321 1.44.42 1.584-.296 1.362.135 1.69-.707 1.795-.38.111 2.594.441-.901 1.16.794.161.793 1.951.357 2.91-2.361-.103.545.986-.795.685.203.042 1.833 1.26.802.916.887 1.84-.984 1.369.622-.506 2.145.105 3.014-.197 1.222 1.449.91 2.016 1.385 2.102 1.677 3.331-1.784.423-1.346.288-4.293.928-6.25 1.312-6.258 1.282-6.26 1.262-6.267 1.233-6.27 1.214-6.277 1.183-6.279 1.164-6.287 1.134-6.29 1.115-6.298 1.085-6.297 1.056-6.299 1.035-6.307 1.006-6.308.987-6.377.967-2.859.01-1.51.178-.734.561-3.915.591-2.923.434-4.932.72-6.012.849-8.473 1.164-7.612 1.003 4.652-3.623 2.592-1.005 4.155-2.292 1.558-2.025 2.326-1.637.8-1.622 1.432-1.65.415-1.88 3.082-2.466 2.645-2.304 6.792-7.454.874 2.483-.086.577.465.533.65 1.272.573.554.69.414 1.374.38 1.661.767.707.054 1.344-1.11.962-.667 1.42-1.825 2.814 1.393 2.31-1.046 1.881-.49.144-2.173 2.7-.535.687-.11 3.81-2.34.805.599.772-.607.563-.675.183-1.136.386-.881-.827-.913.54-2.352.756-1.874 2.801-5.363.662-3.128 1.175-2.112.234-1.569.878-1.643.246-3.17.677-1.234 1.368-.451 1.256.393.917.686.384.65 1.398.319 1.109-.133.532-.426.314-.857.48-2.182.576-1.302.237-1.526.427-1.407 1.084-1.237 2.048-.35.588-.74.646-1.244.793-.795.515-.052 1.21-1.584 1.644-3.672.094-2.179.316-1.654-.071-1.724.715-2.29zm43.337 48.241.204.46.522-.06.311-.254-.303.219-.734-.365zm14.425-28.38-2.093 10.773.62 1.83-1.14 1.196-1.013.645-.763.965-.408.9-.095 2.792-1.051 5.269-2.6-2.494-.609-1.387-.287-3.216.438-5.234 1.023-3.506.884-1.593.366-3 .654-1.647 2.868-1.07 3.206-1.222zm4.186-13.124-3.188 18.01-3.544 2.69 6.732-20.7zM741.817 95.394l1.054 3.225-.84 3.298.157.519 1.439 2.348.176.941-.21 1.747-.296.987-.577.999-1.73 2.249-.645.715-1.667.973.479 3.949-.077 2.336.146 1.128-.453 2.043-.206 2.204-.688 1.864-.1 2.021-.169.824-.016 1.097.737 4.164.116 2.396.494 4.09-.115 1.287-.197.58-.016 1.536 1.414 1.674 1.312 1.984-2.908.659-1.499.337-1.51.349-1.505.329-1.503.338-1.502.34-1.505.328-2.196.48-1.23-1.987-.076-1.298-.323-1.388-.448-1.935-.486-2.115-.667-2.885-.437-1.93-.4-1.729-.481-2.072-1.574 1.104-1.386-2.26-.15-3.111-.178-.745-.464-1.378-1.487-3.263-.262-.942-.055-1.435.151-1.455.423-1.365-.535-2.224-.239-1.83-1.64-2.638-.604-3.906-.713-1.764-.107-1.752-.754-2.25 3.518-.93 6.079-1.603 6.081-1.642 6.062-1.662 6.988-1.948zM-23.19-.08l2.739.823 6 1.788L-8.444 4.3l6.02 1.73 6.019 1.71 6.028 1.68 6.038 1.65 6.048 1.621 6.058 1.592 6.058 1.562 6.07 1.533 6.078 1.513 6.067 1.484 6.091 1.455 2.456.582-1.012 4.433-1.62 6.942-.81 3.461-1.618 6.922-.81 3.461-1.619 6.92-.8 3.461-.8 3.454-.81 3.449-.8 3.45-.799 3.452-.8 3.452-.833 3.586-.3.519.067 1.155.522 2.372-.05 1.991-.592.768-.057 1.104.5 2.651-5.22-1.227-3.992-.944-3.982-.955-3.981-.964-3.982-.974-3.974-.984-3.972-1.004-3.71-.947-.62.173-2.335.317-3.885-.76-7.905.048-3.757.719-3.3-.01-5.675-.751-5.32-.3-2.551-.86-.657-1.245-1.874-1.012-3.653-1.187-3.157-.315-3.563.953-1.257-.122-.96-.212-5.165-2.323-1.594-.542-1.204-1.913.22-1.986.029-5.11-.512-2.969-.93-1.104-.653-.47-1.767.085-.531-.616-.69-.293-1.47-1.841-.422-1.011-2.751-.779-.299-.74-3.096-.262-.696-.973-2.939-.128 1.78-3.156.697-2.417 1.611-4.463-.292-.266.305-3.913.122-.024.117-2.723.398-1.588.392-2.544-.256-4.633.776-5.636-.305-2.749-1.48-3.293-.139-1.97.724-4.158 1.22-2.703.356-3.343 2.494 1.114 2.448 2.58 3.266 2.437.81 1.262 1.296 1.034 9.119 3.956 1.978-.229 1.107.53 1 1.952.914.302 3.541-1.392-.619 3.126.009 1.273.291 1.725 2.172.462-.413 2.674 1.214-1.207.407-.717 1.27-1.062-2.68-2.75-.22-1.149.109-1.238.58-1.085 1.442-.599-.275-1.184-.43-.823-1.459-.831.39-3.274 2.271.749.784-2.762.082-1.249-1.247-.397-.466-1.374-.153-1.565-.043-4.665zM-54.815 45.03l-.17 2.033.582-1.255-.372-.74-.04-.038zm22.832-6.099-1.177 1.42.035.04.896-.125.806-.993-.528-.292-.032-.05zm-2.363-1.2-.814.57-.632.953 1.407.123.039-1.646zm-19.307.666-.684.926.996-.19-.312-.736zm28.107-9.297-.053.103-1.6.733-.702 2.641.146.576-.011 1.753-.37 1.46-.592 1.256.259.072 1.215-.727.54-3.047.543-1.468-.368-1.057.417-1.008.558-.716.018-.571zm-8.295 6.554.49 4.944-3.106-1.856.365-1.735 2.251-1.353zm6.493-3.626 1.127 3.277.472 1.665-.542 1.207-2.22.683-.094-.644-1.768.713 1.181-3.48 1.844-3.42zm-.24-3.615 1.977 1.154-.62 4.057-2.497-1.012-.317-1.311.47-1.39.986-1.498zm3.939-14.828 1.356 1.62.441 1.553-.671 1.337-1.372.268.391 1.503-.034.744 1.959 3.772-.831 2.786-2.482-1.94-.29-.446-1.01-.601-.382-1.447-.014-.852.461-1.71-.862-.61-.563-1.864.87-1.605 1.415-1.42 1.618-1.088zM-24.949 9.3l-.418 2.06.615 2.241-3.076.129-.713-1.421.053-1.155 1.037-1.71 2.502-.144zm-3.709-2.608 1.217 3.084-.087.95.587 2.998-3.494-2.295-.88-1.01.157-2.88 2.5-.847zm2.982-.993L-23.2 7.58l.162 1.707-2.055.807-.206-.234-.2.539-2.763-1.543-.211-1.657 1.104-.94 1.692-.561zM-26.5-.587l1.335 1.489-1.631-1.224.296-.265zM441.012 101.232l1.21.017 1.577 1.21-.03 2.09-.784 1.466-.245.842.07.88-.19.647.603-.169 2.715.206 1.343.676.69.183 1.674-.433.265.891.447-.149.64.795 1.462.55.66 1.231.482.9.483.9.262.489 1.481.31 1.939.405 1.933.404 1.948.396 1.948.395 1.948.396 1.944.395 2.074.41 1.238.6 1.115.541 1.119.533.926.437 1.552-.01 1.49.252 2.079-.157 2.31.307 3.526.851 1.186 1.206.294 1.025-.099.78 2.396.753 1.609.96.889 1.089-.026.844.47 1.46-.284.866.111 1.3-.62 1.541-.051.224.508.097 1.182-.551 1.708.68-.772 3.576.072.554.32.589.446.51 1.18.349.048 1.396-.26 1.503-1.077 1.295-2.042 1.224-.094.938-1.327 2.866-.54 1.52-.279 1.398-.3.447.538-.644.834-.911.884-.648.482-.711.815-2.28 1.329-1.762.828-.18 1.436-.728 1.666.171.848 1.033.787.645.343 1.032-.222 1.558-.456 1.475-.648 1.398-.486 1.954-.374 2.627.043 1.805.54 1.448-.335 1.794-1.071 1.292-.644 1.336-.454 1.725-.215 1.417.017 1.075.14.726.55 1.274.047 1-.977 2.975-.268 1.21.02 1.04-.228 1.224-.713 2.177-.151 1.022.033.902.378 1.816-.055.556.408 1.331-.164.864.417.474.469 1.13.238 1.256.322.823.646.89.256 1.585-.184 1.694.105 2.928.174 1.985-3.072.25-7.285.574-7.287.545-7.297.504-7.295.465-7.298.436-8.19.435-.88-2.544-1.328-1.058-2.803-.798-2.205-1.674-1.02-2.313-.657-2.41-.366-2.698.12-2.378.522-1.64-.84-.868-.929-1.026-.469-1.263-.202-1.477-.858-6.412-.736-2.727-.789-.86-1.987-1.19-3.296-1.456-2.293-1.581-1.268-2.117-2.192-2.185-1.272-.788-1.459-.317-1.481-.93-.887-1.157-.875-.519-1.494-.253-1.946-1.045-2.331-1.95-.715-1.96.27-.957.23-2.307-.048-.62-.58-2.538.542-.964-.193-2.599.198-1.154.942-2.238.007-.809-.322-1.007-.571-.747-2.425-1.219-.165-2.156.394-1.38 1.314-2.066.712-1.84.842-1.013 4.307-2.97.721-.18.488-.617-.068-5.96-.128-3.194-.16-3.999 1.364-.356.254-.502 1.627-2.105 1.564 1.06 1.102.635.66.039 1.103-.195 4.892-1.613 1.928-1.005 2.299-2.007 1.19.212 2.699-1.78 1.171-.393zm61.355 32.114 1.601.204.834 1.03-.074 1.917-.694.154.028.689-.139 1.153-.207 1.38-.964.99-.353 1.027-.134.785-1.33 3.15-1.245.556-1.244-.41-.782-.85-.435-1.081-.229-1.083 1.298-2.564.395-1.02.21-1.357.745-1.263.862-.449.377-.52.424-1.32 1.056-1.118zm1.061-2.951 2.48.415.79 2.676-1.337.806-1.63.019-.948-1.243.645-2.673zm-58.094-27.463 2.358 1.403-2.075 1.477-.878 1.129-2.784 1.171.574-3.205 2.805-1.975zm2.079-2.317v3.07l-1.393.448-3.776-.44 3.207-2.447 1.962-.631zm-4.177-.133 1.489 1.606.427 1.171-1.316 1.022-2.039-1.142 1.439-2.657zm5.987-2.473.1 2.263-.448.862-1.265 1.006-1.25-1.004.202-1.774 2.66-1.353z"/>
                <path d="m621.356 217.602.675 4.134.435 2.553.423 2.554.869 5.1.423 2.544.434 2.558.265 1.556 1.18-.208 2.174-.382 4.336-.784 2.174-.404 2.165-.392 2.166-.402 3.177-.605.63 3.842.463 2.82.464 2.831.127.777.508-.562.955-.756 3.234-4.665 1.825.16 1.663-2.397.29-2.096 2.024.932 1.242.543 1.268.032 1.06-.195.181-1.115.801-1.152 1.477-.595 2.33-1.6 1.995-.155 1.495.857.906.177 1.25-.303 1.739.512-.266.871.971.612.89 1.157-.143.5.907 1.083.415 1.327-.353 3.242-.656 3.299-3.38-1.804-3.305-1.773-1.443-.777-1.312-.712.051 1.245-.333 1.774-.104 2.462-1.897 4.317-1.874 2.498-.657.08-.677 1.252-1.186 1.507-2.111.366-.333.392-.272.889-.245 1.668-.606 1.392-.477 2.164-.55 1.533-1.416 1.14-2.026.26-2.589-.603-.62-1.067-.975 3.05-.914 1.743-.228 1.621-1.219 2.214-.648 3.168-2.891 5.64-.673 1.675-.253 1.123.906 1.414-.73 1.665-.22 1.454-1.06 1.278-2.24 1.806-.682-.707-3.184 1.786-1.286.194-.217-.073-.352 1.177-.857 1.053-.72.463-1.978.526-2.016 1.05-1.327.22-1.928-.972-.605.792-1.101.778-1.44 1.505-2.346.014-1.886-.887-1.483-.418-1.125-.687-.978-.973-.688-1.365-.913-1.065.201-1.263-2.082.126-3.752-2.29-2.57-3.01-.818-1.328-.942-.95-.328-.983-2.124-2.198-.805-1.283-.219-1.118.425-1.541-.58-3.32-2.271-2.601 4.7.982 1.313-.507.67-.783.21-1.544.739-1.48.749-.364-.265-1.441-.53-1.359.513-2.179 1.23-3.065 1.597-1.922 1.833.67.852.948.362-.3-.498-1.12-.193-1.655.713-.54.283-.783.338-2.013.884-1.606.972-.208.489-.554.824-1.727 1.545-1.064 1.146.625 1.273-.591 1.72-1.766 2.426-2.933.963-1.924-.201-1.406.534-4.193 1.23-6.476.424-3.943-.29-1.553-.476-1.193-.975-1.286.385-1.779 3.407-2.48zM128.499 126.722l4.371.72 3.39.55 3.394.547 3.39.529 3.394.528 6.8 1.019 3.394.508 3.397.49 3.4.48 3.407.48 3.396.47 3.407.46 3.407.45 3.4.44 3.404.44 3.41.422 3.416.42 3.407.412 3.41.402 3.414.4 3.42.383 3.406.381 3.414.372 3.422.353 3.414.362 3.417.343 3.42.333 3.416.333 3.417.323 3.427.313 4.412.392-.55 6.45-.474 5.458-.474 5.447-.474 5.445-.465 5.449-.474 5.445-.465 5.439-.474 5.445-.465 5.439-.949 10.873-.464 5.439-.474 5.425-.465 5.44-.474 5.426-.562 6.437-6.21-.561-5.203-.48-5.21-.51-5.211-.52-5.204-.53-5.203-.558-5.2-.578-5.202-.588-5.203-.608-5.192-.628-5.19-.646-5.195-.658-5.19-.686-5.183-.696-5.182-.715-5.182-.736-4.134-.597-4.123-.608-4.124-.618-4.126-.627-4.123-.647-4.124-.657-4.124-.667-5.103-.839.623-3.675.454-2.683.454-2.692.446-2.687.454-2.684.455-2.695.454-2.68.445-2.689.573-3.368.564-3.35.563-3.36.563-3.37.564-3.364.573-3.357.563-3.36.564-3.363.573-3.367.563-3.37.564-3.363.573-3.367.563-3.371.564-3.363.572-3.367.564-3.37.455-2.717.465-2.714.463-2.71.62-3.698z"/>
            </g>
            <path d="m712.63 185.766-1.104 1.002-.448.652-.298.822-.577 2.737-1.412 2.707-1.233 1.494.14.591 1.222 1.714.13.612-.319 1.313-.895.822-.02.732.17 1.203.43 1.821 1.404.42 1.706 2.423h.966l5.124 4.467-1.894 3.01-1.571 1.795-.667.932-1.193 2.316-2.307 1.223-1.153 1.033-.259.42-1.62-.26-2.05.561-.636.431-.417.652-.577 2.96c-21.675 4.524-37.88 7.764-48.614 9.722-10.735 1.957-21.19 3.578-31.366 4.863l-4.226-23.921.398-.622-.398-2.305-.388-2.306-.397-2.306-.388-2.306-.398-2.306-.388-2.306-.398-2.296-.387-2.305-.398-2.306-.398-2.306-.308-1.845 2.824-1.654 1.213-.992 1.233-.983.627-.551.726-.532 4.564-3.76.03.121.527 2.958.527 2.957 2.237-.411 2.247-.411 2.238-.411 2.237-.421 2.238-.421 2.237-.421 2.237-.431 2.238-.431 2.237-.442 2.228-.44 2.237-.442 2.238-.44 2.227-.452 2.227-.451 2.238-.451 2.227-.462 2.228-.46 2.237-.472 2.228-.471 2.227-.471 2.228-.472 2.227-.48 2.218-.482 2.227-.491 2.227-.491 2.218-.492 2.227-.49 2.218-.502 2.227-.512 2.218-.5 2.217-.512 2.218-.511 1.511.832.836 1.052 2.078.401.537.371.169.692.835.592.299.864v1.321l.537 1.213.745 1.093.895.822.915.552 3.152.4.736.492.537.732z" fill="#A9B3ED"/>
            <path d="M630 181c-9.925 0-18 8.108-18 18.075C612 211.602 630.018 233 630.018 233S648 210.986 648 199.075c0-9.967-8.075-18.075-18-18.075zm5.431 23.367a7.641 7.641 0 0 1-5.431 2.256 7.64 7.64 0 0 1-5.43-2.256c-2.995-3.007-2.995-7.9 0-10.907a7.612 7.612 0 0 1 5.43-2.259c2.052 0 3.98.803 5.431 2.26 2.995 3.007 2.995 7.9 0 10.906z" fill="#2942D1"/>
        </g>
    </g>
</svg>
