<?xml version="1.0" encoding="UTF-8"?>
<svg width="510px" height="322px" viewBox="0 0 510 322" version="1.1" xmlns="http://www.w3.org/2000/svg" xmlns:xlink="http://www.w3.org/1999/xlink">
    <title>Koop API 2@3x</title>
    <defs>
        <ellipse id="path-1" cx="26.3390663" cy="26.3214286" rx="26.3390663" ry="26.3214286"></ellipse>
        <ellipse id="path-3" cx="26.3390663" cy="26.3214286" rx="26.3390663" ry="26.3214286"></ellipse>
        <ellipse id="path-5" cx="26.3390663" cy="26.3214286" rx="26.3390663" ry="26.3214286"></ellipse>
        <ellipse id="path-7" cx="26.3390663" cy="26.4330827" rx="26.3390663" ry="26.4330827"></ellipse>
    </defs>
    <g id="---00-Pictures" stroke="none" stroke-width="1" fill="none" fill-rule="evenodd">
        <g id="Koop-API">
            <rect id="Rectangle" fill-opacity="0" fill="#FFFFFF" x="0" y="0" width="510" height="322"></rect>
            <g id="Koop-API@3x" transform="translate(54.000000, 0.000000)">
                <rect id="Rectangle" fill="#FFFFFF" fill-rule="nonzero" opacity="0" x="0" y="0" width="401" height="322"></rect>
                <g id="Vehicle-API" transform="translate(40.000000, 0.000000)">
                    <ellipse id="Oval" cx="160" cy="159.5" rx="160" ry="159.5"></ellipse>
                    <ellipse id="Oval" fill="#FAFAFB" cx="160.39312" cy="159.5" rx="135.233415" ry="135.142857"></ellipse>
                    <ellipse id="Oval" fill="#F2F3F9" cx="160.39312" cy="159.892857" rx="110.859951" ry="111.178571"></ellipse>
                    <ellipse id="Oval" fill="#E5E7F2" fill-rule="nonzero" opacity="0.563081287" cx="160" cy="159.892857" rx="82.9484029" ry="82.8928571"></ellipse>
                    <ellipse id="Oval" fill="#E5E7F2" cx="159.60688" cy="158.714286" rx="55.036855" ry="55"></ellipse>
                    <g id="Group-12" transform="translate(127.371007, 130.602777)" fill-rule="nonzero">
                        <g id="Group-9">
                            <rect id="Rectangle" fill="#222222" x="0" y="0" width="65.1125816" height="16.4228671" rx="4.54304636"></rect>
                            <ellipse id="Oval" fill="#FFFFFF" cx="8.65858799" cy="8.55357666" rx="3.11709167" ry="3.07928759"></ellipse>
                            <rect id="Rectangle" fill="#FFFFFF" opacity="0.790643601" x="32.5562908" y="6.15857519" width="27.0147945" height="4.10571679"></rect>
                        </g>
                        <g id="Group-10" transform="translate(0.000000, 20.243698)">
                            <rect id="Rectangle" fill="#222222" x="0" y="0" width="65.1125816" height="16.4228671" rx="4.54304636"></rect>
                            <ellipse id="Oval" fill="#FFFFFF" cx="8.65858799" cy="8.55357666" rx="3.11709167" ry="3.07928759"></ellipse>
                            <rect id="Rectangle" fill="#FFFFFF" opacity="0.790643601" x="32.5562908" y="6.15857519" width="27.0147945" height="4.10571679"></rect>
                        </g>
                        <g id="Group-11" transform="translate(0.000000, 39.925070)">
                            <rect id="Rectangle" fill="#222222" x="0" y="0" width="65.1125816" height="16.4228671" rx="4.54304636"></rect>
                            <ellipse id="Oval" fill="#FFFFFF" cx="8.65858799" cy="8.55357666" rx="3.11709167" ry="3.07928759"></ellipse>
                            <rect id="Rectangle" fill="#FFFFFF" opacity="0.790643601" x="32.5562908" y="6.15857519" width="27.0147945" height="4.10571679"></rect>
                        </g>
                    </g>
                    <ellipse id="Oval" fill="#222222" fill-rule="nonzero" cx="81.7690418" cy="189.357143" rx="1.57248157" ry="1.57142857"></ellipse>
                    <ellipse id="Oval" fill="#222222" fill-rule="nonzero" cx="186.339066" cy="26.7142857" rx="1.57248157" ry="1.57142857"></ellipse>
                    <ellipse id="Oval" fill="#222222" fill-rule="nonzero" cx="32.2358722" cy="115.5" rx="1.57248157" ry="1.57142857"></ellipse>
                    <ellipse id="Oval" fill="#222222" fill-rule="nonzero" cx="154.889435" cy="294.642857" rx="1.57248157" ry="1.57142857"></ellipse>
                    <ellipse id="Oval" fill="#222222" fill-rule="nonzero" cx="240.589681" cy="143.785714" rx="1.57248157" ry="1.57142857"></ellipse>
                    <ellipse id="Oval" fill="#222222" fill-rule="nonzero" cx="285.405405" cy="210.571429" rx="1.57248157" ry="1.57142857"></ellipse>
                    <polygon id="Path-2" fill-opacity="0.388958698" fill="#848495" fill-rule="nonzero" opacity="0.698292" points="192.628993 122.213463 199.535064 128.857143 209.657937 118.331528 213.348982 121.893928 216.216216 104.5 199.051016 108.009449 202.776219 111.626755"></polygon>
                    <polygon id="Path-2" fill-opacity="0.388958698" fill="#848495" fill-rule="nonzero" opacity="0.698292" transform="translate(114.791155, 115.892857) scale(-1, 1) translate(-114.791155, -115.892857) " points="102.997543 121.427748 109.903615 128.071429 120.026487 117.545814 123.717533 121.108213 126.584767 103.714286 109.419566 107.223734 113.144769 110.84104"></polygon>
                    <polygon id="Path-2" fill-opacity="0.388958698" fill="#848495" fill-rule="nonzero" opacity="0.698292" transform="translate(205.208845, 201.535714) scale(-1, 1) rotate(-180.000000) translate(-205.208845, -201.535714) " points="193.415233 207.070606 200.321305 213.714286 210.444177 203.188671 214.135223 206.75107 217.002457 189.357143 199.837257 192.866592 203.562459 196.483898"></polygon>
                    <polygon id="Path-2" fill-opacity="0.388958698" fill="#848495" fill-rule="nonzero" opacity="0.698292" transform="translate(114.791155, 199.964286) rotate(180.000000) translate(-114.791155, -199.964286) " points="102.997543 205.499177 109.903615 212.142857 120.026487 201.617242 123.717533 205.179642 126.584767 187.785714 109.419566 191.295163 113.144769 194.912469"></polygon>
                    <g id="Fill-5408" transform="translate(217.788698, 215.285714)">
                        <g id="Mask" fill="#2942D1" fill-rule="nonzero">
                            <ellipse id="path-1" cx="26.3390663" cy="26.3214286" rx="26.3390663" ry="26.3214286"></ellipse>
                        </g>
                        <g id="0-78-Clipped">
                            <mask id="mask-2" fill="white">
                                <use xlink:href="#path-1"></use>
                            </mask>
                            <g id="path-1"></g>
                            <g id="0-78" mask="url(#mask-2)">
                                <g transform="translate(12.806920, 13.779702)" id="Group">
                                    <g id="shadow" opacity="0.153888081" fill="#FFFFFF" fill-rule="nonzero">
                                        <polygon id="Path" points="40.6307296 24.2936549 15.0402961 0 0 24.2936549 16.0040967 40.4440702 40.6307296 38.8364407"></polygon>
                                    </g>
                                    <g id="Слой_1" transform="translate(0.000000, 0.000000)" fill-rule="nonzero">
                                        <path d="M12.3858627,1.04762374 L0.280896639,22 C-0.0936308719,22.6482679 -0.0936323029,23.4469645 0.280892886,24.0952322 C0.655418074,24.7434997 1.34757102,25.1428571 2.09662604,25.1428571 L26.3065942,25.1428571 C27.0556493,25.1428571 27.7478022,24.7434997 28.1223274,24.0952322 C28.4968526,23.4469645 28.4968512,22.6482679 28.1223237,22 L16.0173576,1.04762374 C15.6428295,0.399352203 14.95067,0 14.2016101,0 C13.4525503,0 12.7603908,0.399352203 12.3858627,1.04762374 Z" id="Path" fill="#FFFFFF"></path>
                                        <rect id="Rectangle" fill="#2942D1" x="13.3629818" y="6.28562271" width="1.67731429" height="11.0748883"></rect>
                                        <rect id="Rectangle" fill="#2942D1" x="13.3629818" y="19.3061768" width="1.67731429" height="1.94546403"></rect>
                                    </g>
                                </g>
                            </g>
                        </g>
                    </g>
                    <g id="Fill-5408" transform="translate(217.788698, 51.857143)">
                        <g id="Mask" fill="#2942D1" fill-rule="nonzero">
                            <ellipse id="path-3" cx="26.3390663" cy="26.3214286" rx="26.3390663" ry="26.3214286"></ellipse>
                        </g>
                        <g id="02-3-04-increase-adoption-Clipped">
                            <mask id="mask-4" fill="white">
                                <use xlink:href="#path-3"></use>
                            </mask>
                            <g id="path-3"></g>
                            <g id="02-3-04-increase-adoption" mask="url(#mask-4)">
                                <g transform="translate(10.924210, 11.000000)" id="Group">
                                    <g id="shadow" opacity="0.153888081" fill="#FFFFFF" fill-rule="nonzero">
                                        <polygon id="Path" points="22.3932512 5.12719391 16.4867112 0 1.17614951e-15 15.1294492 9.20675074 24.3176642 1.74978442 29.6544283 15.0828109 43.2774392 39.147195 39.2857143 42.540163 17.5269509 30.1199658 5.06346532"></polygon>
                                    </g>
                                    <g id="Слой_1" transform="translate(0.869401, 0.785714)">
                                        <rect id="Rectangle" fill="#CCD2F4" fill-rule="nonzero" x="2.048258" y="16.7412366" width="7.68755077" height="10.4632728"></rect>
                                        <rect id="Rectangle" fill="#CCD2F4" fill-rule="nonzero" x="11.8324136" y="11.1608244" width="7.68755077" height="16.7412366"></rect>
                                        <rect id="Rectangle" fill="#CCD2F4" fill-rule="nonzero" x="21.6165691" y="4.18530914" width="7.68755077" height="23.7167518"></rect>
                                        <line x1="0.880383096" y1="27.9369385" x2="30.6633907" y2="27.9369385" id="Path" stroke="#FFFFFF" stroke-width="2.24145455"></line>
                                        <line x1="0" y1="14.8539878" x2="14.2134096" y2="0.667357531" id="Path" stroke="#FFFFFF" stroke-width="2.144"></line>
                                        <polyline id="Path" stroke="#FFFFFF" stroke-width="2.144" points="8.49690599 0 14.8820205 0 14.8820205 6.37308438"></polyline>
                                    </g>
                                </g>
                            </g>
                        </g>
                    </g>
                    <g id="Fill-5408" transform="translate(48.746929, 51.857143)">
                        <g id="Mask" fill="#2942D1" fill-rule="nonzero">
                            <ellipse id="path-5" cx="26.3390663" cy="26.3214286" rx="26.3390663" ry="26.3214286"></ellipse>
                        </g>
                        <g id="02-2-04-ride-hail-robotaxis-Clipped">
                            <mask id="mask-6" fill="white">
                                <use xlink:href="#path-5"></use>
                            </mask>
                            <g id="path-5"></g>
                            <g id="02-2-04-ride-hail-robotaxis" mask="url(#mask-6)">
                                <g transform="translate(9.577842, 9.571428)" id="Group">
                                    <g id="shadow" opacity="0.153888081" transform="translate(0.000000, 13.400001)" fill="#FFFFFF" fill-rule="nonzero">
                                        <polygon id="Path" points="0 15.3142857 14.3667635 29.6714286 43.1002904 29.6714286 43.1002904 9.57142859 33.522448 0"></polygon>
                                    </g>
                                    <g id="Слой_1" fill-rule="nonzero">
                                        <polygon id="Path" fill="#2942D1" points="28.7335269 26.8000006 28.7335269 14.3987791 4.78892115 14.3987791 4.78892115 26.8000006 0 26.8000006 0 28.7142863 4.78892115 28.7142863 28.7335269 28.7142863 33.522448 28.7142863 33.522448 26.8000006"></polygon>
                                        <polygon id="Path" fill="#CCD2F4" points="28.7335269 26.8000006 28.7335269 14.3987791 4.78892115 14.3987791 4.78892115 26.8000006 0 26.8000006 0 28.7142863 4.78892115 28.7142863 28.7335269 28.7142863 33.522448 28.7142863 33.522448 26.8000006"></polygon>
                                        <polygon id="Path" fill="#2942D1" points="13.1918016 26.8000006 13.9568318 23.928572 8.68830019 14.3571434 1.19723029 14.3571434 1.19723029 17.9464291 0 20.3392863 0 26.8000006"></polygon>
                                        <polygon id="Path" fill="#A1AEE9" opacity="0.6" points="13.1918016 26.8000006 13.9568318 23.928572 8.68830019 14.3571434 1.19723029 14.3571434 1.19723029 17.9464291 0 20.3392863 0 26.8000006"></polygon>
                                        <polygon id="Path" fill="#2942D1" points="20.4314532 26.8000006 19.6661836 23.928572 24.9349547 14.3571434 32.4260246 14.3571434 32.4260246 17.9464291 33.6232549 20.3392863 33.6232549 26.8000006"></polygon>
                                        <polygon id="Path" fill="#A1AEE9" opacity="0.6" points="20.4314532 26.8000006 19.6661836 23.928572 24.9349547 14.3571434 32.4260246 14.3571434 32.4260246 17.9464291 33.6232549 20.3392863 33.6232549 26.8000006"></polygon>
                                        <g id="self2" transform="translate(10.870406, 0.000000)" fill="#FFFFFF">
                                            <path d="M5.89080642,4.78571484 C4.91704887,4.78612297 3.99186542,5.2107965 3.35709598,5.94872716 L4.70702102,7.32391891 C4.97440153,6.93346148 5.41735645,6.70000008 5.89080522,6.70000008 C6.36425398,6.70000008 6.8072089,6.93346148 7.07458941,7.32391891 L8.42451444,5.94878698 C7.78977705,5.21080776 6.86457994,4.78610571 5.89080642,4.78571484 Z" id="Path"></path>
                                            <path d="M5.89080642,0 C3.66312267,-0.000580782953 1.53311656,0.913849508 0,2.52897538 L1.341214,3.89522741 C2.516508,2.63195051 4.16476331,1.91428753 5.89083514,1.91428753 C7.61690699,1.91428753 9.2651623,2.63195051 10.4404563,3.89522741 L11.7816105,2.52897538 C10.2484948,0.913849634 8.11848947,-0.000580690861 5.89080642,0 L5.89080642,0 Z" id="Path"></path>
                                        </g>
                                        <path d="M31.1789512,13.5588647 L31.1789512,14.3581005 L2.44542428,14.3581005 L2.44542428,13.5588647 C11.8364386,10.8852808 21.7879368,10.8852808 31.1789512,13.5588647 L31.1789512,13.5588647 Z" id="Path" fill="#2942D1"></path>
                                        <path d="M31.1789512,13.5588647 L31.1789512,14.3581005 L2.44542428,14.3581005 L2.44542428,13.5588647 C11.8364386,10.8852808 21.7879368,10.8852808 31.1789512,13.5588647 L31.1789512,13.5588647 Z" id="Path" fill="#A1AEE9" opacity="0.6"></path>
                                        <rect id="Rectangle" fill="#FFFFFF" x="0" y="13.4000005" width="33.522448" height="1.91428572"></rect>
                                        <ellipse id="Oval" fill="#FFFFFF" cx="5.98615144" cy="27.6700339" rx="3.59169087" ry="3.58928572"></ellipse>
                                        <ellipse id="Oval" fill="#FFFFFF" cx="27.5362966" cy="27.6700339" rx="3.59169087" ry="3.58928572"></ellipse>
                                    </g>
                                </g>
                            </g>
                        </g>
                    </g>
                    <g id="Fill-1394" transform="translate(48.746929, 214.672025)">
                        <g id="Mask" fill="#2942D1" fill-rule="nonzero">
                            <ellipse id="path-7" cx="26.3390663" cy="26.4330827" rx="26.3390663" ry="26.4330827"></ellipse>
                        </g>
                        <g id="0-79-Clipped">
                            <mask id="mask-8" fill="white">
                                <use xlink:href="#path-7"></use>
                            </mask>
                            <g id="path-7"></g>
                            <g id="0-79" mask="url(#mask-8)">
                                <g transform="translate(15.173079, 12.888047)" id="Group">
                                    <polygon id="Path" fill="#FFFFFF" opacity="0.153888081" points="36.5507617 41.1015707 13.7694349 41.1015707 0 27.3421421 22.844226 4.51321357 36.6561179 18.3158564"></polygon>
                                    <rect id="Rectangle" fill="#A9B3ED" fill-rule="nonzero" x="0.105835872" y="4.56575429" width="22.8440609" height="22.8287636"></rect>
                                    <polygon id="Path" fill="#697ADF" fill-rule="nonzero" points="4.67498771 22.8289993 22.9495823 13.6974279 22.9495823 27.394785 9.21238329 27.394785"></polygon>
                                    <polygon id="Path" fill="#FFFFFF" fill-rule="nonzero" points="9.21238329 27.394785 13.9369042 27.394785 0.106142506 15.9799279 0.106142506 27.394785"></polygon>
                                    <path d="M6.94914988,0 C5.73479773,0 4.57018145,0.482072396 3.71150333,1.34017255 C2.85282522,2.19827272 2.37042162,3.36210746 2.37042162,4.57564643 C2.37042162,9.13644286 6.94914988,13.6972629 6.94914988,13.6972629 C6.94914988,13.6972629 11.5278624,9.13644286 11.5278624,4.57564643 C11.5278624,2.04858669 9.47790302,0 6.94914988,0 Z M6.94914988,6.58924357 C6.13417869,6.58924357 5.39945127,6.09865676 5.08757089,5.34622758 C4.77569051,4.5937984 4.94807689,3.7277118 5.5243463,3.15182379 C6.10061571,2.57593579 6.96728133,2.40365808 7.72021714,2.71532374 C8.47315294,3.0269894 8.96408059,3.76122098 8.96408059,4.57564643 C8.96408059,5.68771929 8.06196796,6.58924357 6.94914988,6.58924357 Z" id="Shape" fill="#FFFFFF" fill-rule="nonzero"></path>
                                </g>
                            </g>
                        </g>
                    </g>
                </g>
            </g>
        </g>
    </g>
</svg>