<?xml version="1.0" encoding="UTF-8"?>
<svg width="84px" height="84px" viewBox="0 0 84 84" version="1.1" xmlns="http://www.w3.org/2000/svg" xmlns:xlink="http://www.w3.org/1999/xlink">
    <title>02-7-02-technology E&amp;O@3x</title>
    <g id="--------Products-(view-all)" stroke="none" stroke-width="1" fill="none" fill-rule="evenodd">
        <g id="02-7-1-Products-1920" transform="translate(-918.000000, -757.000000)" fill-rule="nonzero">
            <g id="02-7-02-technology-E&amp;O" transform="translate(918.000000, 757.000000)">
                <g id="bg" fill="#DEE2F8">
                    <path d="M0,0 L84,0 L84,84 L19.0909031,84 C8.54728847,84 0,75.4527115 0,64.9090969 L0,0 Z" id="Path"></path>
                </g>
                <g id="shadow" transform="translate(15.272250, 22.937250)" fill="#2942D1" opacity="0.1">
                    <polygon id="Path" points="68.7211875 61.06275 68.7211875 15.2656875 53.4555 0 0 38.1530625 22.9096875 61.06275"></polygon>
                </g>
                <g id="Слой_1" transform="translate(15.272250, 19.119187)">
                    <rect id="Rectangle" fill="#2942D1" x="0.0004725" y="11.4540169" width="53.4545419" height="30.5176987"></rect>
                    <g id="Group" opacity="0.6" transform="translate(0.000473, 11.454017)" fill="#FFFFFF">
                        <rect id="Rectangle" x="0" y="0" width="53.4545419" height="30.5176987"></rect>
                    </g>
                    <polygon id="Path" fill="#2942D1" points="19.921125 35.429625 11.2048125 26.7133125 19.921125 17.997 22.0801875 20.1560625 15.52425 26.7133125 22.0801875 33.26925"></polygon>
                    <polygon id="Path" fill="#2942D1" points="33.639375 35.429625 31.479 33.26925 38.0349375 26.7133125 31.479 20.1560625 33.639375 17.997 42.3556875 26.7133125"></polygon>
                    <polygon id="Path" fill="#2942D1" points="53.4555 11.426625 53.4555 3.8180625 19.091625 3.8180625 15.2735625 0 0 0 0 11.426625"></polygon>
                </g>
            </g>
        </g>
    </g>
</svg>