<?xml version="1.0" encoding="UTF-8"?>
<svg width="84px" height="84px" viewBox="0 0 84 84" version="1.1" xmlns="http://www.w3.org/2000/svg" xmlns:xlink="http://www.w3.org/1999/xlink">
    <title>02-7-09-umbrella@3x</title>
    <g id="--------Products-(view-all)" stroke="none" stroke-width="1" fill="none" fill-rule="evenodd">
        <g id="02-7-1-Products-1920" transform="translate(-370.000000, -2278.000000)" fill-rule="nonzero">
            <g id="02-7-09-umbrella" transform="translate(370.000000, 2278.000000)">
                <g id="bg" fill="#DEE2F8">
                    <path d="M0,0 L84,0 L84,84 L19.0909031,84 C8.54729359,84 0,75.4527195 0,64.90911 L0,0 Z" id="Path"></path>
                </g>
                <g id="shadow" transform="translate(15.273563, 26.706750)" fill="#2942D1" opacity="0.1">
                    <polygon id="Path" points="45.81675 0 7.636125 8.5273125 0 18.5285625 16.4443125 34.972875 15.8563125 39.92625 33.2233125 57.29325 68.7264375 57.29325 68.7264375 22.908375"></polygon>
                </g>
                <g id="Слой_1" transform="translate(15.273247, 15.272709)">
                    <path d="M20.9672006,53.4592013 C16.9803567,53.4546443 13.7495461,50.2237515 13.7450906,46.2369075 L13.7450906,45.81822 L16.7996325,45.81822 L16.7996325,46.2369075 C16.7996325,47.7259019 17.5940015,49.1017894 18.8835084,49.8462866 C20.1730153,50.5907838 21.7617534,50.5907838 23.0512603,49.8462866 C24.3407673,49.1017894 25.1351363,47.7259019 25.1351363,46.2369075 L25.1351363,2.84217094e-14 L28.1896781,2.84217094e-14 L28.1896781,46.2369075 C28.1851789,50.2238768 24.9541701,53.4548035 20.9672006,53.4592013 L20.9672006,53.4592013 Z" id="Path" fill="#2942D1"></path>
                    <path d="M26.7267525,3.40839188 C12.0457588,3.43875585 0.125446094,15.2821139 0,29.9626031 L0.337929375,30.086385 C2.48217496,27.4675979 5.72860214,26.0034517 9.11089151,26.1297586 C12.4931809,26.2560655 15.6213654,27.9582627 17.5643213,30.7296806 L17.8723388,30.7296806 C19.8931121,27.839239 23.1988836,26.118864 26.7255975,26.1222281 L26.7255975,26.11938 L26.7279337,26.1222281 C30.2546433,26.1188819 33.560407,27.8392529 35.5811925,30.7296806 L35.88921,30.7296806 C37.8321562,27.9582561 40.9603422,26.2560569 44.3426318,26.12976 C47.7249214,26.0034632 50.9713416,27.4676304 53.1155625,30.0864375 L53.4535312,29.9626556 C53.3281066,15.2821387 41.4077738,3.43874888 26.7267525,3.40839188 Z" id="Path" fill="#2942D1"></path>
                    <g id="Group" opacity="0.6" transform="translate(0.000000, 3.408392)" fill="#FFFFFF">
                        <path d="M26.7267525,0 C12.0457588,0.0303639749 0.125446094,11.8737221 0,26.5542113 L0.337929375,26.6779931 C2.48217496,24.0592061 5.72860214,22.5950598 9.11089151,22.7213667 C12.4931809,22.8476736 15.6213654,24.5498708 17.5643213,27.3212888 L17.8723388,27.3212888 C19.8931121,24.4308472 23.1988836,22.7104722 26.7255975,22.7138362 L26.7255975,22.7109881 L26.7279337,22.7138362 C30.2546433,22.7104901 33.560407,24.430861 35.5811925,27.3212888 L35.88921,27.3212888 C37.8321562,24.5498642 40.9603422,22.847665 44.3426318,22.7213682 C47.7249214,22.5950713 50.9713416,24.0592385 53.1155625,26.6780456 L53.4535312,26.5542638 C53.3281066,11.8737468 41.4077738,0.0303570072 26.7267525,0 Z" id="Path"></path>
                    </g>
                    <path d="M53.4534919,29.9624719 L53.1155231,30.0862669 C50.9714487,27.4672586 47.7248735,26.0031049 44.3425354,26.1297891 C40.9601974,26.2564734 37.8322434,27.9593829 35.8900894,30.7314394 C35.8434252,30.7160956 35.7930742,30.7160956 35.74641,30.7314394 C35.8163634,29.284819 35.8102299,27.8355215 35.728035,26.389545 C35.2215019,17.640315 33.0594075,9.69069938 26.7888469,3.40841813 C41.4579558,3.44282859 53.3581156,15.2936327 53.4534919,29.9624719 L53.4534919,29.9624719 Z" id="Path" fill="#2942D1"></path>
                    <g id="Group" opacity="0.3" transform="translate(26.788847, 3.408418)" fill="#FFFFFF">
                        <path d="M26.664645,26.5540537 L26.3266763,26.6778487 C24.1826018,24.0588405 20.9360266,22.5946867 17.5536886,22.721371 C14.1713505,22.8480553 11.0433965,24.5509647 9.1012425,27.3230212 C9.05457832,27.3076774 9.0042273,27.3076774 8.95756313,27.3230212 C9.02751648,25.8764008 9.02138302,24.4271034 8.93918813,22.9811269 C8.432655,14.2318969 6.27056063,6.28228125 0,0 C14.6691089,0.0344104646 26.5692687,11.8852145 26.664645,26.5540537 L26.664645,26.5540537 Z" id="Path"></path>
                    </g>
                </g>
            </g>
        </g>
    </g>
</svg>