<?xml version="1.0" encoding="UTF-8"?>
<svg width="84px" height="84px" viewBox="0 0 84 84" version="1.1" xmlns="http://www.w3.org/2000/svg" xmlns:xlink="http://www.w3.org/1999/xlink">
    <title>02-7-06-commercial auto@3x</title>
    <g id="--------Products-(view-all)" stroke="none" stroke-width="1" fill="none" fill-rule="evenodd">
        <g id="02-7-1-Products-1920" transform="translate(-370.000000, -1771.000000)" fill-rule="nonzero">
            <g id="02-7-06-commercial-auto" transform="translate(370.000000, 1771.000000)">
                <g id="bg" fill="#DEE2F8">
                    <path d="M0,0 L84,0 L84,84 L19.0909031,84 C8.54728847,84 0,75.4527115 0,64.9090969 L0,0 Z" id="Path"></path>
                </g>
                <g id="shadow" transform="translate(11.454187, 40.531313)" fill="#2942D1" opacity="0.1">
                    <polygon id="Path" points="59.1819375 9.1048125 44.737875 11.9004375 32.3255625 0 11.4555 1.4686875 0 20.559 22.6340625 43.1930625 72.5458125 43.4686875 72.5458125 22.4686875"></polygon>
                </g>
                <g id="Слой_1" transform="translate(11.454516, 38.111929)">
                    <path d="M59.1818194,19.16082 L59.1818194,11.5244587 L47.3520469,11.5244587 L38.9004,3.984855 L34.4335294,0 L22.9265006,0.035056875 L11.4545156,0.069916875 L1.90909688,12.464655 L1.90909688,19.16082 L0,19.16082 L0,22.9790006 L11.4545419,26.7971812 L49.6363613,26.7971812 L49.6363613,22.9790006 L61.0909031,22.9790006 L61.0909031,19.16082 L59.1818194,19.16082 Z M21,11.5244587 L21,3.88807125 L33.0640012,3.88807125 L41.6247956,11.5244587 L21,11.5244587 Z" id="Shape" fill="#2942D1"></path>
                    <g id="Group" opacity="0.6" fill="#FFFFFF">
                        <path d="M59.1818194,19.16082 L59.1818194,11.5244587 L47.3520469,11.5244587 L38.9004,3.984855 L34.4335294,0 L22.9265006,0.035056875 L11.4545156,0.069916875 L1.90909688,12.464655 L1.90909688,19.16082 L0,19.16082 L0,22.9790006 L11.4545419,26.7971812 L49.6363613,26.7971812 L49.6363613,22.9790006 L61.0909031,22.9790006 L61.0909031,19.16082 L59.1818194,19.16082 Z M21,11.5244587 L21,3.88807125 L33.0640012,3.88807125 L41.6247956,11.5244587 L21,11.5244587 Z" id="Shape"></path>
                    </g>
                    <circle id="Oval" fill="#2942D1" cx="49.6363875" cy="24.8880712" r="5.7272775"></circle>
                    <circle id="Oval" fill="#2942D1" cx="11.4545813" cy="24.8880712" r="5.7272775"></circle>
                </g>
            </g>
        </g>
    </g>
</svg>