<?xml version="1.0" encoding="UTF-8"?>
<svg width="84px" height="84px" viewBox="0 0 84 84" version="1.1" xmlns="http://www.w3.org/2000/svg" xmlns:xlink="http://www.w3.org/1999/xlink">
    <title>02-7-03-cyber liability@3x</title>
    <g id="--------Products-(view-all)" stroke="none" stroke-width="1" fill="none" fill-rule="evenodd">
        <g id="02-7-1-Products-1920" transform="translate(-1464.000000, -757.000000)" fill-rule="nonzero">
            <g id="02-7-03-cyber-liability" transform="translate(1464.000000, 757.000000)">
                <g id="bg" fill="#DEE2F8">
                    <path d="M0,0 L84,0 L84,84 L19.0909031,84 C8.54728847,84 0,75.4527115 0,64.9090969 L0,0 Z" id="Path"></path>
                </g>
                <g id="shadow" transform="translate(15.272250, 23.439937)" fill="#2942D1" opacity="0.1">
                    <polygon id="Path" points="68.72775 60.5600625 68.72775 26.5846875 42.1430625 0 0.0196875 22.409625 14.2996875 37.650375 0 45.2878125 15.27225 60.5600625"></polygon>
                </g>
                <g id="Слой_1" transform="translate(14.489462, 15.272683)">
                    <path d="M0.77508375,30.5765512 L27.5105381,12.7701919 L54.2459663,30.5764856 C50.7511594,45.8950669 27.5105381,53.4552769 27.5105381,53.4552769 C27.5105381,53.4552769 4.26990375,45.8950669 0.77508375,30.5765512 Z" id="Path" fill="#2942D1"></path>
                    <path d="M12.7398337,27.9987094 C12.7398337,27.9987094 11.2227544,25.5361575 11.6579925,20.3474119 L13.4807137,20.3474119 L13.4486494,11.6284744 C15.540386,10.0476453 17.858557,8.79129494 20.3249681,7.90180125 L20.3249681,4.4247525 C33.7187944,4.42400438 41.1095344,11.3789419 41.1095344,11.3789419 L41.1095344,11.6285531 L41.0774831,20.3474906 L42.8474025,20.3474906 C43.2826406,25.5362231 41.7655612,27.998775 41.7655612,27.998775 L40.1950894,27.998775 C39.7130081,34.7158875 33.0221587,42.871185 27.2790919,43.9687763 C21.5360381,42.8710669 14.8451887,34.7158219 14.3631075,27.9987094 L12.7398337,27.9987094 Z" id="Path" fill="#2942D1"></path>
                    <g id="Group" opacity="0.6" transform="translate(11.579516, 4.424753)" fill="#FFFFFF">
                        <path d="M1.16031775,23.5739569 C1.16031775,23.5739569 -0.356761621,21.111405 0.0784765045,15.9226594 L1.90119775,15.9226594 L1.86913338,7.20372187 C3.96087004,5.62289278 6.279041,4.36654244 8.74545213,3.47704875 L8.74545213,0 C22.1392784,-0.000748125 29.5300184,6.95418938 29.5300184,6.95418938 L29.5300184,7.20380063 L29.4979671,15.9227381 L31.2678865,15.9227381 C31.7031246,21.1114706 30.1860453,23.5740225 30.1860453,23.5740225 L28.6155734,23.5740225 C28.1334921,30.291135 21.4426428,38.4464325 15.6995759,39.5440237 C9.95652213,38.4463144 3.26567275,30.2910694 2.7835915,23.5739569 L1.16031775,23.5739569 Z" id="Path"></path>
                    </g>
                    <path d="M27.5105381,0.0004725 L27.5105381,0 L27.5069944,0 L27.5033719,0 L27.5033719,0.0004725 C16.2034687,0.339320625 3.84918187,14.2520044 0.802659375,30.5766563 C8.83585517,25.627803 18.0719915,22.9759226 27.5069419,22.9092544 C36.9419146,22.9759739 46.1780641,25.6278743 54.21129,30.5766563 C51.1646625,14.2520044 38.8102969,0.339320625 27.5105381,0.0004725 Z" id="Path" fill="#2942D1"></path>
                    <g id="Group" opacity="0.6" transform="translate(0.802659, 0.000000)" fill="#FFFFFF">
                        <path d="M26.7078788,0.0004725 L26.7078788,0 L26.704335,0 L26.7007125,0 L26.7007125,0.0004725 C15.4008094,0.339320625 3.0465225,14.2520044 0,30.5766563 C8.0331958,25.627803 17.2693321,22.9759226 26.7042825,22.9092544 C36.1392552,22.9759739 45.3754047,25.6278743 53.4086306,30.5766563 C50.3620031,14.2520044 38.0076375,0.339320625 26.7078788,0.0004725 Z" id="Path"></path>
                    </g>
                    <path d="M16.0467563,43.9687106 L0.783260625,49.6364138 L0.783260625,53.4553163 L27.5105513,53.4553163 C27.5006419,53.4467325 27.5105513,47.7273169 27.5105513,47.7273169 C23.6923575,47.7273169 21.7832344,43.9687106 21.7832344,43.9687106 L16.0467563,43.9687106 Z" id="Path" fill="#2942D1"></path>
                    <path d="M38.97432,43.9687106 L54.2378156,49.6364138 L54.2378156,53.4553163 L27.5105381,53.4553163 C27.5204344,53.4467325 27.5105381,47.7273169 27.5105381,47.7273169 C31.3287188,47.7273169 33.2378419,43.9687106 33.2378419,43.9687106 L38.97432,43.9687106 Z" id="Path" fill="#2942D1"></path>
                    <path d="M53.4090638,31.8760444 C45.6146906,27.0812174 36.6577562,24.5085805 27.5069419,24.4363612 C18.3561319,24.5085822 9.39920218,27.0812191 1.60483313,31.8760444 L0,29.2771369 C8.2776235,24.186632 17.7896003,21.4564093 27.5069419,21.3818194 C37.2242878,21.4564076 46.7362693,24.1866303 55.0138969,29.2771369 L53.4090638,31.8760444 Z" id="Path" fill="#2942D1"></path>
                </g>
            </g>
        </g>
    </g>
</svg>