<?xml version="1.0" encoding="UTF-8"?>
<svg width="84px" height="84px" viewBox="0 0 84 84" version="1.1" xmlns="http://www.w3.org/2000/svg" xmlns:xlink="http://www.w3.org/1999/xlink">
    <title>02-7-07-inland marine@3x</title>
    <g id="--------Products-(view-all)" stroke="none" stroke-width="1" fill="none" fill-rule="evenodd">
        <g id="02-7-1-Products-1920" transform="translate(-917.000000, -1771.000000)" fill-rule="nonzero">
            <g id="02-7-07-inland-marine" transform="translate(917.000000, 1771.000000)">
                <g id="bg" fill="#DEE2F8">
                    <path d="M0,0 L84,0 L84,84 L19.0909031,84 C8.54728847,84 0,75.4527115 0,64.9090969 L0,0 Z" id="Path"></path>
                </g>
                <g id="shadow" transform="translate(11.454187, 19.090312)" fill="#2942D1" opacity="0.1">
                    <polygon id="Path" points="72.5458125 64.9096875 72.5458125 30.5458125 42 0 19.091625 22.9096875 22.5238125 26.341875 5.72775 25.2 5.72775 49.6374375 0 51.0615 13.6066875 64.666875"></polygon>
                </g>
                <g id="Слой_1" transform="translate(11.454686, 19.090903)">
                    <rect id="Rectangle" fill="#2942D1" x="5.72713313" y="25.2" width="22.9090969" height="22.9090969"></rect>
                    <g id="Group" opacity="0.6" transform="translate(5.727133, 25.200000)" fill="#FFFFFF">
                        <rect id="Rectangle" x="0" y="0" width="22.9090969" height="22.9090969"></rect>
                    </g>
                    <rect id="Rectangle" fill="#2942D1" x="13.3635206" y="25.2" width="7.63636125" height="9.16363875"></rect>
                    <rect id="Rectangle" fill="#2942D1" x="32.4960562" y="25.2" width="22.9090969" height="22.9090969"></rect>
                    <g id="Group" opacity="0.6" transform="translate(32.496056, 25.200000)" fill="#FFFFFF">
                        <rect id="Rectangle" x="0" y="0" width="22.9090969" height="22.9090969"></rect>
                    </g>
                    <rect id="Rectangle" fill="#2942D1" x="40.1324437" y="25.2" width="7.63636125" height="9.16363875"></rect>
                    <rect id="Rectangle" fill="#2942D1" x="19.0907719" y="0" width="22.9090969" height="22.9090969"></rect>
                    <g id="Group" opacity="0.6" transform="translate(19.090772, 0.000000)" fill="#FFFFFF">
                        <rect id="Rectangle" x="0" y="0" width="22.9090969" height="22.9090969"></rect>
                    </g>
                    <rect id="Rectangle" fill="#2942D1" x="26.7271462" y="0" width="7.63636125" height="9.16363875"></rect>
                    <rect id="Rectangle" fill="#2942D1" x="0" y="48.1091231" width="61.0909031" height="3.05454187"></rect>
                </g>
            </g>
        </g>
    </g>
</svg>