<?xml version="1.0" encoding="UTF-8"?>
<svg width="84px" height="84px" viewBox="0 0 84 84" version="1.1" xmlns="http://www.w3.org/2000/svg" xmlns:xlink="http://www.w3.org/1999/xlink">
    <title>02-7-10-directors&amp;offices@3x</title>
    <g id="--------Products-(view-all)" stroke="none" stroke-width="1" fill="none" fill-rule="evenodd">
        <g id="02-7-1-Products-1920" transform="translate(-917.000000, -2278.000000)" fill-rule="nonzero">
            <g id="02-7-10-directors&amp;offices" transform="translate(917.000000, 2278.000000)">
                <g id="bg" fill="#DEE2F8">
                    <path d="M0,0 L83.9907302,0 L83.9907302,83.9783519 L19.0887999,83.9783519 C8.54634684,83.9783519 0,75.4332659 0,64.8923682 L0,0 Z" id="Path"></path>
                </g>
                <g id="shadow" transform="translate(11.452915, 30.512410)" fill="#2942D1" opacity="0.1">
                    <polygon id="Path" points="72.5470851 53.4665851 72.5470851 11.4673465 61.0780465 0 0 22.928129 30.5639702 53.4875899"></polygon>
                </g>
                <g id="Слой_1" transform="translate(11.452915, 26.720388)">
                    <polygon id="Path" fill="#2942D1" points="47.7931315 3.7920224 41.9962448 0.000643274159 31.43974 0.000643274159 26.6971907 3.7920224 26.6971907 26.7201514 61.0780465 26.7201514 61.0780465 3.7920224"></polygon>
                    <polygon id="Path" fill="#2942D1" points="47.9953332 27.8360351 44.9111006 24.7509448 38.350049 18.1921739 25.0388741 4.88296286 29.9192881 0.000643274159 20.9974659 0.000643274159 15.1913882 3.7920224 0 3.7920224 0 26.7201514 16.027768 26.7201514 19.8380886 30.5312226 29.4846858 40.1750837 34.6263864 35.0341417 36.1691592 36.5766868 41.3108598 31.434432 42.8536326 32.9769772"></polygon>
                    <g id="Group" opacity="0.6" transform="translate(0.000000, 0.000643)" fill="#FFFFFF">
                        <polygon id="Path" points="47.9953332 27.8353918 44.9111006 24.7503015 38.350049 18.1915307 25.0388741 4.88231959 29.9192881 0 20.9974659 0 15.1913882 3.79137913 0 3.79137913 0 26.7195081 16.027768 26.7195081 19.8380886 30.5305793 29.4846858 40.1744404 34.6263864 35.0334984 36.1691592 36.5760436 41.3108598 31.4337887 42.8536326 32.9763339"></polygon>
                    </g>
                    <path d="M16.1196779,13.8113456 L16.1196779,13.8113456 C17.6706485,15.3620931 19.7742194,16.2332945 21.9676271,16.2332945 C24.1610348,16.2332945 26.2646057,15.3620931 27.8155763,13.8113456 L38.2622489,3.35307312 L31.4393329,0 L29.9198527,0 L16.1196779,13.8113456 Z" id="Path" fill="#2942D1"></path>
                    <polygon id="Rectangle" fill="#2942D1" transform="translate(37.259640, 27.384152) rotate(-45.000480) translate(-37.259640, -27.384152) " points="35.7320934 19.4734351 38.7860199 19.4736604 38.7871871 35.2948689 35.7332606 35.2946436"></polygon>
                    <polygon id="Rectangle" fill="#2942D1" transform="translate(30.574837, 30.983107) rotate(-45.000480) translate(-30.574837, -30.983107) " points="29.0472899 23.07239 32.1012164 23.0726153 32.1023836 38.8938238 29.0484571 38.8935985"></polygon>
                </g>
            </g>
        </g>
    </g>
</svg>