<?xml version="1.0" encoding="UTF-8"?>
<svg width="84px" height="84px" viewBox="0 0 84 84" version="1.1" xmlns="http://www.w3.org/2000/svg" xmlns:xlink="http://www.w3.org/1999/xlink">
    <title>02-7-12-workers compensation@3x</title>
    <g id="--------Products-(view-all)" stroke="none" stroke-width="1" fill="none" fill-rule="evenodd">
        <g id="02-7-1-Products-1920" transform="translate(-370.000000, -2785.000000)" fill-rule="nonzero">
            <g id="02-7-12-workers-compensation" transform="translate(370.000000, 2785.000000)">
                <g id="bg" fill="#DEE2F8">
                    <path d="M0,0 L84,0 L84,84 L19.0909031,84 C8.54728847,84 0,75.4527115 0,64.9090969 L0,0 Z" id="Path"></path>
                </g>
                <g id="shadow" transform="translate(15.272250, 20.309625)" fill="#2942D1" opacity="0.1">
                    <polyline id="Path" points="38.1819375 0 19.20975 30.6796875 0 42.6916875 0 48.418125 15.27225 63.690375 68.72775 63.690375 68.72775 30.5458125 38.1819375 0"></polyline>
                </g>
                <g id="Слой_1" transform="translate(15.272723, 13.440394)">
                    <path d="M26.7272775,17.586975 L12.7749825,18.1063444 L12.7749825,25.7427188 C13.3515526,33.3884956 19.1415258,39.6180664 26.7247575,40.7516156" id="Path" fill="#2942D1"></path>
                    <g id="Group" opacity="0.6" transform="translate(12.774983, 17.586975)" fill="#FFFFFF">
                        <path d="M13.952295,0 L0,0.519369375 L0,8.15574375 C0.576570086,15.8015206 6.36654328,22.0310914 13.949775,23.1646406" id="Path"></path>
                    </g>
                    <path d="M26.7222244,17.586975 L40.6745325,18.1063444 L40.6745325,25.7427188 C40.0979624,33.3884956 34.3079892,39.6180664 26.7247575,40.7516156" id="Path" fill="#2942D1"></path>
                    <g id="Group" opacity="0.6" transform="translate(26.722224, 17.586975)" fill="#FFFFFF">
                        <path d="M0,0 L13.9523081,0.519369375 L13.9523081,8.15574375 C13.375738,15.8015206 7.58576484,22.0310914 0.002533125,23.1646406" id="Path"></path>
                    </g>
                    <path d="M15.2634956,40.0186106 L0,49.5603412 L0,55.2876056 L38.1818194,55.2876056 C38.1666206,55.2744675 15.2634956,40.0186106 15.2634956,40.0186106 Z" id="Path" fill="#2942D1"></path>
                    <path d="M38.1910462,40.0186106 L53.4545419,49.5603412 L53.4545419,55.2876056 L15.2727356,55.2876056 C15.2879212,55.2744675 38.1910462,40.0186106 38.1910462,40.0186106 Z" id="Path" fill="#2942D1"></path>
                    <path d="M33.63969,3.6733725 L31.7757169,8.27229375 L30.5454319,8.27229375 L30.5454319,0 L22.9090706,0 L22.9090706,1.2744375 L22.9090706,1.2744375 L22.9090706,8.27229375 L21.6787856,8.27229375 L19.8149044,3.67341188 C14.1366927,6.34822941 10.5132304,12.0609381 10.5136763,18.33762 L42.940905,18.33762 C42.9413718,12.0609259 39.3179116,6.34819738 33.63969,3.6733725 Z" id="Path" fill="#2942D1"></path>
                    <rect id="Rectangle" fill="#2942D1" x="9.1482825" y="16.0719038" width="35.15799" height="4.88530875"></rect>
                </g>
            </g>
        </g>
    </g>
</svg>