<?xml version="1.0" encoding="UTF-8"?>
<svg width="84px" height="84px" viewBox="0 0 84 84" version="1.1" xmlns="http://www.w3.org/2000/svg" xmlns:xlink="http://www.w3.org/1999/xlink">
    <title>02-7-01-singularity package-WHITE@3x</title>
    <g id="--------Products-(view-all)" stroke="none" stroke-width="1" fill="none" fill-rule="evenodd">
        <g id="02-7-1-Products-1920" transform="translate(-371.000000, -900.000000)">
            <g id="Group-2" transform="translate(160.000000, 615.000000)">
                <g id="Group-3" transform="translate(102.000000, 285.000000)">
                    <g id="02-7-01-singularity-package-WHITE" transform="translate(109.000000, 0.000000)">
                        <g id="bg" fill="#D9D9D9" opacity="0.065">
                            <g id="Group">
                                <path d="M84,84 L19.0909031,84 C8.54728847,84 0,75.4527115 0,64.9090969 L0,0 L84,0 L84,84 Z" id="Path"></path>
                                <path d="M84,84 L19.0909031,84 C8.54728847,84 0,75.4527115 0,64.9090969 L0,0 L84,0 L84,84 Z" id="Path" opacity="0.169298411"></path>
                            </g>
                        </g>
                        <g id="shadow" transform="translate(22.909688, 15.272250)" fill="#D9D9D9" opacity="0.065">
                            <polygon id="Path" points="0 53.4555 15.27225 68.72775 61.0903125 68.72775 61.0903125 22.9096875 38.180625 0"></polygon>
                        </g>
                        <g id="Слой_1" transform="translate(19.090903, 15.272250)" fill-rule="nonzero">
                            <polygon id="Path" fill="#222222" points="41.9994094 34.363875 22.9090969 53.4555 3.81878438 53.4555 3.81878438 0 41.9994094 0"></polygon>
                            <polygon id="Path" fill="#FFFFFF" opacity="0.7" points="41.9994094 34.363875 22.9090969 53.4555 3.81878438 53.4555 3.81878438 0 41.9994094 0"></polygon>
                            <polygon id="Path" fill="#FFFFFF" points="22.9090969 34.363875 41.9994094 34.363875 22.9090969 53.4555"></polygon>
                            <path d="M11.4553294,5.72589938 L11.4537281,5.72589938 C7.60940464,5.86187498 3.78074437,6.28668597 0.000118125,6.99674063 L0.000118125,19.090575 C0.000118125,29.8212994 11.4232913,34.3503169 11.4537281,34.363455 L11.4537281,34.3640981 L11.4546863,34.36377 L11.4553294,34.3640981 L11.4553294,34.363455 C11.4860944,34.35033 22.9089394,29.8212994 22.9089394,19.090575 L22.9089394,6.99674063 C19.1283167,6.28666185 15.2996546,5.86185066 11.4553294,5.72589938 L11.4553294,5.72589938 Z" id="Path" fill="#222222"></path>
                            <path d="M0,19.0904437 L0,6.99670125 C3.78092756,6.28655581 7.60991209,5.86178776 11.454555,5.72599125 L11.4553162,5.72599125 L11.4553162,19.0904437 L0,19.0904437 Z" id="Path" fill="#FFFFFF"></path>
                            <path d="M22.9090969,19.0904438 C22.9090969,29.8292006 11.4677719,34.3576144 11.4537938,34.3641113 L11.4537938,19.0904438 L22.9090969,19.0904438 Z" id="Path" fill="#FFFFFF"></path>
                            <g id="Group" opacity="0.9" transform="translate(0.000000, 19.090444)" fill="#FFFFFF">
                                <path d="M0,0 C0,10.7387569 11.441325,15.2671706 11.4553162,15.2736675 L11.4553162,0 L0,0 Z" id="Path"></path>
                                <path d="M0,0 C0,10.7387569 11.441325,15.2671706 11.4553162,15.2736675 L11.4553162,0 L0,0 Z" id="Path"></path>
                            </g>
                            <g id="Group" opacity="0.9" transform="translate(11.453794, 5.725991)" fill="#FFFFFF">
                                <path d="M11.4553031,13.3644525 L11.4553031,1.27071 C7.6743799,0.560565111 3.84539977,0.135797068 0.00076125,0 L0,0 L0,13.3644525 L11.4553031,13.3644525 Z" id="Path"></path>
                                <path d="M11.4553031,13.3644525 L11.4553031,1.27071 C7.6743799,0.560565111 3.84539977,0.135797068 0.00076125,0 L0,0 L0,13.3644525 L11.4553031,13.3644525 Z" id="Path"></path>
                            </g>
                        </g>
                    </g>
                </g>
            </g>
        </g>
    </g>
</svg>