<?xml version="1.0" encoding="UTF-8"?>
<svg width="84px" height="84px" viewBox="0 0 84 84" version="1.1" xmlns="http://www.w3.org/2000/svg" xmlns:xlink="http://www.w3.org/1999/xlink">
    <title>02-7-08-int property coverage@3x</title>
    <g id="--------Products-(view-all)" stroke="none" stroke-width="1" fill="none" fill-rule="evenodd">
        <g id="02-7-1-Products-1920" transform="translate(-1464.000000, -1771.000000)" fill-rule="nonzero">
            <g id="02-7-08-int-property-coverage" transform="translate(1464.000000, 1771.000000)">
                <g id="bg" fill="#DEE2F8">
                    <path d="M0,0 L84,0 L84,84 L19.0909031,84 C8.54728847,84 0,75.4527115 0,64.9090969 L0,0 Z" id="Path"></path>
                </g>
                <g id="shadow" transform="translate(34.363875, 23.206312)" fill="#2942D1" opacity="0.1">
                    <polygon id="Path" points="49.636125 30.8450625 18.792375 0 0 41.703375 12.7929375 60.78975 49.636125 60.7936875"></polygon>
                </g>
                <g id="Слой_1" transform="translate(11.454673, 7.636388)">
                    <rect id="Rectangle" fill="#2942D1" x="29.0181806" y="0" width="3.05454188" height="7.63636125"></rect>
                    <polygon id="Rectangle" fill="#2942D1" transform="translate(49.444336, 49.444422) rotate(-45.000990) translate(-49.444336, -49.444422) " points="47.9170915 45.6261894 50.9715809 45.6261894 50.9715809 53.2626556 47.9170915 53.2626556"></polygon>
                    <polygon id="Rectangle" fill="#2942D1" transform="translate(11.646203, 11.646388) rotate(-45.000000) translate(-11.646203, -11.646388) " points="10.1189587 7.82808954 13.1734481 7.82808954 13.1734481 15.464687 10.1189587 15.464687"></polygon>
                    <polygon id="Rectangle" fill="#2942D1" transform="translate(11.646194, 49.444437) rotate(-44.995050) translate(-11.646194, -49.444437) " points="7.82796098 47.9171928 15.4644272 47.9171928 15.4644272 50.9716821 7.82796098 50.9716821"></polygon>
                    <polygon id="Rectangle" fill="#2942D1" transform="translate(49.444337, 11.646399) rotate(-44.995050) translate(-49.444337, -11.646399) " points="45.6260384 10.1191541 53.2626359 10.1191541 53.2626359 13.1736434 45.6260384 13.1736434"></polygon>
                    <rect id="Rectangle" fill="#2942D1" x="53.4545419" y="29.0181806" width="7.63636125" height="3.05454187"></rect>
                    <rect id="Rectangle" fill="#2942D1" x="0" y="29.0181806" width="7.63636125" height="3.05454187"></rect>
                    <path d="M47.7272819,28.6369781 C47.7295326,20.9545614 42.6320013,14.2041148 35.2423022,12.1036672 C27.8526031,10.0032196 19.9665528,13.0632138 15.9276508,19.598258 C11.8887488,26.1333023 12.6785138,34.5552751 17.8619569,40.2255 C21.1361292,43.8509056 22.936371,48.5695625 22.9090444,53.4545419 L38.1817669,53.4545419 L38.1817669,53.4523238 C38.2072601,48.5045148 40.0544608,43.7394727 43.370565,40.0672913 C46.1818065,36.9242881 47.7332891,32.853791 47.7272819,28.6369781 Z" id="Path" fill="#2942D1"></path>
                    <g id="Group" opacity="0.6" transform="translate(13.361165, 11.447495)" fill="#FFFFFF">
                        <path d="M34.3661171,17.1894834 C34.3683678,9.50706665 29.2708365,2.75662004 21.8811374,0.656172459 C14.4914384,-1.44427512 6.60538799,1.61571907 2.56648603,8.15076331 C-1.47241593,14.6858076 -0.682650951,23.1077804 4.50079211,28.7780053 C7.77496443,32.4034109 9.57520626,37.1220678 9.54787961,42.0070472 L24.8206021,42.0070472 L24.8206021,42.004829 C24.8460953,37.0570201 26.693296,32.2919779 30.0094002,28.6197965 C32.8206417,25.4767934 34.3721244,21.4062963 34.3661171,17.1894834 Z" id="Path"></path>
                    </g>
                    <path d="M38.181675,57.272775 L38.181675,53.4545419 C38.1933758,52.3940505 38.2764965,51.3355515 38.4304725,50.2862325 L22.6601813,50.2862325 C22.8141602,51.3355732 22.8972809,52.3940942 22.9089788,53.4546075 L22.9089788,57.272775 L38.181675,57.272775 Z" id="Path" fill="#2942D1"></path>
                    <polygon id="Path" fill="#2942D1" points="22.9092019 57.2733 38.1814519 57.2733 34.3633894 62.9997375 26.7272644 62.9997375"></polygon>
                    <path d="M30.6285919,41.5920881 C23.458931,41.5920881 17.6467725,35.7799296 17.6467725,28.6102687 C17.6467725,21.4406079 23.458931,15.6284494 30.6285919,15.6284494 C37.7982527,15.6284494 43.6104113,21.4406079 43.6104113,28.6102687 C43.6023463,35.7765863 37.7949095,41.5840232 30.6285919,41.5920881 L30.6285919,41.5920881 Z M30.6285919,18.6829912 C25.1459079,18.6829912 20.7013144,23.1275848 20.7013144,28.6102687 C20.7013144,34.0929527 25.1459079,38.5375462 30.6285919,38.5375462 C36.1112758,38.5375462 40.5558694,34.0929527 40.5558694,28.6102687 C40.5497356,23.1301275 36.1087331,18.689125 30.6285919,18.6829912 Z" id="Shape" fill="#2942D1"></path>
                    <path d="M30.6285919,34.7285091 C27.8594141,34.7285091 25.4355083,32.868468 24.7188206,30.1936401 C24.0021328,27.5188123 25.1713676,24.696096 27.5695542,23.3115216 C29.9677407,21.9269471 32.9968973,22.3257546 34.9549988,24.2838619 L32.7953456,26.4438956 C31.9191412,25.5675782 30.601323,25.3053816 29.4564177,25.7795737 C28.3115124,26.2537658 27.5650031,27.3709568 27.5650031,28.6101769 C27.5650031,29.8493969 28.3115124,30.966588 29.4564177,31.44078 C30.601323,31.9149721 31.9191412,31.6527755 32.7953456,30.7764581 L34.9549988,32.9368331 C33.8098889,34.0876933 32.2520872,34.7328112 30.6285919,34.7285091 Z" id="Path" fill="#2942D1"></path>
                </g>
            </g>
        </g>
    </g>
</svg>