<?xml version="1.0" encoding="UTF-8"?>
<svg width="64px" height="64px" viewBox="0 0 64 64" version="1.1" xmlns="http://www.w3.org/2000/svg" xmlns:xlink="http://www.w3.org/1999/xlink">
    <title>02-2-04-ride-hail robotaxis@3x</title>
    <g id="--------Autonomy-Cover" stroke="none" stroke-width="1" fill="none" fill-rule="evenodd">
        <g id="02-2-1-Autonomy-Cover-1920" transform="translate(-455.000000, -7190.000000)" fill-rule="nonzero">
            <g id="02-2-04-ride-hail-robotaxis" transform="translate(455.000000, 7190.000000)">
                <g id="bg" fill="#DEE2F8">
                    <path d="M1.65982543e-15,0 L64.0001,0 L64.0001,64.0001 L14.54548,64.0001 C10.6877789,64.0001 6.9880791,62.4676342 4.26027246,59.7398275 C1.53246581,57.0120209 1.65982543e-15,53.3123211 1.65982543e-15,49.45462 L1.65982543e-15,0 Z" id="Path"></path>
                </g>
                <g id="shadow" transform="translate(11.636050, 27.927000)" fill="#2942D1" opacity="0.1">
                    <polygon id="Path" points="3.55271368e-15 18.619 17.455 36.073 52.364 36.073 52.364 11.637 40.728 7.10542736e-15"></polygon>
                </g>
                <g id="Слой_1" transform="translate(11.636050, 11.636380)">
                    <polygon id="Path" fill="#2942D1" points="34.909 32.5816203 34.909 17.5056203 5.819 17.5056203 5.819 32.5816203 3.55271368e-15 32.5816203 3.55271368e-15 34.9096203 5.819 34.9096203 34.909 34.9096203 40.728 34.9096203 40.728 32.5816203"></polygon>
                    <g id="Group" opacity="0.3" transform="translate(0.000000, 17.505620)" fill="#FFFFFF">
                        <polygon id="Path" points="34.909 15.076 34.909 -7.10542736e-15 5.819 -7.10542736e-15 5.819 15.076 0 15.076 0 17.404 5.819 17.404 34.909 17.404 40.728 17.404 40.728 15.076"></polygon>
                    </g>
                    <polygon id="Path" fill="#2942D1" points="16.027 32.5816203 16.957 29.0906203 10.556 17.4546203 1.455 17.4546203 1.455 21.8186203 3.55271368e-15 24.7276203 3.55271368e-15 32.5816203"></polygon>
                    <g id="Group" opacity="0.6" transform="translate(0.000000, 17.454620)" fill="#FFFFFF">
                        <polygon id="Path" points="16.027 15.127 16.957 11.636 10.556 7.10542736e-15 1.455 7.10542736e-15 1.455 4.364 0 7.273 0 15.127"></polygon>
                    </g>
                    <polygon id="Path" fill="#2942D1" points="24.823 32.5816203 23.893 29.0906203 30.294 17.4546203 39.396 17.4546203 39.396 21.8186203 40.85 24.7276203 40.85 32.5816203"></polygon>
                    <g id="Group" opacity="0.6" transform="translate(23.893000, 17.454620)" fill="#FFFFFF">
                        <polygon id="Path" points="0.93 15.127 0 11.636 6.401 7.10542736e-15 15.503 7.10542736e-15 15.503 4.364 16.957 7.273 16.957 15.127"></polygon>
                    </g>
                    <path d="M20.364,5.81819034 C19.1809552,5.81868812 18.0569254,6.33498441 17.28573,7.23212034 L18.92579,8.90399034 C19.250642,8.42929896 19.7888,8.14547363 20.364005,8.14547363 C20.93921,8.14547363 21.477368,8.42929896 21.80222,8.90399034 L23.44228,7.23219034 C22.6711184,6.33499512 21.5470677,5.81866533 20.364,5.81819034 Z" id="Path" fill="#2942D1"></path>
                    <path d="M20.364,0 C17.6575271,-0.000703721662 15.0697259,1.11100689 13.2071,3.07458034 L14.83658,4.73558034 C16.2644772,3.19976231 18.2669879,2.32726976 20.36404,2.32726976 C22.4610921,2.32726976 24.4636028,3.19976231 25.8915,4.73558034 L27.5209,3.07458034 C25.6582768,1.11100293 23.0704739,-0.000708441591 20.364,0 L20.364,0 Z" id="Path" fill="#2942D1"></path>
                    <path d="M37.88049,16.4840703 L37.88049,17.4557403 L2.97134,17.4557403 L2.97134,16.4840703 C14.3807429,13.233697 26.4710871,13.233697 37.88049,16.4840703 L37.88049,16.4840703 Z" id="Path" fill="#2942D1"></path>
                    <g id="Group" opacity="0.6" transform="translate(2.971340, 14.046290)" fill="#FFFFFF">
                        <path d="M34.90915,2.43777999 L34.90915,3.40944999 L7.10542736e-15,3.40944999 L7.10542736e-15,2.43777999 C11.4094029,-0.812593331 23.4997471,-0.812593331 34.90915,2.43777999 L34.90915,2.43777999 Z" id="Path"></path>
                    </g>
                    <rect id="Rectangle" fill="#2942D1" x="0.00033" y="16.2909403" width="40.72734" height="2.32728"></rect>
                    <circle id="Oval" fill="#2942D1" cx="7.27307" cy="33.6396103" r="4.36364"></circle>
                    <circle id="Oval" fill="#2942D1" cx="33.45493" cy="33.6396103" r="4.36364"></circle>
                </g>
            </g>
        </g>
    </g>
</svg>