<?xml version="1.0" encoding="UTF-8"?>
<svg width="64px" height="64px" viewBox="0 0 64 64" version="1.1" xmlns="http://www.w3.org/2000/svg" xmlns:xlink="http://www.w3.org/1999/xlink">
    <title>02-2-05-long-haul trucking@3x</title>
    <g id="--------Autonomy-Cover" stroke="none" stroke-width="1" fill="none" fill-rule="evenodd">
        <g id="02-2-1-Autonomy-Cover-1920" transform="translate(-933.000000, -7247.000000)" fill-rule="nonzero">
            <g id="02-2-05-long-haul-trucking" transform="translate(933.000000, 7247.000000)">
                <g id="bg" fill="#DEE2F8">
                    <path d="M0,0 L64,0 L64,64 L14.54545,64 C6.51221979,64 0,57.4877802 0,49.45455 L0,0 Z" id="Path"></path>
                </g>
                <g id="shadow" transform="translate(8.727000, 23.273000)" fill="#2942D1" opacity="0.1">
                    <polygon id="Path" points="-3.55271368e-15 23.272 17.455 40.727 55.273 40.727 55.273 20.363 34.909 3.55271368e-15"></polygon>
                </g>
                <g id="Слой_1" transform="translate(8.727000, 11.636360)">
                    <rect id="Rectangle" fill="#2942D1" x="0.00027" y="11.6363703" width="34.90909" height="23.27273"></rect>
                    <g id="Group" opacity="0.6" transform="translate(0.000270, 11.636370)" fill="#FFFFFF">
                        <rect id="Rectangle" x="0" y="-7.10542736e-15" width="34.90909" height="23.27273"></rect>
                    </g>
                    <path d="M14.54571,5.81819034 C13.3626665,5.81868428 12.2386365,6.33497704 11.46744,7.23211034 L13.1075,8.90398034 C13.4323497,8.42928893 13.9705063,8.14546323 14.54571,8.14546323 C15.1209137,8.14546323 15.6590703,8.42928893 15.98392,8.90398034 L17.62398,7.23218034 C16.8528229,6.33498602 15.7287741,5.81865905 14.54571,5.81819034 L14.54571,5.81819034 Z" id="Path" fill="#2942D1"></path>
                    <path d="M14.54571,1.77635684e-15 C11.8392396,-0.000705699378 9.2514408,1.11100545 7.38882,3.07458034 L9.0183,4.73558034 C10.4461937,3.19976335 12.4487011,2.32727114 14.54575,2.32727114 C16.6427989,2.32727114 18.6453063,3.19976335 20.0732,4.73558034 L21.7026,3.07458034 C19.8399792,1.11100545 17.2521804,-0.000705699378 14.54571,1.77635684e-15 L14.54571,1.77635684e-15 Z" id="Path" fill="#2942D1"></path>
                    <polygon id="Path" fill="#2942D1" points="44.965 26.1816403 39.823 26.1816403 39.823 23.2726403 43.218 22.5176403 42.191 20.3636403 34.909 20.3636403 34.909 32.5816403 3.55271368e-15 32.5816403 3.55271368e-15 34.9086403 34.909 34.9086403 39.273 34.9086403 46.546 34.9086403 46.546 29.4966403"></polygon>
                    <g id="Group" opacity="0.3" transform="translate(0.000000, 20.363640)" fill="#FFFFFF">
                        <polygon id="Path" points="44.965 5.818 39.823 5.818 39.823 2.909 43.218 2.154 42.191 0 34.909 0 34.909 12.218 3.55271368e-15 12.218 3.55271368e-15 14.545 34.909 14.545 39.273 14.545 46.546 14.545 46.546 9.133"></polygon>
                    </g>
                    <circle id="Oval" fill="#2942D1" cx="40.72755" cy="34.9091003" r="2.90909"></circle>
                    <circle id="Oval" fill="#2942D1" cx="8.72754" cy="33.4545503" r="4.36364"></circle>
                </g>
            </g>
        </g>
    </g>
</svg>