<?xml version="1.0" encoding="UTF-8"?>
<svg width="64px" height="64px" viewBox="0 0 64 64" version="1.1" xmlns="http://www.w3.org/2000/svg" xmlns:xlink="http://www.w3.org/1999/xlink">
    <title>02-2-06-last-mile delivery@3x</title>
    <g id="--------Autonomy-Cover" stroke="none" stroke-width="1" fill="none" fill-rule="evenodd">
        <g id="02-2-1-Autonomy-Cover-1920" transform="translate(-1424.000000, -7209.000000)" fill-rule="nonzero">
            <g id="02-2-06-last-mile-delivery" transform="translate(1424.000000, 7209.000000)">
                <g id="bg" fill="#DEE2F8">
                    <path d="M0,0 L64,0 L64,64 L14.54545,64 C6.51221979,64 0,57.4877802 0,49.45455 L0,0 Z" id="Path"></path>
                </g>
                <g id="shadow" transform="translate(11.802000, 27.463000)" fill="#2942D1" opacity="0.1">
                    <polygon id="Path" points="7.10542736e-15 18.935 17.602 36.537 52.198 36.334 52.198 16.943 35.256 7.10542736e-15"></polygon>
                </g>
                <g id="Слой_1" transform="translate(11.700820, 11.599480)">
                    <path d="M40.59823,34.8403803 C40.56283,34.3021703 40.59823,28.9987203 40.59823,28.9987203 C38.82149,19.5925503 35.25523,15.8637203 35.25523,15.8637203 L35.07158,15.8112503 C25.4231148,13.0080502 15.1762052,13.0080502 5.52774,15.8112503 L5.34295,15.8637203 C5.34295,15.8637203 1.77688,19.5925503 -1.77635684e-15,28.9987203 C-1.77635684e-15,28.9987203 0.03554,34.3021703 -1.77635684e-15,34.8403803 L40.59823,34.8403803 Z" id="Path" fill="#2942D1"></path>
                    <g id="Group" opacity="0.6" transform="translate(0.000000, 13.708850)" fill="#FFFFFF">
                        <path d="M40.59823,21.1315301 C40.56283,20.5933201 40.59823,15.2898701 40.59823,15.2898701 C38.82149,5.88370011 35.25523,2.15487011 35.25523,2.15487011 L35.07158,2.10240011 C25.4231148,-0.700800035 15.1762052,-0.700800035 5.52774,2.10240011 L5.34295,2.15487011 C5.34295,2.15487011 1.77688,5.88370011 -1.77635684e-15,15.2898701 C-1.77635684e-15,15.2898701 0.03554,20.5933201 -1.77635684e-15,21.1315301 L40.59823,21.1315301 Z" id="Path"></path>
                    </g>
                    <path d="M5.79984,15.7323003 L5.34302,15.8636903 C5.34302,15.8636903 2.41802,18.5591603 0.39162,27.1341603 L5.79984,26.1369303 L5.79984,15.7323003 Z" id="Path" fill="#2942D1"></path>
                    <g id="Group" opacity="0.3" transform="translate(0.391620, 15.732300)" fill="#FFFFFF">
                        <path d="M5.40822,3.55271368e-15 L4.9514,0.13139 C4.9514,0.13139 2.0264,2.82686 0,11.40186 L5.40822,10.40463 L5.40822,3.55271368e-15 Z" id="Path"></path>
                    </g>
                    <path d="M20.29918,5.79974034 C19.1198872,5.80023448 17.9994214,6.31489122 17.23067,7.20918034 L18.86553,8.87575034 C19.1893537,8.40256639 19.7258048,8.11964287 20.299185,8.11964287 C20.8725652,8.11964287 21.4090163,8.40256639 21.73284,8.87575034 L23.36769,7.20925034 C22.598978,6.3149002 21.4784934,5.80020925 20.29918,5.79974034 Z" id="Path" fill="#2942D1"></path>
                    <path d="M20.29918,1.77635684e-15 C17.6012908,-0.000702523808 15.0216969,1.10748293 13.16498,3.06483034 L14.78927,4.72052034 C16.2126396,3.18957471 18.2087992,2.31985038 20.2992,2.31985038 C22.3896008,2.31985038 24.3857604,3.18957471 25.80913,4.72052034 L27.43337,3.06478034 C25.5766469,1.10745388 22.9970583,-0.000712791317 20.29918,1.77635684e-15 Z" id="Path" fill="#2942D1"></path>
                    <rect id="Rectangle" fill="#2942D1" x="9e-05" y="32.4785403" width="40.59818" height="2.3199"></rect>
                    <g id="Group" opacity="0.3" transform="translate(0.000090, 32.478540)" fill="#FFFFFF">
                        <rect id="Rectangle" x="0" y="-7.10542736e-15" width="40.59818" height="2.3199"></rect>
                    </g>
                    <path d="M34.79853,15.7323003 L35.25535,15.8636903 C35.25535,15.8636903 38.18035,18.5591603 40.20675,27.1341603 L34.79853,26.1369303 L34.79853,15.7323003 Z" id="Path" fill="#2942D1"></path>
                    <g id="Group" opacity="0.3" transform="translate(34.798530, 15.732300)" fill="#FFFFFF">
                        <path d="M0,3.55271368e-15 L0.45682,0.13139 C0.45682,0.13139 3.38182,2.82686 5.40822,11.40186 L0,10.40463 L0,3.55271368e-15 Z" id="Path"></path>
                    </g>
                    <circle id="Oval" fill="#2942D1" cx="7.24977" cy="33.5329203" r="4.3498"></circle>
                    <circle id="Oval" fill="#2942D1" cx="33.34859" cy="33.5329203" r="4.3498"></circle>
                </g>
            </g>
        </g>
    </g>
</svg>