<?xml version="1.0" encoding="UTF-8"?>
<svg width="64px" height="64px" viewBox="0 0 64 64" version="1.1" xmlns="http://www.w3.org/2000/svg" xmlns:xlink="http://www.w3.org/1999/xlink">
    <title>02-2-07-middle-mile logistics@3x</title>
    <g id="--------Autonomy-Cover" stroke="none" stroke-width="1" fill="none" fill-rule="evenodd">
        <g id="02-2-1-Autonomy-Cover-1920" transform="translate(-594.000000, -7594.000000)" fill-rule="nonzero">
            <g id="02-2-07-middle-mile-logistics" transform="translate(594.000000, 7594.000000)">
                <g id="bg" fill="#DEE2F8">
                    <path d="M0,0 L64,0 L64,64 L14.54545,64 C6.51221979,64 0,57.4877802 0,49.45455 L0,0 Z" id="Path"></path>
                </g>
                <g id="shadow" transform="translate(11.636350, 20.363620)" fill="#2942D1" opacity="0.1">
                    <polygon id="Path" points="0 26.18181 17.45456 43.63638 52.25872 43.63638 52.25872 14.65038 37.60831 3.55271368e-15 26.12931 1.741 26.12931 19.62422"></polygon>
                </g>
                <g id="Слой_1" transform="translate(11.636000, 14.616765)">
                    <rect id="Rectangle" fill="#2942D1" x="0.00035" y="23.2014151" width="23.27274" height="7.45773"></rect>
                    <g id="Group" opacity="0.6" transform="translate(0.000350, 23.201415)" fill="#FFFFFF">
                        <rect id="Rectangle" x="0" y="0" width="23.27274" height="7.45773"></rect>
                    </g>
                    <polygon id="Path" fill="#2942D1" points="40.728 29.6012351 40.728 20.8692351 39.987 18.0472351 29.091 15.0842351 29.091 8.65623514 37.609 8.65623514 37.609 5.74723514 23.273 5.74723514 23.273 29.6012351 0 29.6012351 0 31.9282351 40.728 31.9282351 40.728 29.6012351"></polygon>
                    <g id="Group" opacity="0.3" transform="translate(0.000000, 5.747235)" fill="#FFFFFF">
                        <polygon id="Path" points="40.728 23.854 40.728 15.122 39.987 12.3 29.091 9.337 29.091 2.909 37.609 2.909 37.609 -3.55271368e-15 23.273 -3.55271368e-15 23.273 23.854 0 23.854 0 26.181 40.728 26.181 40.728 23.854"></polygon>
                    </g>
                    <circle id="Oval" fill="#2942D1" cx="7.27309" cy="30.4741451" r="4.36364"></circle>
                    <circle id="Oval" fill="#2942D1" cx="33.45491" cy="30.4741451" r="4.36364"></circle>
                    <path d="M14.28728,7.00415514 C13.4510934,7.84104043 13.0213594,9.00092084 13.11041,10.1806051 L15.4523,10.2031051 C15.346344,9.63774276 15.5261829,9.05651135 15.9329146,8.64977969 C16.3396462,8.24304803 16.9208776,8.06320917 17.48624,8.16916514 L17.46379,5.82732514 C16.2840866,5.73821103 15.1241672,6.16793669 14.28728,7.00415514 Z" id="Path" fill="#2942D1"></path>
                    <path d="M10.17321,2.89007514 C8.25894731,4.80333888 7.21519543,7.41928671 7.28658,10.1248151 L9.6133,10.1471051 C9.5369851,8.0514434 10.3360266,6.0185094 11.8188654,4.53567055 C13.3017043,3.05283171 15.3346383,2.25379024 17.4303,2.33010514 L17.40795,0.00343513674 C14.7024199,-0.0679479882 12.0864714,0.975807775 10.17321,2.89007514 Z" id="Path" fill="#2942D1"></path>
                </g>
            </g>
        </g>
    </g>
</svg>