<?xml version="1.0" encoding="UTF-8"?>
<svg width="64px" height="64px" viewBox="0 0 64 64" version="1.1" xmlns="http://www.w3.org/2000/svg" xmlns:xlink="http://www.w3.org/1999/xlink">
    <title>02-2-08-public transit shuttles@3x</title>
    <g id="--------Autonomy-Cover" stroke="none" stroke-width="1" fill="none" fill-rule="evenodd">
        <g id="02-2-1-Autonomy-Cover-1920" transform="translate(-990.000000, -7594.000000)" fill-rule="nonzero">
            <g id="02-2-08-public-transit-shuttles" transform="translate(990.000000, 7594.000000)">
                <path d="M0,0 L64,0 L64,64 L14.54545,64 C6.51221979,64 0,57.4877802 0,49.45455 L0,0 Z" id="Path" fill="#DEE2F8"></path>
                <polygon id="Path" fill="#2942D1" opacity="0.1" points="11.619 46.572 29.046 64 64 64 64 41.608 48.286 25.894"></polygon>
                <path d="M31.95109,17.47677 C30.7698562,17.4772646 29.6475462,17.9927686 28.87753,18.88853 L30.51508,20.55785 C30.8394329,20.0838914 31.3767617,19.8005046 31.95108,19.8005046 C32.5253983,19.8005046 33.0627271,20.0838914 33.38708,20.55785 L35.02463,18.8886 C34.2546578,17.9927829 33.1323374,17.4772452 31.95109,17.47677 Z" id="Path" fill="#2942D1"></path>
                <path d="M31.95109,11.6674797 C29.2487583,11.6667728 26.6649156,12.7767807 24.80514,14.73735 L26.43214,16.39583 C27.857852,14.862363 29.8572977,13.9912062 31.95114,13.9912062 C34.0449823,13.9912062 36.044428,14.862363 37.47014,16.39583 L39.097,14.73735 C37.237234,12.7767908 34.6534078,11.6667838 31.95109,11.6674797 L31.95109,11.6674797 Z" id="Path" fill="#2942D1"></path>
                <rect id="Rectangle" fill="#2942D1" x="11.61858" y="44.19951" width="40.66504" height="2.32372"></rect>
                <path d="M50.83136,38.87944 L50.83136,32 C50.83136,27.187418 46.930012,23.286 42.11743,23.286 L21.7849,23.286 C19.4738135,23.286 17.2573853,24.2040862 15.6232098,25.8382805 C13.9890342,27.4724748 13.0709761,29.6889135 13.071,32 L13.071,38.87946 L11.61867,40.71394 L11.61867,46.52323 L52.28369,46.52323 L52.28369,40.71392 L50.83136,38.87944 Z" id="Path" fill="#2942D1"></path>
                <g id="Group" opacity="0.6" transform="translate(11.618670, 23.286000)" fill="#FFFFFF">
                    <path d="M39.21269,15.59344 L39.21269,8.714 C39.21269,3.90141803 35.311342,0 30.49876,0 L10.16623,0 C7.85514352,0 5.63871534,0.918086202 4.00453979,2.5522805 C2.37036424,4.18647481 1.45230613,6.40291352 1.45233,8.714 L1.45233,15.59346 L0,17.42794 L0,23.23723 L40.66502,23.23723 L40.66502,17.42792 L39.21269,15.59344 Z" id="Path"></path>
                </g>
                <path d="M32.01712,26.47669 L20.00646,26.47669 C18.5823496,26.47669 17.42788,27.6311596 17.42788,29.05527 L17.42788,37.25671 L23.23723,40.763 L23.23723,46.52322 L40.6651,46.52322 L40.6651,40.763 L46.47433,37.25672 L46.47433,29.09087 C46.47433,28.3975455 46.1989118,27.7326171 45.7086573,27.2423627 C45.2184029,26.7521082 44.5534745,26.47669 43.86015,26.47669 L32.01712,26.47669 Z" id="Path" fill="#2942D1"></path>
                <g id="Group" opacity="0.3" transform="translate(17.427880, 26.476690)" fill="#FFFFFF">
                    <path d="M14.58924,-3.55271368e-15 L2.57858,-3.55271368e-15 C1.15446959,-3.55271368e-15 3.55271368e-15,1.15446959 3.55271368e-15,2.57858 L3.55271368e-15,10.78002 L5.80935,14.28631 L5.80935,20.04653 L23.23722,20.04653 L23.23722,14.28631 L29.04645,10.78003 L29.04645,2.61418 C29.04645,1.92085554 28.7710318,1.25592709 28.2807773,0.765672666 C27.7905229,0.275418241 27.1255945,-3.55271368e-15 26.43227,-3.55271368e-15 L14.58924,-3.55271368e-15 Z" id="Path"></path>
                </g>
                <circle id="Oval" fill="#2942D1" cx="17.42788" cy="46.52323" r="2.90465"></circle>
                <circle id="Oval" fill="#2942D1" cx="46.47433" cy="46.52323" r="2.90465"></circle>
            </g>
        </g>
    </g>
</svg>