<?xml version="1.0" encoding="UTF-8"?>
<svg width="64px" height="64px" viewBox="0 0 64 64" version="1.1" xmlns="http://www.w3.org/2000/svg" xmlns:xlink="http://www.w3.org/1999/xlink">
    <title>02-2-09-off-road-applications@3x</title>
    <g id="--------Autonomy-Cover" stroke="none" stroke-width="1" fill="none" fill-rule="evenodd">
        <g id="02-2-1-Autonomy-Cover-1920" transform="translate(-1481.000000, -7594.000000)" fill-rule="nonzero">
            <g id="02-2-09-off-road-applications" transform="translate(1481.000000, 7594.000000)">
                <g id="bg" fill="#DEE2F8">
                    <path d="M0,0 L64,0 L64,64 L14.54545,64 C6.51221979,64 0,57.4877802 0,49.45455 L0,0 Z" id="Path"></path>
                </g>
                <g id="shadow" transform="translate(13.860000, 24.130000)" fill="#2942D1" opacity="0.1">
                    <polygon id="Path" points="0 22.415 17.251 39.666 50.14 39.87 50.14 15.393 34.747 3.55271368e-15"></polygon>
                </g>
                <g id="Слой_1" transform="translate(11.636370, 11.636360)">
                    <path d="M8.72727,11.6363703 L34.90908,11.6363703 C35.6806204,11.6363703 36.4205614,11.9428591 36.9661237,12.4884195 C37.5116861,13.03398 37.81818,13.77392 37.81818,14.5454603 L37.81818,29.0909103 L5.81818,29.0909103 L5.81818,14.5454603 C5.81818,13.7739209 6.12466903,13.0339809 6.6702298,12.4884201 C7.21579058,11.9428594 7.95573055,11.6363703 8.72727,11.6363703 Z" id="Path" fill="#2942D1"></path>
                    <g id="Group" opacity="0.6" transform="translate(5.818180, 11.636370)" fill="#FFFFFF">
                        <path d="M2.90909,0 L29.0909,0 C29.8624404,0 30.6023814,0.306488708 31.1479437,0.852049198 C31.6935061,1.39760969 32,2.13754963 32,2.90909 L32,17.45454 L0,17.45454 L0,2.90909 C0,2.13755055 0.306489027,1.39761058 0.852049805,0.852049805 C1.39761058,0.306489027 2.13755055,0 2.90909,0 Z" id="Path"></path>
                    </g>
                    <polygon id="Path" fill="#2942D1" points="31.99963 14.5456403 31.99963 26.7636403 5.81863 26.7636403 5.81863 29.0906403 31.99963 29.0906403 37.81863 29.0906403 37.81863 14.5456403"></polygon>
                    <g id="Group" opacity="0.3" transform="translate(5.818630, 14.545640)" fill="#FFFFFF">
                        <polygon id="Path" points="26.181 0 26.181 12.218 0 12.218 0 14.545 26.181 14.545 32 14.545 32 0"></polygon>
                    </g>
                    <circle id="Oval" fill="#2942D1" cx="8.72727" cy="29.0909103" r="8.72727"></circle>
                    <circle id="Oval" fill="#2942D1" cx="34.90908" cy="32.0000003" r="5.81818"></circle>
                    <path d="M14.54543,5.81819034 C13.3623891,5.81868319 12.2383617,6.33497642 11.46717,7.23211034 L13.10722,8.90398034 C13.4320697,8.42928893 13.9702263,8.14546324 14.54543,8.14546324 C15.1206337,8.14546324 15.6587903,8.42928893 15.98364,8.90398034 L17.6237,7.23218034 C16.8525429,6.33498603 15.7284941,5.81865906 14.54543,5.81819034 Z" id="Path" fill="#2942D1"></path>
                    <path d="M14.54543,0 C11.8389596,-0.00070569147 9.2511608,1.11100546 7.38854,3.07458034 L9.01802,4.73558034 C10.4459137,3.19976335 12.4484211,2.32727114 14.54547,2.32727114 C16.6425189,2.32727114 18.6450263,3.19976335 20.07292,4.73558034 L21.70232,3.07458034 C19.839704,1.11099854 17.2519021,-0.000713951432 14.54543,0 L14.54543,0 Z" id="Path" fill="#2942D1"></path>
                </g>
            </g>
        </g>
    </g>
</svg>