<?xml version="1.0" encoding="UTF-8"?>
<svg width="64px" height="64px" viewBox="0 0 64 64" version="1.1" xmlns="http://www.w3.org/2000/svg" xmlns:xlink="http://www.w3.org/1999/xlink">
    <title>02-2-11-risk scoring@3x</title>
    <g id="--------Autonomy-Cover" stroke="none" stroke-width="1" fill="none" fill-rule="evenodd">
        <g id="02-2-1-Autonomy-Cover-1920" transform="translate(-805.000000, -9006.000000)" fill-rule="nonzero">
            <g id="02-2-11-risk-scoring" transform="translate(805.000000, 9006.000000)">
                <g id="подложка" fill="#E9EBF4">
                    <path d="M0,0 L64.0002,0 L64.0002,64.0002 L14.5455,64.0002 C6.51224217,64.0002 0,57.4879578 0,49.4547 L0,0 Z" id="Path"></path>
                </g>
                <g id="shadow" transform="translate(17.601000, 17.601000)" fill="#2942D1" opacity="0.1">
                    <polygon id="Path" points="0 28.798 17.6 46.399 46.399 46.399 46.399 17.6 28.798 0"></polygon>
                </g>
                <g id="Слой_1" transform="translate(11.636360, 11.636360)">
                    <circle id="Oval" fill="#2942D1" cx="20.36364" cy="20.36364" r="20.36364"></circle>
                    <g id="Group" opacity="0.6" fill="#FFFFFF">
                        <circle id="Oval" cx="20.36364" cy="20.36364" r="20.36364"></circle>
                    </g>
                    <path d="M8.56999,18.5567 C8.08480039,17.8511098 7.83720454,17.0092061 7.86317,16.15329 C7.85264852,15.3425985 8.07328498,14.5456843 8.49925,13.85584 C8.95973659,13.140711 9.61900029,12.5755891 10.39612,12.22984 C11.35581,11.8047759 12.398343,11.5994924 13.44754,11.62899 C14.4968256,11.5995531 15.5394397,11.804833 16.49925,12.22984 C17.2780926,12.5777558 17.9405538,13.1421522 18.40777,13.85584 C18.8408469,14.5431239 19.0658898,15.3410017 19.05577,16.15329 C19.073046,17.0079148 18.8171694,17.8457567 18.32537,18.54491 C17.8237925,19.2394716 17.1264572,19.7686532 16.32253,20.06479 C17.2429722,20.3274207 18.0558971,20.8762764 18.64353,21.63184 C19.2265864,22.4082801 19.5296778,23.3592076 19.50347,24.32984 C19.5246818,25.2765884 19.2620833,26.2080225 18.74947,27.00427 C18.2231969,27.7860787 17.4827898,28.3996805 16.61686,28.77164 C15.6172663,29.2041493 14.5364891,29.4170877 13.44754,29.39607 C12.3660571,29.4188281 11.2925953,29.2057457 10.3018,28.77164 C9.44516699,28.394953 8.71365411,27.7818912 8.193,27.00431 C7.68026267,26.2081184 7.41765323,25.2766455 7.439,24.32988 C7.41357964,23.3575539 7.71198063,22.4043452 8.2873,21.62008 C8.86250692,20.8591753 9.67508463,20.3118733 10.59639,20.06482 C9.78726004,19.7724254 9.08237223,19.2478225 8.56999,18.5567 Z M10.59641,21.82033 C9.84138658,22.3958943 9.42547236,23.3118528 9.48902,24.25911 C9.45562123,25.1896989 9.85076773,26.084222 10.56118,26.68624 C11.3793407,27.3337277 12.4056348,27.6604545 13.44754,27.60513 C14.4861356,27.6617953 15.5093337,27.334767 16.32254,26.68624 C17.0265805,26.0804668 17.4167511,25.1872692 17.38277,24.25911 C17.4367148,23.3255204 17.032263,22.4242258 16.29896,21.84391 C15.4691935,21.2531905 14.4649275,20.9585764 13.44754,21.00741 C12.4343178,20.963419 11.4340792,21.248609 10.59641,21.82033 L10.59641,21.82033 Z M16.03964,14.19746 C15.2938974,13.6416188 14.3761476,13.3663169 13.44759,13.41991 C12.5265779,13.3684786 11.6169756,13.6438426 10.87913,14.19746 C10.2329454,14.7557167 9.8844217,15.5836328 9.9368,16.43596 C9.90976993,17.2575829 10.2722524,18.0437351 10.91464,18.5567 C11.6378455,19.1145067 12.535156,19.3983111 13.44759,19.35783 C14.3695512,19.4005545 15.2764066,19.1122273 16.00441,18.54491 C16.6457722,18.0259893 17.0075555,17.2369913 16.98225,16.41238 C17.0311641,15.5673858 16.6824819,14.7480616 16.03964,14.19746 L16.03964,14.19746 Z" id="Shape" fill="#2942D1"></path>
                    <path d="M22.75531,13.90286 C23.63513,12.3870933 25.1746167,11.629 27.37377,11.629 C29.55729,11.629 31.08892,12.3869533 31.96866,13.90286 C32.9481522,15.8622444 33.4028158,18.0421385 33.28826,20.22971 C33.4062156,22.4440468 32.9517456,24.6514323 31.96866,26.63908 C31.0888267,28.1629467 29.5571967,28.92473 27.37377,28.92473 C25.1743367,28.92473 23.63485,28.1628467 22.75531,26.63908 C21.7723312,24.6514031 21.3179585,22.4440215 21.43599,20.22971 C21.3213553,18.0421637 21.7759218,15.8622728 22.75531,13.90286 Z M30.89678,16.75414 C30.7609701,15.896234 30.3757519,15.0972453 29.78911,14.4567 C29.1414572,13.8409174 28.2654124,13.5246862 27.37377,13.58482 C26.4747645,13.5218733 25.5904433,13.8380421 24.93513,14.4567 C24.3480678,15.0969605 23.9627853,15.8960826 23.82746,16.75414 C23.6306094,17.9018858 23.5398929,19.0653235 23.55646,20.22971 C23.538596,21.4215074 23.6293039,22.6124556 23.82746,23.7878 C23.9609605,24.6499113 24.346331,25.4533211 24.93513,26.09704 C25.5903395,26.7158662 26.4747385,27.0320592 27.37377,26.96891 C28.2654391,27.0292467 29.1415618,26.712991 29.78911,26.09704 C30.3774878,25.4530367 30.7627941,24.6497608 30.89678,23.7878 C31.0946932,22.6124286 31.1853131,21.4214948 31.16752,20.22971 C31.1840177,19.0653364 31.0933893,17.901913 30.89678,16.75414 L30.89678,16.75414 Z" id="Shape" fill="#2942D1"></path>
                </g>
            </g>
        </g>
    </g>
</svg>