<?xml version="1.0" encoding="UTF-8"?>
<svg width="64px" height="64px" viewBox="0 0 64 64" version="1.1" xmlns="http://www.w3.org/2000/svg" xmlns:xlink="http://www.w3.org/1999/xlink">
    <title>02-2-12-insurance rating@3x</title>
    <g id="--------Autonomy-Cover" stroke="none" stroke-width="1" fill="none" fill-rule="evenodd">
        <g id="02-2-1-Autonomy-Cover-1920" transform="translate(-1355.000000, -8985.000000)" fill-rule="nonzero">
            <g id="02-2-12-insurance-rating" transform="translate(1355.000000, 8985.000000)">
                <g id="подложка" fill="#E9EBF4">
                    <path d="M0,0 L64.0002,0 L64.0002,64.0002 L14.5455,64.0002 C6.51224217,64.0002 0,57.4879578 0,49.4547 L0,0 Z" id="Path"></path>
                </g>
                <g id="shadow" transform="translate(17.601000, 17.601000)" fill="#2942D1" opacity="0.1">
                    <polygon id="Path" points="0 28.798 17.6 46.399 46.399 46.399 46.399 17.6 28.798 0"></polygon>
                </g>
                <g id="Слой_1" transform="translate(11.636360, 11.636360)">
                    <circle id="Oval" fill="#2942D1" cx="20.36364" cy="20.36364" r="20.36364"></circle>
                    <g id="Group" opacity="0.6" fill="#FFFFFF">
                        <circle id="Oval" cx="20.36364" cy="20.36364" r="20.36364"></circle>
                    </g>
                    <polygon id="Path" fill="#2942D1" points="14.33031 27.69391 12.54331 35.16051 11.63639 35.16051 13.42339 27.69391"></polygon>
                    <path d="M20.70786,30.65596 C20.9975292,30.9684712 21.1469715,31.3857463 21.12156,31.8111 L21.12156,33.96238 L20.19493,33.96238 L20.19493,31.93683 C20.2113151,31.6971564 20.1328442,31.4606448 19.97644,31.2783 C19.8191453,31.1213104 19.6026889,31.0383333 19.38076,31.04995 C19.1579478,31.0387777 18.9406733,31.1216207 18.78186,31.2783 C18.623447,31.4596632 18.5436769,31.6965879 18.56014,31.93683 L18.56014,33.96238 L17.63314,33.96238 L17.63314,31.93683 C17.6494711,31.6972182 17.5711343,31.4607643 17.41497,31.2783 C17.2575481,31.1213042 17.0409934,31.038334 16.81897,31.04995 C16.5940229,31.0380095 16.3743563,31.1208255 16.21328,31.2783 C16.0550002,31.4597397 15.9752493,31.6966076 15.99156,31.93683 L15.99156,33.96238 L15.06492,33.96238 L15.06492,30.29526 L15.99164,30.29526 L15.99164,30.7387 C16.1135545,30.5821395 16.2714368,30.4572985 16.45189,30.37477 C16.6457648,30.2850692 16.8572237,30.2397941 17.07083,30.24225 C17.337936,30.2375536 17.6019246,30.3001891 17.83845,30.42438 C18.060167,30.5422532 18.2421162,30.7230057 18.36145,30.94394 C18.4838714,30.7289775 18.6638653,30.5524539 18.88117,30.43424 C19.4752784,30.1121004 20.2081536,30.201051 20.70795,30.65596 L20.70786,30.65596 Z" id="Path" fill="#2942D1"></path>
                    <path d="M22.06501,29.70282 C21.9612149,29.6007153 21.9027592,29.4612131 21.9027592,29.315615 C21.9027592,29.1700169 21.9612149,29.0305147 22.06501,28.92841 C22.2967304,28.7209021 22.6474496,28.7209021 22.87917,28.92841 C22.982777,29.0306157 23.0411021,29.1700801 23.0411021,29.315615 C23.0411021,29.4611499 22.982777,29.6006143 22.87917,29.70282 C22.6474443,29.9103142 22.2967357,29.9103142 22.06501,29.70282 Z M22.92862,30.29526 L22.92862,33.96238 L22.00198,33.96238 L22.00198,30.29526 L22.92862,30.29526 Z" id="Shape" fill="#2942D1"></path>
                    <polygon id="Path" fill="#2942D1" points="24.76864 29.06416 24.76864 33.96238 23.842 33.96238 23.842 29.06416"></polygon>
                    <path d="M29.06441,32.40678 L26.38372,32.40678 C26.3924201,32.6423715 26.4920603,32.8654294 26.66172,33.02912 C26.8257711,33.1793911 27.0417875,33.2600486 27.26418,33.25407 C27.5773369,33.2729479 27.8696313,33.0965169 27.99883,32.81063 L28.99852,32.81063 C28.8956073,33.1593522 28.6816933,33.4649587 28.38927,33.68103 C28.0691686,33.9148275 27.6800737,34.0348599 27.28389,34.02203 C26.9522432,34.027327 26.6249122,33.9463471 26.33399,33.78703 C26.0561643,33.6328769 25.8286914,33.4018694 25.67884,33.1217 C25.5175574,32.816027 25.436688,32.4743486 25.44384,32.12881 C25.4362426,31.7814952 25.5159226,31.4378265 25.67558,31.12929 C25.8225053,30.8500189 26.0480165,30.6199015 26.32426,30.46736 C26.9186476,30.1609331 27.6240042,30.1584669 28.22052,30.46073 C28.4921381,30.6067166 28.7153136,30.8287106 28.86274,31.09955 C29.0188661,31.3914313 29.0974345,31.7185105 29.09092,32.04946 C29.0919449,32.1690937 29.083078,32.2886074 29.06441,32.40678 Z M28.13131,31.7846 C28.1351595,31.5647347 28.0404171,31.3546835 27.87306,31.21204 C27.7011972,31.0671706 27.4820361,30.990606 27.25735,30.99694 C27.0448859,30.9907822 26.8379632,31.0652606 26.67816,31.20541 C26.5151562,31.3572025 26.4128145,31.5630194 26.39016,31.7846 L28.13131,31.7846 Z" id="Shape" fill="#2942D1"></path>
                    <path d="M21.90091,23.32364 L14.02648,23.32364 L14.02648,20.99633 L21.90091,20.99633 C22.8425677,20.9981654 23.7134816,20.4968507 24.184841,19.6816558 C24.6562005,18.8664609 24.6562005,17.8615691 24.184841,17.0463742 C23.7134816,16.2311793 22.8425677,15.7298646 21.90091,15.7317 L18.82136,15.7317 C17.0494441,15.7317 15.4121263,14.7863942 14.5261684,13.25187 C13.6402104,11.7173459 13.6402104,9.82673413 14.5261684,8.29220997 C15.4121263,6.75768581 17.0494441,5.81238 18.82136,5.81238 L25.74693,5.81238 L25.74693,8.13964 L18.82136,8.13964 C17.3695372,8.14246969 16.1941007,9.3201994 16.1941007,10.772025 C16.1941007,12.2238506 17.3695372,13.4015803 18.82136,13.40441 L21.90091,13.40441 C24.6400159,13.40441 26.8605,15.6248941 26.8605,18.364 C26.8605,21.1031059 24.6400159,23.32364 21.90091,23.32364 L21.90091,23.32364 Z" id="Path" fill="#2942D1"></path>
                    <rect id="Rectangle" fill="#2942D1" x="19.1975" y="22.15996" width="2.32727" height="3.79602"></rect>
                    <rect id="Rectangle" fill="#2942D1" x="19.1975" y="3.18013" width="2.32727" height="3.79588"></rect>
                </g>
            </g>
        </g>
    </g>
</svg>