<?xml version="1.0" encoding="UTF-8"?>
<svg width="84px" height="84px" viewBox="0 0 84 84" version="1.1" xmlns="http://www.w3.org/2000/svg" xmlns:xlink="http://www.w3.org/1999/xlink">
    <title>02-7-05-general liability@3x</title>
    <g id="-------Partner-With-Us" stroke="none" stroke-width="1" fill="none" fill-rule="evenodd">
        <g id="04-1-1-Partner-With-Us-1920" transform="translate(-980.000000, -3413.000000)" fill-rule="nonzero">
            <g id="02-7-05-general-liability" transform="translate(980.000000, 3413.000000)">
                <g id="bg" fill="#DEE2F8">
                    <path d="M-2.11951602e-15,0 L84,0 L84,84 L19.0909162,84 C14.0276894,84 9.17183812,81.988646 5.59159607,78.4084039 C2.01135402,74.8281619 -2.11951602e-15,69.9723106 -2.11951602e-15,64.9090837 L-2.11951602e-15,0 Z" id="Path"></path>
                </g>
                <g id="shadow" transform="translate(15.272670, 17.887091)" fill="#2942D1" opacity="0.1">
                    <polygon id="Path" points="68.72733 20.7935963 47.9338519 2.33146835e-15 36.9355087 8.3240325 40.2944194 11.68293 33.6231263 15.8534775 33.3885038 16.00011 17.3884069 2.33146835e-15 6.3901425 8.3240325 9.74904 11.68293 3.07768125 15.8534775 1.3125e-05 17.7773925 1.3125e-05 20.2318463 13.3972125 33.6289931 6.3901425 38.9323463 9.74904 42.2911519 3.07766812 46.4616994 0 48.3856144 0 50.8401206 15.2728144 66.1129088 68.72733 66.1129088"></polygon>
                </g>
                <g id="Слой_1" transform="translate(15.272250, 14.893139)">
                    <path d="M35.7526444,10.1346349 C35.2776537,9.10844202 35.1159687,7.96492227 35.2878356,6.84726863 L36.070965,6.84726863 L36.0571838,3.10123613 C36.9559054,2.42203015 37.9519173,1.88224127 39.0116213,1.50007801 L39.0116213,0.00612488272 C42.2488104,-0.090938416 45.4147141,0.968311746 47.9416875,2.99395238 L47.9416875,3.10123613 L47.9279194,6.84733426 L48.6883556,6.84733426 C48.8602249,7.96498788 48.6985398,9.10850831 48.2235469,10.1347005 L47.5487906,10.1347005 C47.3416781,13.0207043 44.4669619,16.5246199 41.9994619,16.996188 C39.5319619,16.5246199 36.6572456,13.0207043 36.45012,10.1347005 L35.7526444,10.1346349 Z" id="Path" fill="#2942D1"></path>
                    <g id="Group" opacity="0.6" transform="translate(35.221068, 0.000000)" fill="#FFFFFF">
                        <path d="M0.531576576,10.1346349 C0.0565859317,9.10844202 -0.105099121,7.96492227 0.0667678264,6.84726863 L0.849897201,6.84726863 L0.836115951,3.10123613 C1.73483757,2.42203015 2.73084946,1.88224127 3.79055345,1.50007801 L3.79055345,0.00612488272 C7.02774258,-0.090938416 10.1936463,0.968311746 12.7206197,2.99395238 L12.7206197,3.10123613 L12.7068516,6.84733426 L13.4672878,6.84733426 C13.6391571,7.96498788 13.477472,9.10850831 13.0024791,10.1347005 L12.3277228,10.1347005 C12.1206103,13.0207043 9.24589408,16.5246199 6.77839408,16.996188 C4.31089408,16.5246199 1.43617783,13.0207043 1.2290522,10.1347005 L0.531576576,10.1346349 Z" id="Path"></path>
                    </g>
                    <path d="M47.92788,5.22555676 L47.9416875,3.10123613 L47.9416875,2.99399176 C45.4147141,0.968351121 42.2488104,-0.090899041 39.0116213,0.00616425772 L39.0116213,1.49998613 C37.9672337,1.87016905 36.9743917,2.37220044 36.0571838,2.99389988 L36.070965,5.22550426 L47.92788,5.22555676 Z" id="Path" fill="#2942D1"></path>
                    <polygon id="Path" fill="#2942D1" points="36.057 2.99361113 37.8144375 4.87048613 37.09125 6.84711113 36.057 6.84711113"></polygon>
                    <polygon id="Path" fill="#2942D1" points="47.9338125 2.99361113 46.186875 4.87048613 46.9100625 6.84711113 47.9338125 6.84711113"></polygon>
                    <polygon id="Path" fill="#2942D1" points="46.914 16.6816736 41.9881875 21.3791111 37.0873125 16.6816736 30.5458125 20.7714236 30.5458125 23.2257986 53.4555 23.2257986 53.4555 20.7714236"></polygon>
                    <path d="M35.7526444,40.7429486 C35.2776537,39.7167558 35.1159687,38.573236 35.2878356,37.4555824 L36.070965,37.4555824 L36.0571838,33.7094843 C36.9559054,33.0302783 37.9519173,32.4904894 39.0116213,32.1083261 L39.0116213,30.6144386 C42.2488114,30.5173684 45.4147174,31.5766193 47.9416875,33.6022661 L47.9416875,33.7095105 L47.9279194,37.4556086 L48.6883556,37.4556086 C48.8602226,38.5732623 48.6985375,39.716782 48.2235469,40.7429749 L47.5487906,40.7429749 C47.3416781,43.6289786 44.4669619,47.1328811 41.9994619,47.6044624 C39.5319619,47.1328811 36.6572456,43.6289786 36.45012,40.7429749 L35.7526444,40.7429486 Z" id="Path" fill="#2942D1"></path>
                    <g id="Group" opacity="0.6" transform="translate(35.221068, 30.608313)" fill="#FFFFFF">
                        <path d="M0.531576576,10.1346357 C0.0565859317,9.10844286 -0.105099121,7.96492311 0.0667678264,6.84726947 L0.849897201,6.84726947 L0.836115951,3.10117134 C1.73483757,2.42196536 2.73084946,1.88217648 3.79055345,1.50001322 L3.79055345,0.00612571717 C7.0277436,-0.0909445088 10.1936496,0.968306433 12.7206197,2.99395322 L12.7206197,3.10119759 L12.7068516,6.84729572 L13.4672878,6.84729572 C13.6391548,7.96494936 13.4774697,9.10846911 13.0024791,10.134662 L12.3277228,10.134662 C12.1206103,13.0206657 9.24589408,16.5245682 6.77839408,16.9961495 C4.31089408,16.5245682 1.43617783,13.0206657 1.2290522,10.134662 L0.531576576,10.1346357 Z" id="Path"></path>
                    </g>
                    <path d="M47.92788,35.8338705 L47.9416481,33.7095105 L47.9416481,33.6022661 C45.414678,31.5766193 42.248772,30.5173684 39.0115819,30.6144386 L39.0115819,32.1083524 C37.9671944,32.4785353 36.9743523,32.9805667 36.0571444,33.6022661 L36.0709256,35.8338705 L47.92788,35.8338705 Z" id="Path" fill="#2942D1"></path>
                    <polygon id="Path" fill="#2942D1" points="36.057 33.6024236 37.8144375 35.4792986 37.09125 37.4559236 36.057 37.4559236"></polygon>
                    <polygon id="Path" fill="#2942D1" points="47.9338125 33.6024236 46.186875 35.4792986 46.9100625 37.4559236 47.9338125 37.4559236"></polygon>
                    <polygon id="Path" fill="#2942D1" points="46.914 47.2904861 41.9881875 51.9879236 37.0873125 47.2904861 30.5458125 51.3802361 30.5458125 53.8346111 53.4555 53.8346111 53.4555 51.3802361"></polygon>
                    <path d="M5.20719937,10.1346349 C4.73220873,9.10844202 4.57052368,7.96492227 4.74239062,6.84726863 L5.52550687,6.84726863 L5.51173875,3.10123613 C6.41046037,2.42203015 7.40647226,1.88224127 8.46617625,1.50007801 L8.46617625,0.00612488272 C11.7033654,-0.090938416 14.8692691,0.968311746 17.3962425,2.99395238 L17.3962425,3.10123613 L17.3824612,6.84733426 L18.1429106,6.84733426 C18.3147799,7.96498788 18.1530948,9.10850831 17.6781019,10.1347005 L17.0033456,10.1347005 C16.79622,13.0207043 13.9215037,16.5246199 11.4540037,16.996188 C8.98650375,16.5246199 6.11180062,13.0207043 5.904675,10.1347005 L5.20719937,10.1346349 Z" id="Path" fill="#2942D1"></path>
                    <g id="Group" opacity="0.6" transform="translate(4.675623, 0.000000)" fill="#FFFFFF">
                        <path d="M0.531576576,10.1346349 C0.0565859317,9.10844202 -0.105099121,7.96492227 0.0667678264,6.84726863 L0.849884076,6.84726863 L0.836115951,3.10123613 C1.73483757,2.42203015 2.73084946,1.88224127 3.79055345,1.50007801 L3.79055345,0.00612488272 C7.02774258,-0.090938416 10.1936463,0.968311746 12.7206197,2.99395238 L12.7206197,3.10123613 L12.7068385,6.84733426 L13.4672878,6.84733426 C13.6391571,7.96498788 13.477472,9.10850831 13.0024791,10.1347005 L12.3277228,10.1347005 C12.1205972,13.0207043 9.24588095,16.5246199 6.77838095,16.996188 C4.31088095,16.5246199 1.43617783,13.0207043 1.2290522,10.1347005 L0.531576576,10.1346349 Z" id="Path"></path>
                    </g>
                    <path d="M17.3824219,5.22555676 L17.3962031,3.10119676 L17.3962031,2.99395238 C14.8692297,0.968311746 11.703326,-0.090938416 8.46613687,0.00612488272 L8.46613687,1.49998613 C7.42174937,1.87016905 6.42890735,2.37220044 5.51169937,2.99389988 L5.5254675,5.22550426 L17.3824219,5.22555676 Z" id="Path" fill="#2942D1"></path>
                    <polygon id="Path" fill="#2942D1" points="5.5111875 2.99361113 7.2699375 4.87048613 6.5454375 6.84711113 5.5111875 6.84711113"></polygon>
                    <polygon id="Path" fill="#2942D1" points="17.3893125 2.99361113 15.6410625 4.87048613 16.36425 6.84711113 17.3893125 6.84711113"></polygon>
                    <polygon id="Path" fill="#2942D1" points="16.3681875 16.6816736 11.442375 21.3791111 6.5415 16.6816736 0 20.7714236 0 23.2257986 22.9096875 23.2257986 22.9096875 20.7714236"></polygon>
                    <path d="M5.20719937,40.7429486 C4.73220873,39.7167558 4.57052368,38.573236 4.74239062,37.4555824 L5.52550687,37.4555824 L5.51173875,33.7094843 C6.41046037,33.0302783 7.40647226,32.4904894 8.46617625,32.1083261 L8.46617625,30.6144386 C11.7033664,30.5173684 14.8692724,31.5766193 17.3962425,33.6022661 L17.3962425,33.7095105 L17.3824612,37.4556086 L18.1429106,37.4556086 C18.31476,38.5732576 18.1530614,39.7167676 17.6780625,40.7429486 L17.0033062,40.7429486 C16.7961806,43.6289524 13.9214644,47.1328549 11.4539644,47.6044361 C8.98646437,47.1328549 6.11176125,43.6289524 5.90463562,40.7429486 L5.20719937,40.7429486 Z" id="Path" fill="#2942D1"></path>
                    <g id="Group" opacity="0.6" transform="translate(4.675623, 30.608313)" fill="#FFFFFF">
                        <path d="M0.531576576,10.1346357 C0.0565859317,9.10844286 -0.105099121,7.96492311 0.0667678264,6.84726947 L0.849884076,6.84726947 L0.836115951,3.10117134 C1.73483757,2.42196536 2.73084946,1.88217648 3.79055345,1.50001322 L3.79055345,0.00612571717 C7.0277436,-0.0909445088 10.1936496,0.968306433 12.7206197,2.99395322 L12.7206197,3.10119759 L12.7068385,6.84729572 L13.4672878,6.84729572 C13.6391372,7.96494468 13.4774386,9.10845469 13.0024397,10.1346357 L12.3276835,10.1346357 C12.1205578,13.0206395 9.24584158,16.524542 6.77834158,16.9961232 C4.31084158,16.524542 1.43613845,13.0206395 1.22901283,10.1346357 L0.531576576,10.1346357 Z" id="Path"></path>
                    </g>
                    <path d="M17.3824219,35.8338705 L17.3962031,33.7095105 L17.3962031,33.6022661 C14.869233,31.5766193 11.703327,30.5173684 8.46613687,30.6144386 L8.46613687,32.1083524 C7.42174937,32.4785353 6.42890735,32.9805667 5.51169937,33.6022661 L5.5254675,35.8338705 L17.3824219,35.8338705 Z" id="Path" fill="#2942D1"></path>
                    <polygon id="Path" fill="#2942D1" points="5.5111875 33.6024236 7.2699375 35.4792986 6.5454375 37.4559236 5.5111875 37.4559236"></polygon>
                    <polygon id="Path" fill="#2942D1" points="17.3893125 33.6024236 15.6410625 35.4792986 16.36425 37.4559236 17.3893125 37.4559236"></polygon>
                    <polygon id="Path" fill="#2942D1" points="16.3681875 47.2904861 11.442375 51.9879236 6.5415 47.2904861 0 51.3802361 0 53.8346111 22.9096875 53.8346111 22.9096875 51.3802361"></polygon>
                </g>
            </g>
        </g>
    </g>
</svg>