<svg width="84" height="84" viewBox="0 0 84 84" xmlns="http://www.w3.org/2000/svg">
    <g fill-rule="nonzero" fill="none">
        <path d="M0 0h84v84H19.09C8.548 84 0 75.453 0 64.91V0z" fill="#DEE2F8"/>
        <path d="M22.91 68.728 38.182 84H84V38.182l-22.91-22.91z" fill="#2942D1" opacity=".1"/>
        <path fill="#2942D1" d="M61.09 49.636 42 68.728H22.91V15.272h38.18z"/>
        <path d="M61.09 49.636 42 68.728H22.91V15.272h38.18z" opacity=".6" fill="#FFF"/>
        <path fill="#2942D1" d="M42 49.636h19.09L42 68.728zM19.09 34.363c0 10.738 11.442 15.267 11.456 15.273V34.363H19.091z"/>
        <path d="M19.09 34.363c0 10.738 11.442 15.267 11.456 15.273V34.363H19.091z" opacity=".3" fill="#FFF"/>
        <path d="M19.09 34.363V22.269c3.782-.71 7.61-1.135 11.455-1.27h.001v13.364H19.091z" fill="#2942D1"/>
        <path d="M42 34.363V22.269a76.724 76.724 0 0 0-11.455-1.27v13.364H42z" fill="#2942D1"/>
        <path d="M42 34.363V22.269a76.724 76.724 0 0 0-11.455-1.27v13.364H42z" opacity=".3" fill="#FFF"/>
        <path d="M42 34.363C42 45.1 30.559 49.63 30.545 49.636V34.363H42z" fill="#2942D1"/>
    </g>
</svg>
