<?xml version="1.0" encoding="UTF-8"?>
<svg width="64px" height="64px" viewBox="0 0 64 64" version="1.1" xmlns="http://www.w3.org/2000/svg" xmlns:xlink="http://www.w3.org/1999/xlink">
    <title>01-1-13-insurance specialists@3x</title>
    <g id="---01-Home" stroke="none" stroke-width="1" fill="none" fill-rule="evenodd">
        <g id="01-1-1-Home-1920" transform="translate(-928.000000, -8535.000000)">
            <g id="Group-3" transform="translate(928.000000, 8535.000000)">
                <path d="M63.5429223,0 C63.5429223,21.2446643 63.5429223,42.4893286 63.5429223,63.7295576 C46.3286148,63.7295576 29.1143074,63.7295576 11.9,63.7295576 C5.32781148,63.7295576 4.35757464e-15,58.4017462 0,51.8295576 C0,34.5530384 0,17.2765192 0,0 C21.1824482,0 42.3604741,0 63.5429223,0 Z" id="Fill-2499" fill="#D9D9D9" fill-rule="nonzero" opacity="0.065"></path>
                <g id="01-1-13-insurance-specialists" transform="translate(8.962081, 8.961969)">
                    <g id="shadow" transform="translate(-0.000000, 0.000000)">
                        <polygon id="Path" fill="#D9D9D9" opacity="0.065" points="6.46941729 39.2350922 22.2725527 55.038031 55.0379194 55.038031 55.0379194 22.2790468 39.2288092 6.47112916 6.79304798 6.79376004"></polygon>
                        <path d="M23.173441,3.53770111e-15 C10.3750499,3.53770111e-15 -1.76887257e-15,10.3751266 -1.76887257e-15,23.1733583 C-1.76887257e-15,35.9715901 10.3752225,46.3465441 23.1736136,46.3465441 C35.9720047,46.3465441 46.347121,35.9714839 46.347121,23.1732521 C46.347121,17.0272945 43.9056318,11.1330568 39.5597163,6.78722162 C35.2138008,2.4413864 29.3194751,3.53770111e-15 23.173441,3.53770111e-15 Z M23.173441,34.7118271 C16.8007565,34.7118271 11.6347324,29.5457511 11.6347324,23.1731459 C11.6347324,16.8005407 16.8008693,11.6345776 23.1735539,11.6345776 C29.5462384,11.6345776 34.7122691,16.8006469 34.7122691,23.1732521 C34.7122691,26.2334931 33.4965781,29.1683944 31.3326238,31.3323013 C29.1686695,33.4962082 26.23372,34.7118271 23.173441,34.7118271 L23.173441,34.7118271 Z" id="Shape" fill="#BCBCBC" fill-rule="nonzero"></path>
                    </g>
                    <g id="Слой_1" transform="translate(2.709177, 2.710876)" fill="#FFFFFF" fill-rule="nonzero">
                        <path d="M10.231639,25.9031376 L3.55271368e-15,31.3462393 C2.1724465,35.4189512 5.50709187,38.7535516 9.57985673,40.9259668 L15.0229764,30.6944552 C12.987343,29.6060891 11.3200017,27.9387547 10.231639,25.9031376 Z M30.6948472,15.0198917 L40.9264862,9.5796877 C38.7540412,5.50698474 35.4193944,2.1723968 31.3466295,3.53770111e-15 L25.90347,10.2314718 C27.9408019,11.3162271 29.6088461,12.9832417 30.6948472,15.0198917 Z M25.90347,30.6944552 L31.3466295,40.9259668 C35.4193943,38.7535516 38.7540397,35.4189512 40.9264862,31.3462393 L30.6948472,25.9031376 C29.6081366,27.9399931 27.9403508,29.6077581 25.90347,30.6944552 Z M9.57985673,5.31405795e-15 C5.50709179,2.1723968 2.17244501,5.50698474 0,9.5796877 L10.231639,15.0198917 C11.3192891,12.984478 12.9868888,11.3178938 15.0229764,10.2314718 L9.57985673,5.31405795e-15 Z" id="Shape"></path>
                    </g>
                </g>
            </g>
        </g>
    </g>
</svg>