<?xml version="1.0" encoding="UTF-8"?>
<svg width="186px" height="186px" viewBox="0 0 186 186" version="1.1" xmlns="http://www.w3.org/2000/svg" xmlns:xlink="http://www.w3.org/1999/xlink">
    <title>01-1-11-get covered</title>
    <g id="---01-Home" stroke="none" stroke-width="1" fill="none" fill-rule="evenodd">
        <g id="01-1-1-Home-1920" transform="translate(-928.000000, -8139.000000)">
            <g id="Group-5-Copy" transform="translate(274.000000, 7905.000000)">
                <g id="Scheme-step-2" transform="translate(532.000000, 0.000000)">
                    <g id="01-1-11-get-covered" transform="translate(122.000000, 234.000000)">
                        <g id="bg" fill="#D9D9D9" fill-rule="nonzero" opacity="0">
                            <g id="подложка_2">
                                <path d="M0,0 L186,0 L186,186 L42.2727273,186 C18.9261447,186 0,167.073855 0,143.727273 L0,0 Z" id="Path"></path>
                            </g>
                        </g>
                        <g id="shadow" transform="translate(50.728435, 33.817019)" fill="#D9D9D9" opacity="0.065">
                            <polygon id="Path" points="0 118.36538 33.8170193 152.182399 135.270984 152.182399 135.270984 50.7284352 84.5425483 0"></polygon>
                        </g>
                        <g id="Слой_1" transform="translate(50.728435, 33.817019)" fill-rule="nonzero">
                            <polygon id="Path" fill="#BCBCBC" points="60.2986866 94.1186121 84.5425483 76.0911997 84.5425483 0 0 0 0 118.36538 42.2712742 118.36538"></polygon>
                            <rect id="Rectangle" fill="#FFFFFF" x="12.6805104" y="20.2919844" width="50.7271274" height="6.7636073"></rect>
                            <rect id="Rectangle" fill="#FFFFFF" x="12.6805104" y="37.2010172" width="25.3635492" height="6.7636073"></rect>
                            <polygon id="Path" fill="#FFFFFF" points="42.2712742 76.0911997 84.5425483 76.0911997 42.2712742 118.36538"></polygon>
                        </g>
                    </g>
                </g>
            </g>
        </g>
    </g>
</svg>