<?xml version="1.0" encoding="UTF-8"?><svg version="1.1" width="186px" height="186px" viewBox="0 0 186.0 186.0" xmlns="http://www.w3.org/2000/svg" xmlns:xlink="http://www.w3.org/1999/xlink"><defs><clipPath id="i0"><path d="M71.5717131,0 L145.461538,73.8898253 L145.461538,145.461538 L73.8898253,145.461538 L0,71.5717131 L71.5717131,0 Z"></path></clipPath><clipPath id="i1"><path d="M80.8069508,13.970708 C99.3932755,32.3061433 99.1028642,62.5741635 80.8069508,81.2006375 C62.5110374,99.8271115 32.5986711,99.5360728 13.721935,81.2006375 C-4.57397835,62.8652022 -4.57397835,32.8882206 13.721935,13.970708 C32.0178484,-4.9468046 62.2206261,-4.36472729 80.8069508,13.970708 Z"></path></clipPath><clipPath id="i2"><path d="M12.7580133,16.8601137 C31.344338,-3.80363089 63.5799949,-5.84090148 84.1991989,12.7855725 C104.818403,31.4120465 106.851282,63.4262986 88.2649574,84.3810818 L94.6540066,90.7839322 L100.752644,84.6721204 L134.730769,118.432605 L118.467735,134.730769 L84.7800215,100.970285 L90.0074254,95.7315894 L83.3279649,89.0377003 C64.1608176,105.626904 35.7005078,105.335865 16.8237718,88.455623 C-3.79543219,69.829149 -5.82831145,37.5238582 12.7580133,16.8601137 Z M81.585497,19.4794616 C64.4512289,2.30818088 36.5717418,2.30818088 19.4374737,19.4794616 C2.30320561,36.6507423 2.30320561,64.5904532 19.4374737,81.7617339 C27.5689908,89.9108163 38.8950324,94.5674347 50.5114853,94.5674347 C62.1279383,94.5674347 73.4539799,89.9108163 81.585497,81.7617339 C98.7197651,64.5904532 98.7197651,36.6507423 81.585497,19.4794616 Z"></path></clipPath><clipPath id="i3"><path d="M32.2772845,5.481862e-06 L32.8164796,0.00420808005 L32.8164796,6.69809716 C18.2959134,6.69809716 6.67946045,18.3396434 6.67946045,32.8915762 L0,32.8915762 C0,14.5561409 14.8109775,-0.286830576 32.8164796,0.00420808005 Z"></path></clipPath></defs><g transform="translate(26.0000000000002 25.000000000000213)"><g transform="translate(14.307692307691468 15.5)"><g clip-path="url(#i0)"><polygon points="0,0 145.461538,0 145.461538,145.461538 0,145.461538 0,0" stroke="none" fill="#D9D9D9" opacity="6.5%"></polygon></g></g><g transform="translate(3.101836751121496 2.8894056433806554)"><g clip-path="url(#i1)"><polygon points="1.77635684e-15,-5.32907052e-15 94.6380045,-5.32907052e-15 94.6380045,95.0615683 1.77635684e-15,95.0615683 1.77635684e-15,-5.32907052e-15" stroke="none" fill="#BCBCBC"></polygon></g></g><g clip-path="url(#i2)"><polygon points="-1.77635684e-15,-1.77635684e-15 134.730769,-1.77635684e-15 134.730769,134.730769 -1.77635684e-15,134.730769 -1.77635684e-15,-1.77635684e-15" stroke="none" fill="#FFFFFF"></polygon></g><g transform="translate(17.404594444718093 17.72902155307849)"><g clip-path="url(#i3)"><polygon points="0,1.0564466e-15 32.8164796,1.0564466e-15 32.8164796,32.8915762 0,32.8915762 0,1.0564466e-15" stroke="none" fill="#FFFFFF"></polygon></g></g></g></svg>