<svg width="64" height="64" viewBox="0 0 64 64" xmlns="http://www.w3.org/2000/svg">
    <g fill-rule="nonzero" fill="none">
        <path d="M0 0h63.84v64H14.51a14.491 14.491 0 0 1-10.26-4.26A14.564 14.564 0 0 1 0 49.455V0z" fill="#DEE2F8"/>
        <path fill="#2942D1" opacity=".1" d="M64 64V38.007L42.443 16.396 20.84 29.091l4.541 4.553 3.109 3.776-5.283 3.311-11.6 11.633 11.469 11.498 23.3.112v-.007l6.147.011.022.022 2.14-.018 8.205.014z"/>
        <path d="M20.84 29.09s-1.155-1.88-.824-5.843h1.39l-.025-6.66a19.854 19.854 0 0 1 5.239-2.847v-2.655c10.205-.001 15.836 5.311 15.836 5.311v.191l-.024 6.66h1.348c.332 3.963-.824 5.844-.824 5.844h-1.197c-.367 5.13-5.465 11.36-9.84 12.198-4.376-.838-9.474-7.067-9.841-12.198H20.84z" fill="#2942D1"/>
        <path d="M20.84 29.09s-1.155-1.88-.824-5.843h1.39l-.025-6.66a19.854 19.854 0 0 1 5.239-2.847v-2.655c10.205-.001 15.836 5.311 15.836 5.311v.191l-.024 6.66h1.348c.332 3.963-.824 5.844-.824 5.844h-1.197c-.367 5.13-5.465 11.36-9.84 12.198-4.376-.838-9.474-7.067-9.841-12.198H20.84z" opacity=".6" fill="#FFF"/>
        <path d="m42.432 20.364.024-3.777v-.19s-5.631-5.313-15.836-5.312v2.655a23.06 23.06 0 0 0-5.24 2.656l.025 3.968h21.027zM23.208 40.73 11.608 48v4.364h19.587a34.683 34.683 0 0 1-7.987-11.633zM40.633 40.73l11.6 7.27v4.364H32.646a34.683 34.683 0 0 0 7.987-11.633z" fill="#2942D1"/>
        <path fill="#2942D1" d="m21.381 16.396 3.116 3.337-1.282 3.514H21.38zM42.443 16.396l-3.1 3.337 1.283 3.514h1.817z"/>
    </g>
</svg>
