<svg width="64" height="64" viewBox="0 0 64 64" xmlns="http://www.w3.org/2000/svg">
    <g fill-rule="nonzero" fill="none">
        <path d="M0 0h63.845v63.848H14.51A14.51 14.51 0 0 1 0 49.338V0z" fill="#DEE2F8"/>
        <path fill="#2942D1" opacity=".1" d="M14.334 45.117 33.216 64 64 63.848V33.221L45.114 14.334z"/>
        <path d="M53.688 35.034v-6.22l-5.771-1.145a14.643 14.643 0 0 0-1.512-4.275l3.107-4.662-4.398-4.398-4.89 3.271a14.639 14.639 0 0 0-4.092-1.954l-1.1-5.493h-6.219l-1.145 5.771a14.646 14.646 0 0 0-4.275 1.512l-4.662-3.107-4.398 4.398 3.271 4.89a14.647 14.647 0 0 0-1.954 4.093l-5.493 1.1v6.219l5.771 1.145a14.646 14.646 0 0 0 1.512 4.275l-3.107 4.663 4.398 4.397 4.89-3.27c1.255.86 2.635 1.518 4.092 1.953l1.1 5.494h6.219l1.145-5.772a14.645 14.645 0 0 0 4.275-1.511l4.662 3.106 4.398-4.397-3.271-4.891a14.647 14.647 0 0 0 1.954-4.092l5.493-1.1zm-21.766 6.664c-5.422 0-9.818-4.396-9.818-9.819 0-5.423 4.396-9.819 9.818-9.819 5.423 0 9.818 4.396 9.818 9.819a9.819 9.819 0 0 1-9.818 9.819z" fill="#2942D1"/>
        <path d="M31.922 20.27A11.608 11.608 0 1 0 43.531 31.88c0-6.411-5.198-11.609-11.609-11.609zm0 14.466a2.857 2.857 0 1 1 0-5.714 2.857 2.857 0 0 1 0 5.714z" fill="#2942D1"/>
        <path d="M31.922 20.27A11.608 11.608 0 1 0 43.531 31.88c0-6.411-5.198-11.609-11.609-11.609zm0 14.466a2.857 2.857 0 1 1 0-5.714 2.857 2.857 0 0 1 0 5.714z" opacity=".6" fill="#FFF"/>
    </g>
</svg>
