<svg width="64" height="64" viewBox="0 0 64 64" xmlns="http://www.w3.org/2000/svg">
    <g fill-rule="nonzero" fill="none">
        <path d="M0 0h64v64H14.545C6.512 64 0 57.488 0 49.455V0z" fill="#DEE2F8"/>
        <path d="m64 64-.011-34.899-11.625-11.625-40.728 29.069L29.091 64z" fill="#2942D1" opacity=".1"/>
        <path fill="#2942D1" d="M11.636 23.294h40.727v23.252H11.636z"/>
        <path d="M11.636 23.294h40.727v23.252H11.636z" opacity=".6" fill="#FFF"/>
        <path fill="#2942D1" d="m26.814 41.561-6.641-6.641 6.641-6.641 1.645 1.645-4.995 4.996 4.995 4.995zM37.266 41.561l-1.646-1.646 4.996-4.995-4.996-4.996 1.646-1.645 6.641 6.641zM52.364 23.273v-5.797H26.182l-2.909-2.909H11.636v8.706z"/>
    </g>
</svg>
