<svg width="64" height="64" viewBox="0 0 64 64" xmlns="http://www.w3.org/2000/svg">
    <g fill-rule="nonzero" fill="none">
        <path d="M0 0h64.002v64.002H14.546C6.512 64.002 0 57.49 0 49.456V0z" fill="#DEE2F8"/>
        <path d="M63.936 64.002V27.821L48.604 12.489l-2.057 2.057H32.003L19.705 28.434l9.388 9.387-4.365 2.908v7.273l-7.273 1.454 14.547 14.547z" fill="#2942D1" opacity=".1"/>
        <g transform="translate(16.796 11.637)">
            <path d="M22.478 36.365H7.932v-5.818a7.273 7.273 0 0 1 14.546 0v5.818z" fill="#2942D1"/>
            <path d="M22.478 36.365H7.932v-5.818a7.273 7.273 0 0 1 14.546 0v5.818z" opacity=".6" fill="#FFF"/>
            <path fill="#2942D1" d="M.659 34.91h29.092v2.909H.659zM1.385 15.447 13.683 1.56l3.049 2.7L4.434 18.147z"/>
            <path d="M1.384 15.446 13.683 1.56l3.049 2.7L4.434 18.147z" opacity=".6" fill="#FFF"/>
            <circle fill="#2942D1" cx="15.207" cy="29.094" r="2.909"/>
            <circle fill="#2942D1" cx="2.909" cy="16.797" r="2.909"/>
            <path fill="#2942D1" d="M17.482 27.282 5.144 14.934.674 18.66l12.257 12.247z"/>
            <circle fill="#2942D1" cx="15.207" cy="2.909" r="2.909"/>
            <circle fill="#2942D1" cx="29.751" cy="2.909" r="2.909"/>
            <path fill="#2942D1" d="M30.915 14.615h-2.328V4.073h-13.38V1.745h15.708z"/>
            <path fill="#2942D1" d="M35.578 20.283H33.25V15.71h-7v4.574h-2.327v-6.9h11.654z"/>
        </g>
    </g>
</svg>
