<svg width="64" height="64" viewBox="0 0 64 64" xmlns="http://www.w3.org/2000/svg">
    <g fill-rule="nonzero" fill="none">
        <path d="M0 0h63.818v64H14.504C6.494 64 0 57.488 0 49.455V0z" fill="#DEE2F8"/>
        <path d="M14.504 47.88 30.53 63.952 64 64V39.576L49.314 24.848z" fill="#2942D1" opacity=".1"/>
        <path d="M41.772 29.09h-2.32v-8.726a7.568 7.568 0 0 0-3.77-6.558 7.524 7.524 0 0 0-7.547 0 7.568 7.568 0 0 0-3.768 6.558v8.727h-2.32v-8.727c0-5.463 4.415-9.891 9.862-9.891s9.863 4.428 9.863 9.89v8.728z" fill="#2942D1"/>
        <path d="M31.909 23.273a96.495 96.495 0 0 0-17.405 1.575V47.88a96.496 96.496 0 0 0 17.405 1.575 96.496 96.496 0 0 0 17.405-1.575V24.848a96.496 96.496 0 0 0-17.405-1.575z" fill="#2942D1"/>
        <path d="M31.909 23.273a96.495 96.495 0 0 0-17.405 1.575V47.88a96.496 96.496 0 0 0 17.405 1.575 96.496 96.496 0 0 0 17.405-1.575V24.848a96.496 96.496 0 0 0-17.405-1.575z" opacity=".6" fill="#FFF"/>
        <path d="M34.81 34.909a2.906 2.906 0 0 0-2.503-2.884 2.9 2.9 0 0 0-3.19 2.092 2.912 2.912 0 0 0 1.632 3.456v3.154h2.32v-3.154a2.907 2.907 0 0 0 1.74-2.664z" fill="#2942D1"/>
    </g>
</svg>
