<svg width="209" height="97" viewBox="0 0 209 97" xmlns="http://www.w3.org/2000/svg">
    <g fill="none" fill-rule="evenodd">
        <path d="M.39 0h208.154v97H.39z"/>
        <path d="M163.51 39.554c-3.537.917-4.818 2.235-3.056 3.147l.422.219V54.863l.329.383c.398.464 1.535.635 2.249.34.688-.286.838-.83.838-3.042v-1.918l.818-.086c.45-.047 1.048-.115 1.328-.15.485-.062.637.047 3.25 2.32 3.862 3.358 3.474 3.085 4.41 3.09 1.127.007 1.58-.303 1.58-1.08 0-.685.02-.662-3.032-3.323l-2.107-1.836.826-.436c7.78-4.103 1.337-11.953-7.856-9.57zm-124.72.229c-6.598 1.73-7.574 11.936-1.421 14.859 4.423 2.101 11.917-.443 9.332-3.17-1.096-1.156-.958-1.108-1.565-.536-2.518 2.378-6.965 1.562-8.02-1.472-1.788-5.146 3.865-9.013 7.94-5.43l.513.45.94-1.127c1.128-1.355 1.122-1.29.192-2.03-2.063-1.642-5.203-2.255-7.912-1.544zm15.952-.074c-4.3.935-6.861 5.476-5.663 10.042 2.055 7.833 13.99 7.562 15.659-.357 1.315-6.239-3.664-11.062-9.996-9.685zm31.737 0c-7.924 1.723-7.79 14.12.168 15.585 4.527.833 9.274-1.503 7.375-3.63-.95-1.063-.911-1.052-1.575-.468-2.611 2.294-6.976 1.366-8.062-1.715l-.206-.585h11.515l-.002-1.46c-.01-5.806-3.723-8.92-9.213-7.727zm19.39-.015c-1.286.32-2.2.933-3.094 2.079l-.389.498-.001-1.318-.002-1.317h-3.558v15.671h3.543l.043-4.456.043-4.455.467-.95c.736-1.495 1.991-2.32 3.789-2.487l.939-.088v-3.378l-.534.012a7.068 7.068 0 0 0-1.245.189zm7.544.01c-1.454.27-4.192 1.47-4.197 1.84-.001.102 1.193 2.288 1.356 2.483.021.025.293-.115.604-.312 3.435-2.17 7.431-1.371 7.431 1.486v.56l-2.526.002c-5.802.002-7.874 1.377-7.695 5.107.203 4.22 5.971 6.214 9.71 3.357l.654-.5v1.58h3.415V49.9c0-9.392-1.798-11.487-8.752-10.196zm16.63-.009c-6.89 1.673-6.87 12.883.027 14.681 2.272.593 4.949-.061 6.277-1.533l.513-.568-.059 1.346c-.184 4.203-4.465 5.822-8.623 3.261-.931-.574-.86-.609-1.653.807l-.692 1.236.337.278c2.98 2.467 9.35 2.405 11.977-.115 2.1-2.014 2.147-2.262 2.204-11.652l.047-7.8h-3.574v2.137l-.495-.549c-1.295-1.434-3.983-2.088-6.287-1.529zm19.06.004c-7.4 1.692-7.988 12.798-.81 15.334 2.725.963 6.552.247 8.664-1.621l.707-.625-.905-1.02c-1.041-1.172-1.017-1.164-1.693-.57-2.432 2.137-6.463 1.488-7.837-1.263-.56-1.118-.974-1.038 5.393-1.038h5.692l-.002-1.532c-.01-5.768-3.78-8.907-9.209-7.665zm-83.715.68 2.968 7.805 2.682 7.052 1.832.038 1.832.04 2.562-6.799c1.409-3.738 2.736-7.268 2.95-7.843l.39-1.045-1.8.04-1.798.04L75 45.57c-1.103 3.225-2.031 5.839-2.062 5.808-.03-.03-.964-2.668-2.075-5.863l-2.02-5.81-1.87-.039-1.871-.04.286.752zm104.275 1.67c3.934 1.728 1.301 5.49-4.152 5.932l-1.22.1v-6.16l.392-.087c.216-.047.456-.111.534-.142.53-.208 3.75.05 4.446.357zm-79.143.832c1.038.54 2.043 2.075 2.043 3.12 0 .151-.818.188-4.198.188-4.824 0-4.517.114-3.762-1.4 1.037-2.076 3.848-2.983 5.917-1.908zm43.496-.172c3.627 1.238 3.731 7.151.152 8.708-1.453.632-3.713.13-4.755-1.06-3.084-3.516.288-9.12 4.603-7.648zm19.033.12c.816.42 1.546 1.225 1.85 2.042.537 1.433.88 1.318-3.914 1.318-2.595 0-4.198-.052-4.198-.137 0-2.469 3.862-4.456 6.262-3.222zm-94.817.016c2.085.62 3.309 2.658 3.118 5.192-.42 5.57-8.026 5.923-8.913.414-.608-3.781 2.34-6.633 5.795-5.606zm60.375 6.514c-.003 2.921-5.047 4.526-6.651 2.116-1.306-1.963.102-2.968 4.196-2.992l2.455-.015v.89z" fill="#848495" fill-rule="nonzero"/>
    </g>
</svg>
