<svg width="208" height="97" viewBox="0 0 163 62" xmlns="http://www.w3.org/2000/svg">
    <g fill="none" fill-rule="evenodd">
        <path d="M0 0h133v62H0z"/>
        <path d="m104.337 31.293-.705.19c-.67-2.286-1.793-3.265-3.379-3.265-1.113 0-1.903.734-1.903 1.905 0 1.115.917 1.715 3.407 2.722 2.292.843 3.243 1.876 3.243 3.683 0 2.748-2.156 4.472-5.698 4.472-1.703 0-3.633-.381-4.72-.816l-.136-3.82.67-.135c1.005 2.613 2.292 3.601 3.967 3.601 1.45 0 2.21-1.007 2.21-2.041 0-1.035-.589-1.633-2.854-2.449-2.156-.707-3.633-1.632-3.633-3.928 0-2.258 1.984-4.173 5.356-4.173 1.595 0 3.045.273 3.996.708l.179 3.346zM89.75 32.49c.081-1.795-.282-4.39-1.758-4.39-1.513 0-2.347 2.422-2.373 4.5l4.13-.11zm-1.396-5.26c3.714 0 5.508 2.72 5.536 6.295h-8.36c-.03 3.166 1.648 5.56 4.783 5.56 1.367 0 2.156-.381 2.989-.98l.39.436c-.916 1.252-2.82 2.448-5.356 2.448-4.077 0-6.903-2.802-6.903-6.758-.01-3.574 2.31-7.003 6.921-7.003M76.305 33.85c-.082-2.822-1.113-5.07-3.098-5.07-.472 0-.834.081-1.396.272l.162 10.876c.2.082.67.136 1.006.136 1.93 0 3.325-2.73 3.325-6.213m4.14-.212c0 4.472-2.819 7.357-7.601 7.357-1.703 0-3.47-.273-5-.626.135-1.796.135-12.918 0-15.013-.137-1.09-.445-1.606-1.287-1.715l-.562-.054v-.5L71.892 22c-.028.917-.081 3.357-.081 6.214 1.033-.518 1.983-.817 3.27-.817 3.07 0 5.355 2.613 5.355 6.241m-15.01-2.428c-1.82-1.198-3.777-.68-4.168 0-.172 2.095-.136 5.316.029 6.975.081 1.09.39 1.551 1.231 1.633l1.114.109v.707H55.3v-.707l.644-.109c.806-.082 1.087-.543 1.141-1.633.2-1.769.254-5.479 0-7.52-.054-1.17-.335-1.606-1.141-1.715l-.644-.082v-.49l5.952-1.142-.082 3.048c1.396-3.157 4.168-3.538 5.672-2.694l-1.416 3.62zm-19.532 2.92c0 3.33.897 6.051 2.709 6.051 1.957 0 2.518-2.667 2.518-6.05 0-3.384-.87-6.023-2.709-6.023-1.973 0-2.518 2.585-2.518 6.023m9.44-.054c0 3.818-2.519 6.915-7.012 6.915-4.421 0-6.65-2.949-6.65-6.813 0-3.792 2.52-6.949 7.012-6.949 4.422 0 6.65 2.966 6.65 6.84m-11.571-6.568-.916.272c-.78-2.676-2.157-4.2-4.53-4.2h-3.099c-.172 1.778-.253 4.527-.172 7.494l2.065-.109c1.395 0 1.984-1.007 2.326-2.47h.779v6.187h-.793c-.335-1.496-.916-2.512-2.325-2.594l-2.065-.028c0 2.204.028 4.09.172 5.234.136 1.633.589 2.376 1.785 2.53l1.123.11v.707H28v-.708l.843-.108c1.168-.162 1.649-.898 1.785-2.531.225-2.667.282-8.364 0-11.53-.136-1.693-.616-2.367-1.785-2.503L28 23.118v-.733h15.743l.02 5.117z" fill="#848495" fill-rule="nonzero"/>
    </g>
</svg>
