<?xml version="1.0" encoding="UTF-8"?><svg version="1.1" width="510px" height="410px" viewBox="0 0 510.0 410.0" xmlns="http://www.w3.org/2000/svg" xmlns:xlink="http://www.w3.org/1999/xlink"><defs><clipPath id="i0"><path d="M156.442529,0 L156.442529,156.30137 L35.5551202,156.30137 C15.9185695,156.30137 0,140.397164 0,120.778331 L0,0 L156.442529,0 Z"></path></clipPath><clipPath id="i1"><path d="M119.632522,0 L119.632522,119.524577 L27.1892095,119.524577 C12.1730238,119.524577 0,107.362537 0,92.3599004 L0,0 L119.632522,0 Z"></path></clipPath><clipPath id="i2"><path d="M45.6947293,0 L59.816261,13.0477375 L81.6388643,13.0477375 L103.297245,34.6865755 L103.297245,99.9747025 L19.5316406,99.8068248 L0,80.2928077 L27.1892095,61.8838497 L3.78582554,38.5015827 L45.6947293,0 Z"></path></clipPath><clipPath id="i3"><path d="M21.7513676,0 L21.7513676,29.6341902 L0,29.6341902 L0,0 L21.7513676,0 Z"></path></clipPath><clipPath id="i4"><path d="M21.7513676,0 L21.7513676,46.8830698 L0,46.8830698 L0,0 L21.7513676,0 Z"></path></clipPath><clipPath id="i5"><path d="M21.822636,0 L21.822636,65.1952238 L0,65.1952238 L0,0 L21.822636,0 Z"></path></clipPath><clipPath id="i6"><path d="M119.632522,0 L119.632522,119.524577 L27.1892095,119.524577 C12.1730238,119.524577 0,107.362537 0,92.3599004 L0,0 L119.632522,0 Z"></path></clipPath><clipPath id="i7"><path d="M40.6885014,0 L95.7060176,55.3009727 L95.7060176,97.0393302 L29.8269066,97.1031426 L0,60.1225644 L40.6885014,0 Z"></path></clipPath><clipPath id="i8"><path d="M36.8100068,0 C38.75154,0 40.5455899,1.0368446 41.5163517,2.7199625 L72.8919406,57.1189605 C73.862701,58.8020648 73.8627047,60.8757338 72.8919504,62.5588416 C71.921196,64.2419493 70.1271632,65.2788074 68.1856425,65.2788074 L5.43437104,65.2788074 C3.49285032,65.2788074 1.69881749,64.2419493 0.728063151,62.5588416 C-0.242691193,60.8757338 -0.242687484,58.8020648 0.728072881,57.1189605 L32.1036619,2.7199625 C33.0744237,1.0368446 34.8684735,0 36.8100068,0 Z"></path></clipPath><clipPath id="i9"><path d="M4.34753171,0 L4.34753171,28.7539119 L0,28.7539119 L0,0 L4.34753171,0 Z"></path></clipPath><clipPath id="i10"><path d="M4.34753171,0 L4.34753171,5.05103979 L0,5.05103979 L0,0 L4.34753171,0 Z"></path></clipPath><clipPath id="i11"><path d="M119.632522,0 L119.632522,119.524577 L27.1892095,119.524577 C12.1730238,119.524577 0,107.362537 0,92.3599004 L0,0 L119.632522,0 Z"></path></clipPath><clipPath id="i12"><path d="M54.4828091,0 L87.4237661,32.9501055 L87.1724941,87.3448832 L32.8396983,87.3448832 L0,54.4979402 L54.4828091,0 Z"></path></clipPath><clipPath id="i13"><path d="M54.29476,0 L54.29476,54.2457695 L0,54.2457695 L0,0 L54.29476,0 Z"></path></clipPath><clipPath id="i14"><path d="M44.1720082,0 L44.1720082,32.1796938 L10.9674594,32.1796938 L0,21.4531292 L44.1720082,0 Z"></path></clipPath><clipPath id="i15"><path d="M0,0 L33.1290061,27.5825946 L0,27.5825946 L0,0 Z"></path></clipPath><clipPath id="i16"><path d="M11.043021,0 C17.1418922,0 22.0860041,4.8128515 22.0860041,10.7498047 C22.0860041,20.9720816 12.0351241,31.1944091 11.1109053,32.1127845 L11.043021,32.1796938 L10.9751365,32.1127845 C10.0509145,31.1944091 0,20.9720816 0,10.7498047 C0,7.8987743 1.1634657,5.1645167 3.2344338,3.1485372 C5.305402,1.1325578 8.1142348,0 11.043021,0 Z M12.9026885,6.3792516 C11.0867506,5.6470392 8.9965181,6.0517802 7.606666,7.4047439 C6.2168139,8.7577077 5.8010508,10.7924501 6.5532469,12.5601712 C7.305443,14.3278923 9.0774656,15.4804534 11.043021,15.4804534 C13.7269263,15.4804534 15.9026504,13.3624554 15.9026504,10.7498047 C15.9026504,8.8364325 14.7186263,7.111464 12.9026885,6.3792516 Z"></path></clipPath><clipPath id="i17"><path d="M76.0006437,0 L97.7151134,21.7799032 L97.7151134,67.5177 L32.5717045,67.5177 L0,34.8478451 L76.0006437,0 Z"></path></clipPath><clipPath id="i18"><path d="M65.5550923,0 L65.5550923,28.2335486 L76.480941,28.2335486 L76.480941,32.5917547 L0,32.5917547 L0,28.2335486 L10.9258487,28.2335486 L10.9258487,0 L65.5550923,0 Z"></path></clipPath><clipPath id="i19"><path d="M19.822221,0 L31.8422935,21.7910305 L30.0968892,28.3283396 L0,28.3283396 L0,13.6193941 L2.73146218,8.1716364 L2.73146218,0 L19.822221,0 Z"></path></clipPath><clipPath id="i20"><path d="M29.1113776,0 L29.1113776,8.1716364 L31.8428398,13.6193941 L31.8428398,28.3283396 L1.7459507,28.3283396 L0,21.7910305 L12.0206188,0 L29.1113776,0 Z"></path></clipPath><clipPath id="i21"><path d="M5.78062071,0 C8.00226981,0.0008899 10.1130925,0.9677983 11.561236,2.6479371 L8.48140311,5.7786653 C7.87137861,4.8897207 6.86078391,4.358205 5.78061801,4.358205 C4.70045201,4.358205 3.68985731,4.8897207 3.07983291,5.7786653 L0,2.6478009 C1.44821653,0.9677727 3.55900811,0.0009292 5.78062071,0 Z"></path></clipPath><clipPath id="i22"><path d="M13.4397827,0 C18.5222067,-0.00132204427 23.3817805,2.08053847 26.87956,5.75765458 L23.8197378,8.8681662 C21.1383229,5.99209547 17.3778542,4.35821022 13.4398483,4.35821022 C9.50184235,4.35821022 5.74137364,5.99209547 3.05995875,8.8681662 L0,5.75765458 C3.49778147,2.08053817 8.35735709,-0.00132225393 13.4397827,0 Z"></path></clipPath><clipPath id="i23"><path d="M65.5550923,4.56516098 L65.5550923,6.38476107 L0,6.38476107 L0,4.56516098 C21.4254525,-1.52172033 44.1296399,-1.52172033 65.5550923,4.56516098 Z"></path></clipPath><clipPath id="i24"><path d="M76.480941,0 L76.480941,4.3582061 L0,4.3582061 L0,0 L76.480941,0 Z"></path></clipPath><clipPath id="i25"><path d="M8.19438654,0 C12.7200213,0 16.3887731,3.65856625 16.3887731,8.17163644 C16.3887731,12.6847066 12.7200213,16.3432729 8.19438654,16.3432729 C3.66875182,16.3432729 0,12.6847066 0,8.17163644 C0,3.65856625 3.66875182,0 8.19438654,0 Z"></path></clipPath></defs><g transform="translate(88.0 30.0)"><g transform="translate(177.55747099999996 0.0)"><g clip-path="url(#i0)"><polygon points="0,0 156.442529,0 156.442529,156.30137 0,156.30137 0,0" stroke="none" fill="#383838"></polygon></g><g transform="translate(18.405003 18.388396)"><g clip-path="url(#i1)"><polygon points="0,0 119.632522,0 119.632522,119.524577 0,119.524577 0,0" stroke="none" fill="#2841D1"></polygon></g><g transform="translate(16.313526000000003 19.549874000000003)"><g clip-path="url(#i2)"><polygon points="0,0 103.297245,0 103.297245,99.9747025 0,99.9747025 0,0" stroke="none" fill="#FFFFFF" opacity="15.3888081%"></polygon></g><g transform="translate(0.0 2.181866999999997)"><g transform="translate(5.4378419099999995 46.42690429999999)"><g clip-path="url(#i3)"><polygon points="0,0 21.7513676,0 21.7513676,29.6341902 0,29.6341902 0,0" stroke="none" fill="#2841D1"></polygon></g></g><g transform="translate(5.4378419099999995 46.42690429999999)"><g clip-path="url(#i3)"><polygon points="0,0 21.7513676,0 21.7513676,29.6341902 0,29.6341902 0,0" stroke="none" fill="#CCD2F3"></polygon></g></g><g transform="translate(32.62705139999999 29.1780246)"><g clip-path="url(#i4)"><polygon points="0,0 21.7513676,0 21.7513676,46.8830698 0,46.8830698 0,0" stroke="none" fill="#2841D1"></polygon></g></g><g transform="translate(32.62705139999999 29.1780246)"><g clip-path="url(#i4)"><polygon points="0,0 21.7513676,0 21.7513676,46.8830698 0,46.8830698 0,0" stroke="none" fill="#CCD2F3"></polygon></g></g><g transform="translate(59.816261 10.865870600000001)"><g clip-path="url(#i5)"><polygon points="0,0 21.822636,0 21.822636,65.1952238 0,65.1952238 0,0" stroke="none" fill="#2841D1"></polygon></g></g><g transform="translate(59.816261 10.865870600000001)"><g clip-path="url(#i5)"><polygon points="0,0 21.822636,0 21.822636,65.1952238 0,65.1952238 0,0" stroke="none" fill="#CCD2F3"></polygon></g></g><g transform="translate(0.0 75.5610944)"><path d="M0,0.5 L87.0054705,0.5" stroke="#FFFFFF" stroke-width="4.42368" fill="none" stroke-miterlimit="10"></path></g><g transform="translate(5.4802026999999995 1.7067294599999983)"><path d="M0,36.2815114 L36.314278,0" stroke="#FFFFFF" stroke-width="4.42368" fill="none" stroke-miterlimit="10"></path></g><g transform="translate(27.189209499999997 0.0)"><path d="M0,0 L16.3135258,0 L16.3135258,16.2988059" stroke="#FFFFFF" stroke-width="4.42368" fill="none" stroke-miterlimit="10"></path></g></g></g></g></g><g transform="translate(177.55747099999996 175.47945199999998)"><g clip-path="url(#i0)"><polygon points="0,0 156.442529,0 156.442529,156.30137 0,156.30137 0,0" stroke="none" fill="#383838"></polygon></g><g transform="translate(18.405003000000086 11.033038000000033)"><g transform="translate(0.0 7.355358580000036)"><g clip-path="url(#i6)"><polygon points="0,0 119.632522,0 119.632522,119.524577 0,119.524577 0,0" stroke="none" fill="#2841D1"></polygon></g></g><g clip-path="url(#i1)"><polygon points="0,0 119.632522,0 119.632522,119.524577 0,119.524577 0,0" stroke="none" fill="#2841D1"></polygon></g><g transform="translate(23.926504000000023 29.42143399999987)"><g clip-path="url(#i7)"><polygon points="0,0 95.7060176,0 95.7060176,97.1031426 0,97.1031426 0,0" stroke="none" fill="#FFFFFF" opacity="15.3888081%"></polygon></g></g><g transform="translate(23.006254000116314 26.663175000000138)"><g clip-path="url(#i8)"><polygon points="0,0 73.6200135,0 73.6200135,65.2788074 0,65.2788074 0,0" stroke="none" fill="#FFFFFF"></polygon></g><g transform="translate(34.63631569988371 16.3194641)"><g clip-path="url(#i9)"><polygon points="0,0 4.34753171,0 4.34753171,28.7539119 0,28.7539119 0,0" stroke="none" fill="#2841D1"></polygon></g></g><g transform="translate(34.63631569988371 50.1249397)"><g clip-path="url(#i10)"><polygon points="0,0 4.34753171,0 4.34753171,5.05103979 0,5.05103979 0,0" stroke="none" fill="#2841D1"></polygon></g></g></g></g></g><g transform="translate(0.0 193.69862999999998)"><g clip-path="url(#i0)"><polygon points="0,0 156.442529,0 156.442529,156.30137 0,156.30137 0,0" stroke="none" fill="#383838"></polygon></g><g transform="translate(18.405003 18.388396)"><g clip-path="url(#i11)"><polygon points="0,0 119.632522,0 119.632522,119.524577 0,119.524577 0,0" stroke="none" fill="#2841D1"></polygon></g><g transform="translate(32.2087559 32.1796938)"><g clip-path="url(#i12)"><polygon points="0,0 87.4237661,0 87.4237661,87.3448832 0,87.3448832 0,0" stroke="none" fill="#FFFFFF" opacity="15.3888081%"></polygon></g></g><g transform="translate(33.1290061 32.17969380000001)"><g clip-path="url(#i13)"><polygon points="0,0 54.29476,0 54.29476,54.2457695 0,54.2457695 0,0" stroke="none" fill="#A9B3ED"></polygon></g></g><g transform="translate(43.2517579 54.245769500000016)"><g clip-path="url(#i14)"><polygon points="0,0 44.1720082,0 44.1720082,32.1796938 0,32.1796938 0,0" stroke="none" fill="#6979DF"></polygon></g></g><g transform="translate(33.1290061 58.842868700000004)"><g clip-path="url(#i15)"><polygon points="0,0 33.1290061,0 33.1290061,27.5825946 0,27.5825946 0,0" stroke="none" fill="#FFFFFF"></polygon></g></g><g transform="translate(37.73025689999999 22.9854956)"><g clip-path="url(#i16)"><polygon points="0,0 22.0860041,0 22.0860041,32.1796938 0,32.1796938 0,0" stroke="none" fill="#FFFFFF"></polygon></g></g></g></g><g transform="translate(0.0 18.219178)"><g clip-path="url(#i0)"><polygon points="0,0 156.442529,0 156.442529,156.30137 0,156.30137 0,0" stroke="none" fill="#383838"></polygon></g><g transform="translate(18.405003 18.388396)"><g clip-path="url(#i1)"><polygon points="0,0 119.632522,0 119.632522,119.524577 0,119.524577 0,0" stroke="none" fill="#2841D1"></polygon></g><g transform="translate(21.917409 52.006876999999996)"><g clip-path="url(#i17)"><polygon points="0,0 97.7151134,0 97.7151134,67.5177 0,67.5177 0,0" stroke="none" fill="#FFFFFF" opacity="15.3888081%"></polygon></g></g><g transform="translate(21.004182999999998 21.897631369931062)"><g transform="translate(0.0 32.78133803006894)"><g clip-path="url(#i18)"><polygon points="0,0 76.480941,0 76.480941,32.5917547 0,32.5917547 0,0" stroke="none" fill="#2841D1"></polygon></g></g><g transform="translate(0.0 32.78133803006894)"><g clip-path="url(#i18)"><polygon points="0,0 76.480941,0 76.480941,32.5917547 0,32.5917547 0,0" stroke="none" fill="#CCD2F3"></polygon></g></g><g transform="translate(0.0 32.68654703006894)"><g clip-path="url(#i19)"><polygon points="0,0 31.8422935,0 31.8422935,28.3283396 0,28.3283396 0,0" stroke="none" fill="#2841D1"></polygon></g></g><g transform="translate(0.0 32.68654703006894)"><g clip-path="url(#i19)"><polygon points="0,0 31.8422935,0 31.8422935,28.3283396 0,28.3283396 0,0" stroke="none" fill="#A1AEE9" opacity="60%"></polygon></g></g><g transform="translate(44.8680903 32.68654703006894)"><g clip-path="url(#i20)"><polygon points="0,0 31.8428398,0 31.8428398,28.3283396 0,28.3283396 0,0" stroke="none" fill="#2841D1"></polygon></g></g><g transform="translate(44.8680903 32.68654703006894)"><g clip-path="url(#i20)"><polygon points="0,0 31.8428398,0 31.8428398,28.3283396 0,28.3283396 0,0" stroke="none" fill="#A1AEE9" opacity="60%"></polygon></g></g><g transform="translate(24.80066 0.0)"><g transform="translate(7.659161990000001 10.895516530068939)"><g clip-path="url(#i21)"><polygon points="0,0 11.561236,0 11.561236,5.7786653 0,5.7786653 0,0" stroke="none" fill="#FFFFFF"></polygon></g></g><g clip-path="url(#i22)"><polygon points="0,-6.29469081e-07 26.87956,-6.29469081e-07 26.87956,8.8681662 0,8.8681662 0,-6.29469081e-07" stroke="none" fill="#FFFFFF"></polygon></g></g><g transform="translate(5.579197239999999 26.303965055068943)"><g clip-path="url(#i23)"><polygon points="0,0 65.5550923,0 65.5550923,6.38476107 0,6.38476107 0,0" stroke="none" fill="#2841D1"></polygon></g></g><g transform="translate(5.579197239999999 26.303965055068943)"><g clip-path="url(#i23)"><polygon points="0,0 65.5550923,0 65.5550923,6.38476107 0,6.38476107 0,0" stroke="none" fill="#A1AEE9" opacity="60%"></polygon></g></g><g transform="translate(0.0 30.507443930068938)"><g clip-path="url(#i24)"><polygon points="0,0 76.480941,0 76.480941,4.3582061 0,4.3582061 0,0" stroke="none" fill="#FFFFFF"></polygon></g></g><g transform="translate(5.462924360000001 54.82403309006894)"><g clip-path="url(#i25)"><polygon points="0,0 16.3887731,0 16.3887731,16.3432729 0,16.3432729 0,0" stroke="none" fill="#FFFFFF"></polygon></g></g><g transform="translate(54.629243560000006 54.82403309006894)"><g clip-path="url(#i25)"><polygon points="0,0 16.3887731,0 16.3887731,16.3432729 0,16.3432729 0,0" stroke="none" fill="#FFFFFF"></polygon></g></g></g></g></g></g></svg>