<?xml version="1.0" encoding="UTF-8"?><svg version="1.1" width="279px" height="94px" viewBox="0 0 279.0 94.0" xmlns="http://www.w3.org/2000/svg" xmlns:xlink="http://www.w3.org/1999/xlink"><defs><clipPath id="i0"><path d="M74,0 L74,74 L0,74 L0,0 L74,0 Z M24.5007696,4.80133926 C24.4775556,8.64854444 24.8948333,12.5306667 25.715,16.3725 C25.20625,16.095 24.6975,15.86375 24.18875,15.67875 C23.54125,12.44125 23.2175,9.20375 23.17125,6.0125 L23.171,6.022 L23.1781649,6.88391811 C23.2197586,9.50119553 23.4499314,12.1438045 23.8940148,14.7610819 L24.05,15.6325 C23.5875,15.49375 23.125,15.40125 22.61625,15.30875 C22.2,12.90375 21.96875,10.49875 21.87625,8.14 L21.878,8.194 L21.9021753,9.04178467 C21.9710083,10.8449927 22.1406519,12.6449487 22.3915942,14.4221411 L22.52375,15.30875 C22.06125,15.21625 21.59875,15.21625 21.13625,15.21625 C20.905,13.5975 20.72,11.97875 20.6275,10.36 L20.634,10.468 L20.68892,11.33125 C20.75663,12.3025 20.84432,13.27375 20.96198,14.245 L21.09,15.21625 C20.6275,15.21625 20.165,15.2625 19.7025,15.355 C19.055,10.545 19.00875,5.735 19.56375,1.06375 L0.78625,1.06375 L0.78625,73.075 L72.75125,73.075 L72.75125,64.33375 C52.40125,63.1775 33.71625,51.06 24.6975,32.14375 C25.16,31.95875 25.57625,31.7275 25.94625,31.49625 C29.8775,39.775 35.7975,46.94375 43.33625,52.40125 C51.8925,58.59875 62.2525,62.29875 72.75125,62.9 L72.75125,62.66875 C53.04875,61.37375 35.01125,49.62625 26.13125,31.3575 C26.5475,31.08 26.9175,30.8025 27.24125,30.47875 C31.12625,38.5725 36.9075,45.55625 44.3075,50.92125 C52.58625,56.93375 62.57625,60.54125 72.75125,61.235 L72.75125,60.9575 C53.60375,59.4775 36.12125,48.0075 27.42625,30.2475 C27.79625,29.92375 28.12,29.55375 28.3975,29.1375 C32.19,37.185 37.97125,44.1225 45.27875,49.44125 C53.32625,55.26875 62.94625,58.78375 72.75125,59.57 L72.75125,59.2925 C54.02,57.67375 37,46.3425 28.5825,28.90625 C28.86,28.44375 29.1375,27.98125 29.36875,27.4725 C33.16125,35.65875 38.89625,42.68875 46.29625,48.05375 C54.02,53.69625 63.27,57.11875 72.75125,57.9975 L72.75125,57.67375 C54.2975,55.82375 37.60125,44.44625 29.5075,27.1025 C29.73875,26.455 29.92375,25.76125 30.01625,25.02125 C33.71625,33.67 39.59,41.07 47.2675,46.62 C54.71375,52.03125 63.64,55.4075 72.75125,56.3325 L72.75125,56.00875 C54.2975,53.97375 37.74,42.18 30.10875,24.42 C30.155,23.68 30.10875,22.94 29.92375,22.15375 C29.6,20.535 28.86,19.1475 27.8425,18.0375 C26.31625,12.6725 25.66875,7.215 25.85375,1.85 L25.852,1.884 L25.8249652,2.64813625 C25.6877067,7.4387575 26.1891839,12.2593488 27.363113,16.975045 L27.565,17.76 C27.05625,17.2975 26.50125,16.835 25.9,16.465 C24.92875,12.3025 24.46625,8.09375 24.5125,3.9775 L24.512,4 Z M27.24125,1.06375 C26.96375,6.98375 27.6575,12.99625 29.46125,18.82375 C32.79125,29.5075 39.3125,38.665 48.3775,45.2325 C55.54625,50.4125 64.05625,53.69625 72.84375,54.71375 L72.84375,54.34375 C53.1875,51.93875 35.7975,38.34125 29.55375,18.17625 C27.79625,12.4875 27.05625,6.70625 27.24125,1.06375 Z M28.5825,1.0175 L28.53625,1.0175 C28.305,6.61375 29.045,12.25625 30.75625,17.76 C34.04,28.305 40.46875,37.2775 49.34875,43.7525 C56.24,48.79375 64.42625,51.985 72.84375,53.0025 L72.84375,52.6325 C53.7425,50.08875 36.9075,36.7225 30.84875,17.1125 C29.18375,11.7475 28.49,6.33625 28.5825,1.0175 Z M29.92375,1.0175 L29.83125,1.0175 C29.73875,6.29 30.4325,11.5625 32.05125,16.7425 C35.2425,27.1025 41.57875,35.9825 50.32,42.31875 C56.98,47.12875 64.75,50.27375 72.84375,51.38375 L72.84375,50.9675 C54.2975,48.23875 38.06375,35.19625 32.14375,16.095 C30.6175,11.1 29.8775,6.0125 29.92375,1.0175 Z M31.265,1.0175 L31.1725,1.0175 C31.12625,5.96625 31.86625,10.915 33.34625,15.725 C36.49125,25.94625 42.68875,34.64125 51.3375,40.885 C57.67375,45.46375 65.12,48.47 72.84375,49.6725 L72.84375,49.25625 C54.8525,46.38875 39.17375,33.62375 33.43875,15.0775 C32.005,10.40625 31.31125,5.68875 31.265,1.0175 Z M32.60625,1.0175 L32.4675,1.0175 C32.56,5.59625 33.25375,10.22125 34.64125,14.7075 C37.74,24.74375 43.845,33.3 52.2625,39.4975 C58.32125,43.89125 65.44375,46.805 72.7975,48.05375 L72.7975,47.59125 C55.4075,44.53875 40.28375,32.0975 34.73375,14.06 C33.43875,9.7125 32.745,5.365 32.60625,1.0175 Z M33.99375,1.06375 L33.80875,1.06375 C33.90125,5.2725 34.595,9.5275 35.89,13.69 C38.9425,23.54125 44.955,31.95875 53.28,38.0175 C59.1075,42.22625 65.81375,45.09375 72.84375,46.3425 L72.84375,45.83375 C56.055,42.6425 41.48625,30.47875 36.075,12.99625 C34.82625,9.01875 34.1325,4.995 33.99375,1.06375 Z M35.335,1.0175 L35.15,1.0175 C35.335,4.9025 35.9825,8.7875 37.185,12.62625 C40.19125,22.33875 46.11125,30.57125 54.2975,36.5375 C59.80125,40.56125 66.18375,43.29 72.84375,44.585 L72.84375,44.07625 C56.61,40.7925 42.59625,28.9525 37.37,11.97875 C36.26,8.325 35.56625,4.67125 35.335,1.0175 Z M36.76875,1.0175 L36.5375,1.0175 C36.76875,4.57875 37.41625,8.14 38.48,11.60875 C41.44,21.13625 47.22125,29.27625 55.26875,35.10375 C60.495,38.89625 66.55375,41.5325 72.84375,42.87375 L72.84375,42.31875 C57.165,38.89625 43.7525,27.33375 38.665,10.915 C37.6475,7.63125 37.04625,4.30125 36.76875,1.0175 Z M38.2025,1.0175 L37.925,1.0175 C38.2025,4.255 38.80375,7.44625 39.775,10.59125 C42.68875,19.93375 48.3775,27.935 56.28625,33.67 C61.235,37.2775 66.92375,39.82125 72.84375,41.1625 L72.89,41.1625 L72.89,40.6075 C57.76625,37 44.90875,25.8075 40.00625,9.8975 C39.08125,6.9375 38.48,3.9775 38.2025,1.0175 Z M39.59,1.06375 L39.3125,1.06375 C39.63625,3.93125 40.19125,6.7525 41.07,9.57375 C43.89125,18.7775 49.4875,26.59375 57.2575,32.23625 C61.92875,35.6125 67.2475,38.06375 72.84375,39.45125 L72.84375,38.85 C58.32125,35.15 46.01875,24.235 41.255,8.88 C40.46875,6.29 39.91375,3.65375 39.59,1.06375 Z M41.02375,1.0175 L40.7,1.0175 C41.02375,3.515 41.5325,6.05875 42.31875,8.51 C45.09375,17.52875 50.5975,25.20625 58.22875,30.75625 C62.6225,33.9475 67.6175,36.26 72.84375,37.6475 L72.84375,37.04625 C58.9225,33.25375 47.175,22.61625 42.59625,7.81625 C41.85625,5.59625 41.39375,3.33 41.02375,1.0175 Z M42.55,1.0175 L42.18,1.0175 C42.50375,3.19125 43.0125,5.365 43.66,7.4925 C46.38875,16.32625 51.75375,23.91125 59.24625,29.3225 C63.31625,32.32875 67.9875,34.54875 72.84375,35.89 L72.84375,35.2425 C59.52375,31.3575 48.285,21.09 43.89125,6.79875 C43.29,4.9025 42.8275,2.96 42.55,1.0175 Z M44.03,1.06375 L43.61375,1.06375 C43.9375,2.91375 44.35375,4.7175 44.90875,6.52125 C47.59125,15.21625 52.86375,22.61625 60.2175,27.935 C64.05625,30.71 68.3575,32.79125 72.84375,34.1325 L72.84375,33.485 C60.07875,29.5075 49.44125,19.5175 45.18625,5.78125 C44.6775,4.20875 44.3075,2.63625 44.03,1.06375 Z M45.51,1.0175 L45.09375,1.0175 C45.37125,2.4975 45.74125,3.93125 46.20375,5.41125 C48.84,13.92125 54.06625,21.1825 61.235,26.40875 C64.75,28.99875 68.68125,30.94125 72.84375,32.2825 L72.84375,31.58875 C60.68,27.565 50.55125,17.89875 46.48125,4.7175 C46.11125,3.515 45.7875,2.26625 45.51,1.0175 Z M47.0825,1.06375 L46.62,1.06375 C46.85125,2.17375 47.175,3.33 47.49875,4.44 C50.08875,12.765 55.17625,19.8875 62.20625,25.02125 C65.44375,27.38 69.05125,29.23 72.84375,30.525 L72.84375,29.785 C61.235,25.66875 51.66125,16.32625 47.77625,3.7 C47.49875,2.82125 47.2675,1.9425 47.0825,1.06375 Z M48.60875,1.0175 L48.1,1.0175 C48.285,1.80375 48.51625,2.59 48.7475,3.37625 C51.29125,11.5625 56.28625,18.54625 63.1775,23.54125 C66.1375,25.715 69.42125,27.42625 72.84375,28.675 L72.84375,27.935 C61.83625,23.7725 52.8175,14.8 49.07125,2.6825 C48.9325,2.1275 48.79375,1.5725 48.60875,1.0175 Z M50.27375,1.0175 L49.71875,1.0175 C49.81125,1.48 49.95,1.89625 50.08875,2.35875 C52.54,10.36 57.4425,17.205 64.195,22.1075 C66.83125,24.05 69.79125,25.6225 72.84375,26.825 L72.84375,26.03875 C62.48375,21.83 53.97375,13.18125 50.4125,1.61875 C50.32,1.43375 50.27375,1.24875 50.27375,1.0175 Z M51.84625,1.06375 L51.245,1.06375 C51.29125,1.15625 51.29125,1.24875 51.3375,1.34125 C53.7425,9.1575 58.5525,15.86375 65.16625,20.67375 C67.57125,22.43125 70.115,23.865 72.84375,24.975 L72.84375,24.1425 C63.1775,19.98 55.315,11.79375 51.84625,1.06375 Z M53.51125,1.06375 L52.86375,1.06375 C55.26875,8.4175 59.8475,14.7075 66.1375,19.24 C68.265,20.76625 70.485,22.015 72.84375,23.07875 L72.84375,22.2 C64.1025,18.17625 56.93375,10.73 53.51125,1.06375 Z M55.2225,1.0175 L54.52875,1.0175 C56.98,7.77 61.3275,13.505 67.155,17.76 C68.95875,19.055 70.855,20.21125 72.84375,21.13625 L72.84375,20.2575 C64.98125,16.3725 58.59875,9.7125 55.2225,1.0175 Z M56.93375,1.0175 L56.19375,1.0175 C58.645,7.16875 62.715,12.395 68.12625,16.32625 C69.60625,17.39 71.225,18.36125 72.84375,19.19375 L72.84375,18.26875 C65.90625,14.615 60.17125,8.64875 56.93375,1.0175 Z M58.7375,1.0175 L57.95125,1.0175 C60.4025,6.5675 64.195,11.285 69.14375,14.8925 C70.3,15.77125 71.54875,16.5575 72.84375,17.25125 L72.84375,16.28 C66.83125,12.8575 61.79,7.63125 58.7375,1.0175 Z M60.54125,1.06375 L59.70875,1.06375 C62.0675,6.0125 65.62875,10.22125 70.115,13.505 C70.99375,14.10625 71.91875,14.7075 72.84375,15.2625 L72.84375,14.245 C67.71,11.1 63.40875,6.61375 60.54125,1.06375 Z M62.39125,1.06375 L61.5125,1.06375 C63.825,5.365 67.0625,9.11125 71.08625,12.07125 C71.6875,12.4875 72.2425,12.8575 72.84375,13.2275 L72.84375,12.16375 C68.635,9.3425 65.0275,5.59625 62.39125,1.06375 Z M64.38,1.06375 L63.40875,1.06375 C65.62875,4.76375 68.5425,8.00125 72.10375,10.59125 C72.335,10.77625 72.6125,10.915 72.84375,11.1 L72.84375,9.99 C69.51375,7.63125 66.6,4.57875 64.38,1.06375 Z M66.415,1.0175 L65.35125,1.0175 C67.34,4.07 69.88375,6.70625 72.84375,8.92625 L72.84375,7.77 C70.3925,5.92 68.21875,3.65375 66.415,1.0175 Z M68.5425,1.06375 L67.38625,1.06375 C68.95875,3.145 70.7625,5.0875 72.84375,6.7525 L72.84375,5.50375 C71.27125,4.1625 69.8375,2.6825 68.5425,1.06375 Z M70.7625,1.06375 L69.56,1.06375 C70.53125,2.3125 71.64125,3.4225 72.84375,4.48625 L72.84375,3.19125 C72.10375,2.4975 71.41,1.80375 70.7625,1.06375 Z M72.84375,1.0175 L71.82625,1.0175 C72.15,1.3875 72.47375,1.7575 72.84375,2.08125 L72.84375,1.0175 Z"></path></clipPath><clipPath id="i1"><path d="M1.2025,0 C1.34125,1.2025 1.52625,2.35875 1.665,3.56125 C2.54375,8.2325 4.07,12.62625 6.1975,16.78875 C5.8275,16.9275 5.4575,17.06625 5.04125,17.205 C2.96,13.08875 1.3875,8.6025 0.50875,3.7925 C0.32375,2.59 0.13875,1.43375 0,0.2775 C0.32375,0.185 0.69375,0.0925 1.0175,0.04625 C1.06375,0 1.15625,0 1.2025,0 Z"></path></clipPath><clipPath id="i2"><path d="M1.2025,0 C1.34125,1.34125 1.52625,2.72875 1.80375,4.07 C2.63625,8.6025 4.07,12.90375 6.105,16.97375 C5.96625,17.02 5.78125,17.02 5.6425,17.06625 C5.365,17.1125 5.0875,17.1125 4.81,17.15875 C2.8675,13.18125 1.3875,8.88 0.555,4.30125 C0.32375,3.0525 0.13875,1.7575 0,0.50875 C0.37,0.32375 0.78625,0.13875 1.2025,0 Z"></path></clipPath><clipPath id="i3"><path d="M1.2025,0 C1.34125,1.48 1.52625,2.91375 1.80375,4.255 C2.63625,8.51 3.93125,12.62625 5.78125,16.51125 C5.2725,16.5575 4.81,16.51125 4.3475,16.465 C2.63625,12.765 1.34125,8.74125 0.555,4.5325 C0.32375,3.28375 0.13875,2.035 0,0.78625 C0.37,0.50875 0.78625,0.23125 1.2025,0 Z"></path></clipPath><clipPath id="i4"><path d="M1.15625,0 C1.295,1.43375 1.48,2.82125 1.7575,4.20875 C2.4975,8.09375 3.65375,11.88625 5.22625,15.4475 C4.7175,15.30875 4.1625,15.17 3.65375,14.985 C2.26625,11.655 1.2025,8.14 0.50875,4.44 C0.2775,3.37625 0.13875,2.26625 0,1.15625 C0.32375,0.74 0.74,0.37 1.15625,0 Z"></path></clipPath><clipPath id="i5"><path d="M1.06375,0 C1.2025,1.24875 1.3875,2.4975 1.61875,3.7 C2.26625,7.03 3.19125,10.2675 4.44,13.4125 C3.7925,13.08875 3.19125,12.71875 2.63625,12.3025 C1.665,9.62 0.925,6.845 0.37,3.93125 C0.23125,3.2375 0.0925,2.4975 0,1.80375 C0.2775,1.15625 0.6475,0.555 1.06375,0 Z"></path></clipPath><clipPath id="i6"><path d="M0.610475615,0 C0.749225615,0.8325 0.841725615,1.61875 0.980475615,2.405 C1.44297562,4.9025 2.09047562,7.35375 2.92297562,9.75875 C1.67422562,8.64875 0.749225615,7.16875 0.286725615,5.4575 C0.240475615,5.365 0.240475615,5.22625 0.194225615,5.13375 C0.194225615,5.04125 0.147975615,4.9025 0.147975615,4.81 C-0.175774385,3.145 0.055475615,1.48 0.610475615,0 Z"></path></clipPath><clipPath id="i7"><path d="M6.80163993,55.5776025 L7.18722792,55.5853216 C7.82558619,55.611052 8.44250248,55.7011083 9.03797679,55.8554905 C9.75254596,56.0407492 10.3921295,56.3142263 10.9567274,56.6759218 C11.5213252,57.0376173 11.9888828,57.4787094 12.3594002,57.999198 C12.7299175,58.5196867 12.9681073,59.1063392 13.0739694,59.7591555 L11.2743137,59.7591555 L11.2390038,59.5403423 C11.0640523,58.6105832 10.6038537,57.9204316 9.85840806,57.4698875 C9.05562047,56.9846862 8.08080697,56.7420856 6.93396755,56.7420856 L6.643927,56.7472167 C6.07356793,56.767741 5.56154104,56.8498381 5.10784633,56.9935081 C4.57853583,57.1611231 4.13303282,57.3816691 3.77133731,57.6551462 C3.4096418,57.9286233 3.13616471,58.2506205 2.95090604,58.6211379 C2.76564736,58.9916552 2.67301803,59.3886381 2.67301803,59.8120865 L2.67979845,60.0152805 C2.72500127,60.6801995 2.99621822,61.2211752 3.4934493,61.6382077 C4.04040348,62.0969435 4.72409621,62.5027482 5.54452749,62.8556219 C6.36495876,63.2084955 7.25596477,63.5437255 8.21754551,63.8613118 C9.17912625,64.1788981 10.0701323,64.5714701 10.8905635,65.0390277 C11.7109948,65.5065853 12.3946875,66.0888268 12.9416417,66.7857523 C13.4885959,67.4826778 13.762073,68.3780948 13.762073,69.4720031 L13.7546296,69.7664321 C13.7198936,70.4457139 13.5635816,71.0709619 13.2856936,71.6421762 C12.9681073,72.2949925 12.5181933,72.8507685 11.9359518,73.3095042 C11.3537102,73.76824 10.6523738,74.1211137 9.83194254,74.3681252 C9.01151126,74.6151368 8.08962881,74.7386426 7.06629518,74.7386426 L6.64014621,74.7313511 C5.79757031,74.702185 5.01332659,74.5855206 4.28741505,74.381358 C3.44051825,74.1431683 2.70389447,73.8079383 2.07754371,73.3756681 C1.45119295,72.9433978 0.957169821,72.4184982 0.595474313,71.8009693 C0.233778804,71.1834404 0.0352873667,70.4953368 0,69.7366584 L1.7996557,69.7366584 C1.81729938,70.036601 1.88787412,70.4027074 2.0113799,70.8349777 C2.13488568,71.2672479 2.37307541,71.6862854 2.72594908,72.0920901 C3.07882274,72.4978948 3.59048956,72.8463576 4.26094953,73.1374783 C4.93140949,73.4285991 5.8224155,73.5741595 6.93396755,73.5741595 L7.25069255,73.5694615 C8.49786084,73.5318773 9.50824881,73.2687881 10.2818565,72.7801937 C11.1199314,72.2508832 11.5389689,71.4128083 11.5389689,70.2659689 L11.5324072,70.0203426 C11.4886625,69.2168988 11.2261945,68.5665614 10.7450032,68.0693303 C10.2156927,67.5223761 9.5496436,67.0592294 8.74685601,66.6798902 C7.94406842,66.300551 7.07511702,65.9609101 6.1400018,65.6609675 C5.20488658,65.3610249 4.33593518,64.9993294 3.53314759,64.575881 C2.73036,64.1524326 2.06431095,63.6231221 1.53500045,62.9879495 C1.00568995,62.3527769 0.7410347,61.5147019 0.7410347,60.4737246 L0.748684891,60.1801227 C0.784385781,59.5047005 0.945039789,58.8968204 1.23064691,58.3564826 C1.55705505,57.7389537 1.99814714,57.2272869 2.55392316,56.8214822 C3.10969919,56.4156775 3.75369363,56.106913 4.48590649,55.8951888 C5.21811935,55.6834646 5.99003049,55.5776025 6.80163993,55.5776025 Z M122.032536,55.5776025 L122.418124,55.5853216 C123.056482,55.611052 123.673398,55.7011083 124.268873,55.8554905 C124.983442,56.0407492 125.623025,56.3142263 126.187623,56.6759218 C126.752221,57.0376173 127.219779,57.4787094 127.590296,57.999198 C127.960813,58.5196867 128.199003,59.1063392 128.304865,59.7591555 L126.50521,59.7591555 L126.4699,59.5403423 C126.294948,58.6105832 125.83475,57.9204316 125.089304,57.4698875 C124.286516,56.9846862 123.311703,56.7420856 122.164863,56.7420856 L121.874823,56.7472167 C121.304464,56.767741 120.792437,56.8498381 120.338742,56.9935081 C119.809432,57.1611231 119.363929,57.3816691 119.002233,57.6551462 C118.640538,57.9286233 118.367061,58.2506205 118.181802,58.6211379 C117.996543,58.9916552 117.903914,59.3886381 117.903914,59.8120865 L117.910694,60.0152805 C117.955897,60.6801995 118.227114,61.2211752 118.724345,61.6382077 C119.271299,62.0969435 119.954992,62.5027482 120.775423,62.8556219 C121.595855,63.2084955 122.486861,63.5437255 123.448441,63.8613118 C124.410022,64.1788981 125.301028,64.5714701 126.121459,65.0390277 C126.941891,65.5065853 127.625583,66.0888268 128.172538,66.7857523 C128.719492,67.4826778 128.992969,68.3780948 128.992969,69.4720031 L128.985525,69.7664321 C128.950789,70.4457139 128.794477,71.0709619 128.516589,71.6421762 C128.199003,72.2949925 127.749089,72.8507685 127.166848,73.3095042 C126.584606,73.76824 125.88327,74.1211137 125.062838,74.3681252 C124.242407,74.6151368 123.320525,74.7386426 122.297191,74.7386426 L121.871042,74.7313511 C121.028466,74.702185 120.244222,74.5855206 119.518311,74.381358 C118.671414,74.1431683 117.93479,73.8079383 117.30844,73.3756681 C116.682089,72.9433978 116.188066,72.4184982 115.82637,71.8009693 C115.464675,71.1834404 115.266183,70.4953368 115.230896,69.7366584 L117.030552,69.7366584 C117.048195,70.036601 117.11877,70.4027074 117.242276,70.8349777 C117.365782,71.2672479 117.603971,71.6862854 117.956845,72.0920901 C118.309719,72.4978948 118.821385,72.8463576 119.491845,73.1374783 C120.162305,73.4285991 121.053311,73.5741595 122.164863,73.5741595 L122.481588,73.5694615 C123.728757,73.5318773 124.739145,73.2687881 125.512752,72.7801937 C126.350827,72.2508832 126.769865,71.4128083 126.769865,70.2659689 L126.763303,70.0203426 C126.719558,69.2168988 126.45709,68.5665614 125.975899,68.0693303 C125.446589,67.5223761 124.780539,67.0592294 123.977752,66.6798902 C123.174964,66.300551 122.306013,65.9609101 121.370898,65.6609675 C120.435782,65.3610249 119.566831,64.9993294 118.764043,64.575881 C117.961256,64.1524326 117.295207,63.6231221 116.765896,62.9879495 C116.236586,62.3527769 115.971931,61.5147019 115.971931,60.4737246 L115.979581,60.1801227 C116.015282,59.5047005 116.175936,58.8968204 116.461543,58.3564826 C116.787951,57.7389537 117.229043,57.2272869 117.784819,56.8214822 C118.340595,56.4156775 118.984589,56.106913 119.716802,55.8951888 C120.449015,55.6834646 121.220926,55.5776025 122.032536,55.5776025 Z M89.8239919,55.5776025 L90.2155989,55.5825648 C91.1168052,55.6057221 91.9302065,55.7099301 92.655803,55.8951888 C93.4850561,56.106913 94.2084472,56.3980338 94.8259761,56.7685511 C95.443505,57.1390685 95.9595827,57.5801606 96.3742093,58.0918274 C96.7888358,58.6034942 97.1284768,59.1592702 97.393132,59.7591555 L95.4346832,59.7591555 L95.3652111,59.5742644 C95.2365593,59.2667251 95.0435815,58.9622491 94.7862778,58.6608362 C94.4775133,58.2991407 94.0805305,57.9771434 93.5953292,57.6948445 C93.1101279,57.4125456 92.5543518,57.1831777 91.9280011,57.0067408 C91.3016503,56.830304 90.6091358,56.7420856 89.8504574,56.7420856 L89.483044,56.7496005 C88.5115523,56.78968 87.6062789,56.9900774 86.7672237,57.3507927 C85.8232867,57.7565974 85.0072663,58.3211953 84.3191626,59.0445863 C83.631059,59.7679773 83.0973376,60.6281069 82.7179984,61.624975 C82.3386592,62.6218431 82.1489896,63.7201624 82.1489896,64.9199328 L82.1574668,65.3413136 C82.1970273,66.319711 82.3750493,67.2643372 82.6915329,68.1751924 C83.0532284,69.2161697 83.5869498,70.1336412 84.2926971,70.927607 C84.9984445,71.7215728 85.8806286,72.3567453 86.9392496,72.8331248 C87.9978706,73.3095043 89.2152848,73.547694 90.5914921,73.547694 L90.9420853,73.5419328 C93.26417,73.4651167 95.2821913,72.6201403 96.9961491,71.0070036 L97.7901149,71.7215728 C97.560747,71.986228 97.225517,72.2949925 96.7844249,72.6478661 C96.3433328,73.0007398 95.7919677,73.3315589 95.1303296,73.6403233 C94.4686915,73.9490878 93.6923694,74.2093321 92.8013634,74.4210563 C91.9103574,74.6327805 90.9002565,74.7386426 89.7710608,74.7386426 L89.3307039,74.7328533 C87.7349307,74.6903982 86.3467159,74.4144399 85.1660595,73.9049786 C83.8780706,73.3492025 82.8194496,72.6169897 81.9901965,71.70834 C81.1609433,70.7996903 80.5478253,69.758713 80.1508425,68.585408 C79.7538596,67.4121031 79.5553682,66.2079217 79.5553682,64.9728639 L79.5627785,64.5482245 C79.6072406,63.2866129 79.851782,62.1357596 80.2964029,61.0956645 C80.790426,59.9400032 81.4873515,58.9519569 82.3871793,58.1315257 C83.2870072,57.3110944 84.3676828,56.6803327 85.6292061,56.2392406 C86.8907295,55.7981485 88.2889914,55.5776025 89.8239919,55.5776025 Z M40.6775119,55.8951888 C41.8596387,55.8951888 42.8388631,56.0583929 43.6151852,56.384801 C44.3915073,56.7112092 45.0046253,57.1170139 45.4545392,57.6022152 C45.9044531,58.0874165 46.2220394,58.612316 46.4072981,59.1769139 C46.5925568,59.7415118 46.6851861,60.2620004 46.6851861,60.7383799 L46.6778346,61.0041379 C46.6533294,61.4489057 46.5675615,61.902863 46.4205309,62.3660097 C46.244094,62.9217857 45.9617951,63.4378634 45.5736341,63.9142429 C45.185473,64.3906223 44.687039,64.7876052 44.0783319,65.1051915 C43.4696248,65.4227778 42.7418229,65.6080365 41.8949261,65.6609675 L41.8949261,65.7668296 L42.1595813,65.8991573 L42.3125851,65.9835161 C42.4597996,66.0728373 42.5896461,66.1770453 42.7021246,66.2961401 C42.8520959,66.4549333 43.0461764,66.7107667 43.2843661,67.0636403 C43.5225559,67.416514 43.8445531,67.9149481 44.2503578,68.5589425 C44.6561625,69.202937 45.2295822,70.0630665 45.9706169,71.1393312 L46.1542215,71.4097758 C46.336172,71.6727769 46.5131602,71.9134478 46.6851861,72.1317884 C46.914554,72.4229092 47.1527437,72.6699207 47.3997553,72.8728231 C47.6467668,73.0757254 47.9114221,73.2301077 48.193721,73.3359698 C48.47602,73.4418319 48.8024281,73.4947629 49.1729455,73.4947629 L49.3052731,73.4914547 L49.4376007,73.4815302 C49.5258191,73.4727083 49.6140375,73.4594756 49.702256,73.4418319 L49.702256,74.4210563 L49.5169973,74.5169938 C49.3317386,74.6030068 49.1464799,74.659246 48.9612213,74.6857115 C48.7142097,74.7209989 48.3966234,74.7386426 48.0084624,74.7386426 L47.7500559,74.7327614 C47.3297932,74.7131573 46.9616038,74.644543 46.6454878,74.5269184 C46.2661486,74.3857689 45.9265077,74.1960993 45.6265651,73.9579096 C45.3266225,73.7197199 45.0487345,73.43301 44.7929011,73.09778 C44.5370677,72.7625501 44.2768233,72.3920327 44.0121681,71.986228 L41.9213916,68.8897616 L41.7662742,68.6493664 C41.5138715,68.259735 41.2921002,67.9252402 41.1009603,67.6458819 C40.8715924,67.3106519 40.6245809,67.0371748 40.3599256,66.8254506 C40.0952704,66.6137264 39.7997387,66.4637551 39.4733305,66.3755367 C39.1469224,66.2873183 38.7367068,66.2432091 38.2426836,66.2432091 L37.0782005,66.2432091 L37.0782005,74.4210563 L34.6698378,74.4210563 L34.6698378,55.8951888 Z M30.700009,55.8951888 L30.700009,57.3507927 L21.1459545,57.3507927 L21.1459545,63.9936394 L29.3502672,63.9936394 L29.3502672,65.2110536 L21.1459545,65.2110536 L21.1459545,72.9654524 L30.700009,72.9654524 L30.700009,74.4210563 L18.7375917,74.4210563 L18.7375917,55.8951888 L30.700009,55.8951888 Z M113.457706,55.8951888 L113.457706,57.3507927 L103.903651,57.3507927 L103.903651,63.9936394 L112.107964,63.9936394 L112.107964,65.2110536 L103.903651,65.2110536 L103.903651,72.9654524 L113.457706,72.9654524 L113.457706,74.4210563 L101.495288,74.4210563 L101.495288,55.8951888 L113.457706,55.8951888 Z M73.9976079,55.8951888 L73.9976079,74.4210563 L71.5892451,74.4210563 L71.5892451,55.8951888 L73.9976079,55.8951888 Z M52.5605327,55.8951888 L58.9122587,71.1393312 L59.0181208,71.1393312 L65.1845881,55.8951888 L66.5607954,55.8951888 L59.0445863,74.4210563 L57.4566548,74.4210563 L49.702256,55.8951888 L52.5605327,55.8951888 Z M39.7512186,57.0596719 L37.0782005,57.0596719 L37.0782005,65.0522605 L39.8041496,65.0522605 L40.1014817,65.0446989 C40.6858837,65.0144526 41.2087128,64.8934673 41.6699691,64.6817431 C42.2081015,64.4347315 42.6624263,64.1127343 43.0329437,63.7157514 C43.403461,63.3187686 43.681349,62.8776765 43.8666077,62.3924752 C44.0518664,61.9072739 44.1444957,61.4264835 44.1444957,60.9501041 L44.1360414,60.6714809 C44.1078606,60.2132352 44.0092275,59.785621 43.8401422,59.3886381 C43.6372398,58.9122586 43.3417081,58.502043 42.9535471,58.1579912 C42.565386,57.8139394 42.1022394,57.5448732 41.564107,57.3507927 C41.0259747,57.1567122 40.4216785,57.0596719 39.7512186,57.0596719 Z M137.197282,27.7888012 L137.588889,27.7937635 C138.490095,27.8169209 139.303496,27.9211289 140.029093,28.1063876 C140.858346,28.3181117 141.581737,28.6092325 142.199266,28.9797499 C142.816795,29.3502672 143.332872,29.7913593 143.747499,30.3030261 C144.162126,30.8146929 144.501766,31.370469 144.766422,31.9703542 L142.807973,31.9703542 L142.738501,31.7854631 C142.609849,31.4779239 142.416871,31.1734478 142.159568,30.8720349 C141.850803,30.5103394 141.45382,30.1883422 140.968619,29.9060432 C140.483418,29.6237443 139.927642,29.3943764 139.301291,29.2179396 C138.67494,29.0415028 137.982426,28.9532843 137.223747,28.9532843 L136.856334,28.9607993 C135.884842,29.0008787 134.979569,29.2012761 134.140513,29.5619914 C133.196576,29.9677961 132.380556,30.532394 131.692452,31.255785 C131.004349,31.979176 130.470627,32.8393056 130.091288,33.8361737 C129.711949,34.8330418 129.522279,35.9313611 129.522279,37.1311316 L129.530757,37.5525124 C129.570317,38.5309097 129.748339,39.475536 130.064823,40.3863912 C130.426518,41.4273685 130.96024,42.34484 131.665987,43.1388058 C132.371734,43.9327715 133.253918,44.5679441 134.312539,45.0443235 C135.37116,45.520703 136.588575,45.7588927 137.964782,45.7588927 L138.315375,45.7531315 C140.63746,45.6763155 142.655481,44.8313391 144.369439,43.2182023 L145.163405,43.9327715 C144.934037,44.1974267 144.598807,44.5061912 144.157715,44.8590649 C143.716623,45.2119385 143.165257,45.5427576 142.503619,45.8515221 C141.841981,46.1602865 141.065659,46.4205308 140.174653,46.632255 C139.283647,46.8439792 138.273546,46.9498413 137.144351,46.9498413 L136.703994,46.944052 C135.10822,46.9015969 133.720006,46.6256387 132.539349,46.1161773 C131.25136,45.5604013 130.192739,44.8281884 129.363486,43.9195387 C128.534233,43.010889 127.921115,41.9699117 127.524132,40.7966068 C127.127149,39.6233018 126.928658,38.4191205 126.928658,37.1840626 L126.936068,36.7594233 C126.98053,35.4978117 127.225072,34.3469583 127.669693,33.3068632 C128.163716,32.151202 128.860641,31.1631557 129.760469,30.3427244 C130.660297,29.5222931 131.740973,28.8915315 133.002496,28.4504394 C134.264019,28.0093473 135.662281,27.7888012 137.197282,27.7888012 Z M9.9510374,27.7888012 L24.6394038,42.2654434 L24.7452659,42.2654434 L24.7452659,28.1063876 L25.96268,28.1063876 L25.96268,46.9498413 L25.8303524,46.9498413 L11.141986,32.4731992 L11.0361239,32.4731992 L11.0361239,46.632255 L9.81870978,46.632255 L9.81870978,27.7888012 L9.9510374,27.7888012 Z M36.9194074,27.7888012 L37.3049954,27.7965204 C37.9433536,27.8222507 38.5602699,27.912307 39.1557442,28.0666893 C39.8703134,28.2519479 40.5098969,28.525425 41.0744948,28.8871205 C41.6390927,29.248816 42.1066503,29.6899081 42.4771676,30.2103968 C42.847685,30.7308854 43.0858747,31.3175379 43.1917368,31.9703542 L41.3920811,31.9703542 L41.3567712,31.751541 C41.1818197,30.8217819 40.7216211,30.1316303 39.9761755,29.6810863 C39.1733879,29.195885 38.1985744,28.9532843 37.051735,28.9532843 L36.7616945,28.9584154 C36.1913354,28.9789397 35.6793085,29.0610368 35.2256138,29.2047068 C34.6963033,29.3723218 34.2508003,29.5928679 33.8891048,29.866345 C33.5274093,30.1398221 33.2539322,30.4618193 33.0686735,30.8323366 C32.8834148,31.202854 32.7907855,31.5998369 32.7907855,32.0232853 L32.7975659,32.2264792 C32.8427687,32.8913982 33.1139857,33.432374 33.6112167,33.8494065 C34.1581709,34.3081422 34.8418637,34.713947 35.6622949,35.0668206 C36.4827262,35.4196943 37.3737322,35.7549243 38.335313,36.0725106 C39.2968937,36.3900969 40.1878997,36.7826688 41.008331,37.2502264 C41.8287623,37.717784 42.512455,38.3000256 43.0594092,38.9969511 C43.6063634,39.6938766 43.8798404,40.5892935 43.8798404,41.6832019 L43.872397,41.9776308 C43.837661,42.6569126 43.681349,43.2821607 43.403461,43.8533749 C43.0858747,44.5061912 42.6359608,45.0619672 42.0537192,45.520703 C41.4714777,45.9794388 40.7701413,46.3323124 39.94971,46.579324 C39.1292787,46.8263356 38.2073963,46.9498413 37.1840626,46.9498413 L36.7579137,46.9425498 C35.9153378,46.9133837 35.131094,46.7967194 34.4051825,46.5925568 C33.5582857,46.354367 32.8216619,46.0191371 32.1953112,45.5868668 C31.5689604,45.1545966 31.0749373,44.629697 30.7132418,44.0121681 C30.3515463,43.3946392 30.1530548,42.7065355 30.1177674,41.9478571 L31.9174231,41.9478571 C31.9350668,42.2477997 32.0056416,42.6139062 32.1291473,43.0461764 C32.2526531,43.4784467 32.4908429,43.8974841 32.8437165,44.3032888 C33.1965902,44.7090936 33.708257,45.0575563 34.378717,45.3486771 C35.0491769,45.6397979 35.9401829,45.7853583 37.051735,45.7853583 L37.36846,45.7806602 C38.6156283,45.7430761 39.6260163,45.4799868 40.3996239,44.9913925 C41.2376989,44.462082 41.6567363,43.624007 41.6567363,42.4771676 L41.6501746,42.2315413 C41.60643,41.4280975 41.343962,40.7777601 40.8627706,40.280529 C40.3334601,39.7335749 39.6674111,39.2704282 38.8646235,38.891089 C38.0618359,38.5117498 37.1928845,38.1721089 36.2577692,37.8721663 C35.322654,37.5722237 34.4537026,37.2105281 33.650915,36.7870797 C32.8481274,36.3636313 32.1820784,35.8343208 31.6527679,35.1991483 C31.1234574,34.5639757 30.8588021,33.7259007 30.8588021,32.6849234 L30.8664523,32.3913215 C30.9021532,31.7158992 31.0628072,31.1080192 31.3484144,30.5676814 C31.6748225,29.9501525 32.1159146,29.4384856 32.6716906,29.0326809 C33.2274666,28.6268762 33.8714611,28.3181117 34.6036739,28.1063876 C35.3358868,27.8946633 36.1077979,27.7888012 36.9194074,27.7888012 Z M50.2051009,28.1063876 L50.2051009,40.2011325 L50.2117173,40.730443 L50.2315665,41.2597535 C50.2492101,41.6126271 50.310963,41.9610899 50.4168251,42.3051417 C50.5226872,42.6491935 50.6814804,42.9976563 50.8932046,43.3505299 C51.1049288,43.7034036 51.4136932,44.0562773 51.819498,44.4091509 L52.0406741,44.5987305 C52.4868073,44.9638467 52.9556251,45.2447054 53.4471277,45.4413064 C54.0205474,45.6706743 54.6777747,45.7853583 55.4188094,45.7853583 L55.7871662,45.7777967 C56.5195591,45.7475504 57.2260266,45.6265651 57.9065687,45.4148409 C58.7005345,45.1678293 59.4151036,44.7002717 60.0502762,44.0121681 L60.2519435,43.7792715 C60.5074241,43.4687426 60.7092678,43.1582138 60.8574747,42.847685 C61.0427334,42.4595239 61.179472,42.066952 61.2676904,41.6699691 C61.3559088,41.2729862 61.4088398,40.8760034 61.4264835,40.4790205 C61.4441272,40.0820376 61.4529491,39.6894657 61.4529491,39.3013046 L61.4529491,28.1063876 L62.6174322,28.1063876 L62.6174322,40.1746669 L62.6104022,40.5226473 C62.577596,41.3283295 62.429968,42.0901093 62.1675182,42.8079867 C61.8675756,43.628418 61.4220726,44.3473981 60.8310092,44.964927 C60.2399458,45.5824559 59.507733,46.0676572 58.6343706,46.4205308 C57.7610083,46.7734045 56.7597293,46.9498413 55.6305336,46.9498413 L55.2506993,46.945993 C53.6299109,46.9126411 52.3362058,46.6625014 51.369584,46.1955739 C50.3286067,45.6927289 49.5434628,45.0663782 49.0141523,44.3165216 C48.4848418,43.5666651 48.1496118,42.7550556 48.0084624,41.8816933 C47.8673129,41.008331 47.7967382,40.2099543 47.7967382,39.4865633 L47.7967382,28.1063876 L50.2051009,28.1063876 Z M73.9182113,28.1063876 C75.1003381,28.1063876 76.0795625,28.2695916 76.8558846,28.5959998 C77.6322067,28.9224079 78.2453247,29.3282126 78.6952386,29.8134139 C79.1451525,30.2986152 79.4627388,30.8235148 79.6479975,31.3881126 C79.8332562,31.9527105 79.9258855,32.4731992 79.9258855,32.9495786 L79.918534,33.2153366 C79.8940288,33.6601045 79.8082609,34.1140617 79.6612302,34.5772084 C79.4847934,35.1329844 79.2024945,35.6490622 78.8143334,36.1254416 C78.4261724,36.6018211 77.9277384,36.9988039 77.3190313,37.3163902 C76.7103242,37.6339765 75.9825223,37.8192352 75.1356255,37.8721663 L75.1356255,37.9780284 L75.4002807,38.110356 L75.5532845,38.1947149 C75.700499,38.284036 75.8303455,38.388244 75.942824,38.5073389 C76.0927953,38.666132 76.2868758,38.9219654 76.5250655,39.2748391 C76.7632553,39.6277128 77.0852525,40.1261468 77.4910572,40.7701413 C77.8968619,41.4141357 78.4702816,42.2742653 79.2113163,43.3505299 L79.3949209,43.6209745 C79.5768714,43.8839757 79.7538596,44.1246466 79.9258855,44.3429871 C80.1552534,44.6341079 80.3934431,44.8811195 80.6404547,45.0840218 C80.8874662,45.2869242 81.1521215,45.4413064 81.4344204,45.5471685 C81.7167194,45.6530306 82.0431275,45.7059617 82.4136448,45.7059617 L82.5459725,45.7026535 L82.6783001,45.6927289 C82.7665185,45.6839071 82.8547369,45.6706743 82.9429553,45.6530306 L82.9429553,46.632255 L82.7576967,46.7281926 C82.572438,46.8142055 82.3871793,46.8704448 82.2019206,46.8969103 C81.9549091,46.9321977 81.6373228,46.9498413 81.2491617,46.9498413 L80.9907553,46.9439601 C80.5704926,46.924356 80.2023032,46.8557417 79.8861872,46.7381171 C79.506848,46.5969677 79.1672071,46.4072981 78.8672645,46.1691084 C78.5673219,45.9309186 78.2894339,45.6442088 78.0336005,45.3089788 C77.7777671,44.9737488 77.5175227,44.6032315 77.2528675,44.1974267 L75.162091,41.1009603 L75.0069736,40.8605651 C74.7545709,40.4709338 74.5327996,40.136439 74.3416597,39.8570807 C74.1122918,39.5218507 73.8652803,39.2483736 73.600625,39.0366494 C73.3359698,38.8249252 73.0404381,38.6749539 72.7140299,38.5867354 C72.3876218,38.498517 71.9774062,38.4544078 71.483383,38.4544078 L70.3188999,38.4544078 L70.3188999,46.632255 L67.9105371,46.632255 L67.9105371,28.1063876 Z M106.417876,27.7888012 L121.106242,42.2654434 L121.212105,42.2654434 L121.212105,28.1063876 L122.429519,28.1063876 L122.429519,46.9498413 L122.297191,46.9498413 L107.608825,32.4731992 L107.502963,32.4731992 L107.502963,46.632255 L106.285548,46.632255 L106.285548,27.7888012 L106.417876,27.7888012 Z M160.830995,28.1063876 L160.830995,29.5619914 L151.276941,29.5619914 L151.276941,36.2048382 L159.481254,36.2048382 L159.481254,37.4222524 L151.276941,37.4222524 L151.276941,45.1766512 L160.830995,45.1766512 L160.830995,46.632255 L148.868578,46.632255 L148.868578,28.1063876 L160.830995,28.1063876 Z M2.40836278,28.1063876 L2.40836278,46.632255 L0,46.632255 L0,28.1063876 L2.40836278,28.1063876 Z M93.6879585,28.1063876 L102.31572,46.632255 L99.7485637,46.632255 L97.2078733,41.1803569 L88.0772672,41.1803569 L85.748301,46.632255 L84.5308868,46.632255 L92.3646823,28.1063876 L93.6879585,28.1063876 Z M92.4970099,31.0705264 L92.3911478,31.0705264 L88.5801122,39.9894083 L96.6520973,39.9894083 L92.4970099,31.0705264 Z M72.991918,29.2708706 L70.3188999,29.2708706 L70.3188999,37.2634592 L73.044849,37.2634592 L73.3421811,37.2558976 C73.9265831,37.2256513 74.4494122,37.104666 74.9106685,36.8929418 C75.4488009,36.6459303 75.9031257,36.3239331 76.2736431,35.9269502 C76.6441604,35.5299673 76.9220484,35.0888752 77.1073071,34.6036739 C77.2925658,34.1184726 77.3851951,33.6376823 77.3851951,33.1613028 L77.3767408,32.8826797 C77.34856,32.424434 77.2499269,31.9968197 77.0808416,31.5998368 C76.8779392,31.1234574 76.5824075,30.7132418 76.1942465,30.3691899 C75.8060854,30.0251381 75.3429388,29.7560719 74.8048064,29.5619914 C74.2666741,29.3679109 73.6623779,29.2708706 72.991918,29.2708706 Z M126.690468,0.3175863 L135.185902,16.2233668 L135.291764,16.2233668 L143.866594,0.3175863 L145.692715,0.3175863 L145.692715,18.8434538 L143.284352,18.8434538 L143.284352,3.83750113 L143.17849,3.83750113 L134.815384,19.1610401 L134.339005,19.1610401 L126.161158,3.73163903 L126.055296,3.73163903 L126.055296,18.8434538 L124.890812,18.8434538 L124.890812,0.3175863 L126.690468,0.3175863 Z M110.096584,0 L110.499596,0.00555932626 C112.095044,0.0500339363 113.491297,0.361356207 114.688353,0.939526138 C115.985163,1.5658769 117.057017,2.35543172 117.903914,3.30819062 C118.750811,4.26094953 119.377161,5.29751592 119.782966,6.41788981 C120.188771,7.5382637 120.391673,8.59247378 120.391673,9.58052005 L120.383954,9.90986881 C120.358224,10.4636844 120.268167,11.0420052 120.113785,11.644831 C119.928527,12.368222 119.655049,13.0872021 119.293354,13.8017713 C118.931658,14.5163405 118.468512,15.1956223 117.903914,15.8396167 C117.339316,16.4836112 116.673267,17.0526199 115.905767,17.5466431 C115.138267,18.0406662 114.273726,18.4332382 113.312145,18.7243589 C112.350565,19.0154797 111.278711,19.1610401 110.096584,19.1610401 L109.697879,19.1554808 C108.120596,19.1110062 106.753785,18.7996839 105.597445,18.221514 C104.344743,17.5951632 103.312588,16.8056084 102.500978,15.8528495 C101.689369,14.9000906 101.093895,13.8635242 100.714555,12.7431503 C100.335216,11.6227764 100.145547,10.5685663 100.145547,9.58052005 L100.152571,9.24300292 C100.190037,8.3368582 100.377365,7.38192107 100.714555,6.37819152 C101.093895,5.24899579 101.689369,4.2124294 102.500978,3.26849234 C103.312588,2.32455528 104.344743,1.54382229 105.597445,0.926293375 C106.850146,0.308764458 108.349859,0 110.096584,0 Z M79.6347647,0 L94.3231311,14.4766422 L94.4289932,14.4766422 L94.4289932,0.3175863 L95.6464074,0.3175863 L95.6464074,19.1610401 L95.5140797,19.1610401 L80.8257134,4.68439793 L80.7198513,4.68439793 L80.7198513,18.8434538 L79.5024371,18.8434538 L79.5024371,0 L79.6347647,0 Z M64.7082086,0 L65.1112206,0.00555932626 C66.706669,0.0500339363 68.1029212,0.361356207 69.2999772,0.939526138 C70.5967879,1.5658769 71.6686417,2.35543172 72.5155385,3.30819062 C73.3624353,4.26094953 73.9887861,5.29751592 74.3945908,6.41788981 C74.8003955,7.5382637 75.0032979,8.59247378 75.0032979,9.58052005 L74.9955787,9.90986881 C74.9698484,10.4636844 74.8797921,11.0420052 74.7254098,11.644831 C74.5401512,12.368222 74.2666741,13.0872021 73.9049786,13.8017713 C73.5432831,14.5163405 73.0801364,15.1956223 72.5155385,15.8396167 C71.9509406,16.4836112 71.2848916,17.0526199 70.5173914,17.5466431 C69.7498911,18.0406662 68.8853507,18.4332382 67.9237699,18.7243589 C66.9621892,19.0154797 65.8903354,19.1610401 64.7082086,19.1610401 L64.3095031,19.1554808 C62.7322205,19.1110062 61.3654092,18.7996839 60.2090694,18.221514 C58.9563679,17.5951632 57.9242124,16.8056084 57.112603,15.8528495 C56.3009935,14.9000906 55.7055192,13.8635242 55.32618,12.7431503 C54.9468408,11.6227764 54.7571712,10.5685663 54.7571712,9.58052005 L54.764196,9.24300292 C54.8016616,8.3368582 54.9889896,7.38192107 55.32618,6.37819152 C55.7055192,5.24899579 56.3009935,4.2124294 57.112603,3.26849234 C57.9242124,2.32455528 58.9563679,1.54382229 60.2090694,0.926293375 C61.4617709,0.308764458 62.961484,0 64.7082086,0 Z M23.1044033,0.3175863 L23.1044033,12.4123312 L23.1110197,12.9416417 L23.1308689,13.4709522 C23.1485125,13.8238259 23.2102654,14.1722886 23.3161275,14.5163405 C23.4219896,14.8603923 23.5807828,15.208855 23.792507,15.5617287 C24.0042312,15.9146024 24.3129956,16.267476 24.7188004,16.6203497 L24.9399765,16.8099293 C25.3861097,17.1750455 25.8549275,17.4559041 26.3464301,17.6525052 C26.9198498,17.8818731 27.5770771,17.996557 28.3181118,17.996557 L28.6864686,17.9889954 C29.4188615,17.9587491 30.125329,17.8377639 30.8058711,17.6260397 C31.5998369,17.3790281 32.314406,16.9114705 32.9495786,16.2233668 L33.1512459,15.9904702 C33.4067265,15.6799414 33.6085702,15.3694126 33.7567771,15.0588837 C33.9420358,14.6707227 34.0787744,14.2781507 34.1669928,13.8811679 C34.2552112,13.484185 34.3081422,13.0872021 34.3257859,12.6902192 C34.3434296,12.2932364 34.3522515,11.9006644 34.3522515,11.5125034 L34.3522515,0.3175863 L35.5167346,0.3175863 L35.5167346,12.3858657 L35.5097046,12.733846 C35.4768984,13.5395283 35.3292704,14.3013081 35.0668206,15.0191854 C34.766878,15.8396167 34.321375,16.5585968 33.7303116,17.1761257 C33.1392482,17.7936546 32.4070354,18.2788559 31.533673,18.6317296 C30.6603107,18.9846033 29.6590317,19.1610401 28.529836,19.1610401 L28.1500017,19.1571918 C26.5292133,19.1238398 25.2355082,18.8737001 24.2688864,18.4067726 C23.2279091,17.9039277 22.4427652,17.2775769 21.9134547,16.5277204 C21.3841442,15.7778638 21.0489142,14.9662544 20.9077648,14.0928921 C20.7666153,13.2195297 20.6960406,12.4211531 20.6960406,11.6977621 L20.6960406,0.3175863 L23.1044033,0.3175863 Z M152.388493,0.3175863 L157.78746,10.083365 L157.893322,10.083365 L163.556944,0.3175863 L164.986083,0.3175863 L158.475564,11.5919 L158.475564,18.8434538 L156.067201,18.8434538 L156.067201,11.8300897 L149.662544,0.3175863 L152.388493,0.3175863 Z M54.7571712,0.3175863 L54.7571712,1.77319017 L47.6644105,1.77319017 L47.6644105,18.8434538 L45.2560478,18.8434538 L45.2560478,1.77319017 L38.1632871,1.77319017 L38.1632871,0.3175863 L54.7571712,0.3175863 Z M9.15707165,0.3175863 L17.7848328,18.8434538 L15.2176769,18.8434538 L12.6769865,13.3915557 L3.54638035,13.3915557 L1.21741415,18.8434538 L0,18.8434538 L7.8337954,0.3175863 L9.15707165,0.3175863 Z M110.149515,1.1644831 L109.799582,1.17216137 C108.874269,1.21311214 108.011689,1.417866 107.211842,1.78642294 C106.312014,2.2010495 105.531281,2.77888013 104.869643,3.51991483 C104.208005,4.26094953 103.687516,5.14754461 103.308177,6.17970009 C102.928838,7.21185556 102.739168,8.34546222 102.739168,9.58052005 L102.746193,9.98844854 C102.783658,11.066238 102.970986,12.0638685 103.308177,12.98134 C103.687516,14.0134955 104.208005,14.9000906 104.869643,15.6411253 C105.531281,16.38216 106.312014,16.9599906 107.211842,17.3746172 C108.11167,17.7892437 109.090894,17.996557 110.149515,17.996557 L110.494384,17.9888787 C111.40837,17.947928 112.277049,17.7431741 113.100421,17.3746172 C114.026714,16.9599906 114.838324,16.38216 115.535249,15.6411253 C116.232175,14.9000906 116.78354,14.0134955 117.189345,12.98134 C117.595149,11.9491845 117.798052,10.8155779 117.798052,9.58052005 L117.790537,9.17259156 C117.750457,8.09480211 117.55006,7.09717162 117.189345,6.17970009 C116.78354,5.14754461 116.232175,4.26094953 115.535249,3.51991483 C114.838324,2.77888013 114.026714,2.2010495 113.100421,1.78642294 C112.174128,1.37179638 111.190492,1.1644831 110.149515,1.1644831 Z M64.7611397,1.1644831 L64.4112066,1.17216137 C63.4858935,1.21311214 62.6233134,1.417866 61.8234664,1.78642294 C60.9236386,2.2010495 60.1429056,2.77888013 59.4812674,3.51991483 C58.8196293,4.26094953 58.2991407,5.14754461 57.9198015,6.17970009 C57.5404623,7.21185556 57.3507927,8.34546222 57.3507927,9.58052005 L57.3578175,9.98844854 C57.3952831,11.066238 57.5826111,12.0638685 57.9198015,12.98134 C58.2991407,14.0134955 58.8196293,14.9000906 59.4812674,15.6411253 C60.1429056,16.38216 60.9236386,16.9599906 61.8234664,17.3746172 C62.7232943,17.7892437 63.7025187,17.996557 64.7611397,17.996557 L65.1060083,17.9888787 C66.0199947,17.947928 66.8886738,17.7431741 67.7120457,17.3746172 C68.6383391,16.9599906 69.4499485,16.38216 70.146874,15.6411253 C70.8437995,14.9000906 71.3951646,14.0134955 71.8009693,12.98134 C72.206774,11.9491845 72.4096764,10.8155779 72.4096764,9.58052005 L72.4021615,9.17259156 C72.362082,8.09480211 72.1616846,7.09717162 71.8009693,6.17970009 C71.3951646,5.14754461 70.8437995,4.26094953 70.146874,3.51991483 C69.4499485,2.77888013 68.6383391,2.2010495 67.7120457,1.78642294 C66.7857523,1.37179638 65.802117,1.1644831 64.7611397,1.1644831 Z M7.96612303,3.2817251 L7.86026093,3.2817251 L4.04922533,12.200607 L12.1212105,12.200607 L7.96612303,3.2817251 Z"></path></clipPath><clipPath id="i8"><path d="M1,0 L1,92 L0,92 L0,0 L1,0 Z"></path></clipPath></defs><g transform="translate(0.23276250000000687 1.0)"><g transform="translate(0.0 9.0)"><g clip-path="url(#i0)"><polygon points="0,0 74,0 74,74 0,74 0,0" stroke="none" fill="#000000"></polygon></g><g transform="translate(18.5 15.354999999999997)"><g clip-path="url(#i1)"><polygon points="0,0 6.1975,0 6.1975,17.205 0,17.205 0,0" stroke="none" fill="#000000"></polygon></g></g><g transform="translate(17.066249999999997 15.724999999999998)"><g clip-path="url(#i2)"><polygon points="0,0 6.105,0 6.105,17.15875 0,17.15875 0,0" stroke="none" fill="#000000"></polygon></g></g><g transform="translate(15.632499999999997 16.326249999999987)"><g clip-path="url(#i3)"><polygon points="0,0 5.78125,0 5.78125,16.5304074 0,16.5304074 0,0" stroke="none" fill="#000000"></polygon></g></g><g transform="translate(14.291249999999998 17.2975)"><g clip-path="url(#i4)"><polygon points="0,0 5.22625,0 5.22625,15.4475 0,15.4475 0,0" stroke="none" fill="#000000"></polygon></g></g><g transform="translate(13.042500000000004 18.68500000000001)"><g clip-path="url(#i5)"><polygon points="0,0 4.44,0 4.44,13.4125 0,13.4125 0,0" stroke="none" fill="#000000"></polygon></g></g><g transform="translate(12.247024384956372 20.858749999999997)"><g clip-path="url(#i6)"><polygon points="1.55431223e-15,0 2.92297562,0 2.92297562,9.75875 1.55431223e-15,9.75875 1.55431223e-15,0" stroke="none" fill="#000000"></polygon></g></g></g><g transform="translate(113.0 9.0)"><g transform=""><g clip-path="url(#i7)"><polygon points="0,0 164.986083,0 164.986083,74.7386426 0,74.7386426 0,0" stroke="none" fill="#000000"></polygon></g></g></g><g transform="translate(93.0 0.0)"><g clip-path="url(#i8)"><polygon points="0,0 1,0 1,92 0,92 0,0" stroke="none" fill="#000000"></polygon></g><polygon points="0,0 1,0 1,92 0,92 0,0 0,0" stroke="#3F3F3F" stroke-width="0.661638125" fill="none" stroke-miterlimit="10"></polygon></g></g></svg>