<svg width="232" height="108" viewBox="0 0 232 108" xmlns="http://www.w3.org/2000/svg">
    <g fill="none" fill-rule="evenodd">
        <path d="M0 0h232v108H0z"/>
        <g fill="#848495" fill-rule="nonzero">
            <path d="M96.307 50.148v10.219h-3.763V50.148H88.75v-3.27h11.351v3.27h-3.794zm12.571 6.172h-5.998c-.01.45.171.884.5 1.194.328.31.772.466 1.223.431a5.315 5.315 0 0 0 2.635-.715l1.364 2.248a7.895 7.895 0 0 1-4.102 1.165c-3.076 0-4.748-2.167-4.748-5.273 0-3.495 1.98-5.293 4.645-5.293 2.666 0 4.533 1.84 4.533 5.6-.041.245-.041.46-.052.633v.01zm-4.614-3.709c-.8 0-1.23.542-1.353 1.553h2.901c-.174-1.022-.512-1.553-1.538-1.553h-.01zm11.095 8.001c-2.974 0-4.758-1.89-4.758-5.314 0-3.065 1.58-5.252 4.84-5.252a4.237 4.237 0 0 1 3.907 2.29l-2.4 1.838c-.482-.878-.82-1.308-1.569-1.308-.748 0-1.333.89-1.333 2.494s.482 2.432 1.436 2.432c.656 0 1.128-.368 1.764-1.329l2.204 1.717c-1.19 1.737-2.286 2.422-4.101 2.422l.01.01zm11.894-.204v-5.753c0-1.329-.44-1.666-1.158-1.666s-1.19.348-1.19 1.635v5.794h-3.486V47.747l3.486-1.39v4.599a3.946 3.946 0 0 1 2.564-.89c2.225 0 3.281 1.492 3.281 4.15v6.202l-3.497-.01zM138.678 60.627c-4.046 0-6.178-2.963-6.178-6.967 0-4.34 2.574-6.966 6.178-6.966 3.347 0 4.665 1.43 5.602 3.984l-3.419 1.328c-.494-1.257-.957-2.043-2.203-2.043-1.576 0-2.266 1.563-2.266 3.708 0 2.145.66 3.697 2.297 3.697 1.184 0 1.688-.633 2.43-1.91l3.192 1.685a5.863 5.863 0 0 1-5.643 3.494l.01-.01zm14.272-6.538a2.199 2.199 0 0 0-1.627-.847c-.854 0-1.38.408-1.38 1.634v5.516h-3.5V50.279h3.5v.736a3.108 3.108 0 0 1 3.831-.521l-.824 3.595zm8.341 6.313v-.674a3.891 3.891 0 0 1-2.553.888c-2.235 0-3.296-1.491-3.296-4.157V50.3h3.501v5.72c0 1.308.454 1.656 1.174 1.656.721 0 1.164-.348 1.164-1.614V50.3h3.522v10.132l-3.512-.03zm11.904 0v-5.75c0-1.329-.453-1.666-1.164-1.666-.71 0-1.194.348-1.194 1.635v5.791h-3.501V50.3h3.5v.674a3.974 3.974 0 0 1 2.575-.889c2.235 0 3.295 1.492 3.295 4.147v6.2l-3.511-.03zm10.349.204c-2.986 0-4.789-1.89-4.789-5.311 0-3.065 1.597-5.25 4.86-5.25a4.29 4.29 0 0 1 3.934 2.288l-2.41 1.807c-.493-.878-.823-1.307-1.575-1.307-.751 0-1.338.889-1.338 2.492 0 1.604.484 2.431 1.441 2.431.66 0 1.133-.367 1.771-1.328l2.214 1.716c-1.184 1.778-2.296 2.452-4.098 2.452l-.01.01zm11.945-.204v-5.75c0-1.329-.443-1.666-1.164-1.666-.72 0-1.184.348-1.184 1.635v5.791h-3.501V47.746l3.5-1.389v4.597a3.923 3.923 0 0 1 2.565-.89c2.245 0 3.295 1.492 3.295 4.148v6.2l-3.511-.01zM31 41v8.338h8.161V66h8.173V49.338h8.16V41H31zm32.667 16.662v-8.326h-8.173V66H80V57.66l-16.333.001zm0-16.662H80v8.338H63.667V41z"/>
        </g>
    </g>
</svg>
