<svg width="209" height="97" viewBox="0 0 209 97" xmlns="http://www.w3.org/2000/svg">
    <g fill="none" fill-rule="evenodd">
        <path d="M.456 0h208.155v97H.456z"/>
        <g fill="#848495" fill-rule="nonzero">
            <path d="M87.033 45.563v8.953h-3.365v-8.953h-3.393V42.7h10.151v2.864h-3.393zm11.243 5.408h-5.365a1.38 1.38 0 0 0 .447 1.045c.294.272.691.409 1.094.379a4.83 4.83 0 0 0 2.357-.627l1.22 1.97a7.17 7.17 0 0 1-3.669 1.02c-2.75 0-4.245-1.898-4.245-4.62 0-3.062 1.77-4.637 4.154-4.637s4.053 1.611 4.053 4.906c-.037.215-.037.403-.046.555v.009zm-4.127-3.25c-.715 0-1.1.475-1.21 1.36h2.595c-.156-.894-.458-1.36-1.375-1.36h-.01zm9.923 7.01c-2.66 0-4.255-1.656-4.255-4.655 0-2.686 1.412-4.602 4.328-4.602 1.464-.047 2.825.734 3.494 2.005l-2.146 1.612c-.43-.77-.733-1.146-1.403-1.146s-1.192.779-1.192 2.184c0 1.406.431 2.131 1.284 2.131.587 0 1.009-.322 1.577-1.164l1.972 1.504c-1.064 1.522-2.045 2.122-3.668 2.122l.009.01zm10.637-.179v-5.04c0-1.164-.394-1.46-1.036-1.46s-1.064.305-1.064 1.433v5.076h-3.118V43.46l3.118-1.218v4.029a3.575 3.575 0 0 1 2.293-.78c1.99 0 2.934 1.308 2.934 3.636v5.434l-3.127-.009zM124.927 54.744c-3.62 0-5.525-2.595-5.525-6.103 0-3.804 2.302-6.104 5.525-6.104 2.993 0 4.172 1.253 5.01 3.49l-3.058 1.164c-.442-1.101-.856-1.79-1.97-1.79-1.41 0-2.026 1.37-2.026 3.248 0 1.88.589 3.24 2.053 3.24 1.06 0 1.51-.555 2.174-1.673l2.854 1.476c-.865 1.94-2.873 3.157-5.046 3.06l.01-.008zm12.764-5.728a1.98 1.98 0 0 0-1.455-.742c-.764 0-1.234.358-1.234 1.431v4.833h-3.131v-8.86H135v.645a2.822 2.822 0 0 1 3.427-.457l-.737 3.15zm7.46 5.53v-.59a3.526 3.526 0 0 1-2.285.779c-1.998 0-2.946-1.307-2.946-3.642v-5.397h3.13v5.012c0 1.145.406 1.45 1.05 1.45.645 0 1.041-.305 1.041-1.414v-5.048h3.15v8.878l-3.14-.027zm10.645 0V49.51c0-1.164-.405-1.46-1.04-1.46-.636 0-1.069.305-1.069 1.433v5.074h-3.13v-8.86h3.13v.59a3.601 3.601 0 0 1 2.303-.778c1.998 0 2.946 1.307 2.946 3.634v5.432l-3.14-.027zm9.255.18c-2.67 0-4.282-1.656-4.282-4.654 0-2.684 1.428-4.6 4.347-4.6 1.471-.044 2.839.736 3.518 2.005l-2.155 1.584c-.442-.77-.737-1.145-1.41-1.145-.671 0-1.196.778-1.196 2.183 0 1.405.432 2.13 1.289 2.13.59 0 1.013-.322 1.584-1.163l1.98 1.503c-1.06 1.557-2.054 2.148-3.665 2.148l-.01.009zm10.683-.18V49.51c0-1.164-.396-1.46-1.04-1.46-.645 0-1.06.305-1.06 1.433v5.074h-3.13V43.459l3.13-1.217v4.027a3.554 3.554 0 0 1 2.293-.779c2.008 0 2.947 1.307 2.947 3.634v5.432l-3.14-.01zM28.627 37.548v7.305h7.3v14.599h7.308V44.853h7.299v-7.305H28.627zm29.216 14.599v-7.295h-7.31v14.599h21.916v-7.305H57.843zm0-14.599h14.606v7.305H57.843v-7.305z"/>
        </g>
    </g>
</svg>
