<svg width="209" height="97" viewBox="0 0 209 97" xmlns="http://www.w3.org/2000/svg">
    <g fill="none" fill-rule="evenodd">
        <path d="M.477 0h208.155v97H.477z"/>
        <g fill="#848495" fill-rule="nonzero">
            <path d="M52.621 39.113v3.411h-.68c-.34-.114-.455.115-.455.34l-3.297 10.463-.796 2.388c0 .114-.228.227-.34.227h-5.235l-.114-.34-3.98-12.737c-.115-.34-.228-.34-.57-.34h-.68v-3.412h7.277v3.411h-1.477l2.388 9.439h.114l2.615-9.439h-1.477v-3.411h6.707zm11.485 4.548h4.89l.114 1.705c.34-.34.569-.68.796-.91 1.365-1.137 2.957-1.364 4.662-.795 1.252.454 1.82 1.478 1.82 2.844v6.028h1.023v3.412h-5.458v-7.62c0-.681-.228-1.024-.681-1.138-.569-.115-1.023 0-1.365.454l-.227.34-.114.34v4.208h.796v3.412h-6.255v-3.41h.91v-5.457h-.91V43.66zm29.792 3.297H93.1v-3.411h5.347v8.981h1.024v3.412h-5.004v-1.252c-.227.227-.34.454-.569.569-1.251 1.137-3.411 1.365-4.89.68-1.137-.569-1.704-1.478-1.704-2.728l-.114-5.686v-.454h-1.024v-3.41h5.457v7.277c0 .34 0 .68.114.91.115.454.57.68 1.024.68.454 0 .796-.228 1.023-.68.114-.115.114-.341.114-.57v-4.318zM63.31 50.597h-7.62c0 .68 0 1.365.34 1.932.227.455.796.681 1.252.681.456 0 1.023-.227 1.252-.796.114-.227.114-.455.227-.796h4.208c-.115 1.365-.68 2.501-1.82 3.297a5.741 5.741 0 0 1-2.615 1.023c-1.252.228-2.616.115-3.865-.227-1.705-.569-2.844-1.705-3.297-3.297a8.945 8.945 0 0 1 0-5.458c.68-2.161 2.272-3.412 4.548-3.753 1.023-.115 2.046-.115 3.07.227 2.272.68 3.524 2.16 3.98 4.548.227.909.227 1.705.34 2.615v.004zm-7.505-2.388h2.957c0-.68 0-1.252-.68-1.58-.57-.34-1.138-.34-1.58 0-.68.34-.68.909-.68 1.58h-.017zm66.748 2.388h-7.62c0 .68 0 1.365.34 1.932.34.568.796.681 1.365.681a1.398 1.398 0 0 0 1.25-.796l.228-.68h4.207c-.227 2.5-2.047 4.207-4.548 4.435-1.252.115-2.388.115-3.524-.34-1.705-.569-2.844-1.705-3.412-3.411a8.58 8.58 0 0 1 0-5.344c.68-2.273 2.388-3.412 4.662-3.753 1.024-.115 2.161-.115 3.185.227 2.16.68 3.297 2.16 3.753 4.207.114 1.024.114 1.933.114 2.844v-.002zm-7.39-2.388h2.957c0-1.252-.568-1.933-1.58-1.82-.909.115-1.477.796-1.364 1.82h-.013zM77.98 43.547h1.364v-2.389c0-.454.115-.568.57-.68l3.524-.796v3.865h1.932v3.411h-1.932v4.777c.114.796.68 1.137 1.365 1.023.114 0 .227 0 .454-.114v2.16c0 1.024 0 1.024-1.023 1.138-1.024.114-2.047.227-3.184 0-1.478-.34-2.161-1.252-2.161-2.728v-6.255h-1.024c.115-1.023.115-2.16.115-3.411v-.001zm22.4 12.394v-3.41h1.023v-5.457h-1.023v-3.416h4.776c0 .57.114 1.252.114 1.933.115-.114.115-.227.115-.34.34-1.024 1.137-1.58 2.16-1.706h1.58c.115 0 .228.115.228.228v3.753c-.569 0-1.252-.115-1.82 0-1.251.227-1.819.909-1.932 2.16v2.73h1.365v3.41l-6.596.115h.01zM132.784 39.226c.691.114 1.387.114 1.963.34 2.658.681 4.045 3.868 2.658 6.258-.346.57-.809.91-1.387 1.253-.23.114-.462.227-.809.455.116.114.231.114.346.114 1.849.57 2.658 1.934 2.773 3.64.23 2.504-1.387 4.324-3.928 4.551-.809.115-1.605.115-2.31.115h-7.972v-3.414h1.502V42.526h-1.502v-3.413l8.666.114v-.001zm-2.542 10.012v3.299c0 .114.116.227.231.227h1.964c.462 0 .923-.227 1.156-.68.578-1.025 0-2.39-1.156-2.618-.692-.227-1.387-.227-2.196-.227l.001-.001zm0-3.186c.692 0 1.272 0 1.964-.115.809-.114 1.272-.796 1.272-1.58 0-.785-.462-1.48-1.156-1.581-.694-.102-1.387-.115-2.08-.115v3.39zm42.29 1.138h-1.733c-.116 0-.231.114-.231.227v4.31c0 .91.578 1.366 1.605 1.138h.231v2.73c0 .228 0 .34-.23.34-1.273.228-2.542.341-3.928.115-1.502-.34-2.196-1.138-2.196-2.617v-6.372h-.462c-.691 0-.578.114-.578-.57v-2.845h1.387v-2.274c0-.796-.116-.68.692-.796l3.466-.797v3.867h2.08c-.116 1.253-.116 2.39-.116 3.527l.012.017zm-13.635 1.253v-1.139c0-.68-.462-1.138-1.04-1.138-.578 0-1.156.455-1.156 1.024v.455h-4.159c-.116-1.581.692-2.959 2.196-3.641 2.196-.91 4.508-.91 6.702.114 1.387.681 2.08 1.706 2.08 3.186v5.108h1.04v3.413h-5.187c0-.455-.116-.796-.116-1.365-.116.114-.231.227-.231.34-1.387 1.58-3.928 1.58-5.316.91-1.04-.57-1.501-1.581-1.605-2.73-.116-2.503 1.156-4.096 3.814-4.55l2.772-.228c-.116.227 0 .227.231.227l-.025.014zm0 2.162h-1.04c-1.04.114-1.501.91-1.386 1.82.116.797.808 1.253 1.605.91.462-.115.692-.455.809-.91l.012-1.82zm-7.395.114h-7.743c0 .796 0 1.479.462 2.048.346.455.809.569 1.387.569s.923-.34 1.156-.797l.23-.68h4.276c-.116 1.365-.692 2.502-1.849 3.299-1.387 1.024-2.89 1.252-4.507 1.138-.692 0-1.272-.114-1.964-.34-1.733-.455-2.772-1.582-3.35-3.187-.578-1.933-.692-3.867.116-5.803.809-2.048 2.426-3.186 4.62-3.413 1.04-.115 2.197 0 3.237.227 2.195.681 3.35 2.274 3.813 4.439l.116 2.502v-.002zm-4.507-2.274c0-.681-.116-1.366-.692-1.706-.575-.34-1.156-.34-1.733.114-.462.34-.578.91-.578 1.581l3.003.01z"/>
        </g>
    </g>
</svg>
