<?xml version="1.0" encoding="UTF-8"?>
<svg width="84px" height="84px" viewBox="0 0 84 84" version="1.1" xmlns="http://www.w3.org/2000/svg" xmlns:xlink="http://www.w3.org/1999/xlink">
    <title>05-1-03-underwriters@3x</title>
    <g id="-------Singularity-Platform" stroke="none" stroke-width="1" fill="none" fill-rule="evenodd">
        <g id="05-1-1-Singularity-Platform-1920" transform="translate(-1465.000000, -1349.000000)" fill-rule="nonzero">
            <g id="05-1-03-underwriters" transform="translate(1465.000000, 1349.000000)">
                <g id="подложка" fill="#E9EBF4">
                    <path d="M0,0 L84,0 L84,84 L19.0909091,84 C8.54729114,84 0,75.4527089 0,64.9090909 L0,0 Z" id="Path"></path>
                </g>
                <g id="shadow" transform="translate(11.454152, 19.090253)" fill="#2942D1" opacity="0.1">
                    <polygon id="Path" points="0 38.1818182 26.3732926 64.5551108 72.5455858 64.9094847 72.5455858 12.5828982 60.4837485 0.522373368 45.8179193 0 21.3529958 0"></polygon>
                </g>
                <g id="Слой_1" transform="translate(11.454152, 19.090843)">
                    <path d="M59.1820807,0 L1.90953716,0 C1.40320943,0 0.917614576,0.201112791 0.559586808,0.559140559 C0.201559039,0.917168328 0.000446248605,1.40276318 0.000446248605,1.90909091 L0.000446248605,36.2726091 L61.0911716,36.2726091 L61.0911716,1.90909091 C61.0911716,0.854741124 60.2364305,0 59.1820807,0 Z" id="Path" fill="#2942D1"></path>
                    <g id="Group" opacity="0.6" transform="translate(0.000446, 0.000000)" fill="#FFFFFF">
                        <path d="M59.1816344,0 L1.90909091,0 C1.40276318,0 0.917168328,0.201112791 0.559140559,0.559140559 C0.201112791,0.917168328 0,1.40276318 0,1.90909091 L0,36.2726091 L61.0907253,36.2726091 L61.0907253,1.90909091 C61.0907253,0.854741124 60.2359842,0 59.1816344,0 Z" id="Path"></path>
                    </g>
                    <polygon id="Path" fill="#2942D1" points="61.0914341 38.1812276 61.0914341 34.363177 41.9998688 34.363177 19.0915653 34.363177 0 34.363177 0 38.1812276 19.0915653 38.1812276 19.0915653 43.9089597 15.2735148 43.9089597 15.2735148 47.7270102 45.8179193 47.7270102 45.8179193 43.9089597 41.9998688 43.9089597 41.9998688 38.1812276"></polygon>
                    <rect id="Rectangle" fill="#2942D1" x="26.7277584" y="14.4803079" width="7.63593051" height="12.2469649"></rect>
                    <rect id="Rectangle" fill="#2942D1" x="15.2728979" y="19.0908566" width="7.63657364" height="7.63641614"></rect>
                    <rect id="Rectangle" fill="#2942D1" x="38.1819757" y="11.4544536" width="7.63657364" height="15.2728191"></rect>
                </g>
            </g>
        </g>
    </g>
</svg>