<?xml version="1.0" encoding="UTF-8"?>
<svg width="84px" height="84px" viewBox="0 0 84 84" version="1.1" xmlns="http://www.w3.org/2000/svg" xmlns:xlink="http://www.w3.org/1999/xlink">
    <title>05-1-02-brokers@3x</title>
    <g id="-------Singularity-Platform" stroke="none" stroke-width="1" fill="none" fill-rule="evenodd">
        <g id="05-1-1-Singularity-Platform-1920" transform="translate(-918.000000, -1349.000000)" fill-rule="nonzero">
            <g id="05-1-02-brokers" transform="translate(918.000000, 1349.000000)">
                <g id="подложка" fill="#E9EBF4" transform="translate(-0.000000, -0.000000)">
                    <path d="M0,0 L84,0 L84,84 L19.0909091,84 C8.54729114,84 0,75.4527089 0,64.9090909 L0,0 Z" id="Path"></path>
                </g>
                <g id="shadow" transform="translate(15.063476, 21.519643)" fill="#2942D1" opacity="0.1">
                    <polygon id="Path" points="68.9362221 62.4800547 68.9362221 28.3643489 40.5731857 0 12.1497745 16.6621354 18.1242559 22.6379293 22.2139931 27.5939138 15.2643273 31.9395877 0 47.2078525 15.0910778 62.2989303 45.7496695 62.4459299 45.7496695 62.4367424 53.8359568 62.4511798 53.8648317 62.4800547 56.6814479 62.4564298 67.4767266 62.4748048"></polygon>
                </g>
                <g id="Слой_1" transform="translate(15.063778, 14.548453)">
                    <path d="M12.1488558,23.6331818 C12.1488558,23.6331818 10.6279749,21.1645214 11.064301,15.9626801 L12.8915972,15.9626801 L12.8595329,7.22187743 C14.9565176,5.63706228 17.2805149,4.37755123 19.7531289,3.48583161 L19.7531289,0 C33.1806051,-0.000708747785 40.58992,6.97161071 40.58992,6.97161071 L40.58992,7.22187743 L40.557777,15.9627457 L42.3321402,15.9627457 C42.7684795,21.1645214 41.2475855,23.6332474 41.2475855,23.6332474 L39.6731023,23.6332474 C39.189815,30.367257 32.4821472,38.5430302 26.7246609,39.6433742 C20.9671614,38.5430302 14.2595067,30.367257 13.7762194,23.6332474 L12.1488558,23.6331818 Z" id="Path" fill="#2942D1"></path>
                    <g id="Group" opacity="0.6" transform="translate(10.985629, 0.000000)" fill="#FFFFFF">
                        <path d="M1.16322702,23.6331818 C1.16322702,23.6331818 -0.357653849,21.1645214 0.0786722873,15.9626801 L1.90596845,15.9626801 L1.87390418,7.22187743 C3.97088887,5.63706228 6.29488613,4.37755123 8.76750013,3.48583161 L8.76750013,0 C22.1949763,-0.000708747785 29.6042913,6.97161071 29.6042913,6.97161071 L29.6042913,7.22187743 L29.5721482,15.9627457 L31.3465115,15.9627457 C31.7828507,21.1645214 30.2619567,23.6332474 30.2619567,23.6332474 L28.6874735,23.6332474 C28.2041863,30.367257 21.4965185,38.5430302 15.7390321,39.6433742 C9.98153259,38.5430302 3.27387793,30.367257 2.79059069,23.6332474 L1.16322702,23.6331818 Z" id="Path"></path>
                    </g>
                    <path d="M15.2634348,38.910319 L0,48.4520067 L0,54.1792663 L25.7726288,54.1792663 C21.2593592,49.864309 17.6821341,44.6669112 15.2634348,38.910319 L15.2634348,38.910319 Z" id="Path" fill="#2942D1"></path>
                    <path d="M38.1858738,38.910319 L53.4493217,48.4520067 L53.4493217,54.1792663 L27.6766798,54.1792663 C32.1899494,49.864309 35.7671745,44.6669112 38.1858738,38.910319 L38.1858738,38.910319 Z" id="Path" fill="#2942D1"></path>
                    <polygon id="Path" fill="#2942D1" points="61.0898197 52.2706742 51.5453495 61.8151443 42.0008794 61.8151443 42.0008794 35.0914153 61.0898197 35.0914153"></polygon>
                    <g id="Group" opacity="0.6" transform="translate(42.000879, 35.091415)" fill="#FFFFFF">
                        <polygon id="Path" points="19.0889403 17.1792588 9.54447017 26.723729 0 26.723729 0 0 19.0889403 0"></polygon>
                    </g>
                    <polygon id="Path" fill="#2942D1" points="51.5453495 52.2706742 61.0898197 52.2706742 51.5453495 61.8151443"></polygon>
                    <path d="M40.5899857,6.97162384 C40.5899857,6.97162384 33.1805657,-0.000682497867 19.7531158,0.000118124631 L19.7531158,3.48579223 C17.316193,4.34960988 14.9995282,5.52102426 12.8593098,6.97162384 L12.8593098,15.9628376 L15.272491,15.9628376 L16.6574104,12.1786757 L36.7967019,12.1786757 L38.1816082,15.9628376 L40.572687,15.9628376 L40.572687,9.87941913 L40.5899857,7.22174618 L40.5899857,6.97162384 Z" id="Path" fill="#2942D1"></path>
                </g>
            </g>
        </g>
    </g>
</svg>