<?xml version="1.0" encoding="UTF-8"?>
<svg width="550px" height="420px" viewBox="0 0 550 420" version="1.1" xmlns="http://www.w3.org/2000/svg" xmlns:xlink="http://www.w3.org/1999/xlink">
    <title>Insurance Benefits</title>
    <defs>
        <linearGradient x1="100%" y1="50%" x2="0%" y2="50%" id="linearGradient-1">
            <stop stop-color="#A1AEE9" offset="0%"></stop>
            <stop stop-color="#A1AEE9" stop-opacity="0" offset="100%"></stop>
        </linearGradient>
        <linearGradient x1="100%" y1="50%" x2="0%" y2="50%" id="linearGradient-2">
            <stop stop-color="#A1AEE9" offset="0%"></stop>
            <stop stop-color="#A1AEE9" stop-opacity="0" offset="100%"></stop>
        </linearGradient>
    </defs>
    <g id="Insurance-Benefits" stroke="none" stroke-width="1" fill="none" fill-rule="evenodd">
        <rect fill="#000000" opacity="0" x="0" y="0" width="550" height="420"></rect>
        <g id="Group-11" transform="translate(74.000000, 20.000000)">
            <g id="Group-4" transform="translate(17.502153, 0.000000)">
                <circle id="Oval" fill="#FAFAFB" cx="182" cy="182" r="182"></circle>
                <circle id="Oval" fill="#F2F3F9" cx="182.5" cy="182.5" r="152.5"></circle>
                <ellipse id="Oval" fill="#EAECF6" cx="182.739437" cy="181.56338" rx="118.239437" ry="118.56338"></ellipse>
            </g>
            <g id="Group-2" transform="translate(0.000000, 21.000000)">
                <g id="Group-5" transform="translate(138.952719, 262.000000) rotate(-26.000000) translate(-138.952719, -262.000000) translate(36.651211, 204.000000)" fill="#2942D1">
                    <g id="Group-3" transform="translate(20.402010, 41.386935) rotate(90.000000) translate(-20.402010, -41.386935) translate(-20.984925, 20.984925)" fill-rule="nonzero">
                        <rect id="Rectangle" x="0" y="0.304020101" width="83" height="23"></rect>
                        <rect id="Rectangle" x="0" y="31.3040201" width="83" height="9"></rect>
                    </g>
                    <path d="M83.7911709,142.81407 L129.760011,142.81407 L133.819601,129.821933 C159.897193,112.298392 174.014424,99.2884623 176.171293,90.7921428 C178.205631,82.7784956 178.321201,53.1529818 176.518003,1.91560132 C176.331572,-3.38066911 171.98404,-7.57788945 166.68449,-7.57788945 C161.271435,-7.57788945 156.71201,-3.53319634 156.06666,1.84125144 L150.812165,45.6004575 L150.812165,45.6004575 L146.574401,74.9329786 C132.609749,89.5522805 124.655935,97.8107542 122.712957,99.7083999 C120.769979,101.606046 118.256804,101.606046 115.173431,99.7083999 L138.786246,75.5772179 C142.900876,71.3722594 142.827651,64.6278998 138.622693,60.5132691 C138.510134,60.4031285 138.395147,60.2954975 138.277817,60.1904555 C133.685262,56.078906 126.636228,56.4407559 122.488822,61.000956 L90.8896401,95.7452325 C84.5935087,102.668023 81.4289425,111.879719 82.1414457,121.210241 L83.7911709,142.81407 L83.7911709,142.81407 Z" id="Path-5" transform="translate(129.407035, 67.618090) rotate(90.000000) translate(-129.407035, -67.618090) "></path>
                </g>
                <g id="Слой_1" transform="translate(125.002153, 130.000000)">
                    <rect id="Rectangle" fill="#2942D1" fill-rule="nonzero" x="17.6470588" y="0" width="132.352941" height="70.4"></rect>
                    <rect id="Rectangle" fill="#2942D1" fill-rule="nonzero" x="0" y="17.6" width="132.352941" height="70.4"></rect>
                    <rect id="Rectangle" fill="#FFFFFF" fill-rule="nonzero" opacity="0.6" x="0" y="17.6" width="132.352941" height="70.4"></rect>
                    <line x1="66.1764706" y1="26.4" x2="66.1764706" y2="35.2" id="Path" stroke="#2942D1" stroke-width="4.28207307"></line>
                    <path d="M51.4517647,70.4 L69.7557,70.4 C74.6288007,70.4 78.5792294,66.4601058 78.5792294,61.6 C78.5792294,56.7398942 74.6288007,52.8 69.7557,52.8 L62.5972235,52.8 C57.7241228,52.8 53.7736941,48.8601058 53.7736941,44 C53.7736941,39.1398942 57.7241228,35.2 62.5972235,35.2 L78.6952941,35.2" id="Path" stroke="#2942D1" stroke-width="4.28207307"></path>
                    <line x1="66.1764706" y1="70.4" x2="66.1764706" y2="79.2" id="Path" stroke="#2942D1" stroke-width="4.28207307"></line>
                    <line x1="66.1764706" y1="26.4" x2="66.1764706" y2="35.2" id="Path" stroke="#2942D1" stroke-width="4.28207307"></line>
                </g>
                <g id="Group-6" transform="translate(164.002153, 0.000000)">
                    <path d="M49.8471603,14.4233288 L87.4233288,50.9233288 L49.9926386,87.4233288 L49.9536712,68.5403288 L-14.4233288,68.5409462 L-14.4233288,32.5409462 L49.8826712,32.5403288 L49.8471603,14.4233288 Z" id="Scheme-arrow-Copy" fill="url(#linearGradient-1)" transform="translate(36.500000, 50.923329) rotate(90.000000) translate(-36.500000, -50.923329) "></path>
                    <circle id="Oval" fill="#222222" cx="45.3823826" cy="31.5" r="2.5"></circle>
                    <circle id="Oval" fill="#222222" cx="29.7333246" cy="23.5" r="2.5"></circle>
                    <circle id="Oval" fill="#222222" cx="34.3823826" cy="48.5" r="2.5"></circle>
                </g>
                <path d="M60.117327,43 L90.002153,72 L60.2330277,101 L60.202153,85.997 L9.00215302,85.997559 L9.00215302,57.3948193 L60.146153,57.394 L60.117327,43 Z" id="Scheme-arrow-Copy" fill="url(#linearGradient-2)" transform="translate(49.502153, 72.000000) rotate(42.000000) translate(-49.502153, -72.000000) "></path>
                <path d="M362.115174,43 L392,72 L362.230875,101 L362.2,85.997 L311,85.997559 L311,57.3948193 L362.144,57.394 L362.115174,43 Z" id="Scheme-arrow-Copy" fill="url(#linearGradient-2)" transform="translate(351.500000, 72.000000) scale(-1, 1) rotate(42.000000) translate(-351.500000, -72.000000) "></path>
                <g id="Group-9" transform="translate(344.651211, 58.000000)" fill="#222222">
                    <circle id="Oval" cx="2.5" cy="17.5" r="2.5"></circle>
                    <circle id="Oval" cx="20.5" cy="2.5" r="2.5"></circle>
                </g>
                <g id="Group-7" transform="translate(30.651211, 46.000000)" fill="#222222">
                    <circle id="Oval" cx="2.5" cy="2.5" r="2.5"></circle>
                    <circle id="Oval" cx="4.5" cy="24.5" r="2.5"></circle>
                </g>
            </g>
        </g>
    </g>
</svg>