<?xml version="1.0" encoding="UTF-8"?>
<svg width="550px" height="420px" viewBox="0 0 550 420" version="1.1" xmlns="http://www.w3.org/2000/svg" xmlns:xlink="http://www.w3.org/1999/xlink">
    <title>Proprietary Coverage</title>
    <defs>
        <linearGradient x1="100%" y1="50%" x2="0%" y2="50%" id="linearGradient-1">
            <stop stop-color="#848495" offset="0%"></stop>
            <stop stop-color="#848495" stop-opacity="0" offset="100%"></stop>
        </linearGradient>
    </defs>
    <g id="Proprietary-Coverage" stroke="none" stroke-width="1" fill="none" fill-rule="evenodd">
        <rect fill="#000000" opacity="0" x="0" y="0" width="550" height="420"></rect>
        <g id="Group-4" transform="translate(78.000000, 13.000000)">
            <g id="Group-10">
                <g id="Group-8">
                    <circle id="Oval" fill="#FAFAFB" cx="197" cy="197" r="197"></circle>
                    <circle id="Oval" fill="#F2F3F9" cx="197" cy="197" r="162"></circle>
                    <ellipse id="Oval" fill="#EAECF6" cx="197.239437" cy="196.56338" rx="118.239437" ry="118.56338"></ellipse>
                    <circle id="Oval" fill="#E5E7F2" cx="196.577465" cy="196.577465" r="83.5774648"></circle>
                </g>
                <g id="Group-2" transform="translate(75.000000, 154.294914)">
                    <g id="Слой_1" transform="translate(0.000000, -0.294914)">
                        <path d="M236.375003,0 L7.62508864,0 C5.60280498,0 3.66334068,0.855186242 2.23337019,2.37750493 C0.803399702,3.89982362 9.14999666e-05,5.96453949 9.14999666e-05,8.11742322 L9.14999666e-05,154.231041 L244,154.231041 L244,8.11742322 C244,5.96454081 243.196686,3.89982744 241.766717,2.37750968 C240.336747,0.855191931 238.397285,0 236.375003,0 Z" id="Path" fill="#2942D1" fill-rule="nonzero"></path>
                        <g id="Group" opacity="0.6" transform="translate(0.000091, 0.000000)" fill="#FFFFFF" fill-rule="nonzero">
                            <path d="M236.374911,0 L7.62499714,0 C5.60271348,0 3.66324918,0.855186242 2.23327869,2.37750493 C0.803308202,3.89982362 0,5.96453949 0,8.11742322 L0,154.231041 L243.999909,154.231041 L243.999909,8.11742322 C243.999909,5.96454081 243.196595,3.89982744 241.766625,2.37750968 C240.336656,0.855191931 238.397194,0 236.374911,0 Z" id="Path"></path>
                        </g>
                        <line x1="182.999931" y1="192.239823" x2="60.9999771" y2="192.239823" id="Path" stroke="#2942D1" stroke-width="3.81818182" stroke-linejoin="round"></line>
                        <rect id="Rectangle" fill="#2942D1" fill-rule="nonzero" x="76.2499714" y="149.634563" width="91.4999657" height="42.60526"></rect>
                        <rect id="Rectangle" fill="#2942D1" fill-rule="nonzero" x="0" y="148.199054" width="243.999909" height="13.6336832"></rect>
                    </g>
                    <g id="Group-13" transform="translate(8.000000, 8.705086)">
                        <rect id="Rectangle" fill-opacity="0.19684222" fill="#FFFFFF" x="0" y="0" width="229" height="131"></rect>
                        <rect id="Rectangle" fill="#848495" opacity="0.59736101" x="61.2494123" y="18.1259477" width="112.584091" height="3.14656863"></rect>
                        <rect id="Rectangle" fill="#848495" opacity="0.59736101" x="61.2494123" y="25.6777124" width="61.780128" height="3.14656863"></rect>
                    </g>
                </g>
            </g>
            <g id="Group-3" transform="translate(129.592077, 112.497855)">
                <g id="Group-16" transform="translate(-0.592077, -0.497855)" fill="#2942D1" fill-rule="nonzero">
                    <path d="M0,78.5252525 L0,7.4663096 C0,7.4663096 39.5633776,0 67.5678504,0 L67.572327,0 L67.572327,78.5252525 L0,78.5252525 Z" id="Path"></path>
                    <path d="M0,79.3787879 C0,142.390543 67.4898289,168.961879 67.572327,169 L67.572327,79.3787879 L0,79.3787879 Z" id="Path"></path>
                    <path d="M136,78.5252525 L136,7.4663096 C136,7.4663096 96.4366386,0 68.4321858,0 L68.427673,0 L68.427673,78.5252525 L136,78.5252525 Z" id="Path"></path>
                    <path d="M136,79.3787879 C136,142.390543 68.5101711,168.961879 68.427673,169 L68.427673,79.3787879 L136,79.3787879 Z" id="Path"></path>
                </g>
                <path d="M67.6770787,159.502145 C85.7241349,150.415687 100.047549,139.898307 110.647322,127.950005 C121.247094,116.001703 126.500219,99.9374017 126.406696,79.7571009 L126.406696,16.2575743 C100.995651,11.7539548 81.5828326,9.50214502 68.168241,9.50214502 C54.7536495,9.50214502 35.1690421,11.7539548 9.41441875,16.2575743 L9.41441875,78.9041203 C9.19309731,94.8316903 14.6277325,110.470679 25.7183244,125.821087 C36.8089162,141.171495 50.7951677,152.398514 67.6770787,159.502145 Z" id="Path-4" fill="#FFFFFF"></path>
                <g id="Слой_1" transform="translate(36.407923, 38.502145)">
                    <path d="M46.5,30.9230691 L46.5,15.4615346 C46.5,6.92236481 39.5604136,0 31,0 C22.4395864,0 15.5,6.92236481 15.5,15.4615346 L15.5,30.9230691" id="Path" stroke="#2942D1" stroke-width="4.86666667"></path>
                    <path d="M31,20.6153624 C20.6034566,20.6107706 10.2278197,21.5445789 0,23.4053824 L0,64.209944 C10.2278189,66.0707571 20.6034557,67.0045774 31,67 C41.3965434,67.0045827 51.7721798,66.070771 62,64.2099698 L62,23.4053566 C51.7721794,21.5445625 41.3965425,20.6107628 31,20.6153624 Z" id="Path" fill="#2942D1" fill-rule="nonzero"></path>
                    <g id="Group" opacity="0.6" transform="translate(0.000000, 20.615362)" fill="#FFFFFF" fill-rule="nonzero">
                        <path d="M31,0 C20.6034566,-0.00459179073 10.2278197,0.929216535 0,2.79002002 L0,43.5945816 C10.2278189,45.4553947 20.6034557,46.3892151 31,46.3846376 C41.3965434,46.3892203 51.7721798,45.4554086 62,43.5946074 L62,2.78999425 C51.7721794,0.929200106 41.3965425,-0.00459958799 31,0 Z" id="Path"></path>
                    </g>
                    <line x1="31" y1="51.5384434" x2="31" y2="41.2307588" id="Path" stroke="#2942D1" stroke-width="4.86666667"></line>
                    <path d="M30.9999483,46.3846037 C28.1464886,46.3846037 25.8333695,44.0770789 25.8333695,41.2307004 C25.8333695,38.3843219 28.1466057,36.076914 31.0000654,36.076914 C33.8535252,36.076914 36.1667028,38.3843803 36.1667028,41.2307588 C36.1667028,42.5976586 35.6223471,43.9085725 34.6533901,44.8751084 C33.6844332,45.8416444 32.3702487,46.3846037 30.9999483,46.3846037 Z" id="Path" fill="#2942D1" fill-rule="nonzero"></path>
                </g>
            </g>
            <path d="M72.5553838,65.5862919 L93.5104128,85.8953775 L72.6390836,107.586292 L72.6168921,96.6892919 L24.6108921,96.6895496 L24.6108921,75.6895496 L72.5748921,75.6892919 L72.5553838,65.5862919 Z" id="Scheme-arrow-Copy" fill="url(#linearGradient-1)" transform="translate(59.060652, 86.586292) scale(-1, 1) rotate(128.000000) translate(-59.060652, -86.586292) "></path>
            <path d="M349.555384,65.5862919 L370.510413,85.8953775 L349.639084,107.586292 L349.616892,96.6892919 L301.610892,96.6895496 L301.610892,75.6895496 L349.574892,75.6892919 L349.555384,65.5862919 Z" id="Scheme-arrow-Copy" fill="url(#linearGradient-1)" transform="translate(336.060652, 86.586292) rotate(128.000000) translate(-336.060652, -86.586292) "></path>
        </g>
    </g>
</svg>