<?xml version="1.0" encoding="UTF-8"?><svg version="1.1" width="550px" height="420px" viewBox="0 0 550.0 420.0" xmlns="http://www.w3.org/2000/svg" xmlns:xlink="http://www.w3.org/1999/xlink"><defs><clipPath id="i0"><path d="M171,0 L171,161 L0,161 L0,0 L171,0 Z"></path></clipPath><clipPath id="i1"><path d="M172,0 L172,162 L0,162 L0,0 L172,0 Z"></path></clipPath><clipPath id="i2"><path d="M277.062396,0 C279.432777,0 281.70608,1.00362248 283.382192,2.79015981 C285.058304,4.57669715 285.999893,6.99977046 285.999893,9.52631579 L285.999893,181 L0,181 L0,9.52631579 C0,6.99976891 0.941582565,4.57669266 2.61769551,2.79015423 C4.29380846,1.0036158 6.56711499,0 8.93749665,0 Z"></path></clipPath><clipPath id="i3"><path d="M277.062396,0 C279.432776,0 281.70608,1.00362248 283.382192,2.79015981 C285.058304,4.57669715 285.999893,6.99977046 285.999893,9.52631579 L285.999893,181 L0,181 L0,9.52631579 C0,6.99976891 0.941582565,4.57669266 2.61769551,2.79015423 C4.29380846,1.0036158 6.56711499,0 8.93749665,0 Z"></path></clipPath><clipPath id="i4"><path d="M107.24996,0 L107.24996,50 L0,50 L0,0 L107.24996,0 Z"></path></clipPath><clipPath id="i5"><path d="M285.999893,0 L285.999893,16 L0,16 L0,0 L285.999893,0 Z"></path></clipPath><clipPath id="i6"><path d="M52,0 L52,153 L0,153 L0,0 L52,0 Z"></path></clipPath><clipPath id="i7"><path d="M29.7280832,0 L29.7280832,3.675 L0,3.675 L0,0 L29.7280832,0 Z"></path></clipPath><clipPath id="i8"><path d="M25.1343332,0 C27.6713913,-4.66050007e-16 29.7280832,2.05669193 29.7280832,4.59375 C29.7280832,7.13080807 27.6713913,9.1875 25.1343332,9.1875 L4.59375,9.1875 C2.05669193,9.1875 3.10700004e-16,7.13080807 0,4.59375 C-3.10700004e-16,2.05669193 2.05669193,1.35422843e-15 4.59375,0 L25.1343332,0 Z"></path></clipPath><clipPath id="i9"><path d="M210,0 L210,153 L0,153 L0,0 L210,0 Z"></path></clipPath><clipPath id="i10"><path d="M131.757801,0 L131.757801,3.675 L0,3.675 L0,0 L131.757801,0 Z"></path></clipPath><clipPath id="i11"><path d="M72.3016345,0 L72.3016345,3.675 L0,3.675 L0,0 L72.3016345,0 Z"></path></clipPath><clipPath id="i12"><path d="M6.7897474,0 C10.5396213,0 13.5794948,3.04390406 13.5794948,6.79875 C13.5794948,10.5535959 10.5396213,13.5975 6.7897474,13.5975 C3.03987346,13.5975 0,10.5535959 0,6.79875 C0,3.04390406 3.03987346,0 6.7897474,0 Z"></path></clipPath><clipPath id="i13"><path d="M111.572065,0 L111.572065,52 L14,52 C6.268013,52 0,45.731986 0,38 L0,0 L111.572065,0 Z"></path></clipPath><clipPath id="i14"><path d="M13.0022581,0 C14.1185637,2.39027207e-16 15.0235081,0.904944449 15.0235081,2.02125 C15.0235081,3.13755555 14.1185637,4.0425 13.0022581,4.0425 L2.02125,4.0425 C0.904944449,4.0425 -3.07381208e-16,3.13755555 0,2.02125 C3.07381208e-16,0.904944449 0.904944449,6.49151213e-16 2.02125,0 L13.0022581,0 Z"></path></clipPath><clipPath id="i15"><path d="M60.0940325,0 L60.0940325,2.695 L0,2.695 L0,0 L60.0940325,0 Z"></path></clipPath><clipPath id="i16"><path d="M13.0022581,0 C14.1185637,-6.49151213e-16 15.0235081,0.904944449 15.0235081,2.02125 C15.0235081,3.13755555 14.1185637,4.0425 13.0022581,4.0425 L2.02125,4.0425 C0.904944449,4.0425 1.36708002e-16,3.13755555 0,2.02125 C-1.36708002e-16,0.904944449 0.904944449,2.05062003e-16 2.02125,0 L13.0022581,0 Z"></path></clipPath><clipPath id="i17"><path d="M60.0940325,0 L60.0940325,2.695 L0,2.695 L0,0 L60.0940325,0 Z"></path></clipPath><clipPath id="i18"><path d="M1.57533432,0 C2.44536744,0 3.15066864,0.740409095 3.15066864,1.65375 C3.15066864,2.5670909 2.44536744,3.3075 1.57533432,3.3075 C0.705301199,3.3075 0,2.5670909 0,1.65375 C0,0.740409095 0.705301199,0 1.57533432,0 Z"></path></clipPath><clipPath id="i19"><path d="M17.5037147,0 L17.5037147,2.205 L0,2.205 L0,0 L17.5037147,0 Z"></path></clipPath><clipPath id="i20"><path d="M14.194,32.72 L35.9683189,82.9133093 C19.5712166,79.7370699 9.4388145,74.3623266 5.5711125,66.7890795 C3.3763295,62.4915316 3.3633522,59.9321149 3.48751364,57.4198958 L3.51114445,56.9632724 L3.5350666,56.5054306 C3.8448739,50.3620736 8.0177164,45.7491919 13.9572122,33.2357843 C14.0150608,33.1139082 14.0718656,32.992143 14.1276267,32.8704887 L14.194,32.72 Z M14.194,32.72 L0,0 C14.7878706,9.77018791 19.5517968,20.6054741 14.2917788,32.5058585 L14.194,32.72 Z"></path></clipPath><clipPath id="i21"><path d="M2,0 C3.1045695,0 4,0.894870709 4,1.99874967 C4,3.10262863 3.1045695,3.99749934 2,3.99749934 C0.8954305,3.99749934 0,3.10262863 0,1.99874967 C0,0.894870709 0.8954305,0 2,0 Z"></path></clipPath><clipPath id="i22"><path d="M26.9754829,0 C41.8736307,0 53.9509658,12.0970639 53.9509658,27.0195484 C53.9509658,41.9420329 41.8736307,54.0390968 26.9754829,54.0390968 C12.0773351,54.0390968 0,41.9420329 0,27.0195484 C0,12.0970639 12.0773351,0 26.9754829,0 Z M26.9754829,11.3620665 C18.3421972,11.3620665 11.3435364,18.3721599 11.3435364,27.0195484 C11.3435364,35.6669369 18.3421972,42.6770303 26.9754829,42.6770303 C35.6087686,42.6770303 42.6074294,35.6669369 42.6074294,27.0195484 C42.6074294,18.3721599 35.6087686,11.3620665 26.9754829,11.3620665 Z"></path></clipPath><clipPath id="i23"><path d="M0,0 L47.6450088,19.5405167 L27.0868126,55.4427096 L0,31.1146858 L0,0 Z"></path></clipPath><clipPath id="i24"><path d="M23.9535225,0 L50.7979873,22.0468482 L27.4158544,31.9321935 L0,27.2988725 L23.9535225,0 Z"></path></clipPath><clipPath id="i25"><path d="M30.4787924,0 L30.4787924,34.3885161 L0,29.1841344 L9.15959564,7.34915869 L30.4787924,0 Z"></path></clipPath><clipPath id="i26"><path d="M40.0044577,0 L40.0044577,11.3925 L0,11.3925 L0,0 L40.0044577,0 Z"></path></clipPath><clipPath id="i27"><path d="M1.57474343,0 C2.44445021,0 3.14948686,0.740409095 3.14948686,1.65375 C3.14948686,2.5670909 2.44445021,3.3075 1.57474343,3.3075 C0.705036649,3.3075 0,2.5670909 0,1.65375 C0,0.740409095 0.705036649,0 1.57474343,0 Z"></path></clipPath><clipPath id="i28"><path d="M24.1460659,0 L24.1460659,2.205 L0,2.205 L0,0 L24.1460659,0 Z"></path></clipPath></defs><g transform="translate(94.0 39.0)"><g transform="translate(182.0 0.0)"><g clip-path="url(#i0)"><polygon points="0,0 171,0 171,161 0,161 0,0" stroke="none" fill="#FAFAFB"></polygon></g></g><g transform="translate(0.0 172.0)"><g clip-path="url(#i0)"><polygon points="0,0 171,0 171,161 0,161 0,0" stroke="none" fill="#FAFAFB"></polygon></g></g><g transform="translate(0.6008230449999985 0.0)"><g clip-path="url(#i1)"><polygon points="0,0 172,0 172,162 0,162 0,0" stroke="none" fill="#F2F3F9"></polygon></g></g><g transform="translate(180.600823 171.0)"><g clip-path="url(#i1)"><polygon points="0,0 172,0 172,162 0,162 0,0" stroke="none" fill="#F2F3F9"></polygon></g></g><g transform="translate(38.0 59.0)"><g transform="translate(0.00010724996099042983 0.0)"><g clip-path="url(#i2)"><polygon points="0,0 285.999893,0 285.999893,181 0,181 0,0" stroke="none" fill="#2841D1"></polygon></g></g><g transform="translate(0.00010700000001406806 0.0)"><g clip-path="url(#i3)"><polygon points="0,0 285.999893,0 285.999893,181 0,181 0,0" stroke="none" fill="#FFFFFF" opacity="60%"></polygon></g></g><g transform="translate(71.49997319999999 225.10573799999997)"><path d="M142.999947,0.5 L0,0.5" stroke="#2841D1" stroke-width="3.81818182" fill="none" stroke-linejoin="round"></path></g><g transform="translate(89.3749665 175.60573799999997)"><g clip-path="url(#i4)"><polygon points="0,0 107.24996,0 107.24996,50 0,50 0,0" stroke="none" fill="#2841D1"></polygon></g></g><g transform="translate(0.0 173.92107599999997)"><g clip-path="url(#i5)"><polygon points="0,0 285.999893,0 285.999893,16 0,16 0,0" stroke="none" fill="#2841D1"></polygon></g></g><g transform="translate(9.105498000000011 9.497855000000001)"><g transform="translate(0.0 0.13750000000000284)"><g clip-path="url(#i6)"><polygon points="0,0 52,0 52,153 0,153 0,0" stroke="none" fill="#FFFFFF"></polygon></g></g><g transform="translate(11.3997028 44.21999999999999)"><g clip-path="url(#i7)"><polygon points="0,0 29.7280832,0 29.7280832,3.675 0,3.675 0,0" stroke="none" fill="#838395" opacity="59.736101%"></polygon></g></g><g transform="translate(11.3997028 57.082499999999996)"><g clip-path="url(#i7)"><polygon points="0,0 29.7280832,0 29.7280832,3.675 0,3.675 0,0" stroke="none" fill="#838395" opacity="59.736101%"></polygon></g></g><g transform="translate(11.3997028 69.94499999999998)"><g clip-path="url(#i7)"><polygon points="0,0 29.7280832,0 29.7280832,3.675 0,3.675 0,0" stroke="none" fill="#838395" opacity="59.736101%"></polygon></g></g><g transform="translate(11.3997028 82.80749999999999)"><g clip-path="url(#i7)"><polygon points="0,0 29.7280832,0 29.7280832,3.675 0,3.675 0,0" stroke="none" fill="#838395" opacity="59.736101%"></polygon></g></g><g transform="translate(11.3997028 95.66999999999999)"><g clip-path="url(#i7)"><polygon points="0,0 29.7280832,0 29.7280832,3.675 0,3.675 0,0" stroke="none" fill="#838395" opacity="59.736101%"></polygon></g></g><g transform="translate(11.3997028 119.92499999999997)"><g clip-path="url(#i8)"><polygon points="0,0 29.7280832,0 29.7280832,9.1875 0,9.1875 0,0" stroke="none" fill="#222222"></polygon></g></g><g transform="translate(57.505200599999995 0.0)"><g clip-path="url(#i9)"><polygon points="0,0 210,0 210,153 0,153 0,0" stroke="none" fill="#FFFFFF"></polygon></g></g><g transform="translate(72.1857355 22.169999999999998)"><g clip-path="url(#i10)"><polygon points="0,0 131.757801,0 131.757801,3.675 0,3.675 0,0" stroke="none" fill="#838395" opacity="59.736101%"></polygon></g></g><g transform="translate(72.18573550000002 30.989999999999995)"><g clip-path="url(#i11)"><polygon points="0,0 72.3016345,0 72.3016345,3.675 0,3.675 0,0" stroke="none" fill="#838395" opacity="59.736101%"></polygon></g></g><g transform="translate(19.841010400000002 18.494999999999994)"><g clip-path="url(#i12)"><polygon points="0,0 13.5794948,0 13.5794948,13.5975 0,13.5975 0,0" stroke="none" fill="#838395" opacity="59.736101%"></polygon></g></g><g transform="translate(146.32243700000004 94.19999999999999)"><g clip-path="url(#i13)"><polygon points="0,0 111.572065,0 111.572065,52 0,52 0,0" stroke="none" fill="#2841D1"></polygon></g></g><g transform="translate(162.471025 111.10499999999998)"><g transform="translate(64.98540720000001 0.0)"><g clip-path="url(#i14)"><polygon points="0,0 15.0235081,0 15.0235081,4.0425 0,4.0425 0,0" stroke="none" fill="#FFFFFF"></polygon></g></g><g transform="translate(0.0 0.6737500000000003)"><g clip-path="url(#i15)"><polygon points="0,0 60.0940325,0 60.0940325,2.695 0,2.695 0,0" stroke="none" fill="#FFFFFF" opacity="60%"></polygon></g></g></g><g transform="translate(162.471025 122.12999999999998)"><g transform="translate(64.98540720000001 0.0)"><g clip-path="url(#i14)"><polygon points="0,0 15.0235081,0 15.0235081,4.0425 0,4.0425 0,0" stroke="none" fill="#FFFFFF"></polygon></g></g><g transform="translate(0.0 0.6737500000000003)"><g clip-path="url(#i15)"><polygon points="0,0 60.0940325,0 60.0940325,2.695 0,2.695 0,0" stroke="none" fill="#FFFFFF" opacity="60%"></polygon></g></g></g><g transform="translate(162.471025 132.78749999999997)"><g transform="translate(64.98540720000001 0.0)"><g clip-path="url(#i16)"><polygon points="0,0 15.0235081,0 15.0235081,4.0425 0,4.0425 0,0" stroke="none" fill="#FFFFFF"></polygon></g></g><g transform="translate(0.0 0.6737499999999981)"><g clip-path="url(#i17)"><polygon points="0,0 60.0940325,0 60.0940325,2.695 0,2.695 0,0" stroke="none" fill="#FFFFFF" opacity="60%"></polygon></g></g></g><g transform="translate(72.185736 112.57499999999997)"><g clip-path="url(#i18)"><polygon points="0,0 3.15066864,0 3.15066864,3.3075 0,3.3075 0,0" stroke="none" fill="#838395" opacity="60%"></polygon></g><g transform="translate(5.25111441 0.7350000000000008)"><g clip-path="url(#i19)"><polygon points="0,0 17.5037147,0 17.5037147,2.205 0,2.205 0,0" stroke="none" fill="#838395" opacity="59.736101%"></polygon></g></g></g><g transform="translate(72.185736 121.02749999999997)"><g clip-path="url(#i18)"><polygon points="0,0 3.15066864,0 3.15066864,3.3075 0,3.3075 0,0" stroke="none" fill="#222222"></polygon></g><g transform="translate(5.25111441 0.7350000000000008)"><g clip-path="url(#i19)"><polygon points="0,0 17.5037147,0 17.5037147,2.205 0,2.205 0,0" stroke="none" fill="#838395" opacity="59.736101%"></polygon></g></g></g><g transform="translate(101.546805 112.57499999999997)"><g clip-path="url(#i18)"><polygon points="0,0 3.15066864,0 3.15066864,3.3075 0,3.3075 0,0" stroke="none" fill="#838395" opacity="28.3959%"></polygon></g><g transform="translate(5.25111441 0.7350000000000008)"><g clip-path="url(#i19)"><polygon points="0,0 17.5037147,0 17.5037147,2.205 0,2.205 0,0" stroke="none" fill="#838395" opacity="59.736101%"></polygon></g></g></g><g transform="translate(101.546805 121.02749999999997)"><g clip-path="url(#i18)"><polygon points="0,0 3.15066864,0 3.15066864,3.3075 0,3.3075 0,0" stroke="none" fill="#F2F2F2"></polygon></g><g transform="translate(5.25111441 0.7350000000000008)"><g clip-path="url(#i19)"><polygon points="0,0 17.5037147,0 17.5037147,2.205 0,2.205 0,0" stroke="none" fill="#838395" opacity="59.736101%"></polygon></g></g></g><g transform="translate(147.1378519 49.06562220000001)"><g transform="translate(82.9133093 -7.105427357601002e-15) rotate(90.0)"><g clip-path="url(#i20)"><polygon points="0,0 35.9683189,0 35.9683189,82.9133093 0,82.9133093 0,0" stroke="none" fill="#838395" opacity="10.9170603%"></polygon></g></g><g transform="translate(82.9133093 -7.105427357601002e-15) rotate(90.0)"><path d="M0,0 C15.0896639,9.9695795 19.7420679,21.0481742 13.9572122,33.2357843 C8.0177164,45.7491919 3.8448739,50.3620736 3.5350666,56.5054306 C3.3922621,59.3371875 3.1102952,61.9706167 5.5711125,66.7890795 C9.4388145,74.3623266 19.5712166,79.7370699 35.9683189,82.9133093" stroke="#222222" stroke-width="2" fill="none" stroke-miterlimit="10"></path></g><g transform="translate(1.3689652900000087 21.163756429999992)"><g clip-path="url(#i21)"><polygon points="0,0 4,0 4,3.99749934 0,3.99749934 0,0" stroke="none" fill="#222222"></polygon></g></g><g transform="translate(15.661401700000013 2.9359382399999965)"><g clip-path="url(#i21)"><polygon points="0,0 4,0 4,3.99749934 0,3.99749934 0,0" stroke="none" fill="#222222"></polygon></g></g><g transform="translate(40.202418500000014 8.377676829999995)"><g clip-path="url(#i21)"><polygon points="0,0 4,0 4,3.99749934 0,3.99749934 0,0" stroke="none" fill="#222222"></polygon></g></g><g transform="translate(61.34331640000002 14.079464629999993)"><g clip-path="url(#i21)"><polygon points="0,0 4,0 4,3.99749934 0,3.99749934 0,0" stroke="none" fill="#222222"></polygon></g></g></g><g transform="translate(71.81954099999999 49.505703)"><g clip-path="url(#i22)"><polygon points="0,0 53.9509658,0 53.9509658,54.0390968 0,54.0390968 0,0" stroke="none" fill="#F2F2F2"></polygon></g><g clip-path="url(#i22)"><g transform="translate(26.274820999999992 -4.561741939999997)"><g clip-path="url(#i23)"><polygon points="0,4.56174194 27.6761448,4.56174194 27.6761448,55.4427096 0,55.4427096 0,4.56174194" stroke="none" fill="#838395" opacity="60%"></polygon></g></g></g><g clip-path="url(#i22)"><g transform="translate(2.4523166299999986 27.019548399999994)"><g clip-path="url(#i24)"><polygon points="0,0 50.7979873,0 50.7979873,27.0195484 0,27.0195484 0,0" stroke="none" fill="#222222"></polygon></g></g></g><g clip-path="url(#i22)"><g transform="translate(-4.203971359999999 -7.018064519999999)"><g clip-path="url(#i25)"><polygon points="4.20397136,7.01806452 30.4787924,7.01806452 30.4787924,34.3885161 4.20397136,34.3885161 4.20397136,7.01806452" stroke="none" fill="#838395" opacity="28.3959%"></polygon></g></g></g></g><g transform="translate(217.890045 39.809999999999995)"><g clip-path="url(#i26)"><polygon points="0,0 40.0044577,0 40.0044577,11.3925 0,11.3925 0,0" stroke="none" fill="#2841D1"></polygon></g></g><g transform="translate(223.028232 43.852499999999985)"><g clip-path="url(#i27)"><polygon points="0,0 3.14948686,0 3.14948686,3.3075 0,3.3075 0,0" stroke="none" fill="#FFFFFF"></polygon></g><g transform="translate(5.949030719999998 0.7349999999999992)"><g clip-path="url(#i28)"><polygon points="0,0 24.1460659,0 24.1460659,2.205 0,2.205 0,0" stroke="none" fill="#A1AEE9" opacity="59.736101%"></polygon></g></g></g></g></g></g></svg>