<?xml version="1.0" encoding="UTF-8"?>
<svg width="84px" height="84px" viewBox="0 0 84 84" version="1.1" xmlns="http://www.w3.org/2000/svg" xmlns:xlink="http://www.w3.org/1999/xlink">
    <title>03-1-02-safety@3x</title>
    <g id="-------Industries" stroke="none" stroke-width="1" fill="none" fill-rule="evenodd">
        <g id="03-1-1-Industries-1920" transform="translate(-914.000000, -4098.000000)" fill-rule="nonzero">
            <g id="03-1-02-safety" transform="translate(914.000000, 4098.000000)">
                <g id="bg" fill="#DEE2F8">
                    <path d="M2.47013982e-15,0 L83.7610976,0 L83.7610976,84 L19.0366072,84 C8.52297933,84 2.47013982e-15,75.4527115 2.47013982e-15,64.9090969 L2.47013982e-15,0 Z" id="Path"></path>
                </g>
                <g id="shadow" transform="translate(19.036725, 32.613000)" fill="#2942D1" opacity="0.1">
                    <polygon id="Path" points="0 30.2295 21.0345056 51.324 64.9632751 51.387 64.9632751 19.3305 45.6877525 0"></polygon>
                </g>
                <g id="Слой_1" transform="translate(19.036607, 13.745406)">
                    <path d="M35.7887874,24.4363612 L32.7429198,24.4363612 L32.7429198,12.9818194 C32.7469894,9.43242821 30.8611341,6.15090802 27.79669,4.37503325 C24.7322458,2.59915848 20.9555197,2.59915848 17.8910756,4.37503325 C14.8266314,6.15090802 12.9407761,9.43242821 12.9448457,12.9818194 L12.9448457,24.4363612 L9.89899122,24.4363612 L9.89899122,12.9818194 C9.89899122,5.81215851 15.6946195,0 22.8438893,0 C29.9931591,0 35.7887874,5.81215851 35.7887874,12.9818194 L35.7887874,24.4363612 Z" id="Path" fill="#2942D1"></path>
                    <path d="M22.8439417,16.8000399 C15.1827147,16.7966341 7.53689348,17.4884385 0,18.8670037 L0,49.0967137 C7.53689356,50.4752813 15.1827142,51.1670944 22.8439417,51.1637038 C30.5051644,51.1670982 38.1509806,50.4752894 45.6878703,49.0967269 L45.6878703,18.8669775 C38.1509794,17.4884282 30.5051632,16.7966326 22.8439417,16.8000399 L22.8439417,16.8000399 Z" id="Path" fill="#2942D1"></path>
                    <g id="Group" opacity="0.6" transform="translate(0.000000, 16.800040)" fill="#FFFFFF">
                        <path d="M22.8439417,0 C15.1827147,-0.00340574953 7.53689348,0.688398664 0,2.06696387 L0,32.2966739 C7.53689356,33.6752414 15.1827142,34.3670545 22.8439417,34.3636639 C30.5051644,34.3670583 38.1509806,33.6752495 45.6878703,32.296687 L45.6878703,2.06693762 C38.1509794,0.688388272 30.5051632,-0.00340730072 22.8439417,0 L22.8439417,0 Z" id="Path"></path>
                    </g>
                    <path d="M26.6512909,32.0726569 C26.6530479,30.1652146 25.2508668,28.5490832 23.3668751,28.2870939 C21.4828834,28.0251046 19.6951111,29.1976387 19.1792672,31.033592 C18.6634233,32.8695452 19.5777746,34.8056262 21.3210079,35.5685925 L21.3210079,39.7089262 L24.3668624,39.7089262 L24.3668624,35.568645 C25.7536788,34.962413 26.6505938,33.5898132 26.6512909,32.0726569 Z" id="Path" fill="#2942D1"></path>
                </g>
            </g>
        </g>
    </g>
</svg>