<?xml version="1.0" encoding="UTF-8"?>
<svg width="860px" height="860px" viewBox="0 0 860 860" version="1.1" xmlns="http://www.w3.org/2000/svg" xmlns:xlink="http://www.w3.org/1999/xlink">
    <title>Scheme 02</title>
    <defs>
        <rect id="path-1" x="0" y="0" width="852" height="852"></rect>
        <linearGradient x1="25.2358966%" y1="5.26076911%" x2="53.1873847%" y2="31.379669%" id="linearGradient-3">
            <stop stop-color="#EEF0FA" offset="0%"></stop>
            <stop stop-color="#EAECF9" offset="14.4024377%"></stop>
            <stop stop-color="#D9DDF3" offset="100%"></stop>
        </linearGradient>
        <linearGradient x1="25.1403345%" y1="5.26076911%" x2="53.1996845%" y2="31.379669%" id="linearGradient-4">
            <stop stop-color="#EEF0FA" offset="0%"></stop>
            <stop stop-color="#EAECF9" offset="14.4024377%"></stop>
            <stop stop-color="#D9DDF3" offset="100%"></stop>
        </linearGradient>
        <circle id="path-5" cx="104.335" cy="104.335" r="104.335"></circle>
        <linearGradient x1="27.9592176%" y1="17.3032927%" x2="90.6587801%" y2="75.9876492%" id="linearGradient-7">
            <stop stop-color="#5377EA" offset="0%"></stop>
            <stop stop-color="#2942D1" stop-opacity="0" offset="100%"></stop>
        </linearGradient>
        <circle id="path-8" cx="104.335" cy="104.335" r="104.335"></circle>
        <linearGradient x1="31.2433607%" y1="15.5973372%" x2="84.6004993%" y2="77.3435586%" id="linearGradient-10">
            <stop stop-color="#5377EA" offset="0%"></stop>
            <stop stop-color="#2942D1" stop-opacity="0" offset="100%"></stop>
        </linearGradient>
        <circle id="path-11" cx="104.335" cy="104.335" r="104.335"></circle>
        <linearGradient x1="27.9592176%" y1="19.1737497%" x2="90.6587801%" y2="74.5009924%" id="linearGradient-13">
            <stop stop-color="#5377EA" offset="0%"></stop>
            <stop stop-color="#2942D1" stop-opacity="0" offset="100%"></stop>
        </linearGradient>
    </defs>
    <g id="Scheme-02" stroke="none" stroke-width="1" fill="none" fill-rule="evenodd">
        <rect fill="#000000" opacity="0" x="0" y="0" width="860" height="860"></rect>
        <g id="Data-Sharing-Disabled" transform="translate(4.000000, 4.000000)">
            <mask id="mask-2" fill="white">
                <use xlink:href="#path-1"></use>
            </mask>
            <g id="Mask"></g>
            <g id="Group-28" mask="url(#mask-2)">
                <g transform="translate(-39.956676, 20.000000)">
                    <g id="Group-53" stroke-width="1" fill="none" transform="translate(0.000000, 69.657852)">
                        <path d="M606.121285,11.3421482 C733.630308,58.2365131 822.448743,175.907645 832.123688,312.153629 L868.956676,312.154586 L815.675747,375.342148 L762.394818,312.154586 L799.669579,312.153507 C790.16533,190.9114 711.525463,86.2375016 598.621157,43.1114113 L594.956676,41.7377656 L606.121285,11.3421482 Z" id="Combined-Shape-Copy-3" fill="url(#linearGradient-3)" fill-rule="nonzero"></path>
                        <path d="M367.139297,457.342148 C494.854124,504.221837 583.815888,621.856191 593.506342,758.059561 L630.398736,758.060243 L577.031846,821.227988 L523.664955,758.060243 L560.999907,758.059834 C551.480562,636.855468 472.713739,532.214092 359.627069,489.101448 L355.956676,487.728233 L367.139297,457.342148 Z" id="Combined-Shape-Copy-3" fill="url(#linearGradient-4)" fill-rule="nonzero" transform="translate(493.177706, 639.285068) rotate(120.000000) translate(-493.177706, -639.285068) "></path>
                        <path d="M100.139297,27.865438 C227.854124,74.7451271 316.815888,192.379481 326.506342,328.582851 L363.398736,328.583533 L310.031846,391.751278 L256.664955,328.583533 L293.999907,328.583124 C284.480562,207.378757 205.713739,102.737382 92.6270694,59.6247374 L88.9566756,58.2515225 L100.139297,27.865438 Z" id="Combined-Shape-Copy-3" fill="url(#linearGradient-4)" fill-rule="nonzero" transform="translate(226.177706, 209.808358) rotate(240.000000) translate(-226.177706, -209.808358) "></path>
                    </g>
                    <circle id="Oval-Copy" fill="#222222" opacity="0.08" cx="479.487133" cy="105" r="105"></circle>
                    <circle id="Oval-Copy-2" fill="#222222" opacity="0.08" transform="translate(752.285136, 577.500000) rotate(120.000000) translate(-752.285136, -577.500000) " cx="752.285136" cy="577.5" r="105"></circle>
                    <circle id="Oval-Copy-3" fill="#222222" opacity="0.08" transform="translate(206.689131, 577.500000) rotate(240.000000) translate(-206.689131, -577.500000) " cx="206.689131" cy="577.5" r="105"></circle>
                    <g id="Ico/Autonomy" stroke-width="1" fill="none" transform="translate(375.487133, 1.000000)">
                        <mask id="mask-6" fill="white">
                            <use xlink:href="#path-5"></use>
                        </mask>
                        <use id="Mask" fill="#E2E4F5" xlink:href="#path-5"></use>
                        <g id="02-2-13-autonomy-developers-and-fleets" mask="url(#mask-6)" fill-rule="nonzero">
                            <g transform="translate(70.469542, 32.000000)">
                                <polygon id="Path" fill="url(#linearGradient-7)" opacity="0.1" points="114.386266 160.675889 129.386266 128.12 138.530458 93.523043 64.061588 25.6238178 0 54.9083062"></polygon>
                                <polygon id="Path" fill="#6A7BDF" points="54.908809 51.2481384 54.908809 27.5349067 9.15277893 27.5349067 9.15277893 51.2481384 0 51.2481384 0 54.9083062 9.15277893 54.9083062 54.908809 54.9083062 64.061588 54.9083062 64.061588 51.2481384"></polygon>
                                <polygon id="Path" fill="#A9B3ED" points="25.2090717 51.2481384 26.6718805 45.7571002 16.6036663 27.4546882 2.28858796 27.4546882 2.28858796 34.3188792 0 38.8944822 0 51.2481384"></polygon>
                                <polygon id="Path" fill="#A9B3ED" points="39.0444117 51.2481384 37.5816029 45.7571002 47.649817 27.4546882 61.9648953 27.4546882 61.9648953 34.3188792 64.2534833 38.8944822 64.2534833 51.2481384"></polygon>
                                <path d="M32.030794,9.15148968 C30.1699753,9.15227119 28.4019809,9.96435421 27.1889598,11.3754624 L29.7685366,14.0051837 C30.2794969,13.2585355 31.1259701,12.8121025 32.0307153,12.8121025 C32.9354605,12.8121025 33.7819338,13.2585355 34.2928941,14.0051837 L36.8725653,11.3755882 C35.6596221,9.96439659 33.8916251,9.15225588 32.030794,9.15148968 Z" id="Path" fill="#2942D1"></path>
                                <path d="M32.030794,0 C27.7737523,-0.00110999107 23.7033708,1.74751458 20.7736309,4.83604643 L23.3366607,7.44865441 C25.5826127,5.03294838 28.7323821,3.66059431 32.0308569,3.66059431 C35.3293317,3.66059431 38.4791011,5.03294838 40.7250531,7.44865441 L43.2879571,4.83604643 C40.3582248,1.7475037 36.2878383,-0.00112298327 32.030794,0 L32.030794,0 Z" id="Path" fill="#2942D1"></path>
                                <path d="M59.5826562,25.9279719 L59.5826562,27.4562611 L4.67370557,27.4562611 L4.67370557,25.9279248 C22.6196651,20.81535 41.6366967,20.81535 59.5826562,25.9279248 L59.5826562,25.9279719 Z" id="Path" fill="#A9B3ED"></path>
                                <rect id="Rectangle" fill="#2942D1" x="0.000566248567" y="25.6241796" width="64.0604397" height="3.66059251"></rect>
                                <circle id="Oval" fill="#2942D1" cx="11.4399355" cy="52.9120756" r="6.86362472"></circle>
                                <circle id="Oval" fill="#2942D1" cx="52.6216524" cy="52.9120756" r="6.86362472"></circle>
                            </g>
                        </g>
                    </g>
                    <g id="Autonomy-Developers" stroke-width="1" fill="none" transform="translate(401.712942, 124.200000)">
                        <path d="M6.44,8.372 L2.366,8.372 L1.666,10.36 L0,10.36 L3.486,0.616 L5.334,0.616 L8.82,10.36 L7.14,10.36 L6.44,8.372 Z M5.992,7.07 L4.41,2.548 L2.814,7.07 L5.992,7.07 Z" id="Shape" fill="#222222" fill-rule="nonzero"></path>
                        <path d="M17.318,2.646 L17.318,10.36 L15.722,10.36 L15.722,9.45 C15.47,9.76733333 15.141,10.017 14.735,10.199 C14.329,10.381 13.8973333,10.472 13.44,10.472 C12.8333333,10.472 12.2896667,10.346 11.809,10.094 C11.3283333,9.842 10.9503333,9.46866667 10.675,8.974 C10.3996667,8.47933333 10.262,7.882 10.262,7.182 L10.262,2.646 L11.844,2.646 L11.844,6.944 C11.844,7.63466667 12.0166667,8.16433333 12.362,8.533 C12.7073333,8.90166667 13.1786667,9.086 13.776,9.086 C14.3733333,9.086 14.847,8.90166667 15.197,8.533 C15.547,8.16433333 15.722,7.63466667 15.722,6.944 L15.722,2.646 L17.318,2.646 Z" id="Path" fill="#222222" fill-rule="nonzero"></path>
                        <path d="M21.28,3.948 L21.28,8.218 C21.28,8.50733333 21.3476667,8.715 21.483,8.841 C21.6183333,8.967 21.8493333,9.03 22.176,9.03 L23.156,9.03 L23.156,10.36 L21.896,10.36 C21.1773333,10.36 20.6266667,10.192 20.244,9.856 C19.8613333,9.52 19.67,8.974 19.67,8.218 L19.67,3.948 L18.76,3.948 L18.76,2.646 L19.67,2.646 L19.67,0.728 L21.28,0.728 L21.28,2.646 L23.156,2.646 L23.156,3.948 L21.28,3.948 Z" id="Path" fill="#222222" fill-rule="nonzero"></path>
                        <path d="M27.972,10.486 C27.244,10.486 26.586,10.3203333 25.998,9.989 C25.41,9.65766667 24.948,9.191 24.612,8.589 C24.276,7.987 24.108,7.28933333 24.108,6.496 C24.108,5.712 24.2806667,5.01666667 24.626,4.41 C24.9713333,3.80333333 25.4426667,3.33666667 26.04,3.01 C26.6373333,2.68333333 27.3046667,2.52 28.042,2.52 C28.7793333,2.52 29.4466667,2.68333333 30.044,3.01 C30.6413333,3.33666667 31.1126667,3.80333333 31.458,4.41 C31.8033333,5.01666667 31.976,5.712 31.976,6.496 C31.976,7.28 31.7986667,7.97533333 31.444,8.582 C31.0893333,9.18866667 30.6063333,9.65766667 29.995,9.989 C29.3836667,10.3203333 28.7093333,10.486 27.972,10.486 Z M27.972,9.1 C28.3826667,9.1 28.7676667,9.002 29.127,8.806 C29.4863333,8.61 29.778,8.316 30.002,7.924 C30.226,7.532 30.338,7.056 30.338,6.496 C30.338,5.936 30.2306667,5.46233333 30.016,5.075 C29.8013333,4.68766667 29.5166667,4.396 29.162,4.2 C28.8073333,4.004 28.4246667,3.906 28.014,3.906 C27.6033333,3.906 27.223,4.004 26.873,4.2 C26.523,4.396 26.2453333,4.68766667 26.04,5.075 C25.8346667,5.46233333 25.732,5.936 25.732,6.496 C25.732,7.32666667 25.9443333,7.96833333 26.369,8.421 C26.7936667,8.87366667 27.328,9.1 27.972,9.1 Z" id="Shape" fill="#222222" fill-rule="nonzero"></path>
                        <path d="M37.45,2.52 C38.0566667,2.52 38.6003333,2.646 39.081,2.898 C39.5616667,3.15 39.9373333,3.52333333 40.208,4.018 C40.4786667,4.51266667 40.614,5.11 40.614,5.81 L40.614,10.36 L39.032,10.36 L39.032,6.048 C39.032,5.35733333 38.8593333,4.82766667 38.514,4.459 C38.1686667,4.09033333 37.6973333,3.906 37.1,3.906 C36.5026667,3.906 36.029,4.09033333 35.679,4.459 C35.329,4.82766667 35.154,5.35733333 35.154,6.048 L35.154,10.36 L33.558,10.36 L33.558,2.646 L35.154,2.646 L35.154,3.528 C35.4153333,3.21066667 35.749,2.96333333 36.155,2.786 C36.561,2.60866667 36.9926667,2.52 37.45,2.52 Z" id="Path" fill="#222222" fill-rule="nonzero"></path>
                        <path d="M45.99,10.486 C45.262,10.486 44.604,10.3203333 44.016,9.989 C43.428,9.65766667 42.966,9.191 42.63,8.589 C42.294,7.987 42.126,7.28933333 42.126,6.496 C42.126,5.712 42.2986667,5.01666667 42.644,4.41 C42.9893333,3.80333333 43.4606667,3.33666667 44.058,3.01 C44.6553333,2.68333333 45.3226667,2.52 46.06,2.52 C46.7973333,2.52 47.4646667,2.68333333 48.062,3.01 C48.6593333,3.33666667 49.1306667,3.80333333 49.476,4.41 C49.8213333,5.01666667 49.994,5.712 49.994,6.496 C49.994,7.28 49.8166667,7.97533333 49.462,8.582 C49.1073333,9.18866667 48.6243333,9.65766667 48.013,9.989 C47.4016667,10.3203333 46.7273333,10.486 45.99,10.486 Z M45.99,9.1 C46.4006667,9.1 46.7856667,9.002 47.145,8.806 C47.5043333,8.61 47.796,8.316 48.02,7.924 C48.244,7.532 48.356,7.056 48.356,6.496 C48.356,5.936 48.2486667,5.46233333 48.034,5.075 C47.8193333,4.68766667 47.5346667,4.396 47.18,4.2 C46.8253333,4.004 46.4426667,3.906 46.032,3.906 C45.6213333,3.906 45.241,4.004 44.891,4.2 C44.541,4.396 44.2633333,4.68766667 44.058,5.075 C43.8526667,5.46233333 43.75,5.936 43.75,6.496 C43.75,7.32666667 43.9623333,7.96833333 44.387,8.421 C44.8116667,8.87366667 45.346,9.1 45.99,9.1 Z" id="Shape" fill="#222222" fill-rule="nonzero"></path>
                        <path d="M60.914,2.52 C61.5206667,2.52 62.0643333,2.646 62.545,2.898 C63.0256667,3.15 63.4036667,3.52333333 63.679,4.018 C63.9543333,4.51266667 64.092,5.11 64.092,5.81 L64.092,10.36 L62.51,10.36 L62.51,6.048 C62.51,5.35733333 62.3373333,4.82766667 61.992,4.459 C61.6466667,4.09033333 61.1753333,3.906 60.578,3.906 C59.9806667,3.906 59.507,4.09033333 59.157,4.459 C58.807,4.82766667 58.632,5.35733333 58.632,6.048 L58.632,10.36 L57.05,10.36 L57.05,6.048 C57.05,5.35733333 56.8773333,4.82766667 56.532,4.459 C56.1866667,4.09033333 55.7153333,3.906 55.118,3.906 C54.5206667,3.906 54.047,4.09033333 53.697,4.459 C53.347,4.82766667 53.172,5.35733333 53.172,6.048 L53.172,10.36 L51.576,10.36 L51.576,2.646 L53.172,2.646 L53.172,3.528 C53.4333333,3.21066667 53.7646667,2.96333333 54.166,2.786 C54.5673333,2.60866667 54.9966667,2.52 55.454,2.52 C56.07,2.52 56.6206667,2.65066667 57.106,2.912 C57.5913333,3.17333333 57.9646667,3.55133333 58.226,4.046 C58.4593333,3.57933333 58.8233333,3.20833333 59.318,2.933 C59.8126667,2.65766667 60.3446667,2.52 60.914,2.52 Z" id="Path" fill="#222222" fill-rule="nonzero"></path>
                        <polygon id="Path" fill="#222222" fill-rule="nonzero" points="73.066 2.646 68.334 13.986 66.682 13.986 68.25 10.234 65.212 2.646 66.99 2.646 69.16 8.526 71.414 2.646"></polygon>
                        <path d="M81.088,0.63 C82.124,0.63 83.0316667,0.828333333 83.811,1.225 C84.5903333,1.62166667 85.1923333,2.191 85.617,2.933 C86.0416667,3.675 86.254,4.54066667 86.254,5.53 C86.254,6.51933333 86.0416667,7.378 85.617,8.106 C85.1923333,8.834 84.5903333,9.39166667 83.811,9.779 C83.0316667,10.1663333 82.124,10.36 81.088,10.36 L77.91,10.36 L77.91,0.63 L81.088,0.63 Z M81.088,9.058 C82.2266667,9.058 83.0993333,8.75 83.706,8.134 C84.3126667,7.518 84.616,6.65 84.616,5.53 C84.616,4.40066667 84.3126667,3.51866667 83.706,2.884 C83.0993333,2.24933333 82.2266667,1.932 81.088,1.932 L79.506,1.932 L79.506,9.058 L81.088,9.058 Z" id="Shape" fill="#222222" fill-rule="nonzero"></path>
                        <path d="M94.906,6.314 C94.906,6.60333333 94.8873333,6.86466667 94.85,7.098 L88.956,7.098 C89.0026667,7.714 89.2313333,8.20866667 89.642,8.582 C90.0526667,8.95533333 90.5566667,9.142 91.154,9.142 C92.0126667,9.142 92.6193333,8.78266667 92.974,8.064 L94.696,8.064 C94.4626667,8.77333333 94.0403333,9.35433333 93.429,9.807 C92.8176667,10.2596667 92.0593333,10.486 91.154,10.486 C90.4166667,10.486 89.7563333,10.3203333 89.173,9.989 C88.5896667,9.65766667 88.1323333,9.191 87.801,8.589 C87.4696667,7.987 87.304,7.28933333 87.304,6.496 C87.304,5.70266667 87.465,5.005 87.787,4.403 C88.109,3.801 88.5616667,3.33666667 89.145,3.01 C89.7283333,2.68333333 90.398,2.52 91.154,2.52 C91.882,2.52 92.5306667,2.67866667 93.1,2.996 C93.6693333,3.31333333 94.1126667,3.759 94.43,4.333 C94.7473333,4.907 94.906,5.56733333 94.906,6.314 Z M93.24,5.81 C93.2306667,5.222 93.0206667,4.75066667 92.61,4.396 C92.1993333,4.04133333 91.6906667,3.864 91.084,3.864 C90.5333333,3.864 90.062,4.039 89.67,4.389 C89.278,4.739 89.0446667,5.21266667 88.97,5.81 L93.24,5.81 Z" id="Shape" fill="#222222" fill-rule="nonzero"></path>
                        <polygon id="Path" fill="#222222" fill-rule="nonzero" points="99.456 8.932 101.64 2.646 103.334 2.646 100.394 10.36 98.49 10.36 95.564 2.646 97.272 2.646"></polygon>
                        <path d="M111.608,6.314 C111.608,6.60333333 111.589333,6.86466667 111.552,7.098 L105.658,7.098 C105.704667,7.714 105.933333,8.20866667 106.344,8.582 C106.754667,8.95533333 107.258667,9.142 107.856,9.142 C108.714667,9.142 109.321333,8.78266667 109.676,8.064 L111.398,8.064 C111.164667,8.77333333 110.742333,9.35433333 110.131,9.807 C109.519667,10.2596667 108.761333,10.486 107.856,10.486 C107.118667,10.486 106.458333,10.3203333 105.875,9.989 C105.291667,9.65766667 104.834333,9.191 104.503,8.589 C104.171667,7.987 104.006,7.28933333 104.006,6.496 C104.006,5.70266667 104.167,5.005 104.489,4.403 C104.811,3.801 105.263667,3.33666667 105.847,3.01 C106.430333,2.68333333 107.1,2.52 107.856,2.52 C108.584,2.52 109.232667,2.67866667 109.802,2.996 C110.371333,3.31333333 110.814667,3.759 111.132,4.333 C111.449333,4.907 111.608,5.56733333 111.608,6.314 Z M109.942,5.81 C109.932667,5.222 109.722667,4.75066667 109.312,4.396 C108.901333,4.04133333 108.392667,3.864 107.786,3.864 C107.235333,3.864 106.764,4.039 106.372,4.389 C105.98,4.739 105.746667,5.21266667 105.672,5.81 L109.942,5.81 Z" id="Shape" fill="#222222" fill-rule="nonzero"></path>
                        <polygon id="Path" fill="#222222" fill-rule="nonzero" points="114.772 0 114.772 10.36 113.176 10.36 113.176 0"></polygon>
                        <path d="M120.218,10.486 C119.49,10.486 118.832,10.3203333 118.244,9.989 C117.656,9.65766667 117.194,9.191 116.858,8.589 C116.522,7.987 116.354,7.28933333 116.354,6.496 C116.354,5.712 116.526667,5.01666667 116.872,4.41 C117.217333,3.80333333 117.688667,3.33666667 118.286,3.01 C118.883333,2.68333333 119.550667,2.52 120.288,2.52 C121.025333,2.52 121.692667,2.68333333 122.29,3.01 C122.887333,3.33666667 123.358667,3.80333333 123.704,4.41 C124.049333,5.01666667 124.222,5.712 124.222,6.496 C124.222,7.28 124.044667,7.97533333 123.69,8.582 C123.335333,9.18866667 122.852333,9.65766667 122.241,9.989 C121.629667,10.3203333 120.955333,10.486 120.218,10.486 Z M120.218,9.1 C120.628667,9.1 121.013667,9.002 121.373,8.806 C121.732333,8.61 122.024,8.316 122.248,7.924 C122.472,7.532 122.584,7.056 122.584,6.496 C122.584,5.936 122.476667,5.46233333 122.262,5.075 C122.047333,4.68766667 121.762667,4.396 121.408,4.2 C121.053333,4.004 120.670667,3.906 120.26,3.906 C119.849333,3.906 119.469,4.004 119.119,4.2 C118.769,4.396 118.491333,4.68766667 118.286,5.075 C118.080667,5.46233333 117.978,5.936 117.978,6.496 C117.978,7.32666667 118.190333,7.96833333 118.615,8.421 C119.039667,8.87366667 119.574,9.1 120.218,9.1 Z" id="Shape" fill="#222222" fill-rule="nonzero"></path>
                        <path d="M127.4,3.78 C127.670667,3.42533333 128.039333,3.12666667 128.506,2.884 C128.972667,2.64133333 129.5,2.52 130.088,2.52 C130.76,2.52 131.373667,2.68566667 131.929,3.017 C132.484333,3.34833333 132.920667,3.81266667 133.238,4.41 C133.555333,5.00733333 133.714,5.69333333 133.714,6.468 C133.714,7.24266667 133.555333,7.93566667 133.238,8.547 C132.920667,9.15833333 132.484333,9.63433333 131.929,9.975 C131.373667,10.3156667 130.76,10.486 130.088,10.486 C129.5,10.486 128.977333,10.367 128.52,10.129 C128.062667,9.891 127.689333,9.59466667 127.4,9.24 L127.4,14.028 L125.804,14.028 L125.804,2.646 L127.4,2.646 L127.4,3.78 Z M132.09,6.468 C132.09,5.936 131.980333,5.47633333 131.761,5.089 C131.541667,4.70166667 131.252333,4.40766667 130.893,4.207 C130.533667,4.00633333 130.148667,3.906 129.738,3.906 C129.336667,3.906 128.956333,4.00866667 128.597,4.214 C128.237667,4.41933333 127.948333,4.718 127.729,5.11 C127.509667,5.502 127.4,5.964 127.4,6.496 C127.4,7.028 127.509667,7.49233333 127.729,7.889 C127.948333,8.28566667 128.237667,8.58666667 128.597,8.792 C128.956333,8.99733333 129.336667,9.1 129.738,9.1 C130.148667,9.1 130.533667,8.995 130.893,8.785 C131.252333,8.575 131.541667,8.26933333 131.761,7.868 C131.980333,7.46666667 132.09,7 132.09,6.468 Z" id="Shape" fill="#222222" fill-rule="nonzero"></path>
                        <path d="M142.366,6.314 C142.366,6.60333333 142.347333,6.86466667 142.31,7.098 L136.416,7.098 C136.462667,7.714 136.691333,8.20866667 137.102,8.582 C137.512667,8.95533333 138.016667,9.142 138.614,9.142 C139.472667,9.142 140.079333,8.78266667 140.434,8.064 L142.156,8.064 C141.922667,8.77333333 141.500333,9.35433333 140.889,9.807 C140.277667,10.2596667 139.519333,10.486 138.614,10.486 C137.876667,10.486 137.216333,10.3203333 136.633,9.989 C136.049667,9.65766667 135.592333,9.191 135.261,8.589 C134.929667,7.987 134.764,7.28933333 134.764,6.496 C134.764,5.70266667 134.925,5.005 135.247,4.403 C135.569,3.801 136.021667,3.33666667 136.605,3.01 C137.188333,2.68333333 137.858,2.52 138.614,2.52 C139.342,2.52 139.990667,2.67866667 140.56,2.996 C141.129333,3.31333333 141.572667,3.759 141.89,4.333 C142.207333,4.907 142.366,5.56733333 142.366,6.314 Z M140.7,5.81 C140.690667,5.222 140.480667,4.75066667 140.07,4.396 C139.659333,4.04133333 139.150667,3.864 138.544,3.864 C137.993333,3.864 137.522,4.039 137.13,4.389 C136.738,4.739 136.504667,5.21266667 136.43,5.81 L140.7,5.81 Z" id="Shape" fill="#222222" fill-rule="nonzero"></path>
                        <path d="M145.53,3.766 C145.763333,3.374 146.073667,3.06833333 146.461,2.849 C146.848333,2.62966667 147.308,2.52 147.84,2.52 L147.84,4.172 L147.434,4.172 C146.808667,4.172 146.335,4.33066667 146.013,4.648 C145.691,4.96533333 145.53,5.516 145.53,6.3 L145.53,10.36 L143.934,10.36 L143.934,2.646 L145.53,2.646 L145.53,3.766 Z" id="Path" fill="#222222" fill-rule="nonzero"></path>
                        <path d="M152.11,10.486 C151.503333,10.486 150.959667,10.3763333 150.479,10.157 C149.998333,9.93766667 149.618,9.639 149.338,9.261 C149.058,8.883 148.908667,8.46066667 148.89,7.994 L150.542,7.994 C150.57,8.32066667 150.726333,8.59366667 151.011,8.813 C151.295667,9.03233333 151.652667,9.142 152.082,9.142 C152.53,9.142 152.877667,9.05566667 153.125,8.883 C153.372333,8.71033333 153.496,8.48866667 153.496,8.218 C153.496,7.92866667 153.358333,7.714 153.083,7.574 C152.807667,7.434 152.371333,7.28 151.774,7.112 C151.195333,6.95333333 150.724,6.79933333 150.36,6.65 C149.996,6.50066667 149.681,6.272 149.415,5.964 C149.149,5.656 149.016,5.25 149.016,4.746 C149.016,4.33533333 149.137333,3.95966667 149.38,3.619 C149.622667,3.27833333 149.970333,3.01 150.423,2.814 C150.875667,2.618 151.396,2.52 151.984,2.52 C152.861333,2.52 153.568333,2.74166667 154.105,3.185 C154.641667,3.62833333 154.928667,4.23266667 154.966,4.998 L153.37,4.998 C153.342,4.65266667 153.202,4.37733333 152.95,4.172 C152.698,3.96666667 152.357333,3.864 151.928,3.864 C151.508,3.864 151.186,3.94333333 150.962,4.102 C150.738,4.26066667 150.626,4.47066667 150.626,4.732 C150.626,4.93733333 150.700667,5.11 150.85,5.25 C150.999333,5.39 151.181333,5.49966667 151.396,5.579 C151.610667,5.65833333 151.928,5.75866667 152.348,5.88 C152.908,6.02933333 153.367667,6.181 153.727,6.335 C154.086333,6.489 154.396667,6.71533333 154.658,7.014 C154.919333,7.31266667 155.054667,7.70933333 155.064,8.204 C155.064,8.64266667 154.942667,9.03466667 154.7,9.38 C154.457333,9.72533333 154.114333,9.996 153.671,10.192 C153.227667,10.388 152.707333,10.486 152.11,10.486 Z" id="Path" fill="#222222" fill-rule="nonzero"></path>
                        <path d="M41.86,28.028 C41.86,27.2533333 42.021,26.5673333 42.343,25.97 C42.665,25.3726667 43.1036667,24.9083333 43.659,24.577 C44.2143333,24.2456667 44.828,24.08 45.5,24.08 C46.1066667,24.08 46.6363333,24.199 47.089,24.437 C47.5416667,24.675 47.9033333,24.9713333 48.174,25.326 L48.174,24.206 L49.784,24.206 L49.784,31.92 L48.174,31.92 L48.174,30.772 C47.9033333,31.136 47.5346667,31.4393333 47.068,31.682 C46.6013333,31.9246667 46.0693333,32.046 45.472,32.046 C44.8093333,32.046 44.2026667,31.8756667 43.652,31.535 C43.1013333,31.1943333 42.665,30.7183333 42.343,30.107 C42.021,29.4956667 41.86,28.8026667 41.86,28.028 Z M48.174,28.056 C48.174,27.524 48.0643333,27.062 47.845,26.67 C47.6256667,26.278 47.3386667,25.9793333 46.984,25.774 C46.6293333,25.5686667 46.2466667,25.466 45.836,25.466 C45.4253333,25.466 45.0426667,25.5663333 44.688,25.767 C44.3333333,25.9676667 44.0463333,26.2616667 43.827,26.649 C43.6076667,27.0363333 43.498,27.496 43.498,28.028 C43.498,28.56 43.6076667,29.0266667 43.827,29.428 C44.0463333,29.8293333 44.3356667,30.135 44.695,30.345 C45.0543333,30.555 45.4346667,30.66 45.836,30.66 C46.2466667,30.66 46.6293333,30.5573333 46.984,30.352 C47.3386667,30.1466667 47.6256667,29.8456667 47.845,29.449 C48.0643333,29.0523333 48.174,28.588 48.174,28.056 Z" id="Shape" fill="#222222" fill-rule="nonzero"></path>
                        <path d="M55.776,24.08 C56.3826667,24.08 56.9263333,24.206 57.407,24.458 C57.8876667,24.71 58.2633333,25.0833333 58.534,25.578 C58.8046667,26.0726667 58.94,26.67 58.94,27.37 L58.94,31.92 L57.358,31.92 L57.358,27.608 C57.358,26.9173333 57.1853333,26.3876667 56.84,26.019 C56.4946667,25.6503333 56.0233333,25.466 55.426,25.466 C54.8286667,25.466 54.355,25.6503333 54.005,26.019 C53.655,26.3876667 53.48,26.9173333 53.48,27.608 L53.48,31.92 L51.884,31.92 L51.884,24.206 L53.48,24.206 L53.48,25.088 C53.7413333,24.7706667 54.075,24.5233333 54.481,24.346 C54.887,24.1686667 55.3186667,24.08 55.776,24.08 Z" id="Path" fill="#222222" fill-rule="nonzero"></path>
                        <path d="M60.438,28.028 C60.438,27.2533333 60.599,26.5673333 60.921,25.97 C61.243,25.3726667 61.6816667,24.9083333 62.237,24.577 C62.7923333,24.2456667 63.4106667,24.08 64.092,24.08 C64.596,24.08 65.093,24.1896667 65.583,24.409 C66.073,24.6283333 66.4626667,24.92 66.752,25.284 L66.752,21.56 L68.362,21.56 L68.362,31.92 L66.752,31.92 L66.752,30.758 C66.4906667,31.1313333 66.129,31.4393333 65.667,31.682 C65.205,31.9246667 64.6753333,32.046 64.078,32.046 C63.406,32.046 62.7923333,31.8756667 62.237,31.535 C61.6816667,31.1943333 61.243,30.7183333 60.921,30.107 C60.599,29.4956667 60.438,28.8026667 60.438,28.028 Z M66.752,28.056 C66.752,27.524 66.6423333,27.062 66.423,26.67 C66.2036667,26.278 65.9166667,25.9793333 65.562,25.774 C65.2073333,25.5686667 64.8246667,25.466 64.414,25.466 C64.0033333,25.466 63.6206667,25.5663333 63.266,25.767 C62.9113333,25.9676667 62.6243333,26.2616667 62.405,26.649 C62.1856667,27.0363333 62.076,27.496 62.076,28.028 C62.076,28.56 62.1856667,29.0266667 62.405,29.428 C62.6243333,29.8293333 62.9136667,30.135 63.273,30.345 C63.6323333,30.555 64.0126667,30.66 64.414,30.66 C64.8246667,30.66 65.2073333,30.5573333 65.562,30.352 C65.9166667,30.1466667 66.2036667,29.8456667 66.423,29.449 C66.6423333,29.0523333 66.752,28.588 66.752,28.056 Z" id="Shape" fill="#222222" fill-rule="nonzero"></path>
                        <polygon id="Path" fill="#222222" fill-rule="nonzero" points="79.828 22.19 79.828 23.492 75.698 23.492 75.698 26.362 78.918 26.362 78.918 27.664 75.698 27.664 75.698 31.92 74.102 31.92 74.102 22.19"></polygon>
                        <polygon id="Path" fill="#222222" fill-rule="nonzero" points="82.908 21.56 82.908 31.92 81.312 31.92 81.312 21.56"></polygon>
                        <path d="M92.078,27.874 C92.078,28.1633333 92.0593333,28.4246667 92.022,28.658 L86.128,28.658 C86.1746667,29.274 86.4033333,29.7686667 86.814,30.142 C87.2246667,30.5153333 87.7286667,30.702 88.326,30.702 C89.1846667,30.702 89.7913333,30.3426667 90.146,29.624 L91.868,29.624 C91.6346667,30.3333333 91.2123333,30.9143333 90.601,31.367 C89.9896667,31.8196667 89.2313333,32.046 88.326,32.046 C87.5886667,32.046 86.9283333,31.8803333 86.345,31.549 C85.7616667,31.2176667 85.3043333,30.751 84.973,30.149 C84.6416667,29.547 84.476,28.8493333 84.476,28.056 C84.476,27.2626667 84.637,26.565 84.959,25.963 C85.281,25.361 85.7336667,24.8966667 86.317,24.57 C86.9003333,24.2433333 87.57,24.08 88.326,24.08 C89.054,24.08 89.7026667,24.2386667 90.272,24.556 C90.8413333,24.8733333 91.2846667,25.319 91.602,25.893 C91.9193333,26.467 92.078,27.1273333 92.078,27.874 Z M90.412,27.37 C90.4026667,26.782 90.1926667,26.3106667 89.782,25.956 C89.3713333,25.6013333 88.8626667,25.424 88.256,25.424 C87.7053333,25.424 87.234,25.599 86.842,25.949 C86.45,26.299 86.2166667,26.7726667 86.142,27.37 L90.412,27.37 Z" id="Shape" fill="#222222" fill-rule="nonzero"></path>
                        <path d="M100.716,27.874 C100.716,28.1633333 100.697333,28.4246667 100.66,28.658 L94.766,28.658 C94.8126667,29.274 95.0413333,29.7686667 95.452,30.142 C95.8626667,30.5153333 96.3666667,30.702 96.964,30.702 C97.8226667,30.702 98.4293333,30.3426667 98.784,29.624 L100.506,29.624 C100.272667,30.3333333 99.8503333,30.9143333 99.239,31.367 C98.6276667,31.8196667 97.8693333,32.046 96.964,32.046 C96.2266667,32.046 95.5663333,31.8803333 94.983,31.549 C94.3996667,31.2176667 93.9423333,30.751 93.611,30.149 C93.2796667,29.547 93.114,28.8493333 93.114,28.056 C93.114,27.2626667 93.275,26.565 93.597,25.963 C93.919,25.361 94.3716667,24.8966667 94.955,24.57 C95.5383333,24.2433333 96.208,24.08 96.964,24.08 C97.692,24.08 98.3406667,24.2386667 98.91,24.556 C99.4793333,24.8733333 99.9226667,25.319 100.24,25.893 C100.557333,26.467 100.716,27.1273333 100.716,27.874 Z M99.05,27.37 C99.0406667,26.782 98.8306667,26.3106667 98.42,25.956 C98.0093333,25.6013333 97.5006667,25.424 96.894,25.424 C96.3433333,25.424 95.872,25.599 95.48,25.949 C95.088,26.299 94.8546667,26.7726667 94.78,27.37 L99.05,27.37 Z" id="Shape" fill="#222222" fill-rule="nonzero"></path>
                        <path d="M104.146,25.508 L104.146,29.778 C104.146,30.0673333 104.213667,30.275 104.349,30.401 C104.484333,30.527 104.715333,30.59 105.042,30.59 L106.022,30.59 L106.022,31.92 L104.762,31.92 C104.043333,31.92 103.492667,31.752 103.11,31.416 C102.727333,31.08 102.536,30.534 102.536,29.778 L102.536,25.508 L101.626,25.508 L101.626,24.206 L102.536,24.206 L102.536,22.288 L104.146,22.288 L104.146,24.206 L106.022,24.206 L106.022,25.508 L104.146,25.508 Z" id="Path" fill="#222222" fill-rule="nonzero"></path>
                        <path d="M110.292,32.046 C109.685333,32.046 109.141667,31.9363333 108.661,31.717 C108.180333,31.4976667 107.8,31.199 107.52,30.821 C107.24,30.443 107.090667,30.0206667 107.072,29.554 L108.724,29.554 C108.752,29.8806667 108.908333,30.1536667 109.193,30.373 C109.477667,30.5923333 109.834667,30.702 110.264,30.702 C110.712,30.702 111.059667,30.6156667 111.307,30.443 C111.554333,30.2703333 111.678,30.0486667 111.678,29.778 C111.678,29.4886667 111.540333,29.274 111.265,29.134 C110.989667,28.994 110.553333,28.84 109.956,28.672 C109.377333,28.5133333 108.906,28.3593333 108.542,28.21 C108.178,28.0606667 107.863,27.832 107.597,27.524 C107.331,27.216 107.198,26.81 107.198,26.306 C107.198,25.8953333 107.319333,25.5196667 107.562,25.179 C107.804667,24.8383333 108.152333,24.57 108.605,24.374 C109.057667,24.178 109.578,24.08 110.166,24.08 C111.043333,24.08 111.750333,24.3016667 112.287,24.745 C112.823667,25.1883333 113.110667,25.7926667 113.148,26.558 L111.552,26.558 C111.524,26.2126667 111.384,25.9373333 111.132,25.732 C110.88,25.5266667 110.539333,25.424 110.11,25.424 C109.69,25.424 109.368,25.5033333 109.144,25.662 C108.92,25.8206667 108.808,26.0306667 108.808,26.292 C108.808,26.4973333 108.882667,26.67 109.032,26.81 C109.181333,26.95 109.363333,27.0596667 109.578,27.139 C109.792667,27.2183333 110.11,27.3186667 110.53,27.44 C111.09,27.5893333 111.549667,27.741 111.909,27.895 C112.268333,28.049 112.578667,28.2753333 112.84,28.574 C113.101333,28.8726667 113.236667,29.2693333 113.246,29.764 C113.246,30.2026667 113.124667,30.5946667 112.882,30.94 C112.639333,31.2853333 112.296333,31.556 111.853,31.752 C111.409667,31.948 110.889333,32.046 110.292,32.046 Z" id="Path" fill="#222222" fill-rule="nonzero"></path>
                    </g>
                    <g id="Group-22" stroke-width="1" fill="none" transform="translate(647.487133, 473.000000)">
                        <mask id="mask-9" fill="white">
                            <use xlink:href="#path-8"></use>
                        </mask>
                        <use id="Mask" fill="#E2E4F5" xlink:href="#path-8"></use>
                        <g id="02-2-15-insurance-and-risk-management" mask="url(#mask-9)" fill-rule="nonzero">
                            <g transform="translate(74.469542, 43.000000)" id="Path">
                                <polygon fill="url(#linearGradient-10)" opacity="0.1" points="111.045024 148.814211 134 117 145.386266 84.9151437 52.8334454 2.92972557 10.8085604 55.616915"></polygon>
                                <path d="M1.42108547e-14,30.821049 L1.42108547e-14,2.93053639 C8.71954952,1.29278564 17.5499301,0.31317716 26.4164227,0 L26.4181741,0 L26.4181741,30.821049 L1.42108547e-14,30.821049 Z" fill="#2942D1"></path>
                                <path d="M1.42108547e-14,30.821049 C1.42108547e-14,55.5867848 26.3859196,66.0301674 26.4181903,66.0451189 L26.4181903,30.821049 L1.42108547e-14,30.821049 Z" fill="#A9B3EC"></path>
                                <path d="M52.8328454,30.821049 L52.8328454,2.93053639 C44.1132959,1.29278564 35.2829153,0.31317716 26.4164227,0 L26.4146713,0 L26.4146713,30.821049 L52.8328454,30.821049 Z" fill="#A9B3EC"></path>
                                <path d="M52.8328454,30.821049 C52.8328454,55.5867848 26.4469258,66.0301674 26.4146551,66.0451189 L26.4146551,30.821049 L52.8328454,30.821049 Z" fill="#2942D1"></path>
                            </g>
                        </g>
                    </g>
                    <g id="Insurance-and-Risk-M" stroke-width="1" fill="none" transform="translate(689.171942, 596.200000)">
                        <polygon id="Path" fill="#222222" fill-rule="nonzero" points="14.294 0.63 14.294 10.36 12.698 10.36 12.698 0.63"></polygon>
                        <path d="M20.286,2.52 C20.8926667,2.52 21.4363333,2.646 21.917,2.898 C22.3976667,3.15 22.7733333,3.52333333 23.044,4.018 C23.3146667,4.51266667 23.45,5.11 23.45,5.81 L23.45,10.36 L21.868,10.36 L21.868,6.048 C21.868,5.35733333 21.6953333,4.82766667 21.35,4.459 C21.0046667,4.09033333 20.5333333,3.906 19.936,3.906 C19.3386667,3.906 18.865,4.09033333 18.515,4.459 C18.165,4.82766667 17.99,5.35733333 17.99,6.048 L17.99,10.36 L16.394,10.36 L16.394,2.646 L17.99,2.646 L17.99,3.528 C18.2513333,3.21066667 18.585,2.96333333 18.991,2.786 C19.397,2.60866667 19.8286667,2.52 20.286,2.52 Z" id="Path" fill="#222222" fill-rule="nonzero"></path>
                        <path d="M28.28,10.486 C27.6733333,10.486 27.1296667,10.3763333 26.649,10.157 C26.1683333,9.93766667 25.788,9.639 25.508,9.261 C25.228,8.883 25.0786667,8.46066667 25.06,7.994 L26.712,7.994 C26.74,8.32066667 26.8963333,8.59366667 27.181,8.813 C27.4656667,9.03233333 27.8226667,9.142 28.252,9.142 C28.7,9.142 29.0476667,9.05566667 29.295,8.883 C29.5423333,8.71033333 29.666,8.48866667 29.666,8.218 C29.666,7.92866667 29.5283333,7.714 29.253,7.574 C28.9776667,7.434 28.5413333,7.28 27.944,7.112 C27.3653333,6.95333333 26.894,6.79933333 26.53,6.65 C26.166,6.50066667 25.851,6.272 25.585,5.964 C25.319,5.656 25.186,5.25 25.186,4.746 C25.186,4.33533333 25.3073333,3.95966667 25.55,3.619 C25.7926667,3.27833333 26.1403333,3.01 26.593,2.814 C27.0456667,2.618 27.566,2.52 28.154,2.52 C29.0313333,2.52 29.7383333,2.74166667 30.275,3.185 C30.8116667,3.62833333 31.0986667,4.23266667 31.136,4.998 L29.54,4.998 C29.512,4.65266667 29.372,4.37733333 29.12,4.172 C28.868,3.96666667 28.5273333,3.864 28.098,3.864 C27.678,3.864 27.356,3.94333333 27.132,4.102 C26.908,4.26066667 26.796,4.47066667 26.796,4.732 C26.796,4.93733333 26.8706667,5.11 27.02,5.25 C27.1693333,5.39 27.3513333,5.49966667 27.566,5.579 C27.7806667,5.65833333 28.098,5.75866667 28.518,5.88 C29.078,6.02933333 29.5376667,6.181 29.897,6.335 C30.2563333,6.489 30.5666667,6.71533333 30.828,7.014 C31.0893333,7.31266667 31.2246667,7.70933333 31.234,8.204 C31.234,8.64266667 31.1126667,9.03466667 30.87,9.38 C30.6273333,9.72533333 30.2843333,9.996 29.841,10.192 C29.3976667,10.388 28.8773333,10.486 28.28,10.486 Z" id="Path" fill="#222222" fill-rule="nonzero"></path>
                        <path d="M39.942,2.646 L39.942,10.36 L38.346,10.36 L38.346,9.45 C38.094,9.76733333 37.765,10.017 37.359,10.199 C36.953,10.381 36.5213333,10.472 36.064,10.472 C35.4573333,10.472 34.9136667,10.346 34.433,10.094 C33.9523333,9.842 33.5743333,9.46866667 33.299,8.974 C33.0236667,8.47933333 32.886,7.882 32.886,7.182 L32.886,2.646 L34.468,2.646 L34.468,6.944 C34.468,7.63466667 34.6406667,8.16433333 34.986,8.533 C35.3313333,8.90166667 35.8026667,9.086 36.4,9.086 C36.9973333,9.086 37.471,8.90166667 37.821,8.533 C38.171,8.16433333 38.346,7.63466667 38.346,6.944 L38.346,2.646 L39.942,2.646 Z" id="Path" fill="#222222" fill-rule="nonzero"></path>
                        <path d="M43.638,3.766 C43.8713333,3.374 44.1816667,3.06833333 44.569,2.849 C44.9563333,2.62966667 45.416,2.52 45.948,2.52 L45.948,4.172 L45.542,4.172 C44.9166667,4.172 44.443,4.33066667 44.121,4.648 C43.799,4.96533333 43.638,5.516 43.638,6.3 L43.638,10.36 L42.042,10.36 L42.042,2.646 L43.638,2.646 L43.638,3.766 Z" id="Path" fill="#222222" fill-rule="nonzero"></path>
                        <path d="M46.886,6.468 C46.886,5.69333333 47.047,5.00733333 47.369,4.41 C47.691,3.81266667 48.1296667,3.34833333 48.685,3.017 C49.2403333,2.68566667 49.854,2.52 50.526,2.52 C51.1326667,2.52 51.6623333,2.639 52.115,2.877 C52.5676667,3.115 52.9293333,3.41133333 53.2,3.766 L53.2,2.646 L54.81,2.646 L54.81,10.36 L53.2,10.36 L53.2,9.212 C52.9293333,9.576 52.5606667,9.87933333 52.094,10.122 C51.6273333,10.3646667 51.0953333,10.486 50.498,10.486 C49.8353333,10.486 49.2286667,10.3156667 48.678,9.975 C48.1273333,9.63433333 47.691,9.15833333 47.369,8.547 C47.047,7.93566667 46.886,7.24266667 46.886,6.468 Z M53.2,6.496 C53.2,5.964 53.0903333,5.502 52.871,5.11 C52.6516667,4.718 52.3646667,4.41933333 52.01,4.214 C51.6553333,4.00866667 51.2726667,3.906 50.862,3.906 C50.4513333,3.906 50.0686667,4.00633333 49.714,4.207 C49.3593333,4.40766667 49.0723333,4.70166667 48.853,5.089 C48.6336667,5.47633333 48.524,5.936 48.524,6.468 C48.524,7 48.6336667,7.46666667 48.853,7.868 C49.0723333,8.26933333 49.3616667,8.575 49.721,8.785 C50.0803333,8.995 50.4606667,9.1 50.862,9.1 C51.2726667,9.1 51.6553333,8.99733333 52.01,8.792 C52.3646667,8.58666667 52.6516667,8.28566667 52.871,7.889 C53.0903333,7.49233333 53.2,7.028 53.2,6.496 Z" id="Shape" fill="#222222" fill-rule="nonzero"></path>
                        <path d="M60.802,2.52 C61.4086667,2.52 61.9523333,2.646 62.433,2.898 C62.9136667,3.15 63.2893333,3.52333333 63.56,4.018 C63.8306667,4.51266667 63.966,5.11 63.966,5.81 L63.966,10.36 L62.384,10.36 L62.384,6.048 C62.384,5.35733333 62.2113333,4.82766667 61.866,4.459 C61.5206667,4.09033333 61.0493333,3.906 60.452,3.906 C59.8546667,3.906 59.381,4.09033333 59.031,4.459 C58.681,4.82766667 58.506,5.35733333 58.506,6.048 L58.506,10.36 L56.91,10.36 L56.91,2.646 L58.506,2.646 L58.506,3.528 C58.7673333,3.21066667 59.101,2.96333333 59.507,2.786 C59.913,2.60866667 60.3446667,2.52 60.802,2.52 Z" id="Path" fill="#222222" fill-rule="nonzero"></path>
                        <path d="M65.464,6.496 C65.464,5.70266667 65.625,5.005 65.947,4.403 C66.269,3.801 66.7146667,3.33666667 67.284,3.01 C67.8533333,2.68333333 68.5066667,2.52 69.244,2.52 C70.1773333,2.52 70.9496667,2.74166667 71.561,3.185 C72.1723333,3.62833333 72.5853333,4.26066667 72.8,5.082 L71.078,5.082 C70.938,4.69933333 70.714,4.40066667 70.406,4.186 C70.098,3.97133333 69.7106667,3.864 69.244,3.864 C68.5906667,3.864 68.0703333,4.095 67.683,4.557 C67.2956667,5.019 67.102,5.66533333 67.102,6.496 C67.102,7.32666667 67.2956667,7.97533333 67.683,8.442 C68.0703333,8.90866667 68.5906667,9.142 69.244,9.142 C70.168,9.142 70.7793333,8.736 71.078,7.924 L72.8,7.924 C72.576,8.708 72.156,9.331 71.54,9.793 C70.924,10.255 70.1586667,10.486 69.244,10.486 C68.5066667,10.486 67.8533333,10.3203333 67.284,9.989 C66.7146667,9.65766667 66.269,9.191 65.947,8.589 C65.625,7.987 65.464,7.28933333 65.464,6.496 Z" id="Path" fill="#222222" fill-rule="nonzero"></path>
                        <path d="M81.466,6.314 C81.466,6.60333333 81.4473333,6.86466667 81.41,7.098 L75.516,7.098 C75.5626667,7.714 75.7913333,8.20866667 76.202,8.582 C76.6126667,8.95533333 77.1166667,9.142 77.714,9.142 C78.5726667,9.142 79.1793333,8.78266667 79.534,8.064 L81.256,8.064 C81.0226667,8.77333333 80.6003333,9.35433333 79.989,9.807 C79.3776667,10.2596667 78.6193333,10.486 77.714,10.486 C76.9766667,10.486 76.3163333,10.3203333 75.733,9.989 C75.1496667,9.65766667 74.6923333,9.191 74.361,8.589 C74.0296667,7.987 73.864,7.28933333 73.864,6.496 C73.864,5.70266667 74.025,5.005 74.347,4.403 C74.669,3.801 75.1216667,3.33666667 75.705,3.01 C76.2883333,2.68333333 76.958,2.52 77.714,2.52 C78.442,2.52 79.0906667,2.67866667 79.66,2.996 C80.2293333,3.31333333 80.6726667,3.759 80.99,4.333 C81.3073333,4.907 81.466,5.56733333 81.466,6.314 Z M79.8,5.81 C79.7906667,5.222 79.5806667,4.75066667 79.17,4.396 C78.7593333,4.04133333 78.2506667,3.864 77.644,3.864 C77.0933333,3.864 76.622,4.039 76.23,4.389 C75.838,4.739 75.6046667,5.21266667 75.53,5.81 L79.8,5.81 Z" id="Shape" fill="#222222" fill-rule="nonzero"></path>
                        <path d="M86.142,6.468 C86.142,5.69333333 86.303,5.00733333 86.625,4.41 C86.947,3.81266667 87.3856667,3.34833333 87.941,3.017 C88.4963333,2.68566667 89.11,2.52 89.782,2.52 C90.3886667,2.52 90.9183333,2.639 91.371,2.877 C91.8236667,3.115 92.1853333,3.41133333 92.456,3.766 L92.456,2.646 L94.066,2.646 L94.066,10.36 L92.456,10.36 L92.456,9.212 C92.1853333,9.576 91.8166667,9.87933333 91.35,10.122 C90.8833333,10.3646667 90.3513333,10.486 89.754,10.486 C89.0913333,10.486 88.4846667,10.3156667 87.934,9.975 C87.3833333,9.63433333 86.947,9.15833333 86.625,8.547 C86.303,7.93566667 86.142,7.24266667 86.142,6.468 Z M92.456,6.496 C92.456,5.964 92.3463333,5.502 92.127,5.11 C91.9076667,4.718 91.6206667,4.41933333 91.266,4.214 C90.9113333,4.00866667 90.5286667,3.906 90.118,3.906 C89.7073333,3.906 89.3246667,4.00633333 88.97,4.207 C88.6153333,4.40766667 88.3283333,4.70166667 88.109,5.089 C87.8896667,5.47633333 87.78,5.936 87.78,6.468 C87.78,7 87.8896667,7.46666667 88.109,7.868 C88.3283333,8.26933333 88.6176667,8.575 88.977,8.785 C89.3363333,8.995 89.7166667,9.1 90.118,9.1 C90.5286667,9.1 90.9113333,8.99733333 91.266,8.792 C91.6206667,8.58666667 91.9076667,8.28566667 92.127,7.889 C92.3463333,7.49233333 92.456,7.028 92.456,6.496 Z" id="Shape" fill="#222222" fill-rule="nonzero"></path>
                        <path d="M100.058,2.52 C100.664667,2.52 101.208333,2.646 101.689,2.898 C102.169667,3.15 102.545333,3.52333333 102.816,4.018 C103.086667,4.51266667 103.222,5.11 103.222,5.81 L103.222,10.36 L101.64,10.36 L101.64,6.048 C101.64,5.35733333 101.467333,4.82766667 101.122,4.459 C100.776667,4.09033333 100.305333,3.906 99.708,3.906 C99.1106667,3.906 98.637,4.09033333 98.287,4.459 C97.937,4.82766667 97.762,5.35733333 97.762,6.048 L97.762,10.36 L96.166,10.36 L96.166,2.646 L97.762,2.646 L97.762,3.528 C98.0233333,3.21066667 98.357,2.96333333 98.763,2.786 C99.169,2.60866667 99.6006667,2.52 100.058,2.52 Z" id="Path" fill="#222222" fill-rule="nonzero"></path>
                        <path d="M104.72,6.468 C104.72,5.69333333 104.881,5.00733333 105.203,4.41 C105.525,3.81266667 105.963667,3.34833333 106.519,3.017 C107.074333,2.68566667 107.692667,2.52 108.374,2.52 C108.878,2.52 109.375,2.62966667 109.865,2.849 C110.355,3.06833333 110.744667,3.36 111.034,3.724 L111.034,0 L112.644,0 L112.644,10.36 L111.034,10.36 L111.034,9.198 C110.772667,9.57133333 110.411,9.87933333 109.949,10.122 C109.487,10.3646667 108.957333,10.486 108.36,10.486 C107.688,10.486 107.074333,10.3156667 106.519,9.975 C105.963667,9.63433333 105.525,9.15833333 105.203,8.547 C104.881,7.93566667 104.72,7.24266667 104.72,6.468 Z M111.034,6.496 C111.034,5.964 110.924333,5.502 110.705,5.11 C110.485667,4.718 110.198667,4.41933333 109.844,4.214 C109.489333,4.00866667 109.106667,3.906 108.696,3.906 C108.285333,3.906 107.902667,4.00633333 107.548,4.207 C107.193333,4.40766667 106.906333,4.70166667 106.687,5.089 C106.467667,5.47633333 106.358,5.936 106.358,6.468 C106.358,7 106.467667,7.46666667 106.687,7.868 C106.906333,8.26933333 107.195667,8.575 107.555,8.785 C107.914333,8.995 108.294667,9.1 108.696,9.1 C109.106667,9.1 109.489333,8.99733333 109.844,8.792 C110.198667,8.58666667 110.485667,8.28566667 110.705,7.889 C110.924333,7.49233333 111.034,7.028 111.034,6.496 Z" id="Shape" fill="#222222" fill-rule="nonzero"></path>
                        <path d="M5.054,31.92 L2.814,28.028 L1.596,28.028 L1.596,31.92 L0,31.92 L0,22.19 L3.36,22.19 C4.10666667,22.19 4.739,22.3206667 5.257,22.582 C5.775,22.8433333 6.16233333,23.1933333 6.419,23.632 C6.67566667,24.0706667 6.804,24.5606667 6.804,25.102 C6.804,25.7366667 6.61966667,26.313 6.251,26.831 C5.88233333,27.349 5.31533333,27.7013333 4.55,27.888 L6.958,31.92 L5.054,31.92 Z M1.596,26.754 L3.36,26.754 C3.95733333,26.754 4.40766667,26.6046667 4.711,26.306 C5.01433333,26.0073333 5.166,25.606 5.166,25.102 C5.166,24.598 5.01666667,24.2036667 4.718,23.919 C4.41933333,23.6343333 3.96666667,23.492 3.36,23.492 L1.596,23.492 L1.596,26.754 Z" id="Shape" fill="#222222" fill-rule="nonzero"></path>
                        <path d="M9.66,23.184 C9.37066667,23.184 9.128,23.086 8.932,22.89 C8.736,22.694 8.638,22.4513333 8.638,22.162 C8.638,21.8726667 8.736,21.63 8.932,21.434 C9.128,21.238 9.37066667,21.14 9.66,21.14 C9.94,21.14 10.178,21.238 10.374,21.434 C10.57,21.63 10.668,21.8726667 10.668,22.162 C10.668,22.4513333 10.57,22.694 10.374,22.89 C10.178,23.086 9.94,23.184 9.66,23.184 Z M10.444,24.206 L10.444,31.92 L8.848,31.92 L8.848,24.206 L10.444,24.206 Z" id="Shape" fill="#222222" fill-rule="nonzero"></path>
                        <path d="M15.344,32.046 C14.7373333,32.046 14.1936667,31.9363333 13.713,31.717 C13.2323333,31.4976667 12.852,31.199 12.572,30.821 C12.292,30.443 12.1426667,30.0206667 12.124,29.554 L13.776,29.554 C13.804,29.8806667 13.9603333,30.1536667 14.245,30.373 C14.5296667,30.5923333 14.8866667,30.702 15.316,30.702 C15.764,30.702 16.1116667,30.6156667 16.359,30.443 C16.6063333,30.2703333 16.73,30.0486667 16.73,29.778 C16.73,29.4886667 16.5923333,29.274 16.317,29.134 C16.0416667,28.994 15.6053333,28.84 15.008,28.672 C14.4293333,28.5133333 13.958,28.3593333 13.594,28.21 C13.23,28.0606667 12.915,27.832 12.649,27.524 C12.383,27.216 12.25,26.81 12.25,26.306 C12.25,25.8953333 12.3713333,25.5196667 12.614,25.179 C12.8566667,24.8383333 13.2043333,24.57 13.657,24.374 C14.1096667,24.178 14.63,24.08 15.218,24.08 C16.0953333,24.08 16.8023333,24.3016667 17.339,24.745 C17.8756667,25.1883333 18.1626667,25.7926667 18.2,26.558 L16.604,26.558 C16.576,26.2126667 16.436,25.9373333 16.184,25.732 C15.932,25.5266667 15.5913333,25.424 15.162,25.424 C14.742,25.424 14.42,25.5033333 14.196,25.662 C13.972,25.8206667 13.86,26.0306667 13.86,26.292 C13.86,26.4973333 13.9346667,26.67 14.084,26.81 C14.2333333,26.95 14.4153333,27.0596667 14.63,27.139 C14.8446667,27.2183333 15.162,27.3186667 15.582,27.44 C16.142,27.5893333 16.6016667,27.741 16.961,27.895 C17.3203333,28.049 17.6306667,28.2753333 17.892,28.574 C18.1533333,28.8726667 18.2886667,29.2693333 18.298,29.764 C18.298,30.2026667 18.1766667,30.5946667 17.934,30.94 C17.6913333,31.2853333 17.3483333,31.556 16.905,31.752 C16.4616667,31.948 15.9413333,32.046 15.344,32.046 Z" id="Path" fill="#222222" fill-rule="nonzero"></path>
                        <polygon id="Path" fill="#222222" fill-rule="nonzero" points="23.072 28.07 26.628 31.92 24.472 31.92 21.616 28.602 21.616 31.92 20.02 31.92 20.02 21.56 21.616 21.56 21.616 27.58 24.416 24.206 26.628 24.206"></polygon>
                        <polygon id="Path" fill="#222222" fill-rule="nonzero" points="41.664 22.19 41.664 31.92 40.068 31.92 40.068 25.256 37.1 31.92 35.994 31.92 33.012 25.256 33.012 31.92 31.416 31.92 31.416 22.19 33.138 22.19 36.554 29.82 39.956 22.19"></polygon>
                        <path d="M43.232,28.028 C43.232,27.2533333 43.393,26.5673333 43.715,25.97 C44.037,25.3726667 44.4756667,24.9083333 45.031,24.577 C45.5863333,24.2456667 46.2,24.08 46.872,24.08 C47.4786667,24.08 48.0083333,24.199 48.461,24.437 C48.9136667,24.675 49.2753333,24.9713333 49.546,25.326 L49.546,24.206 L51.156,24.206 L51.156,31.92 L49.546,31.92 L49.546,30.772 C49.2753333,31.136 48.9066667,31.4393333 48.44,31.682 C47.9733333,31.9246667 47.4413333,32.046 46.844,32.046 C46.1813333,32.046 45.5746667,31.8756667 45.024,31.535 C44.4733333,31.1943333 44.037,30.7183333 43.715,30.107 C43.393,29.4956667 43.232,28.8026667 43.232,28.028 Z M49.546,28.056 C49.546,27.524 49.4363333,27.062 49.217,26.67 C48.9976667,26.278 48.7106667,25.9793333 48.356,25.774 C48.0013333,25.5686667 47.6186667,25.466 47.208,25.466 C46.7973333,25.466 46.4146667,25.5663333 46.06,25.767 C45.7053333,25.9676667 45.4183333,26.2616667 45.199,26.649 C44.9796667,27.0363333 44.87,27.496 44.87,28.028 C44.87,28.56 44.9796667,29.0266667 45.199,29.428 C45.4183333,29.8293333 45.7076667,30.135 46.067,30.345 C46.4263333,30.555 46.8066667,30.66 47.208,30.66 C47.6186667,30.66 48.0013333,30.5573333 48.356,30.352 C48.7106667,30.1466667 48.9976667,29.8456667 49.217,29.449 C49.4363333,29.0523333 49.546,28.588 49.546,28.056 Z" id="Shape" fill="#222222" fill-rule="nonzero"></path>
                        <path d="M57.148,24.08 C57.7546667,24.08 58.2983333,24.206 58.779,24.458 C59.2596667,24.71 59.6353333,25.0833333 59.906,25.578 C60.1766667,26.0726667 60.312,26.67 60.312,27.37 L60.312,31.92 L58.73,31.92 L58.73,27.608 C58.73,26.9173333 58.5573333,26.3876667 58.212,26.019 C57.8666667,25.6503333 57.3953333,25.466 56.798,25.466 C56.2006667,25.466 55.727,25.6503333 55.377,26.019 C55.027,26.3876667 54.852,26.9173333 54.852,27.608 L54.852,31.92 L53.256,31.92 L53.256,24.206 L54.852,24.206 L54.852,25.088 C55.1133333,24.7706667 55.447,24.5233333 55.853,24.346 C56.259,24.1686667 56.6906667,24.08 57.148,24.08 Z" id="Path" fill="#222222" fill-rule="nonzero"></path>
                        <path d="M61.81,28.028 C61.81,27.2533333 61.971,26.5673333 62.293,25.97 C62.615,25.3726667 63.0536667,24.9083333 63.609,24.577 C64.1643333,24.2456667 64.778,24.08 65.45,24.08 C66.0566667,24.08 66.5863333,24.199 67.039,24.437 C67.4916667,24.675 67.8533333,24.9713333 68.124,25.326 L68.124,24.206 L69.734,24.206 L69.734,31.92 L68.124,31.92 L68.124,30.772 C67.8533333,31.136 67.4846667,31.4393333 67.018,31.682 C66.5513333,31.9246667 66.0193333,32.046 65.422,32.046 C64.7593333,32.046 64.1526667,31.8756667 63.602,31.535 C63.0513333,31.1943333 62.615,30.7183333 62.293,30.107 C61.971,29.4956667 61.81,28.8026667 61.81,28.028 Z M68.124,28.056 C68.124,27.524 68.0143333,27.062 67.795,26.67 C67.5756667,26.278 67.2886667,25.9793333 66.934,25.774 C66.5793333,25.5686667 66.1966667,25.466 65.786,25.466 C65.3753333,25.466 64.9926667,25.5663333 64.638,25.767 C64.2833333,25.9676667 63.9963333,26.2616667 63.777,26.649 C63.5576667,27.0363333 63.448,27.496 63.448,28.028 C63.448,28.56 63.5576667,29.0266667 63.777,29.428 C63.9963333,29.8293333 64.2856667,30.135 64.645,30.345 C65.0043333,30.555 65.3846667,30.66 65.786,30.66 C66.1966667,30.66 66.5793333,30.5573333 66.934,30.352 C67.2886667,30.1466667 67.5756667,29.8456667 67.795,29.449 C68.0143333,29.0523333 68.124,28.588 68.124,28.056 Z" id="Shape" fill="#222222" fill-rule="nonzero"></path>
                        <path d="M74.942,24.08 C75.5393333,24.08 76.069,24.199 76.531,24.437 C76.993,24.675 77.3546667,24.9713333 77.616,25.326 L77.616,24.206 L79.226,24.206 L79.226,32.046 C79.226,32.7553333 79.0766667,33.3876667 78.778,33.943 C78.4793333,34.4983333 78.0476667,34.9346667 77.483,35.252 C76.9183333,35.5693333 76.244,35.728 75.46,35.728 C74.4146667,35.728 73.5466667,35.483 72.856,34.993 C72.1653333,34.503 71.7733333,33.838 71.68,32.998 L73.262,32.998 C73.3833333,33.3993333 73.6423333,33.7236667 74.039,33.971 C74.4356667,34.2183333 74.9093333,34.342 75.46,34.342 C76.104,34.342 76.6243333,34.146 77.021,33.754 C77.4176667,33.362 77.616,32.7926667 77.616,32.046 L77.616,30.758 C77.3453333,31.122 76.979,31.4276667 76.517,31.675 C76.055,31.9223333 75.53,32.046 74.942,32.046 C74.27,32.046 73.6563333,31.8756667 73.101,31.535 C72.5456667,31.1943333 72.107,30.7183333 71.785,30.107 C71.463,29.4956667 71.302,28.8026667 71.302,28.028 C71.302,27.2533333 71.463,26.5673333 71.785,25.97 C72.107,25.3726667 72.5456667,24.9083333 73.101,24.577 C73.6563333,24.2456667 74.27,24.08 74.942,24.08 Z M77.616,28.056 C77.616,27.524 77.5063333,27.062 77.287,26.67 C77.0676667,26.278 76.7806667,25.9793333 76.426,25.774 C76.0713333,25.5686667 75.6886667,25.466 75.278,25.466 C74.8673333,25.466 74.4846667,25.5663333 74.13,25.767 C73.7753333,25.9676667 73.4883333,26.2616667 73.269,26.649 C73.0496667,27.0363333 72.94,27.496 72.94,28.028 C72.94,28.56 73.0496667,29.0266667 73.269,29.428 C73.4883333,29.8293333 73.7776667,30.135 74.137,30.345 C74.4963333,30.555 74.8766667,30.66 75.278,30.66 C75.6886667,30.66 76.0713333,30.5573333 76.426,30.352 C76.7806667,30.1466667 77.0676667,29.8456667 77.287,29.449 C77.5063333,29.0523333 77.616,28.588 77.616,28.056 Z" id="Shape" fill="#222222" fill-rule="nonzero"></path>
                        <path d="M88.396,27.874 C88.396,28.1633333 88.3773333,28.4246667 88.34,28.658 L82.446,28.658 C82.4926667,29.274 82.7213333,29.7686667 83.132,30.142 C83.5426667,30.5153333 84.0466667,30.702 84.644,30.702 C85.5026667,30.702 86.1093333,30.3426667 86.464,29.624 L88.186,29.624 C87.9526667,30.3333333 87.5303333,30.9143333 86.919,31.367 C86.3076667,31.8196667 85.5493333,32.046 84.644,32.046 C83.9066667,32.046 83.2463333,31.8803333 82.663,31.549 C82.0796667,31.2176667 81.6223333,30.751 81.291,30.149 C80.9596667,29.547 80.794,28.8493333 80.794,28.056 C80.794,27.2626667 80.955,26.565 81.277,25.963 C81.599,25.361 82.0516667,24.8966667 82.635,24.57 C83.2183333,24.2433333 83.888,24.08 84.644,24.08 C85.372,24.08 86.0206667,24.2386667 86.59,24.556 C87.1593333,24.8733333 87.6026667,25.319 87.92,25.893 C88.2373333,26.467 88.396,27.1273333 88.396,27.874 Z M86.73,27.37 C86.7206667,26.782 86.5106667,26.3106667 86.1,25.956 C85.6893333,25.6013333 85.1806667,25.424 84.574,25.424 C84.0233333,25.424 83.552,25.599 83.16,25.949 C82.768,26.299 82.5346667,26.7726667 82.46,27.37 L86.73,27.37 Z" id="Shape" fill="#222222" fill-rule="nonzero"></path>
                        <path d="M99.302,24.08 C99.9086667,24.08 100.452333,24.206 100.933,24.458 C101.413667,24.71 101.791667,25.0833333 102.067,25.578 C102.342333,26.0726667 102.48,26.67 102.48,27.37 L102.48,31.92 L100.898,31.92 L100.898,27.608 C100.898,26.9173333 100.725333,26.3876667 100.38,26.019 C100.034667,25.6503333 99.5633333,25.466 98.966,25.466 C98.3686667,25.466 97.895,25.6503333 97.545,26.019 C97.195,26.3876667 97.02,26.9173333 97.02,27.608 L97.02,31.92 L95.438,31.92 L95.438,27.608 C95.438,26.9173333 95.2653333,26.3876667 94.92,26.019 C94.5746667,25.6503333 94.1033333,25.466 93.506,25.466 C92.9086667,25.466 92.435,25.6503333 92.085,26.019 C91.735,26.3876667 91.56,26.9173333 91.56,27.608 L91.56,31.92 L89.964,31.92 L89.964,24.206 L91.56,24.206 L91.56,25.088 C91.8213333,24.7706667 92.1526667,24.5233333 92.554,24.346 C92.9553333,24.1686667 93.3846667,24.08 93.842,24.08 C94.458,24.08 95.0086667,24.2106667 95.494,24.472 C95.9793333,24.7333333 96.3526667,25.1113333 96.614,25.606 C96.8473333,25.1393333 97.2113333,24.7683333 97.706,24.493 C98.2006667,24.2176667 98.7326667,24.08 99.302,24.08 Z" id="Path" fill="#222222" fill-rule="nonzero"></path>
                        <path d="M111.58,27.874 C111.58,28.1633333 111.561333,28.4246667 111.524,28.658 L105.63,28.658 C105.676667,29.274 105.905333,29.7686667 106.316,30.142 C106.726667,30.5153333 107.230667,30.702 107.828,30.702 C108.686667,30.702 109.293333,30.3426667 109.648,29.624 L111.37,29.624 C111.136667,30.3333333 110.714333,30.9143333 110.103,31.367 C109.491667,31.8196667 108.733333,32.046 107.828,32.046 C107.090667,32.046 106.430333,31.8803333 105.847,31.549 C105.263667,31.2176667 104.806333,30.751 104.475,30.149 C104.143667,29.547 103.978,28.8493333 103.978,28.056 C103.978,27.2626667 104.139,26.565 104.461,25.963 C104.783,25.361 105.235667,24.8966667 105.819,24.57 C106.402333,24.2433333 107.072,24.08 107.828,24.08 C108.556,24.08 109.204667,24.2386667 109.774,24.556 C110.343333,24.8733333 110.786667,25.319 111.104,25.893 C111.421333,26.467 111.58,27.1273333 111.58,27.874 Z M109.914,27.37 C109.904667,26.782 109.694667,26.3106667 109.284,25.956 C108.873333,25.6013333 108.364667,25.424 107.758,25.424 C107.207333,25.424 106.736,25.599 106.344,25.949 C105.952,26.299 105.718667,26.7726667 105.644,27.37 L109.914,27.37 Z" id="Shape" fill="#222222" fill-rule="nonzero"></path>
                        <path d="M117.04,24.08 C117.646667,24.08 118.190333,24.206 118.671,24.458 C119.151667,24.71 119.527333,25.0833333 119.798,25.578 C120.068667,26.0726667 120.204,26.67 120.204,27.37 L120.204,31.92 L118.622,31.92 L118.622,27.608 C118.622,26.9173333 118.449333,26.3876667 118.104,26.019 C117.758667,25.6503333 117.287333,25.466 116.69,25.466 C116.092667,25.466 115.619,25.6503333 115.269,26.019 C114.919,26.3876667 114.744,26.9173333 114.744,27.608 L114.744,31.92 L113.148,31.92 L113.148,24.206 L114.744,24.206 L114.744,25.088 C115.005333,24.7706667 115.339,24.5233333 115.745,24.346 C116.151,24.1686667 116.582667,24.08 117.04,24.08 Z" id="Path" fill="#222222" fill-rule="nonzero"></path>
                        <path d="M124.096,25.508 L124.096,29.778 C124.096,30.0673333 124.163667,30.275 124.299,30.401 C124.434333,30.527 124.665333,30.59 124.992,30.59 L125.972,30.59 L125.972,31.92 L124.712,31.92 C123.993333,31.92 123.442667,31.752 123.06,31.416 C122.677333,31.08 122.486,30.534 122.486,29.778 L122.486,25.508 L121.576,25.508 L121.576,24.206 L122.486,24.206 L122.486,22.288 L124.096,22.288 L124.096,24.206 L125.972,24.206 L125.972,25.508 L124.096,25.508 Z" id="Path" fill="#222222" fill-rule="nonzero"></path>
                    </g>
                    <g id="Group-65" stroke-width="1" fill="none" transform="translate(102.487133, 473.000000)">
                        <mask id="mask-12" fill="white">
                            <use xlink:href="#path-11"></use>
                        </mask>
                        <use id="Mask" fill="#E2E4F5" xlink:href="#path-11"></use>
                        <g id="02-2-14-commercialization-and-adoption" mask="url(#mask-12)">
                            <g transform="translate(64.469542, 48.000000)">
                                <polygon id="Path" fill="url(#linearGradient-13)" fill-rule="nonzero" opacity="0.1" points="116.52852 148.691124 136.386266 120.723372 157.079205 72 76.2972195 0.000694242216 0 44.8795966"></polygon>
                                <rect id="Rectangle" fill="#2942D1" fill-rule="nonzero" x="8.97647471" y="0" width="67.3204517" height="35.9042481"></rect>
                                <rect id="Rectangle" fill="#A9B3EC" fill-rule="nonzero" x="0.000416545329" y="8.97605817" width="67.3204517" height="35.9042481"></rect>
                                <g id="Group-3" stroke-width="1" fill="none" fill-rule="evenodd" transform="translate(25.546938, 13.464010)">
                                    <path d="M9.93436203,24.2353632 L0.62411109,24.2353632 L0.62411109,20.6449276 L9.93436203,20.6449276 C11.4190484,20.6413739 12.6207433,19.4367993 12.6207433,17.9521086 C12.6207433,16.467418 11.4190484,15.2628433 9.93436203,15.2592896 L6.29309247,15.2592896 C4.04596216,15.2628108 1.96801999,14.0660028 0.843437137,12.1205156 C-0.281145712,10.1750285 -0.281145712,7.77707246 0.843437137,5.83158526 C1.96801999,3.88609807 4.04596216,2.68929012 6.29309247,2.69280353 L14.48134,2.69280353 L14.48134,6.28323146 L6.29309247,6.28323146 C4.80840608,6.28678516 3.60671121,7.49135981 3.60671121,8.97605045 C3.60671121,10.4607411 4.80840608,11.6653157 6.29309247,11.6688694 L9.93436203,11.6688694 C13.4045035,11.6688694 16.2176089,14.4819749 16.2176089,17.9521163 C16.2176089,21.4222578 13.4045035,24.2353632 9.93436203,24.2353632 L9.93436203,24.2353632 Z" id="Path" fill="#2942D1" fill-rule="nonzero"></path>
                                    <rect id="Rectangle" fill="#2942D1" fill-rule="nonzero" x="6.31851716" y="0" width="3.59042018" height="4.48802908"></rect>
                                    <rect id="Rectangle" fill="#2942D1" fill-rule="nonzero" x="6.31851716" y="22.4401454" width="3.59042018" height="4.48802908"></rect>
                                </g>
                            </g>
                        </g>
                    </g>
                    <g id="Commercialization-an" stroke-width="1" fill="none" transform="translate(139.936942, 595.780000)">
                        <path d="M0,5.894 C0,4.942 0.221666667,4.088 0.665,3.332 C1.10833333,2.576 1.71033333,1.98566667 2.471,1.561 C3.23166667,1.13633333 4.06466667,0.924 4.97,0.924 C6.006,0.924 6.92766667,1.17833333 7.735,1.687 C8.54233333,2.19566667 9.128,2.91666667 9.492,3.85 L7.574,3.85 C7.322,3.33666667 6.972,2.954 6.524,2.702 C6.076,2.45 5.558,2.324 4.97,2.324 C4.326,2.324 3.752,2.46866667 3.248,2.758 C2.744,3.04733333 2.34966667,3.46266667 2.065,4.004 C1.78033333,4.54533333 1.638,5.17533333 1.638,5.894 C1.638,6.61266667 1.78033333,7.24266667 2.065,7.784 C2.34966667,8.32533333 2.744,8.743 3.248,9.037 C3.752,9.331 4.326,9.478 4.97,9.478 C5.558,9.478 6.076,9.352 6.524,9.1 C6.972,8.848 7.322,8.46533333 7.574,7.952 L9.492,7.952 C9.128,8.88533333 8.54233333,9.604 7.735,10.108 C6.92766667,10.612 6.006,10.864 4.97,10.864 C4.05533333,10.864 3.22,10.6516667 2.464,10.227 C1.708,9.80233333 1.10833333,9.212 0.665,8.456 C0.221666667,7.7 0,6.846 0,5.894 Z" id="Path" fill="#222222" fill-rule="nonzero"></path>
                        <path d="M14.7,10.906 C13.972,10.906 13.314,10.7403333 12.726,10.409 C12.138,10.0776667 11.676,9.611 11.34,9.009 C11.004,8.407 10.836,7.70933333 10.836,6.916 C10.836,6.132 11.0086667,5.43666667 11.354,4.83 C11.6993333,4.22333333 12.1706667,3.75666667 12.768,3.43 C13.3653333,3.10333333 14.0326667,2.94 14.77,2.94 C15.5073333,2.94 16.1746667,3.10333333 16.772,3.43 C17.3693333,3.75666667 17.8406667,4.22333333 18.186,4.83 C18.5313333,5.43666667 18.704,6.132 18.704,6.916 C18.704,7.7 18.5266667,8.39533333 18.172,9.002 C17.8173333,9.60866667 17.3343333,10.0776667 16.723,10.409 C16.1116667,10.7403333 15.4373333,10.906 14.7,10.906 Z M14.7,9.52 C15.1106667,9.52 15.4956667,9.422 15.855,9.226 C16.2143333,9.03 16.506,8.736 16.73,8.344 C16.954,7.952 17.066,7.476 17.066,6.916 C17.066,6.356 16.9586667,5.88233333 16.744,5.495 C16.5293333,5.10766667 16.2446667,4.816 15.89,4.62 C15.5353333,4.424 15.1526667,4.326 14.742,4.326 C14.3313333,4.326 13.951,4.424 13.601,4.62 C13.251,4.816 12.9733333,5.10766667 12.768,5.495 C12.5626667,5.88233333 12.46,6.356 12.46,6.916 C12.46,7.74666667 12.6723333,8.38833333 13.097,8.841 C13.5216667,9.29366667 14.056,9.52 14.7,9.52 Z" id="Shape" fill="#222222" fill-rule="nonzero"></path>
                        <path d="M29.624,2.94 C30.2306667,2.94 30.7743333,3.066 31.255,3.318 C31.7356667,3.57 32.1136667,3.94333333 32.389,4.438 C32.6643333,4.93266667 32.802,5.53 32.802,6.23 L32.802,10.78 L31.22,10.78 L31.22,6.468 C31.22,5.77733333 31.0473333,5.24766667 30.702,4.879 C30.3566667,4.51033333 29.8853333,4.326 29.288,4.326 C28.6906667,4.326 28.217,4.51033333 27.867,4.879 C27.517,5.24766667 27.342,5.77733333 27.342,6.468 L27.342,10.78 L25.76,10.78 L25.76,6.468 C25.76,5.77733333 25.5873333,5.24766667 25.242,4.879 C24.8966667,4.51033333 24.4253333,4.326 23.828,4.326 C23.2306667,4.326 22.757,4.51033333 22.407,4.879 C22.057,5.24766667 21.882,5.77733333 21.882,6.468 L21.882,10.78 L20.286,10.78 L20.286,3.066 L21.882,3.066 L21.882,3.948 C22.1433333,3.63066667 22.4746667,3.38333333 22.876,3.206 C23.2773333,3.02866667 23.7066667,2.94 24.164,2.94 C24.78,2.94 25.3306667,3.07066667 25.816,3.332 C26.3013333,3.59333333 26.6746667,3.97133333 26.936,4.466 C27.1693333,3.99933333 27.5333333,3.62833333 28.028,3.353 C28.5226667,3.07766667 29.0546667,2.94 29.624,2.94 Z" id="Path" fill="#222222" fill-rule="nonzero"></path>
                        <path d="M44.17,2.94 C44.7766667,2.94 45.3203333,3.066 45.801,3.318 C46.2816667,3.57 46.6596667,3.94333333 46.935,4.438 C47.2103333,4.93266667 47.348,5.53 47.348,6.23 L47.348,10.78 L45.766,10.78 L45.766,6.468 C45.766,5.77733333 45.5933333,5.24766667 45.248,4.879 C44.9026667,4.51033333 44.4313333,4.326 43.834,4.326 C43.2366667,4.326 42.763,4.51033333 42.413,4.879 C42.063,5.24766667 41.888,5.77733333 41.888,6.468 L41.888,10.78 L40.306,10.78 L40.306,6.468 C40.306,5.77733333 40.1333333,5.24766667 39.788,4.879 C39.4426667,4.51033333 38.9713333,4.326 38.374,4.326 C37.7766667,4.326 37.303,4.51033333 36.953,4.879 C36.603,5.24766667 36.428,5.77733333 36.428,6.468 L36.428,10.78 L34.832,10.78 L34.832,3.066 L36.428,3.066 L36.428,3.948 C36.6893333,3.63066667 37.0206667,3.38333333 37.422,3.206 C37.8233333,3.02866667 38.2526667,2.94 38.71,2.94 C39.326,2.94 39.8766667,3.07066667 40.362,3.332 C40.8473333,3.59333333 41.2206667,3.97133333 41.482,4.466 C41.7153333,3.99933333 42.0793333,3.62833333 42.574,3.353 C43.0686667,3.07766667 43.6006667,2.94 44.17,2.94 Z" id="Path" fill="#222222" fill-rule="nonzero"></path>
                        <path d="M56.448,6.734 C56.448,7.02333333 56.4293333,7.28466667 56.392,7.518 L50.498,7.518 C50.5446667,8.134 50.7733333,8.62866667 51.184,9.002 C51.5946667,9.37533333 52.0986667,9.562 52.696,9.562 C53.5546667,9.562 54.1613333,9.20266667 54.516,8.484 L56.238,8.484 C56.0046667,9.19333333 55.5823333,9.77433333 54.971,10.227 C54.3596667,10.6796667 53.6013333,10.906 52.696,10.906 C51.9586667,10.906 51.2983333,10.7403333 50.715,10.409 C50.1316667,10.0776667 49.6743333,9.611 49.343,9.009 C49.0116667,8.407 48.846,7.70933333 48.846,6.916 C48.846,6.12266667 49.007,5.425 49.329,4.823 C49.651,4.221 50.1036667,3.75666667 50.687,3.43 C51.2703333,3.10333333 51.94,2.94 52.696,2.94 C53.424,2.94 54.0726667,3.09866667 54.642,3.416 C55.2113333,3.73333333 55.6546667,4.179 55.972,4.753 C56.2893333,5.327 56.448,5.98733333 56.448,6.734 Z M54.782,6.23 C54.7726667,5.642 54.5626667,5.17066667 54.152,4.816 C53.7413333,4.46133333 53.2326667,4.284 52.626,4.284 C52.0753333,4.284 51.604,4.459 51.212,4.809 C50.82,5.159 50.5866667,5.63266667 50.512,6.23 L54.782,6.23 Z" id="Shape" fill="#222222" fill-rule="nonzero"></path>
                        <path d="M59.612,4.186 C59.8453333,3.794 60.1556667,3.48833333 60.543,3.269 C60.9303333,3.04966667 61.39,2.94 61.922,2.94 L61.922,4.592 L61.516,4.592 C60.8906667,4.592 60.417,4.75066667 60.095,5.068 C59.773,5.38533333 59.612,5.936 59.612,6.72 L59.612,10.78 L58.016,10.78 L58.016,3.066 L59.612,3.066 L59.612,4.186 Z" id="Path" fill="#222222" fill-rule="nonzero"></path>
                        <path d="M62.86,6.916 C62.86,6.12266667 63.021,5.425 63.343,4.823 C63.665,4.221 64.1106667,3.75666667 64.68,3.43 C65.2493333,3.10333333 65.9026667,2.94 66.64,2.94 C67.5733333,2.94 68.3456667,3.16166667 68.957,3.605 C69.5683333,4.04833333 69.9813333,4.68066667 70.196,5.502 L68.474,5.502 C68.334,5.11933333 68.11,4.82066667 67.802,4.606 C67.494,4.39133333 67.1066667,4.284 66.64,4.284 C65.9866667,4.284 65.4663333,4.515 65.079,4.977 C64.6916667,5.439 64.498,6.08533333 64.498,6.916 C64.498,7.74666667 64.6916667,8.39533333 65.079,8.862 C65.4663333,9.32866667 65.9866667,9.562 66.64,9.562 C67.564,9.562 68.1753333,9.156 68.474,8.344 L70.196,8.344 C69.972,9.128 69.552,9.751 68.936,10.213 C68.32,10.675 67.5546667,10.906 66.64,10.906 C65.9026667,10.906 65.2493333,10.7403333 64.68,10.409 C64.1106667,10.0776667 63.665,9.611 63.343,9.009 C63.021,8.407 62.86,7.70933333 62.86,6.916 Z" id="Path" fill="#222222" fill-rule="nonzero"></path>
                        <path d="M72.604,2.044 C72.3146667,2.044 72.072,1.946 71.876,1.75 C71.68,1.554 71.582,1.31133333 71.582,1.022 C71.582,0.732666667 71.68,0.49 71.876,0.294 C72.072,0.098 72.3146667,0 72.604,0 C72.884,0 73.122,0.098 73.318,0.294 C73.514,0.49 73.612,0.732666667 73.612,1.022 C73.612,1.31133333 73.514,1.554 73.318,1.75 C73.122,1.946 72.884,2.044 72.604,2.044 Z M73.388,3.066 L73.388,10.78 L71.792,10.78 L71.792,3.066 L73.388,3.066 Z" id="Shape" fill="#222222" fill-rule="nonzero"></path>
                        <path d="M74.956,6.888 C74.956,6.11333333 75.117,5.42733333 75.439,4.83 C75.761,4.23266667 76.1996667,3.76833333 76.755,3.437 C77.3103333,3.10566667 77.924,2.94 78.596,2.94 C79.2026667,2.94 79.7323333,3.059 80.185,3.297 C80.6376667,3.535 80.9993333,3.83133333 81.27,4.186 L81.27,3.066 L82.88,3.066 L82.88,10.78 L81.27,10.78 L81.27,9.632 C80.9993333,9.996 80.6306667,10.2993333 80.164,10.542 C79.6973333,10.7846667 79.1653333,10.906 78.568,10.906 C77.9053333,10.906 77.2986667,10.7356667 76.748,10.395 C76.1973333,10.0543333 75.761,9.57833333 75.439,8.967 C75.117,8.35566667 74.956,7.66266667 74.956,6.888 Z M81.27,6.916 C81.27,6.384 81.1603333,5.922 80.941,5.53 C80.7216667,5.138 80.4346667,4.83933333 80.08,4.634 C79.7253333,4.42866667 79.3426667,4.326 78.932,4.326 C78.5213333,4.326 78.1386667,4.42633333 77.784,4.627 C77.4293333,4.82766667 77.1423333,5.12166667 76.923,5.509 C76.7036667,5.89633333 76.594,6.356 76.594,6.888 C76.594,7.42 76.7036667,7.88666667 76.923,8.288 C77.1423333,8.68933333 77.4316667,8.995 77.791,9.205 C78.1503333,9.415 78.5306667,9.52 78.932,9.52 C79.3426667,9.52 79.7253333,9.41733333 80.08,9.212 C80.4346667,9.00666667 80.7216667,8.70566667 80.941,8.309 C81.1603333,7.91233333 81.27,7.448 81.27,6.916 Z" id="Shape" fill="#222222" fill-rule="nonzero"></path>
                        <polygon id="Path" fill="#222222" fill-rule="nonzero" points="86.576 0.42 86.576 10.78 84.98 10.78 84.98 0.42"></polygon>
                        <path d="M89.488,2.044 C89.1986667,2.044 88.956,1.946 88.76,1.75 C88.564,1.554 88.466,1.31133333 88.466,1.022 C88.466,0.732666667 88.564,0.49 88.76,0.294 C88.956,0.098 89.1986667,0 89.488,0 C89.768,0 90.006,0.098 90.202,0.294 C90.398,0.49 90.496,0.732666667 90.496,1.022 C90.496,1.31133333 90.398,1.554 90.202,1.75 C90.006,1.946 89.768,2.044 89.488,2.044 Z M90.272,3.066 L90.272,10.78 L88.676,10.78 L88.676,3.066 L90.272,3.066 Z" id="Shape" fill="#222222" fill-rule="nonzero"></path>
                        <polygon id="Path" fill="#222222" fill-rule="nonzero" points="93.786 9.478 97.286 9.478 97.286 10.78 91.938 10.78 91.938 9.478 95.452 4.368 91.938 4.368 91.938 3.066 97.286 3.066 97.286 4.368"></polygon>
                        <path d="M98.434,6.888 C98.434,6.11333333 98.595,5.42733333 98.917,4.83 C99.239,4.23266667 99.6776667,3.76833333 100.233,3.437 C100.788333,3.10566667 101.402,2.94 102.074,2.94 C102.680667,2.94 103.210333,3.059 103.663,3.297 C104.115667,3.535 104.477333,3.83133333 104.748,4.186 L104.748,3.066 L106.358,3.066 L106.358,10.78 L104.748,10.78 L104.748,9.632 C104.477333,9.996 104.108667,10.2993333 103.642,10.542 C103.175333,10.7846667 102.643333,10.906 102.046,10.906 C101.383333,10.906 100.776667,10.7356667 100.226,10.395 C99.6753333,10.0543333 99.239,9.57833333 98.917,8.967 C98.595,8.35566667 98.434,7.66266667 98.434,6.888 Z M104.748,6.916 C104.748,6.384 104.638333,5.922 104.419,5.53 C104.199667,5.138 103.912667,4.83933333 103.558,4.634 C103.203333,4.42866667 102.820667,4.326 102.41,4.326 C101.999333,4.326 101.616667,4.42633333 101.262,4.627 C100.907333,4.82766667 100.620333,5.12166667 100.401,5.509 C100.181667,5.89633333 100.072,6.356 100.072,6.888 C100.072,7.42 100.181667,7.88666667 100.401,8.288 C100.620333,8.68933333 100.909667,8.995 101.269,9.205 C101.628333,9.415 102.008667,9.52 102.41,9.52 C102.820667,9.52 103.203333,9.41733333 103.558,9.212 C103.912667,9.00666667 104.199667,8.70566667 104.419,8.309 C104.638333,7.91233333 104.748,7.448 104.748,6.916 Z" id="Shape" fill="#222222" fill-rule="nonzero"></path>
                        <path d="M110.32,4.368 L110.32,8.638 C110.32,8.92733333 110.387667,9.135 110.523,9.261 C110.658333,9.387 110.889333,9.45 111.216,9.45 L112.196,9.45 L112.196,10.78 L110.936,10.78 C110.217333,10.78 109.666667,10.612 109.284,10.276 C108.901333,9.94 108.71,9.394 108.71,8.638 L108.71,4.368 L107.8,4.368 L107.8,3.066 L108.71,3.066 L108.71,1.148 L110.32,1.148 L110.32,3.066 L112.196,3.066 L112.196,4.368 L110.32,4.368 Z" id="Path" fill="#222222" fill-rule="nonzero"></path>
                        <path d="M114.478,2.044 C114.188667,2.044 113.946,1.946 113.75,1.75 C113.554,1.554 113.456,1.31133333 113.456,1.022 C113.456,0.732666667 113.554,0.49 113.75,0.294 C113.946,0.098 114.188667,0 114.478,0 C114.758,0 114.996,0.098 115.192,0.294 C115.388,0.49 115.486,0.732666667 115.486,1.022 C115.486,1.31133333 115.388,1.554 115.192,1.75 C114.996,1.946 114.758,2.044 114.478,2.044 Z M115.262,3.066 L115.262,10.78 L113.666,10.78 L113.666,3.066 L115.262,3.066 Z" id="Shape" fill="#222222" fill-rule="nonzero"></path>
                        <path d="M120.708,10.906 C119.98,10.906 119.322,10.7403333 118.734,10.409 C118.146,10.0776667 117.684,9.611 117.348,9.009 C117.012,8.407 116.844,7.70933333 116.844,6.916 C116.844,6.132 117.016667,5.43666667 117.362,4.83 C117.707333,4.22333333 118.178667,3.75666667 118.776,3.43 C119.373333,3.10333333 120.040667,2.94 120.778,2.94 C121.515333,2.94 122.182667,3.10333333 122.78,3.43 C123.377333,3.75666667 123.848667,4.22333333 124.194,4.83 C124.539333,5.43666667 124.712,6.132 124.712,6.916 C124.712,7.7 124.534667,8.39533333 124.18,9.002 C123.825333,9.60866667 123.342333,10.0776667 122.731,10.409 C122.119667,10.7403333 121.445333,10.906 120.708,10.906 Z M120.708,9.52 C121.118667,9.52 121.503667,9.422 121.863,9.226 C122.222333,9.03 122.514,8.736 122.738,8.344 C122.962,7.952 123.074,7.476 123.074,6.916 C123.074,6.356 122.966667,5.88233333 122.752,5.495 C122.537333,5.10766667 122.252667,4.816 121.898,4.62 C121.543333,4.424 121.160667,4.326 120.75,4.326 C120.339333,4.326 119.959,4.424 119.609,4.62 C119.259,4.816 118.981333,5.10766667 118.776,5.495 C118.570667,5.88233333 118.468,6.356 118.468,6.916 C118.468,7.74666667 118.680333,8.38833333 119.105,8.841 C119.529667,9.29366667 120.064,9.52 120.708,9.52 Z" id="Shape" fill="#222222" fill-rule="nonzero"></path>
                        <path d="M130.186,2.94 C130.792667,2.94 131.336333,3.066 131.817,3.318 C132.297667,3.57 132.673333,3.94333333 132.944,4.438 C133.214667,4.93266667 133.35,5.53 133.35,6.23 L133.35,10.78 L131.768,10.78 L131.768,6.468 C131.768,5.77733333 131.595333,5.24766667 131.25,4.879 C130.904667,4.51033333 130.433333,4.326 129.836,4.326 C129.238667,4.326 128.765,4.51033333 128.415,4.879 C128.065,5.24766667 127.89,5.77733333 127.89,6.468 L127.89,10.78 L126.294,10.78 L126.294,3.066 L127.89,3.066 L127.89,3.948 C128.151333,3.63066667 128.485,3.38333333 128.891,3.206 C129.297,3.02866667 129.728667,2.94 130.186,2.94 Z" id="Path" fill="#222222" fill-rule="nonzero"></path>
                        <path d="M19.271,28.448 C19.271,27.6733333 19.432,26.9873333 19.754,26.39 C20.076,25.7926667 20.5146667,25.3283333 21.07,24.997 C21.6253333,24.6656667 22.239,24.5 22.911,24.5 C23.5176667,24.5 24.0473333,24.619 24.5,24.857 C24.9526667,25.095 25.3143333,25.3913333 25.585,25.746 L25.585,24.626 L27.195,24.626 L27.195,32.34 L25.585,32.34 L25.585,31.192 C25.3143333,31.556 24.9456667,31.8593333 24.479,32.102 C24.0123333,32.3446667 23.4803333,32.466 22.883,32.466 C22.2203333,32.466 21.6136667,32.2956667 21.063,31.955 C20.5123333,31.6143333 20.076,31.1383333 19.754,30.527 C19.432,29.9156667 19.271,29.2226667 19.271,28.448 Z M25.585,28.476 C25.585,27.944 25.4753333,27.482 25.256,27.09 C25.0366667,26.698 24.7496667,26.3993333 24.395,26.194 C24.0403333,25.9886667 23.6576667,25.886 23.247,25.886 C22.8363333,25.886 22.4536667,25.9863333 22.099,26.187 C21.7443333,26.3876667 21.4573333,26.6816667 21.238,27.069 C21.0186667,27.4563333 20.909,27.916 20.909,28.448 C20.909,28.98 21.0186667,29.4466667 21.238,29.848 C21.4573333,30.2493333 21.7466667,30.555 22.106,30.765 C22.4653333,30.975 22.8456667,31.08 23.247,31.08 C23.6576667,31.08 24.0403333,30.9773333 24.395,30.772 C24.7496667,30.5666667 25.0366667,30.2656667 25.256,29.869 C25.4753333,29.4723333 25.585,29.008 25.585,28.476 Z" id="Shape" fill="#222222" fill-rule="nonzero"></path>
                        <path d="M33.187,24.5 C33.7936667,24.5 34.3373333,24.626 34.818,24.878 C35.2986667,25.13 35.6743333,25.5033333 35.945,25.998 C36.2156667,26.4926667 36.351,27.09 36.351,27.79 L36.351,32.34 L34.769,32.34 L34.769,28.028 C34.769,27.3373333 34.5963333,26.8076667 34.251,26.439 C33.9056667,26.0703333 33.4343333,25.886 32.837,25.886 C32.2396667,25.886 31.766,26.0703333 31.416,26.439 C31.066,26.8076667 30.891,27.3373333 30.891,28.028 L30.891,32.34 L29.295,32.34 L29.295,24.626 L30.891,24.626 L30.891,25.508 C31.1523333,25.1906667 31.486,24.9433333 31.892,24.766 C32.298,24.5886667 32.7296667,24.5 33.187,24.5 Z" id="Path" fill="#222222" fill-rule="nonzero"></path>
                        <path d="M37.849,28.448 C37.849,27.6733333 38.01,26.9873333 38.332,26.39 C38.654,25.7926667 39.0926667,25.3283333 39.648,24.997 C40.2033333,24.6656667 40.8216667,24.5 41.503,24.5 C42.007,24.5 42.504,24.6096667 42.994,24.829 C43.484,25.0483333 43.8736667,25.34 44.163,25.704 L44.163,21.98 L45.773,21.98 L45.773,32.34 L44.163,32.34 L44.163,31.178 C43.9016667,31.5513333 43.54,31.8593333 43.078,32.102 C42.616,32.3446667 42.0863333,32.466 41.489,32.466 C40.817,32.466 40.2033333,32.2956667 39.648,31.955 C39.0926667,31.6143333 38.654,31.1383333 38.332,30.527 C38.01,29.9156667 37.849,29.2226667 37.849,28.448 Z M44.163,28.476 C44.163,27.944 44.0533333,27.482 43.834,27.09 C43.6146667,26.698 43.3276667,26.3993333 42.973,26.194 C42.6183333,25.9886667 42.2356667,25.886 41.825,25.886 C41.4143333,25.886 41.0316667,25.9863333 40.677,26.187 C40.3223333,26.3876667 40.0353333,26.6816667 39.816,27.069 C39.5966667,27.4563333 39.487,27.916 39.487,28.448 C39.487,28.98 39.5966667,29.4466667 39.816,29.848 C40.0353333,30.2493333 40.3246667,30.555 40.684,30.765 C41.0433333,30.975 41.4236667,31.08 41.825,31.08 C42.2356667,31.08 42.6183333,30.9773333 42.973,30.772 C43.3276667,30.5666667 43.6146667,30.2656667 43.834,29.869 C44.0533333,29.4723333 44.163,29.008 44.163,28.476 Z" id="Shape" fill="#222222" fill-rule="nonzero"></path>
                        <path d="M57.379,30.352 L53.305,30.352 L52.605,32.34 L50.939,32.34 L54.425,22.596 L56.273,22.596 L59.759,32.34 L58.079,32.34 L57.379,30.352 Z M56.931,29.05 L55.349,24.528 L53.753,29.05 L56.931,29.05 Z" id="Shape" fill="#222222" fill-rule="nonzero"></path>
                        <path d="M60.739,28.448 C60.739,27.6733333 60.9,26.9873333 61.222,26.39 C61.544,25.7926667 61.9826667,25.3283333 62.538,24.997 C63.0933333,24.6656667 63.7116667,24.5 64.393,24.5 C64.897,24.5 65.394,24.6096667 65.884,24.829 C66.374,25.0483333 66.7636667,25.34 67.053,25.704 L67.053,21.98 L68.663,21.98 L68.663,32.34 L67.053,32.34 L67.053,31.178 C66.7916667,31.5513333 66.43,31.8593333 65.968,32.102 C65.506,32.3446667 64.9763333,32.466 64.379,32.466 C63.707,32.466 63.0933333,32.2956667 62.538,31.955 C61.9826667,31.6143333 61.544,31.1383333 61.222,30.527 C60.9,29.9156667 60.739,29.2226667 60.739,28.448 Z M67.053,28.476 C67.053,27.944 66.9433333,27.482 66.724,27.09 C66.5046667,26.698 66.2176667,26.3993333 65.863,26.194 C65.5083333,25.9886667 65.1256667,25.886 64.715,25.886 C64.3043333,25.886 63.9216667,25.9863333 63.567,26.187 C63.2123333,26.3876667 62.9253333,26.6816667 62.706,27.069 C62.4866667,27.4563333 62.377,27.916 62.377,28.448 C62.377,28.98 62.4866667,29.4466667 62.706,29.848 C62.9253333,30.2493333 63.2146667,30.555 63.574,30.765 C63.9333333,30.975 64.3136667,31.08 64.715,31.08 C65.1256667,31.08 65.5083333,30.9773333 65.863,30.772 C66.2176667,30.5666667 66.5046667,30.2656667 66.724,29.869 C66.9433333,29.4723333 67.053,29.008 67.053,28.476 Z" id="Shape" fill="#222222" fill-rule="nonzero"></path>
                        <path d="M74.109,32.466 C73.381,32.466 72.723,32.3003333 72.135,31.969 C71.547,31.6376667 71.085,31.171 70.749,30.569 C70.413,29.967 70.245,29.2693333 70.245,28.476 C70.245,27.692 70.4176667,26.9966667 70.763,26.39 C71.1083333,25.7833333 71.5796667,25.3166667 72.177,24.99 C72.7743333,24.6633333 73.4416667,24.5 74.179,24.5 C74.9163333,24.5 75.5836667,24.6633333 76.181,24.99 C76.7783333,25.3166667 77.2496667,25.7833333 77.595,26.39 C77.9403333,26.9966667 78.113,27.692 78.113,28.476 C78.113,29.26 77.9356667,29.9553333 77.581,30.562 C77.2263333,31.1686667 76.7433333,31.6376667 76.132,31.969 C75.5206667,32.3003333 74.8463333,32.466 74.109,32.466 Z M74.109,31.08 C74.5196667,31.08 74.9046667,30.982 75.264,30.786 C75.6233333,30.59 75.915,30.296 76.139,29.904 C76.363,29.512 76.475,29.036 76.475,28.476 C76.475,27.916 76.3676667,27.4423333 76.153,27.055 C75.9383333,26.6676667 75.6536667,26.376 75.299,26.18 C74.9443333,25.984 74.5616667,25.886 74.151,25.886 C73.7403333,25.886 73.36,25.984 73.01,26.18 C72.66,26.376 72.3823333,26.6676667 72.177,27.055 C71.9716667,27.4423333 71.869,27.916 71.869,28.476 C71.869,29.3066667 72.0813333,29.9483333 72.506,30.401 C72.9306667,30.8536667 73.465,31.08 74.109,31.08 Z" id="Shape" fill="#222222" fill-rule="nonzero"></path>
                        <path d="M81.291,25.76 C81.5616667,25.4053333 81.9303333,25.1066667 82.397,24.864 C82.8636667,24.6213333 83.391,24.5 83.979,24.5 C84.651,24.5 85.2646667,24.6656667 85.82,24.997 C86.3753333,25.3283333 86.8116667,25.7926667 87.129,26.39 C87.4463333,26.9873333 87.605,27.6733333 87.605,28.448 C87.605,29.2226667 87.4463333,29.9156667 87.129,30.527 C86.8116667,31.1383333 86.3753333,31.6143333 85.82,31.955 C85.2646667,32.2956667 84.651,32.466 83.979,32.466 C83.391,32.466 82.8683333,32.347 82.411,32.109 C81.9536667,31.871 81.5803333,31.5746667 81.291,31.22 L81.291,36.008 L79.695,36.008 L79.695,24.626 L81.291,24.626 L81.291,25.76 Z M85.981,28.448 C85.981,27.916 85.8713333,27.4563333 85.652,27.069 C85.4326667,26.6816667 85.1433333,26.3876667 84.784,26.187 C84.4246667,25.9863333 84.0396667,25.886 83.629,25.886 C83.2276667,25.886 82.8473333,25.9886667 82.488,26.194 C82.1286667,26.3993333 81.8393333,26.698 81.62,27.09 C81.4006667,27.482 81.291,27.944 81.291,28.476 C81.291,29.008 81.4006667,29.4723333 81.62,29.869 C81.8393333,30.2656667 82.1286667,30.5666667 82.488,30.772 C82.8473333,30.9773333 83.2276667,31.08 83.629,31.08 C84.0396667,31.08 84.4246667,30.975 84.784,30.765 C85.1433333,30.555 85.4326667,30.2493333 85.652,29.848 C85.8713333,29.4466667 85.981,28.98 85.981,28.448 Z" id="Shape" fill="#222222" fill-rule="nonzero"></path>
                        <path d="M91.049,25.928 L91.049,30.198 C91.049,30.4873333 91.1166667,30.695 91.252,30.821 C91.3873333,30.947 91.6183333,31.01 91.945,31.01 L92.925,31.01 L92.925,32.34 L91.665,32.34 C90.9463333,32.34 90.3956667,32.172 90.013,31.836 C89.6303333,31.5 89.439,30.954 89.439,30.198 L89.439,25.928 L88.529,25.928 L88.529,24.626 L89.439,24.626 L89.439,22.708 L91.049,22.708 L91.049,24.626 L92.925,24.626 L92.925,25.928 L91.049,25.928 Z" id="Path" fill="#222222" fill-rule="nonzero"></path>
                        <path d="M95.207,23.604 C94.9176667,23.604 94.675,23.506 94.479,23.31 C94.283,23.114 94.185,22.8713333 94.185,22.582 C94.185,22.2926667 94.283,22.05 94.479,21.854 C94.675,21.658 94.9176667,21.56 95.207,21.56 C95.487,21.56 95.725,21.658 95.921,21.854 C96.117,22.05 96.215,22.2926667 96.215,22.582 C96.215,22.8713333 96.117,23.114 95.921,23.31 C95.725,23.506 95.487,23.604 95.207,23.604 Z M95.991,24.626 L95.991,32.34 L94.395,32.34 L94.395,24.626 L95.991,24.626 Z" id="Shape" fill="#222222" fill-rule="nonzero"></path>
                        <path d="M101.437,32.466 C100.709,32.466 100.051,32.3003333 99.463,31.969 C98.875,31.6376667 98.413,31.171 98.077,30.569 C97.741,29.967 97.573,29.2693333 97.573,28.476 C97.573,27.692 97.7456667,26.9966667 98.091,26.39 C98.4363333,25.7833333 98.9076667,25.3166667 99.505,24.99 C100.102333,24.6633333 100.769667,24.5 101.507,24.5 C102.244333,24.5 102.911667,24.6633333 103.509,24.99 C104.106333,25.3166667 104.577667,25.7833333 104.923,26.39 C105.268333,26.9966667 105.441,27.692 105.441,28.476 C105.441,29.26 105.263667,29.9553333 104.909,30.562 C104.554333,31.1686667 104.071333,31.6376667 103.46,31.969 C102.848667,32.3003333 102.174333,32.466 101.437,32.466 Z M101.437,31.08 C101.847667,31.08 102.232667,30.982 102.592,30.786 C102.951333,30.59 103.243,30.296 103.467,29.904 C103.691,29.512 103.803,29.036 103.803,28.476 C103.803,27.916 103.695667,27.4423333 103.481,27.055 C103.266333,26.6676667 102.981667,26.376 102.627,26.18 C102.272333,25.984 101.889667,25.886 101.479,25.886 C101.068333,25.886 100.688,25.984 100.338,26.18 C99.988,26.376 99.7103333,26.6676667 99.505,27.055 C99.2996667,27.4423333 99.197,27.916 99.197,28.476 C99.197,29.3066667 99.4093333,29.9483333 99.834,30.401 C100.258667,30.8536667 100.793,31.08 101.437,31.08 Z" id="Shape" fill="#222222" fill-rule="nonzero"></path>
                        <path d="M110.915,24.5 C111.521667,24.5 112.065333,24.626 112.546,24.878 C113.026667,25.13 113.402333,25.5033333 113.673,25.998 C113.943667,26.4926667 114.079,27.09 114.079,27.79 L114.079,32.34 L112.497,32.34 L112.497,28.028 C112.497,27.3373333 112.324333,26.8076667 111.979,26.439 C111.633667,26.0703333 111.162333,25.886 110.565,25.886 C109.967667,25.886 109.494,26.0703333 109.144,26.439 C108.794,26.8076667 108.619,27.3373333 108.619,28.028 L108.619,32.34 L107.023,32.34 L107.023,24.626 L108.619,24.626 L108.619,25.508 C108.880333,25.1906667 109.214,24.9433333 109.62,24.766 C110.026,24.5886667 110.457667,24.5 110.915,24.5 Z" id="Path" fill="#222222" fill-rule="nonzero"></path>
                    </g>
                    <g id="Group-2" stroke-width="1" fill="none" transform="translate(406.956676, 692.000000)">
                        <g id="Group-25" transform="translate(16.000000, 0.000000)">
                            <rect id="Rectangle" fill="#FFFFFF" x="0" y="0" width="141" height="31" rx="15.5"></rect>
                            <path d="M19.8108583,21 C19.9323861,21 20.0326465,20.9819495 20.1116395,20.9458484 C20.1906326,20.9097473 20.2726638,20.8555957 20.3577333,20.7833935 L28.9072125,12.299639 C29.0651986,12.143201 29.1441916,11.9626955 29.1441916,11.7581227 C29.1441916,11.5535499 29.0651986,11.3730445 28.9072125,11.2166065 C28.7492263,11.0722022 28.5669347,11 28.3603375,11 C28.1537402,11 27.9714486,11.0722022 27.8134625,11.2166065 L19.8108583,19.1588448 L16.4749208,15.8375451 C16.3169347,15.6931408 16.134643,15.6209386 15.9280458,15.6209386 C15.7214486,15.6209386 15.5391569,15.6931408 15.3811708,15.8375451 C15.2231847,15.9939832 15.1441916,16.1744886 15.1441916,16.3790614 C15.1441916,16.5836342 15.2231847,16.7641396 15.3811708,16.9205776 L19.2639833,20.7833935 C19.3490527,20.8555957 19.431084,20.9097473 19.510077,20.9458484 C19.5890701,20.9819495 19.6893305,21 19.8108583,21 Z" id="" fill="#2942D1" fill-rule="nonzero"></path>
                            <text id="Analyzed-Risks" font-family="Poppins-Regular, Poppins" font-size="12" font-weight="normal" line-spacing="12" fill="#000000">
                                <tspan x="39.1441916" y="22">Analyzed Risks</tspan>
                            </text>
                        </g>
                        <g id="Group-42" transform="translate(0.000000, 43.000000)">
                            <rect id="Rectangle" fill="#FFFFFF" x="0" y="0" width="172" height="31" rx="15.5"></rect>
                            <path d="M19.6666667,21 C19.7881944,21 19.8884549,20.9819495 19.9674479,20.9458484 C20.046441,20.9097473 20.1284722,20.8555957 20.2135417,20.7833935 L28.7630208,12.299639 C28.9210069,12.143201 29,11.9626955 29,11.7581227 C29,11.5535499 28.9210069,11.3730445 28.7630208,11.2166065 C28.6050347,11.0722022 28.4227431,11 28.2161458,11 C28.0095486,11 27.8272569,11.0722022 27.6692708,11.2166065 L19.6666667,19.1588448 L16.3307292,15.8375451 C16.1727431,15.6931408 15.9904514,15.6209386 15.7838542,15.6209386 C15.5772569,15.6209386 15.3949653,15.6931408 15.2369792,15.8375451 C15.0789931,15.9939832 15,16.1744886 15,16.3790614 C15,16.5836342 15.0789931,16.7641396 15.2369792,16.9205776 L19.1197917,20.7833935 C19.2048611,20.8555957 19.2868924,20.9097473 19.3658854,20.9458484 C19.4448785,20.9819495 19.5451389,21 19.6666667,21 Z" id="" fill="#2942D1" fill-rule="nonzero"></path>
                            <text id="Competitive-Pricing" font-family="Poppins-Regular, Poppins" font-size="12" font-weight="normal" line-spacing="12" fill="#000000">
                                <tspan x="39" y="22">Competitive Pricing</tspan>
                            </text>
                        </g>
                        <g id="Group-27" transform="translate(4.000000, 86.000000)">
                            <rect id="Rectangle" fill="#FFFFFF" x="0" y="0" width="165" height="31" rx="15.5"></rect>
                            <path d="M19.6666667,21 C19.7881944,21 19.8884549,20.9819495 19.9674479,20.9458484 C20.046441,20.9097473 20.1284722,20.8555957 20.2135417,20.7833935 L28.7630208,12.299639 C28.9210069,12.143201 29,11.9626955 29,11.7581227 C29,11.5535499 28.9210069,11.3730445 28.7630208,11.2166065 C28.6050347,11.0722022 28.4227431,11 28.2161458,11 C28.0095486,11 27.8272569,11.0722022 27.6692708,11.2166065 L19.6666667,19.1588448 L16.3307292,15.8375451 C16.1727431,15.6931408 15.9904514,15.6209386 15.7838542,15.6209386 C15.5772569,15.6209386 15.3949653,15.6931408 15.2369792,15.8375451 C15.0789931,15.9939832 15,16.1744886 15,16.3790614 C15,16.5836342 15.0789931,16.7641396 15.2369792,16.9205776 L19.1197917,20.7833935 C19.2048611,20.8555957 19.2868924,20.9097473 19.3658854,20.9458484 C19.4448785,20.9819495 19.5451389,21 19.6666667,21 Z" id="" fill="#2942D1" fill-rule="nonzero"></path>
                            <text id="Optimal-Coverage" font-family="Poppins-Regular, Poppins" font-size="12" font-weight="normal" line-spacing="12" fill="#000000">
                                <tspan x="39" y="22">Optimal Coverage</tspan>
                            </text>
                        </g>
                    </g>
                    <g id="Group-14" stroke-width="1" fill="none" transform="translate(702.956676, 198.000000)">
                        <g id="Group-48">
                            <rect id="Rectangle" fill="#FFFFFF" x="0.855808376" y="0" width="166" height="31" rx="15.5"></rect>
                            <path d="M20.6666667,21 C20.7881944,21 20.8884549,20.9819495 20.9674479,20.9458484 C21.046441,20.9097473 21.1284722,20.8555957 21.2135417,20.7833935 L29.7630208,12.299639 C29.9210069,12.143201 30,11.9626955 30,11.7581227 C30,11.5535499 29.9210069,11.3730445 29.7630208,11.2166065 C29.6050347,11.0722022 29.4227431,11 29.2161458,11 C29.0095486,11 28.8272569,11.0722022 28.6692708,11.2166065 L20.6666667,19.1588448 L17.3307292,15.8375451 C17.1727431,15.6931408 16.9904514,15.6209386 16.7838542,15.6209386 C16.5772569,15.6209386 16.3949653,15.6931408 16.2369792,15.8375451 C16.0789931,15.9939832 16,16.1744886 16,16.3790614 C16,16.5836342 16.0789931,16.7641396 16.2369792,16.9205776 L20.1197917,20.7833935 C20.2048611,20.8555957 20.2868924,20.9097473 20.3658854,20.9458484 C20.4448785,20.9819495 20.5451389,21 20.6666667,21 Z" id="" fill="#2942D1" fill-rule="nonzero"></path>
                            <text id="Autonomy-Insights" font-family="Poppins-Regular, Poppins" font-size="12" font-weight="normal" line-spacing="12" fill="#000000">
                                <tspan x="40" y="22">Autonomy Insights</tspan>
                            </text>
                        </g>
                        <g id="Group-49" transform="translate(10.000000, 43.000000)">
                            <rect id="Rectangle" fill="#FFFFFF" x="0" y="0" width="147" height="31" rx="15.5"></rect>
                            <path d="M19.6666667,21 C19.7881944,21 19.8884549,20.9819495 19.9674479,20.9458484 C20.046441,20.9097473 20.1284722,20.8555957 20.2135417,20.7833935 L28.7630208,12.299639 C28.9210069,12.143201 29,11.9626955 29,11.7581227 C29,11.5535499 28.9210069,11.3730445 28.7630208,11.2166065 C28.6050347,11.0722022 28.4227431,11 28.2161458,11 C28.0095486,11 27.8272569,11.0722022 27.6692708,11.2166065 L19.6666667,19.1588448 L16.3307292,15.8375451 C16.1727431,15.6931408 15.9904514,15.6209386 15.7838542,15.6209386 C15.5772569,15.6209386 15.3949653,15.6931408 15.2369792,15.8375451 C15.0789931,15.9939832 15,16.1744886 15,16.3790614 C15,16.5836342 15.0789931,16.7641396 15.2369792,16.9205776 L19.1197917,20.7833935 C19.2048611,20.8555957 19.2868924,20.9097473 19.3658854,20.9458484 C19.4448785,20.9819495 19.5451389,21 19.6666667,21 Z" id="" fill="#2942D1" fill-rule="nonzero"></path>
                            <text id="Relevant-Inputs" font-family="Poppins-Regular, Poppins" font-size="12" font-weight="normal" line-spacing="12" fill="#000000">
                                <tspan x="39" y="22">Relevant Inputs</tspan>
                            </text>
                        </g>
                        <g id="Group-50" transform="translate(5.000000, 86.000000)">
                            <rect id="Rectangle" fill="#FFFFFF" x="0" y="0" width="157" height="31" rx="15.5"></rect>
                            <path d="M19.6666667,21 C19.7881944,21 19.8884549,20.9819495 19.9674479,20.9458484 C20.046441,20.9097473 20.1284722,20.8555957 20.2135417,20.7833935 L28.7630208,12.299639 C28.9210069,12.143201 29,11.9626955 29,11.7581227 C29,11.5535499 28.9210069,11.3730445 28.7630208,11.2166065 C28.6050347,11.0722022 28.4227431,11 28.2161458,11 C28.0095486,11 27.8272569,11.0722022 27.6692708,11.2166065 L19.6666667,19.1588448 L16.3307292,15.8375451 C16.1727431,15.6931408 15.9904514,15.6209386 15.7838542,15.6209386 C15.5772569,15.6209386 15.3949653,15.6931408 15.2369792,15.8375451 C15.0789931,15.9939832 15,16.1744886 15,16.3790614 C15,16.5836342 15.0789931,16.7641396 15.2369792,16.9205776 L19.1197917,20.7833935 C19.2048611,20.8555957 19.2868924,20.9097473 19.3658854,20.9458484 C19.4448785,20.9819495 19.5451389,21 19.6666667,21 Z" id="" fill="#2942D1" fill-rule="nonzero"></path>
                            <text id="Defined-Exposure" font-family="Poppins-Regular, Poppins" font-size="12" font-weight="normal" line-spacing="12" fill="#000000">
                                <tspan x="39" y="22">Defined Exposure</tspan>
                            </text>
                        </g>
                    </g>
                    <g id="Group-8" stroke-width="1" fill="none" transform="translate(88.956676, 198.000000)">
                        <g id="Group-68" transform="translate(31.855808, 0.000000)">
                            <rect id="Rectangle" fill="#FFFFFF" x="0" y="0" width="172" height="31" rx="15.5"></rect>
                            <path d="M19.6666667,21 C19.7881944,21 19.8884549,20.9819495 19.9674479,20.9458484 C20.046441,20.9097473 20.1284722,20.8555957 20.2135417,20.7833935 L28.7630208,12.299639 C28.9210069,12.143201 29,11.9626955 29,11.7581227 C29,11.5535499 28.9210069,11.3730445 28.7630208,11.2166065 C28.6050347,11.0722022 28.4227431,11 28.2161458,11 C28.0095486,11 27.8272569,11.0722022 27.6692708,11.2166065 L19.6666667,19.1588448 L16.3307292,15.8375451 C16.1727431,15.6931408 15.9904514,15.6209386 15.7838542,15.6209386 C15.5772569,15.6209386 15.3949653,15.6931408 15.2369792,15.8375451 C15.0789931,15.9939832 15,16.1744886 15,16.3790614 C15,16.5836342 15.0789931,16.7641396 15.2369792,16.9205776 L19.1197917,20.7833935 C19.2048611,20.8555957 19.2868924,20.9097473 19.3658854,20.9458484 C19.4448785,20.9819495 19.5451389,21 19.6666667,21 Z" id="" fill="#2942D1" fill-rule="nonzero"></path>
                            <text id="Financial-Protection" font-family="Poppins-Regular, Poppins" font-size="12" font-weight="normal" line-spacing="12" fill="#000000">
                                <tspan x="39" y="22">Financial Protection</tspan>
                            </text>
                        </g>
                        <g id="Group-31" transform="translate(12.855808, 42.880000)">
                            <rect id="Rectangle" fill="#FFFFFF" x="0" y="0" width="211" height="31" rx="15.5"></rect>
                            <path d="M19.6666667,21 C19.7881944,21 19.8884549,20.9819495 19.9674479,20.9458484 C20.046441,20.9097473 20.1284722,20.8555957 20.2135417,20.7833935 L28.7630208,12.299639 C28.9210069,12.143201 29,11.9626955 29,11.7581227 C29,11.5535499 28.9210069,11.3730445 28.7630208,11.2166065 C28.6050347,11.0722022 28.4227431,11 28.2161458,11 C28.0095486,11 27.8272569,11.0722022 27.6692708,11.2166065 L19.6666667,19.1588448 L16.3307292,15.8375451 C16.1727431,15.6931408 15.9904514,15.6209386 15.7838542,15.6209386 C15.5772569,15.6209386 15.3949653,15.6931408 15.2369792,15.8375451 C15.0789931,15.9939832 15,16.1744886 15,16.3790614 C15,16.5836342 15.0789931,16.7641396 15.2369792,16.9205776 L19.1197917,20.7833935 C19.2048611,20.8555957 19.2868924,20.9097473 19.3658854,20.9458484 C19.4448785,20.9819495 19.5451389,21 19.6666667,21 Z" id="" fill="#2942D1" fill-rule="nonzero"></path>
                            <text id="Accelerated-Developm" font-family="Poppins-Regular, Poppins" font-size="12" font-weight="normal" line-spacing="12" fill="#000000">
                                <tspan x="39.1441916" y="22.12">Accelerated Development</tspan>
                            </text>
                        </g>
                        <g id="Group-36" transform="translate(0.000000, 86.000000)">
                            <g id="Group-34">
                                <rect id="Rectangle" fill="#FFFFFF" x="-0.144191624" y="-0.24" width="236" height="31" rx="15.5"></rect>
                                <path d="M19.6666667,21 C19.7881944,21 19.8884549,20.9819495 19.9674479,20.9458484 C20.046441,20.9097473 20.1284722,20.8555957 20.2135417,20.7833935 L28.7630208,12.299639 C28.9210069,12.143201 29,11.9626955 29,11.7581227 C29,11.5535499 28.9210069,11.3730445 28.7630208,11.2166065 C28.6050347,11.0722022 28.4227431,11 28.2161458,11 C28.0095486,11 27.8272569,11.0722022 27.6692708,11.2166065 L19.6666667,19.1588448 L16.3307292,15.8375451 C16.1727431,15.6931408 15.9904514,15.6209386 15.7838542,15.6209386 C15.5772569,15.6209386 15.3949653,15.6931408 15.2369792,15.8375451 C15.0789931,15.9939832 15,16.1744886 15,16.3790614 C15,16.5836342 15.0789931,16.7641396 15.2369792,16.9205776 L19.1197917,20.7833935 C19.2048611,20.8555957 19.2868924,20.9097473 19.3658854,20.9458484 C19.4448785,20.9819495 19.5451389,21 19.6666667,21 Z" id="" fill="#2942D1" fill-rule="nonzero"></path>
                            </g>
                            <text id="Unlocked-Safety-&amp;-Pr" font-family="Poppins-Regular, Poppins" font-size="12" font-weight="normal" line-spacing="12" fill="#000000">
                                <tspan x="39" y="22">Unlocked Safety &amp; Productivity</tspan>
                            </text>
                        </g>
                    </g>
                </g>
            </g>
        </g>
    </g>
</svg>