<?xml version="1.0" encoding="UTF-8"?>
<svg width="84px" height="84px" viewBox="0 0 84 84" version="1.1" xmlns="http://www.w3.org/2000/svg" xmlns:xlink="http://www.w3.org/1999/xlink">
    <title>03-1-03-engineering@3x</title>
    <g id="-------Why-Us?" stroke="none" stroke-width="1" fill="none" fill-rule="evenodd">
        <g id="03-3-1-Why-Us-1920" transform="translate(-1467.000000, -4484.000000)" fill-rule="nonzero">
            <g id="03-1-03-engineering" transform="translate(1467.000000, 4484.000000)">
                <g id="bg" fill="#DEE2F8">
                    <path d="M2.17851748e-15,0 L84,0 L84,84 L19.0909127,84 C14.0276878,84 9.17183949,81.9886418 5.59159886,78.4084011 C2.01135824,74.8281605 2.17851748e-15,69.9723122 2.17851748e-15,64.9090873 L2.17851748e-15,0 Z" id="Path"></path>
                </g>
                <g id="shadow" transform="translate(15.272292, 36.654130)" fill="#2942D1" opacity="0.1">
                    <polygon id="Path" points="0 24.4373993 22.9096517 47.3457385 68.7276426 47.3457385 68.7276426 15.2735386 53.4554165 0"></polygon>
                </g>
                <g id="Слой_1" transform="translate(15.272292, 15.272724)">
                    <polygon id="Path" fill="#2942D1" points="45.8179909 42.7633099 45.8179909 22.9760908 7.63742557 22.9760908 7.63742557 42.7633099 0 42.7633099 0 45.8188051 7.63742557 45.8188051 45.8179909 45.8188051 53.4554165 45.8188051 53.4554165 42.7633099"></polygon>
                    <g id="Group" opacity="0.3" transform="translate(0.000000, 22.976091)" fill="#FFFFFF">
                        <polygon id="Path" points="45.8179909 19.7872191 45.8179909 0 7.63742557 0 7.63742557 19.7872191 0 19.7872191 0 22.8427143 7.63742557 22.8427143 45.8179909 22.8427143 53.4554165 22.8427143 53.4554165 19.7872191"></polygon>
                    </g>
                    <polygon id="Path" fill="#2942D1" points="21.0354046 42.7633099 22.2560277 38.1813795 13.8547284 22.9091534 1.90968452 22.9091534 1.90968452 28.6368944 0 32.454951 0 42.7633099"></polygon>
                    <g id="Group" opacity="0.6" transform="translate(0.000000, 22.909153)" fill="#FFFFFF">
                        <polygon id="Path" points="21.0354046 19.8541565 22.2560277 15.2722261 13.8547284 0 1.90968452 0 1.90968452 5.72774105 0 9.54579758 0 19.8541565"></polygon>
                    </g>
                    <polygon id="Path" fill="#2942D1" points="32.5801366 42.7633099 31.3595135 38.1813795 39.7608129 22.9091534 51.7071692 22.9091534 51.7071692 28.6368944 53.6155412 32.454951 53.6155412 42.7633099"></polygon>
                    <g id="Group" opacity="0.6" transform="translate(31.359514, 22.909153)" fill="#FFFFFF">
                        <polygon id="Path" points="1.22062309 19.8541565 0 15.2722261 8.40129937 0 20.3476557 0 20.3476557 5.72774105 22.2560277 9.54579758 22.2560277 19.8541565"></polygon>
                    </g>
                    <path d="M26.7277082,7.63636289 C25.1749643,7.63701623 23.6996776,8.31465405 22.6874852,9.49214311 L24.8400606,11.6864691 C25.2664282,11.0634376 25.9727595,10.6909174 26.7277148,10.6909174 C27.4826701,10.6909174 28.1890014,11.0634376 28.615369,11.6864691 L30.7679444,9.49223499 C29.7557964,8.31466811 28.2804822,7.63698631 26.7277082,7.63636289 Z" id="Path" fill="#2942D1"></path>
                    <path d="M26.7277082,0 C23.1754681,-0.000923633238 19.7789844,1.45819426 17.3342917,4.03538039 L19.4729808,6.21543948 C21.347093,4.19968147 23.9753842,3.05453678 26.7277607,3.05453678 C29.4801373,3.05453678 32.1084285,4.19968147 33.9825407,6.21543948 L36.1211248,4.03538039 C33.6764357,1.45818907 30.2799497,-0.000929828135 26.7277082,0 L26.7277082,0 Z" id="Path" fill="#2942D1"></path>
                    <path d="M49.7180654,21.6353085 L49.7180654,22.9106234 L3.89987766,22.9106234 L3.89987766,21.6353085 C18.8746955,17.3692002 34.7432476,17.3692002 49.7180654,21.6353085 L49.7180654,21.6353085 Z" id="Path" fill="#2942D1"></path>
                    <g id="Group" opacity="0.6" transform="translate(3.899878, 18.435727)" fill="#FFFFFF">
                        <path d="M45.8181878,3.19958124 L45.8181878,4.47489612 L0,4.47489612 L0,3.19958124 C14.9748179,-1.06652708 30.8433699,-1.06652708 45.8181878,3.19958124 L45.8181878,3.19958124 Z" id="Path"></path>
                    </g>
                    <rect id="Rectangle" fill="#2942D1" x="0.000433124323" y="21.3818258" width="53.4545502" height="3.05455023"></rect>
                    <circle id="Oval" fill="#2942D1" cx="9.54588946" cy="44.1519196" r="5.72726855"></circle>
                    <circle id="Oval" fill="#2942D1" cx="43.909527" cy="44.1519196" r="5.72726855"></circle>
                </g>
            </g>
        </g>
    </g>
</svg>