<?xml version="1.0" encoding="UTF-8"?>
<svg width="84px" height="84px" viewBox="0 0 84 84" version="1.1" xmlns="http://www.w3.org/2000/svg" xmlns:xlink="http://www.w3.org/1999/xlink">
    <title>03-3-03-expert team@3x</title>
    <g id="-------Why-Us?" stroke="none" stroke-width="1" fill="none" fill-rule="evenodd">
        <g id="03-3-1-Why-Us-1920" transform="translate(-1466.000000, -1179.000000)" fill-rule="nonzero">
            <g id="03-3-03-expert-team" transform="translate(1466.000000, 1179.000000)">
                <g id="подложка" fill="#E9EBF4">
                    <path d="M0,0 L84,0 L84,84 L19.0909091,84 C8.54729114,84 0,75.4527089 0,64.9090909 L0,0 Z" id="Path"></path>
                </g>
                <g id="shadow" transform="translate(19.090253, 15.131765)" fill="#2942D1" opacity="0.1">
                    <polygon id="Path" points="64.9094847 68.8679723 64.9094847 30.3068428 40.3644989 5.76185699 22.9096159 0 11.4554642 3.06467792 0 15.4139518 0 33.2127087 2.4648673 35.3822644 6.07291852 45.6459824 29.1649714 68.7380352"></polygon>
                </g>
                <g id="Слой_1" transform="translate(17.563676, 13.604073)">
                    <path d="M48.8725698,37.5593796 L43.8120056,37.5593796 L43.8120056,34.5048473 L45.8180637,34.5048473 L45.8180637,24.4362844 C45.8180637,12.6274685 36.245127,3.05453181 24.4363111,3.05453181 C12.6274953,3.05453181 3.05455858,12.6274685 3.05455858,24.4362844 L3.05455858,34.5048473 L5.06059044,34.5048473 L5.06059044,37.5593796 L0,37.5593796 L0,24.4362844 C0,10.9404971 10.9404976,0 24.4362849,0 C37.9320722,0 48.8725698,10.9404971 48.8725698,24.4362844 L48.8725698,37.5593796 Z" id="Path" fill="#2942D1"></path>
                    <path d="M6.88039225,45.8018407 L6.24582673,45.8018407 C4.49351095,45.8018407 3.0729729,44.3813027 3.0729729,42.6289869 L3.0729729,33.1104254 C3.0729729,31.3581096 4.49351095,29.9375716 6.24582673,29.9375716 L6.88039225,29.9375716 L6.88039225,45.8018407 Z" id="Path" fill="#2942D1"></path>
                    <g id="Group" opacity="0.6" transform="translate(3.072973, 29.937572)" fill="#FFFFFF">
                        <path d="M3.80741935,15.8642692 L3.17285383,15.8642692 C1.42053805,15.8642692 0,14.4437311 0,12.6914153 L0,3.17285383 C0,1.42053805 1.42053805,0 3.17285383,0 L3.80741935,0 L3.80741935,15.8642692 Z" id="Path"></path>
                    </g>
                    <rect id="Rectangle" fill="#2942D1" transform="translate(10.695378, 37.914357) rotate(180.000000) translate(-10.695378, -37.914357) " x="6.88040537" y="28.3957957" width="7.62994553" height="19.037123" rx="1.5834101"></rect>
                    <path d="M42.0321824,45.8018407 L42.666761,45.8018407 C44.4190798,45.8018407 45.8396149,44.3813057 45.8396149,42.6289869 L45.8396149,33.1104254 C45.8396149,31.3581066 44.4190798,29.9375716 42.666761,29.9375716 L42.0321824,29.9375716 L42.0321824,45.8018407 Z" id="Path" fill="#2942D1"></path>
                    <g id="Group" opacity="0.6" transform="translate(42.032182, 29.937572)" fill="#FFFFFF">
                        <path d="M0,15.8642692 L0.634578642,15.8642692 C2.38689743,15.8642692 3.80743248,14.4437341 3.80743248,12.6914153 L3.80743248,3.17285383 C3.80743248,1.42053505 2.38689743,0 0.634578642,0 L0,0 L0,15.8642692 Z" id="Path"></path>
                    </g>
                    <path d="M42.0322086,29.9821833 C42.0322086,29.1060981 41.3221031,28.395717 40.446018,28.395717 L35.9887819,28.395717 C35.1125636,28.395717 34.4022063,29.105965 34.4019744,29.9821833 L34.4019744,45.8465312 C34.4022063,46.7227495 35.1125636,47.4329541 35.9887819,47.4329975 L38.9771513,47.4329975 L38.9771513,49.7776664 L30.1633082,49.7776664 L30.1633082,47.486508 L18.7091565,47.486508 L18.7091565,55.1230816 L30.1633082,55.1230816 L30.1633082,52.8319888 L42.0322086,52.8319888 L42.0322086,29.9821833 L42.0322086,29.9821833 Z" id="Path" fill="#2942D1"></path>
                </g>
            </g>
        </g>
    </g>
</svg>