<?xml version="1.0" encoding="UTF-8"?>
<svg width="84px" height="84px" viewBox="0 0 84 84" version="1.1" xmlns="http://www.w3.org/2000/svg" xmlns:xlink="http://www.w3.org/1999/xlink">
    <title>03-3-02-latest technology@3x</title>
    <g id="-------Why-Us?" stroke="none" stroke-width="1" fill="none" fill-rule="evenodd">
        <g id="03-3-1-Why-Us-1920" transform="translate(-917.000000, -1179.000000)" fill-rule="nonzero">
            <g id="03-3-02-latest-technology" transform="translate(917.000000, 1179.000000)">
                <g id="подложка" fill="#E9EBF4">
                    <path d="M0,0 L84,0 L84,84 L19.0909091,84 C8.54729114,84 0,75.4527089 0,64.9090909 L0,0 Z" id="Path"></path>
                </g>
                <g id="shadow" transform="translate(11.454152, 19.090253)" fill="#2942D1" opacity="0.1">
                    <polygon id="Path" points="1.77974127e-15 38.1818182 26.3732926 64.5551108 72.5455858 64.9094847 72.5455858 12.5828982 60.4837485 0.522373368 45.8179193 0 21.3529958 0"></polygon>
                </g>
                <g id="Слой_1" transform="translate(11.454152, 19.090830)">
                    <path d="M59.1820676,0 L1.90943216,0 C1.40310536,0 0.917514583,0.20112839 0.559488701,0.559156733 C0.201462819,0.917185076 0.000341248934,1.40277724 0.000341248934,1.90910403 L0.000341248934,36.2726091 L61.0911585,36.2726091 L61.0911585,1.90910403 C61.0911585,0.854743118 60.2364285,0 59.1820676,0 Z" id="Path" fill="#2942D1"></path>
                    <g id="Group" opacity="0.6" transform="translate(0.000341, 0.000000)" fill="#FFFFFF">
                        <path d="M59.1817263,0 L1.90909091,0 C1.40276411,0 0.917173334,0.20112839 0.559147452,0.559156733 C0.201121571,0.917185076 0,1.40277724 0,1.90910403 L0,36.2726091 L61.0908172,36.2726091 L61.0908172,1.90910403 C61.0908172,0.854743118 60.2360872,0 59.1817263,0 Z" id="Path"></path>
                    </g>
                    <rect id="Rectangle" fill="#2942D1" x="15.273121" y="43.9089465" width="30.5453627" height="3.81816869"></rect>
                    <rect id="Rectangle" fill="#2942D1" x="19.091211" y="34.3635445" width="22.9090253" height="11.4545061"></rect>
                    <rect id="Rectangle" fill="#2942D1" x="0.000354373893" y="34.3635445" width="61.0907122" height="3.81816869"></rect>
                    <polygon id="Path" fill="#2942D1" points="39.2620023 16.3531214 37.1029466 14.1927531 45.1852963 6.10909091 61.0914341 6.10909091 61.0914341 9.16326886 46.4518548 9.16326886"></polygon>
                    <polygon id="Path" fill="#2942D1" points="15.9061378 28.2548342 -1.77974127e-15 28.2548342 -1.77974127e-15 25.1993438 14.6408917 25.1993438 21.8294318 18.0108037 23.9898 20.171172"></polygon>
                    <circle id="Oval" fill="#2942D1" cx="38.1820544" cy="15.272701" r="3.81816869"></circle>
                    <circle id="Oval" fill="#2942D1" cx="22.9093797" cy="19.0908697" r="3.81816869"></circle>
                </g>
            </g>
        </g>
    </g>
</svg>