<?xml version="1.0" encoding="UTF-8"?>
<svg width="84px" height="84px" viewBox="0 0 84 84" version="1.1" xmlns="http://www.w3.org/2000/svg" xmlns:xlink="http://www.w3.org/1999/xlink">
    <title>03-3-01-specialist insurance@3x</title>
    <g id="-------Why-Us?" stroke="none" stroke-width="1" fill="none" fill-rule="evenodd">
        <g id="03-3-1-Why-Us-1920" transform="translate(-371.000000, -1179.000000)" fill-rule="nonzero">
            <g id="03-3-01-specialist-insurance" transform="translate(371.000000, 1179.000000)">
                <g id="подложка" fill="#E9EBF4">
                    <path d="M0,0 L84,0 L84,84 L19.0909091,84 C8.54729114,84 0,75.4527089 0,64.9090909 L0,0 Z" id="Path"></path>
                </g>
                <g id="shadow" transform="translate(22.909616, 15.272202)" fill="#2942D1" opacity="0.1">
                    <polygon id="Path" points="0 53.455333 15.2722023 68.7275352 61.0901216 68.7275352 61.0901216 22.9096159 38.1805057 0"></polygon>
                </g>
                <g id="Слой_1" transform="translate(22.909616, 15.272202)">
                    <polygon id="Path" fill="#2942D1" points="38.1805057 34.3637676 19.0902528 53.455333 0 53.455333 0 0 38.1805057 0"></polygon>
                    <g id="Group" opacity="0.6" fill="#FFFFFF">
                        <polygon id="Path" points="38.1805057 34.3637676 19.0902528 53.455333 0 53.455333 0 0 38.1805057 0"></polygon>
                    </g>
                    <polygon id="Path" fill="#2942D1" points="17.2475086 28.1648495 10.7729663 21.6916197 12.9333346 19.5312515 17.2475086 23.8454255 25.2484836 15.8444505 27.4075394 18.0048187"></polygon>
                    <polygon id="Path" fill="#2942D1" points="19.0902528 34.3637676 38.1805057 34.3637676 19.0902528 53.455333"></polygon>
                </g>
            </g>
        </g>
    </g>
</svg>