<?xml version="1.0" encoding="UTF-8"?>
<svg width="84px" height="84px" viewBox="0 0 84 84" version="1.1" xmlns="http://www.w3.org/2000/svg" xmlns:xlink="http://www.w3.org/1999/xlink">
    <title>02-3-10-warehouse automation system@3x</title>
    <g id="--------Tech-E&amp;O" stroke="none" stroke-width="1" fill="none" fill-rule="evenodd">
        <g id="02-3-1-Tech-E&amp;O-1920" transform="translate(-1450.000000, -4397.000000)" fill-rule="nonzero">
            <g id="02-3-10-warehouse-automation-system" transform="translate(1450.000000, 4397.000000)">
                <g id="подложка" fill="#E9EBF4">
                    <path d="M0,0 L84,0 L84,84 L19.0909091,84 C8.54729114,84 0,75.4527089 0,64.9090909 L0,0 Z" id="Path"></path>
                </g>
                <g id="shadow" transform="translate(15.270890, 34.363768)" fill="#2942D1" opacity="0.1">
                    <polygon id="Path" points="0.0013124959 34.3637676 15.2748273 49.6359699 68.7288477 49.6359699 68.7157228 15.2590773 53.4566454 0 0 0"></polygon>
                </g>
                <g id="Слой_1" transform="translate(15.270890, 15.272202)">
                    <polygon id="Path" fill="#2942D1" points="26.7276665 0 0 19.0915653 0 53.455333 11.1299652 53.455333 11.1299652 26.7276665 42.3279927 26.7276665 42.3279927 53.455333 53.4540205 53.455333 53.4540205 19.0915653"></polygon>
                    <g id="Group" opacity="0.6" fill="#FFFFFF">
                        <polygon id="Path" points="26.7276665 0 0 19.0915653 0 53.455333 11.1299652 53.455333 11.1299652 26.7276665 42.3279927 26.7276665 42.3279927 53.455333 53.4540205 53.455333 53.4540205 19.0915653"></polygon>
                    </g>
                    <rect id="Rectangle" fill="#2942D1" x="7.63813551" y="22.8621692" width="38.1817001" height="3.81816869"></rect>
                    <path d="M26.728979,40.3783326 C25.1762427,40.3789794 23.7009613,41.0566122 22.6887753,42.2340968 L24.8412686,44.4284193 C25.2676326,43.8053888 25.9739609,43.4328687 26.7289133,43.4328687 C27.4838658,43.4328687 28.1901941,43.8053888 28.6165581,44.4284193 L30.7691301,42.2341886 C29.7570046,41.0566422 28.2817228,40.3789669 26.728979,40.3783326 Z" id="Path" fill="#2942D1"></path>
                    <path d="M26.728979,32.7419816 C23.1767489,32.7410616 19.780276,34.2001769 17.3355902,36.7773557 L19.474276,38.9574114 C21.3483806,36.9416579 23.9766634,35.7965154 26.7290315,35.7965154 C29.4813996,35.7965154 32.1096824,36.9416579 33.9837869,38.9574114 L36.1223677,36.7773557 C33.6776838,34.2001743 30.2812096,32.7410585 26.728979,32.7419816 Z" id="Path" fill="#2942D1"></path>
                </g>
            </g>
        </g>
    </g>
</svg>