<?xml version="1.0" encoding="UTF-8"?>
<svg width="84px" height="84px" viewBox="0 0 84 84" version="1.1" xmlns="http://www.w3.org/2000/svg" xmlns:xlink="http://www.w3.org/1999/xlink">
    <title>02-3-06-infrastructure inspection service@3x</title>
    <g id="--------Tech-E&amp;O" stroke="none" stroke-width="1" fill="none" fill-rule="evenodd">
        <g id="02-3-1-Tech-E&amp;O-1920" transform="translate(-918.000000, -4039.000000)" fill-rule="nonzero">
            <g id="02-3-06-infrastructure-inspection-service" transform="translate(918.000000, 4039.000000)">
                <g id="подложка" fill="#E9EBF4">
                    <path d="M0,0 L84,0 L84,84 L19.0909091,84 C8.54729114,84 0,75.4527089 0,64.9090909 L0,0 Z" id="Path"></path>
                </g>
                <g id="shadow" transform="translate(13.438396, 30.545560)" fill="#2942D1" opacity="0.1">
                    <polygon id="Path" points="0 21.289996 32.1640245 53.4540205 70.561092 53.4540205 70.561092 11.4541517 59.1069403 0 13.289021 6.90897841"></polygon>
                </g>
                <g id="Слой_1" transform="translate(12.409006, 11.534765)">
                    <polygon id="Path" fill="#2942D1" points="6.68231037 30.4649465 56.3182803 30.4649465 60.1363308 19.0107948 6.68231037 19.0107948"></polygon>
                    <g id="Group" opacity="0.6" transform="translate(6.682310, 19.010795)" fill="#FFFFFF">
                        <polygon id="Path" points="0 11.4541517 49.6359699 11.4541517 53.4540205 0 0 0"></polygon>
                    </g>
                    <rect id="Rectangle" fill="#2942D1" transform="translate(11.507402, 44.596007) rotate(-53.079220) translate(-11.507402, -44.596007) " x="9.98017491" y="33.7841708" width="3.05445358" height="21.6236718"></rect>
                    <path d="M18.1362389,53.3737355 L25.7725632,53.3737355 C25.7725632,53.3737355 26.4273412,47.6465022 18.1362389,47.6465022 L18.1362389,53.3737355 Z" id="Path" fill="#2942D1"></path>
                    <circle id="Oval" fill="#2942D1" cx="14.3180834" cy="26.6467909" r="3.81815557"></circle>
                    <circle id="Oval" fill="#2942D1" cx="2.86361668" cy="38.1012576" r="2.86361668"></circle>
                    <polygon id="Path" fill="#2942D1" points="17.3043397 29.0251385 5.14406517 39.8335422 0.664516673 36.2674909 11.3311708 24.2673409"></polygon>
                    <rect id="Rectangle" fill="#2942D1" transform="translate(38.247243, 44.596013) rotate(-53.079520) translate(-38.247243, -44.596013) " x="36.7200166" y="33.7841048" width="3.05445358" height="21.6238162"></rect>
                    <path d="M44.8760591,53.3737355 L52.5123703,53.3737355 C52.5123703,53.3737355 53.1671482,47.6465022 44.8760591,47.6465022 L44.8760591,53.3737355 Z" id="Path" fill="#2942D1"></path>
                    <circle id="Oval" fill="#2942D1" cx="41.0579036" cy="26.6467909" r="3.81815557"></circle>
                    <circle id="Oval" fill="#2942D1" cx="29.6034369" cy="38.1012576" r="2.86361668"></circle>
                    <polygon id="Path" fill="#2942D1" points="44.0438186 29.0251385 31.8835441 39.8335422 27.4039956 36.2674909 38.0719623 24.2673409"></polygon>
                    <path d="M29.5906794,7.63631158 C28.0379498,7.63695898 26.5626744,8.31458642 25.5504889,9.49206266 L27.7029822,11.6863852 C28.1293431,11.0633546 28.8356695,10.6908341 29.5906203,10.6908341 C30.3455712,10.6908341 31.0518975,11.0633546 31.4782585,11.6863852 L33.6308174,9.49215453 C32.6186902,8.31461928 31.1434158,7.63694993 29.5906794,7.63631158 Z" id="Path" fill="#2942D1"></path>
                    <path d="M29.5906794,0 C26.0384635,-0.000933085768 22.6420009,1.45817438 20.19733,4.03534784 L22.3360027,6.21540352 C24.2101,4.19965635 26.8383734,3.05451736 29.5907319,3.05451736 C32.3430904,3.05451736 34.9713639,4.19965635 36.8454611,6.21540352 L38.9840288,4.03534784 C36.5393579,1.45817438 33.1428953,-0.000933085768 29.5906794,0 L29.5906794,0 Z" id="Path" fill="#2942D1"></path>
                </g>
            </g>
        </g>
    </g>
</svg>