<?xml version="1.0" encoding="UTF-8"?>
<svg width="84px" height="84px" viewBox="0 0 84 84" version="1.1" xmlns="http://www.w3.org/2000/svg" xmlns:xlink="http://www.w3.org/1999/xlink">
    <title>02-3-05-sidewalk delivery service@3x</title>
    <g id="--------Tech-E&amp;O" stroke="none" stroke-width="1" fill="none" fill-rule="evenodd">
        <g id="02-3-1-Tech-E&amp;O-1920" transform="translate(-382.000000, -4039.000000)" fill-rule="nonzero">
            <g id="02-3-05-sidewalk-delivery-service" transform="translate(382.000000, 4039.000000)">
                <g id="подложка" fill="#E9EBF4" transform="translate(0.000000, 0.000000)">
                    <path d="M0,0 L84,0 L84,83.6207159 L19.0909091,83.6207159 C8.54729114,83.6207159 0,75.1120182 0,64.6160077 L0,0 Z" id="Path"></path>
                </g>
                <g id="shadow" transform="translate(15.272202, 37.286217)" fill="#2942D1" opacity="0.1">
                    <polygon id="Path" points="0 20.4883179 26.3457302 46.713783 68.7275352 46.3348778 68.7275352 17.0964633 51.5522139 0"></polygon>
                </g>
                <g id="Слой_1" transform="translate(15.272202, 14.143367)">
                    <polygon id="Path" fill="#2942D1" points="26.7276665 43.6311677 26.7276665 23.8653827 1.90968153 23.8653827 0 33.3680634 0 43.6311677"></polygon>
                    <g id="Group" opacity="0.6" transform="translate(0.000000, 23.865383)" fill="#FFFFFF">
                        <polygon id="Path" points="26.7276665 19.765785 26.7276665 0 1.90968153 0 0 9.50268072 0 19.765785"></polygon>
                    </g>
                    <polygon id="Path" fill="#2942D1" points="26.7276665 43.6311677 26.7276665 23.8653827 51.5456514 23.8653827 53.455333 33.3680634 53.455333 43.6311677"></polygon>
                    <g id="Group" opacity="0.6" transform="translate(26.727666, 23.865383)" fill="#FFFFFF">
                        <polygon id="Path" points="0 19.765785 0 0 24.8179849 0 26.7276665 9.50268072 26.7276665 19.765785"></polygon>
                    </g>
                    <path d="M26.7276665,7.60185757 C25.1749313,7.60250675 23.6996521,8.27707883 22.6874629,9.44924247 L24.8399561,11.6336701 C25.2663124,11.0134415 25.9726435,10.6425945 26.7276009,10.6425945 C27.4825582,10.6425945 28.1888893,11.0134415 28.6152456,11.6336701 L30.7678176,9.44933393 C29.7556877,8.27711012 28.2804088,7.60249599 26.7276665,7.60185757 Z" id="Path" fill="#2942D1"></path>
                    <path d="M26.7276665,0 C23.1754381,-0.000920818703 19.7789648,1.45160158 17.3342777,4.01714015 L19.4729635,6.18735226 C21.3470681,4.18070046 23.9753509,3.04072866 26.727719,3.04072866 C29.4800871,3.04072866 32.1083699,4.18070046 33.9824744,6.18735226 L36.1210552,4.01714015 C33.6763699,1.45159899 30.2798955,-0.000923902149 26.7276665,0 Z" id="Path" fill="#2942D1"></path>
                    <polygon id="Path" fill="#2942D1" points="48.471786 39.0424952 46.7025416 36.0282391 5.55448264 36.0282391 3.78523817 39.0424952 0 39.0829989 0 43.6311677 53.455333 43.6311677 53.455333 39.0829989"></polygon>
                    <g id="Group" opacity="0.3" transform="translate(0.000000, 36.028239)" fill="#FFFFFF">
                        <polygon id="Path" points="48.471786 3.01425607 46.7025416 0 5.55448264 0 3.78523817 3.01425607 0 3.05475973 0 7.60292852 53.455333 7.60292852 53.455333 3.05475973"></polygon>
                    </g>
                    <ellipse id="Oval" fill="#2942D1" cx="11.4222318" cy="45.0127605" rx="5.7272596" ry="5.70139938"></ellipse>
                    <ellipse id="Oval" fill="#2942D1" cx="26.7276665" cy="45.0127605" rx="5.7272596" ry="5.70139938"></ellipse>
                    <ellipse id="Oval" fill="#2942D1" cx="42.0331011" cy="45.0127605" rx="5.7272596" ry="5.70139938"></ellipse>
                    <path d="M51.5536445,23.1437643 L51.5536445,23.8659053 L1.90979966,23.8659053 L1.90979966,23.1893244 C18.0709115,18.1674411 35.3832588,18.1515528 51.5536445,23.1437643 L51.5536445,23.1437643 Z" id="Path" fill="#2942D1"></path>
                </g>
            </g>
        </g>
    </g>
</svg>