<?xml version="1.0" encoding="UTF-8"?>
<svg width="84px" height="84px" viewBox="0 0 84 84" version="1.1" xmlns="http://www.w3.org/2000/svg" xmlns:xlink="http://www.w3.org/1999/xlink">
    <title>02-3-07-automation orchestration platform@3x</title>
    <g id="--------Tech-E&amp;O" stroke="none" stroke-width="1" fill="none" fill-rule="evenodd">
        <g id="02-3-1-Tech-E&amp;O-1920" transform="translate(-1450.000000, -4042.000000)" fill-rule="nonzero">
            <g id="02-3-07-automation-orchestration-platform" transform="translate(1450.000000, 4042.000000)">
                <g id="подложка" fill="#E9EBF4">
                    <path d="M0,0 L84,0 L84,84 L19.0909091,84 C8.54729114,84 0,75.4527089 0,64.9090909 L0,0 Z" id="Path"></path>
                </g>
                <g id="shadow" transform="translate(16.355011, 19.371127)" fill="#2942D1" opacity="0.1">
                    <polygon id="Path" points="53.5747701 0 67.5882888 14.0135187 67.5882888 64.6286105 18.8605661 64.6286105 2.33146107e-15 45.7680445 28.6176606 15.6698885 26.7814788 10.9921531 39.7305633 3.8731754"></polygon>
                </g>
                <g id="Слой_1" transform="translate(11.395746, 12.575601)">
                    <path d="M41.9125878,41.5491052 L41.9125878,36.3127059 L36.6247518,35.2538498 C36.2279346,33.5522654 35.5551406,31.9271488 34.6330786,30.4430142 L37.6294412,25.962442 L33.9268902,22.2597729 L29.4412517,25.2486805 C27.9565301,24.3251572 26.3304557,23.6512718 24.6277124,23.2538311 L23.5696963,17.9697226 L18.3333233,17.9697226 L17.2848097,23.2514948 C15.5805284,23.6482486 13.9528642,24.3218603 12.4666373,25.2455042 L7.98588129,22.2597729 L4.28333036,25.962442 L7.27466602,30.4355593 C6.3497474,31.9222424 5.67514607,33.5506722 5.27776913,35.2558973 L0,36.3127059 L0,41.5491052 L5.27795288,42.5967656 C5.67541325,44.3019681 6.35000904,45.930389 7.27484977,47.4171168 L4.29003722,51.8965734 L7.99281127,55.5992425 L12.4672279,52.606975 C13.9532836,53.5305023 15.5807696,54.2040047 17.2848622,54.6006562 L18.3333758,59.8823366 L23.5697488,59.8823366 L24.6277649,54.5983331 C26.330272,54.200904 27.95613,53.5271195 29.4406874,52.6037725 L33.9199603,55.5992031 L37.6225112,51.8965341 L34.6328555,47.4095306 C35.5549226,45.9254349 36.2277214,44.3003526 36.6245418,42.5988 L41.9125878,41.5491052 Z M20.9514639,44.6097406 C17.8124694,44.6097406 15.2678185,42.0650722 15.2678185,38.9260777 C15.2678185,35.7870832 17.8124782,33.2424236 20.9514727,33.2424236 C24.0904671,33.2424236 26.6351355,35.7870745 26.6351355,38.926069 C26.6351355,40.4334756 26.0363356,41.8791458 24.9704382,42.9450433 C23.9045407,44.0109407 22.4588705,44.6097406 20.9514639,44.6097406 Z" id="Shape" fill="#2942D1"></path>
                    <path d="M56.4551736,12.725619 L60.0304124,10.40825 L58.5339046,6.79534251 L54.3648664,7.67848163 C53.786494,6.91991774 53.1084747,6.24280787 52.3491352,5.66545417 L53.2390074,1.49650782 L49.6261262,0 L47.3020109,3.57334883 C46.3560289,3.44405892 45.3969211,3.44308765 44.4506792,3.57046134 L42.128454,0 L38.5155596,1.49650782 L39.4041194,5.65883919 C38.6439041,6.23787889 37.9654795,6.91705843 37.3872857,7.67791726 L33.2206624,6.79534251 L31.7241546,10.40825 L35.2960466,12.7234927 C35.1664301,13.6710186 35.1655471,14.6317213 35.2934216,15.5794838 L31.7269371,17.8990972 L33.2234449,21.5120046 L37.3831644,20.6241143 C37.9629049,21.3847186 38.6428401,22.0634309 39.4044869,22.6418011 L38.5222796,26.8069281 L42.1351871,28.3034228 L44.451073,24.7306121 C45.3978374,24.859722 46.3577082,24.8602827 47.3046228,24.732279 L49.6193799,28.3034228 L53.2322874,26.8069019 L52.3497127,22.6404624 C53.1087244,22.0614704 53.786123,21.38269 54.363567,20.6224999 L58.5311221,21.5119784 L60.0276168,17.8990709 L56.4533098,15.5743388 C56.5821117,14.6291753 56.5827386,13.6709502 56.4551736,12.725619 L56.4551736,12.725619 Z M43.3000272,16.7450458 C42.2428397,15.7110857 41.9125927,14.1421013 42.46328,12.7697084 C43.0139672,11.3973154 44.3371402,10.4917834 45.8158049,10.4753609 C47.2944695,10.4589384 48.6374279,11.3348595 49.21846,12.6946832 C49.7994921,14.0545069 49.5041736,15.630439 48.470211,16.6876241 C47.7922173,17.3808539 46.8666066,17.7763567 45.8970051,17.7871254 C44.9274036,17.797894 43.9932371,17.4230464 43.3000141,16.7450458 L43.3000272,16.7450458 Z" id="Shape" fill="#2942D1"></path>
                    <path d="M20.9513983,27.7262134 C16.4214203,27.7262134 12.3374935,30.4550059 10.6039582,34.6401649 C8.87042297,38.8253239 9.82867209,43.6426422 13.0318727,46.8457978 C16.2350734,50.0489534 21.0524051,51.0071347 25.2375397,49.2735407 C29.4226743,47.5399466 32.1513458,43.4559813 32.1513458,38.9260034 C32.1513458,32.7405107 27.136891,27.7262134 20.9513983,27.7262134 L20.9513983,27.7262134 Z M20.9513983,41.682376 C19.8365484,41.682376 18.8314709,41.010816 18.4048327,39.9808306 C17.9781944,38.9508451 18.2140147,37.765278 19.0023307,36.9769582 C19.7906467,36.1886384 20.9762128,35.9528125 22.0062003,36.3794458 C23.0361877,36.8060792 23.7077578,37.8111535 23.7077578,38.9260034 C23.7077578,40.4483008 22.4736957,41.682376 20.9513983,41.682376 Z" id="Shape" fill="#2942D1"></path>
                    <g id="Group" opacity="0.6" transform="translate(9.751097, 27.726213)" fill="#FFFFFF">
                        <path d="M11.2003011,0 C6.6703232,0 2.58639632,2.72879259 0.852861074,6.91395157 C-0.880674171,11.0991105 0.0775749545,15.9164288 3.2807756,19.1195844 C6.48397624,22.32274 11.301308,23.2809214 15.4864426,21.5473273 C19.6715772,19.8137332 22.4002486,15.7297679 22.4002486,11.19979 C22.4002486,5.01429731 17.3857938,0 11.2003011,0 L11.2003011,0 Z M11.2003011,13.9561626 C10.0854513,13.9561626 9.08037377,13.2846027 8.65373552,12.2546172 C8.22709727,11.2246318 8.46291757,10.0390646 9.25123359,9.25074486 C10.0395496,8.46242509 11.2251157,8.22659914 12.2551031,8.65323248 C13.2850906,9.07986583 13.9566607,10.0849401 13.9566607,11.19979 C13.9566607,12.7220874 12.7225986,13.9561626 11.2003011,13.9561626 Z" id="Shape"></path>
                    </g>
                </g>
            </g>
        </g>
    </g>
</svg>