<?xml version="1.0" encoding="UTF-8"?>
<svg width="84px" height="84px" viewBox="0 0 84 84" version="1.1" xmlns="http://www.w3.org/2000/svg" xmlns:xlink="http://www.w3.org/1999/xlink">
    <title>02-3-08-plug-n-play@3x</title>
    <g id="--------Tech-E&amp;O" stroke="none" stroke-width="1" fill="none" fill-rule="evenodd">
        <g id="02-3-1-Tech-E&amp;O-1920" transform="translate(-382.000000, -4394.000000)" fill-rule="nonzero">
            <g id="02-3-08-plug-n-play" transform="translate(382.000000, 4394.000000)">
                <g id="подложка" fill="#E9EBF4" transform="translate(0.000000, -0.000000)">
                    <path d="M0,0 L84,0 L84,83.9537993 L19.0909091,83.9537993 C8.54729114,83.9537993 0,75.4112093 0,64.8733904 L0,0 Z" id="Path"></path>
                </g>
                <g id="shadow" transform="translate(22.908303, 31.654970)" fill="#2942D1" opacity="0.1">
                    <polygon id="Path" points="61.0914341 52.2991182 61.0231843 22.8288032 38.1818182 0 0 33.3098776 19.045628 52.3450303"></polygon>
                </g>
                <g id="Слой_1" transform="translate(22.908960, 15.264353)">
                    <path d="M0,16.403013 C6.28873358,17.0798542 12.6093152,17.4184565 18.9344071,17.4173554 C25.364497,17.4185934 31.7898604,17.0690058 38.1818182,16.3701531 L38.1818182,49.667595 C31.7898601,50.3664434 25.3644967,50.7160265 18.9344071,50.7147875 C12.609316,50.7159093 6.288734,50.3773245 0,49.7004943 L0,16.403013 Z" id="Path" fill="#2942D1"></path>
                    <g id="Group" opacity="0.6" transform="translate(0.000000, 16.370153)" fill="#FFFFFF">
                        <path d="M0,0.0328599391 C6.28873358,0.709701084 12.6093152,1.04830338 18.9344071,1.04720231 C25.364497,1.0484403 31.7898604,0.698852739 38.1818182,0 L38.1818182,33.2974419 C31.7898601,33.9962903 25.3644967,34.3458735 18.9344071,34.3446344 C12.609316,34.3457562 6.288734,34.0071714 0,33.3303412 L0,0.0328599391 Z" id="Path"></path>
                    </g>
                    <path d="M19.0909091,7.63207219 C17.5381739,7.63272395 16.0628947,8.30998303 15.0507055,9.48681571 L17.2031987,11.6799444 C17.629555,11.0572454 18.3358861,10.6849212 19.0908435,10.6849212 C19.8458009,10.6849212 20.5521319,11.0572454 20.9784882,11.6799444 L23.1310602,9.48690753 C22.1189304,8.31001444 20.6436514,7.63271316 19.0909091,7.63207219 L19.0909091,7.63207219 Z" id="Path" fill="#2942D1"></path>
                    <path d="M19.0909091,0 C15.5386807,-0.000924486567 12.1422074,1.45738369 9.69752032,4.03314148 L11.8362061,6.21199812 C13.7103107,4.1973533 16.3385935,3.05284069 19.0909616,3.05284069 C21.8433297,3.05284069 24.4716125,4.1973533 26.345717,6.21199812 L28.4842979,4.03314148 C26.0396125,1.4573811 22.6431381,-0.000927582295 19.0909091,0 L19.0909091,0 Z" id="Path" fill="#2942D1"></path>
                    <path d="M0,42.0683045 C6.28873305,42.7451522 12.609315,43.0837545 18.9344071,43.0826502 C25.3644967,43.0838892 31.7898601,42.734306 38.1818182,42.0354577 L38.1818182,27.8183722 C31.7898596,28.517214 25.3644965,28.8667971 18.9344071,28.8655614 C12.6093152,28.8666625 6.28873358,28.5280602 0,27.851219 L0,42.0683045 Z" id="Path" fill="#2942D1"></path>
                    <ellipse id="Oval" fill="#2942D1" cx="19.0909091" cy="16.3903019" rx="19.0909091" ry="1.10594355"></ellipse>
                    <g id="Group" opacity="0.3" transform="translate(0.000000, 15.284358)" fill="#FFFFFF">
                        <ellipse id="Oval" cx="19.0909091" cy="1.10594355" rx="19.0909091" ry="1.10594355"></ellipse>
                    </g>
                </g>
            </g>
        </g>
    </g>
</svg>