<?xml version="1.0" encoding="UTF-8"?>
<svg width="84px" height="84px" viewBox="0 0 84 84" version="1.1" xmlns="http://www.w3.org/2000/svg" xmlns:xlink="http://www.w3.org/1999/xlink">
    <title>02-3-09-drone-based security service@3x</title>
    <g id="--------Tech-E&amp;O" stroke="none" stroke-width="1" fill="none" fill-rule="evenodd">
        <g id="02-3-1-Tech-E&amp;O-1920" transform="translate(-918.000000, -4393.000000)" fill-rule="nonzero">
            <g id="02-3-09-drone-based-security-service" transform="translate(918.000000, 4393.000000)">
                <g id="подложка" fill="#E9EBF4" transform="translate(0.000000, -0.000000)">
                    <path d="M0,0 L84,0 L84,83.8865438 L19.0909091,83.8865438 C8.54729114,83.8865438 0,75.3507972 0,64.8214202 L0,0 Z" id="Path"></path>
                </g>
                <g id="shadow" transform="translate(11.454152, 25.153773)" fill="#2942D1" opacity="0.1">
                    <polygon id="Path" points="72.5285233 11.4229523 72.5285233 11.4229523 61.0914341 0 45.8179193 3.0513635 55.3033272 12.3902659 29.1492214 13.8582759 15.2735148 0 0 3.0513635 8.68872285 11.7283508 6.47979225 13.7757003 9.758407 17.0498867 4.93629707 19.4852104 44.3505489 58.8462266 72.5455858 58.8462266 72.5455858 11.4229523"></polygon>
                </g>
                <g id="Слой_1" transform="translate(11.454454, 24.044757)">
                    <polygon id="Path" fill="#2942D1" points="38.1815163 14.0851752 22.909314 14.0851752 26.7273646 8.36649005 34.3634657 8.36649005"></polygon>
                    <g id="Group" opacity="0.6" transform="translate(22.909314, 8.366490)" fill="#FFFFFF">
                        <polygon id="Path" points="15.2722023 5.71868511 0 5.71868511 3.81805057 0 11.4541517 0"></polygon>
                    </g>
                    <path d="M34.5856713,35.0500085 L32.433073,32.8586629 C32.0067266,33.4808687 31.300398,33.8529001 30.5454414,33.8529001 C29.7904849,33.8529001 29.0841563,33.4808687 28.6578098,32.8586629 L26.5052247,35.0500216 C27.5170564,36.2263832 28.9925874,36.9031732 30.545448,36.9031732 C32.0983086,36.9031732 33.5738395,36.2263832 34.5856713,35.0500216 L34.5856713,35.0500085 Z" id="Path" fill="#2942D1"></path>
                    <path d="M30.5454152,41.4788303 C27.7929086,41.4796043 25.1643413,40.335934 23.2906466,38.3223337 L21.1520658,40.4993006 C23.5972336,43.0723287 26.9933791,44.5293945 30.5454545,44.5293945 C34.09753,44.5293945 37.4936755,43.0723287 39.9388433,40.4993006 L37.8001969,38.3223337 C35.9264971,40.3359347 33.2979257,41.4796047 30.5454152,41.4788303 Z" id="Path" fill="#2942D1"></path>
                    <path d="M61.0907385,4.16001246 L61.0907385,1.1094485 L54.9817526,1.1094485 L54.9817526,0 L51.9272859,0 L51.9272859,1.1094485 L45.8180637,1.1094485 L45.8180637,4.16001246 L51.9272859,4.16001246 L51.9272859,10.272347 L49.6362718,10.272347 L49.6362718,14.0854766 L11.4545323,14.0854766 L11.4545323,10.272347 L9.16375449,10.272347 L9.16375449,4.16001246 L15.2727404,4.16001246 L15.2727404,1.1094485 L9.16375449,1.1094485 L9.16375449,0 L6.10922216,0 L6.10922216,1.1094485 L0,1.1094485 L0,4.16001246 L6.10922216,4.16001246 L6.10922216,10.272347 L3.81819494,10.272347 L3.81819494,17.8982916 C3.81819494,20.0041815 5.52766492,21.7113426 7.63640301,21.7113426 C9.7451411,21.7113426 11.4546111,20.0041815 11.4546111,17.8982916 L19.2626492,17.8982916 C20.1883054,23.4007949 24.9582766,27.4308164 30.5454349,27.4308164 C36.1325931,27.4308164 40.9025643,23.4007949 41.8282205,17.8982916 L49.6362586,17.8982916 C49.6362586,19.2605495 50.3639974,20.5193278 51.5453429,21.2004567 C52.7266885,21.8815857 54.1821662,21.8815857 55.3635117,21.2004567 C56.5448573,20.5193278 57.2725961,19.2605495 57.272596,17.8982916 L57.272596,10.272347 L54.9817526,10.272347 L54.9817526,4.16001246 L61.0907385,4.16001246 Z" id="Path" fill="#2942D1"></path>
                </g>
            </g>
        </g>
    </g>
</svg>