<?xml version="1.0" encoding="UTF-8"?>
<svg width="84px" height="84px" viewBox="0 0 84 84" version="1.1" xmlns="http://www.w3.org/2000/svg" xmlns:xlink="http://www.w3.org/1999/xlink">
    <title>02-3-03-assure customers_DARK@3x</title>
    <g id="--------Tech-E&amp;O" stroke="none" stroke-width="1" fill="none" fill-rule="evenodd">
        <g id="02-3-1-Tech-E&amp;O-1920" transform="translate(-959.000000, -2735.000000)" fill-rule="nonzero">
            <g id="02-3-03-assure-customers_DARK" transform="translate(959.000000, 2735.000000)">
                <g id="bg" fill="#DEE2F8">
                    <path d="M0,0 L84,0 L84,83.9994482 L19.0909127,83.9994482 C8.54729788,83.9994482 0,75.4522196 0,64.908674 L0,0 Z" id="Path"></path>
                </g>
                <g id="shadow" transform="translate(21.471829, 20.792947)" fill="#2942D1" opacity="0.1">
                    <polygon id="Path" points="62.5281711 26.9443943 35.5822858 0 10.8950303 7.38944134 0 29.8560234 8.24222441 38.0981937 1.34676869 43.9740083 20.5786256 63.2070528 39.5345592 63.2070528 39.4925138 63.1347877 62.5281711 63.1347877"></polygon>
                </g>
                <g id="Слой_1" transform="translate(16.753408, 13.329099)">
                    <polygon id="Path" fill="#2942D1" points="7.55911705 51.4378565 13.6859292 51.5061799 17.7196656 56.7276664 26.8632396 39.165918 16.704005 33.8761081"></polygon>
                    <g id="Group" opacity="0.6" transform="translate(7.559117, 33.876108)" fill="#FFFFFF">
                        <polygon id="Path" points="0 17.5617484 6.12681212 17.6300718 10.1605486 22.8515583 19.3041226 5.28980989 9.14488791 0"></polygon>
                    </g>
                    <polygon id="Path" fill="#2942D1" points="42.8339455 55.2757936 36.7084473 55.344117 32.6733969 60.5669174 23.5298229 43.0038551 33.6890575 37.7140452"></polygon>
                    <g id="Group" opacity="0.6" transform="translate(23.529823, 37.714045)" fill="#FFFFFF">
                        <polygon id="Path" points="19.3041226 17.5617484 13.1786244 17.6300718 9.14357399 22.8528722 0 5.28980989 10.1592347 0"></polygon>
                    </g>
                    <polygon id="Path" fill="#2942D1" points="50.4022205 21.1460742 42.9304529 15.3537849 41.6499584 5.98682709 32.2029738 6.35255451 25.2012614 0 18.1992467 6.35255451 8.75226213 5.98682709 7.47203038 15.3537849 0 21.1460742 5.04019972 29.1445794 3.03975549 38.3844688 12.0421618 41.2719219 16.4489073 49.6360364 25.2012614 46.0613284 33.9535235 49.6360101 38.3602689 41.2718956 47.3626753 38.3844425 45.3619288 29.1445794"></polygon>
                    <ellipse id="Oval" fill="#2942D1" cx="25.2176197" cy="25.3933737" rx="13.3636376" ry="13.3635498"></ellipse>
                    <g id="Group" opacity="0.6" transform="translate(11.853982, 12.029824)" fill="#FFFFFF">
                        <ellipse id="Oval" cx="13.3636376" cy="13.3635498" rx="13.3636376" ry="13.3635498"></ellipse>
                    </g>
                    <polygon id="Path" fill="#2942D1" points="23.5850075 30.7581948 18.4961928 25.6694135 20.6549644 23.5093421 23.5850075 26.4393659 30.5225087 19.5005964 32.6825943 21.6606678"></polygon>
                </g>
            </g>
        </g>
    </g>
</svg>