<?xml version="1.0" encoding="UTF-8"?>
<svg width="84px" height="84px" viewBox="0 0 84 84" version="1.1" xmlns="http://www.w3.org/2000/svg" xmlns:xlink="http://www.w3.org/1999/xlink">
    <title>07-1-01-integrity@3x</title>
    <g id="-------About-Us" stroke="none" stroke-width="1" fill="none" fill-rule="evenodd">
        <g id="07-1-1-About-Us-1920" transform="translate(-414.000000, -3724.000000)" fill-rule="nonzero">
            <g id="07-1-01-integrity" transform="translate(414.000000, 3724.000000)">
                <g id="подложка" fill="#E9EBF4">
                    <path d="M0,0 L84,0 L84,84 L19.0909091,84 C8.54729114,84 0,75.4527089 0,64.9090909 L0,0 Z" id="Path"></path>
                </g>
                <g id="shadow" transform="translate(16.721198, 15.272189)" fill="#2942D1" opacity="0.1">
                    <polygon id="Path" points="67.1551651 35.8770754 67.1551651 30.6704042 44.8637348 8.37897382 42.9645532 11.6864635 31.2780898 0 0 45.8192318 22.9096159 68.7275352 67.2785398 68.7275352 67.2785398 36.00045"></polygon>
                </g>
                <g id="Слой_1" transform="translate(15.194529, 15.272675)">
                    <path d="M3.8964722,0 L3.89614407,0 C2.88352975,0 1.91237882,0.402297359 1.19636097,1.11833243 C0.480343129,1.83436751 0.078119237,2.80552812 0.0781853807,3.81814244 C0.0781853807,3.81814244 0,41.7351252 0,41.9998819 C0.00326946145,44.950749 2.39460059,47.342086 5.34546767,47.3453627 L32.8053494,47.3453627 L32.8053494,44.2908172 L5.34546767,44.2908172 C4.52570086,44.2927794 3.76736418,43.8565655 3.3569133,43.1469518 C2.94646243,42.4373381 2.94646243,41.5624912 3.3569133,40.8528776 C3.76736418,40.1432639 4.52570086,39.70705 5.34546767,39.7090122 L32.8053494,39.7090122 L32.8053494,0 L3.8964722,0 Z" id="Path" fill="#2942D1"></path>
                    <path d="M48.7765213,15.3227859 L48.7765213,32.1563989 L47.4225899,32.1563989 L47.4225899,22.3413052 L47.4018787,22.3413052 L47.4018787,10.655288 C47.4185719,9.06782634 46.1919726,7.7439594 44.6078506,7.63969738 C43.8054627,7.60087516 43.0222092,7.89251107 42.4406032,8.44664834 C41.8589973,9.00078561 41.5298376,9.76902477 41.5298246,10.5723513 L41.5298246,32.1563464 L40.1759457,32.1566483 L40.1759457,10.655288 C40.1926455,9.06782378 38.9660426,7.743953 37.3819176,7.63969738 C36.579534,7.60088257 35.7962875,7.89252179 35.2146874,8.44665823 C34.6330873,9.00079468 34.3039311,9.76902956 34.3039178,10.5723513 L34.3039178,29.0340368 L32.9820507,29.0340368 L32.9820507,10.8010012 C32.999547,9.13695761 31.7138073,7.74920966 30.0532686,7.63985488 C29.2121689,7.59916196 28.3911275,7.90486846 27.781461,8.48573956 C27.1717945,9.06661067 26.8267517,9.87191245 26.8267337,10.7139959 L26.8267337,38.2640198 C26.3636326,36.3471064 25.8443042,34.2948616 25.2634329,32.1212896 C24.5240782,28.8924489 21.7016579,26.5673545 18.3909944,26.4598123 L17.1662257,26.4598123 L20.3440539,43.2349011 C20.8671985,46.649581 22.4531948,49.8125401 24.8766798,52.274336 C35.3428896,62.9835151 53.5792982,55.314549 53.5792982,40.3402964 L53.5792982,20.5599726 C53.5792982,17.8328377 51.4934329,15.5587023 48.7765213,15.3227859 Z" id="Path" fill="#2942D1"></path>
                    <g id="Group" opacity="0.6" transform="translate(17.166226, 7.636255)" fill="#FFFFFF">
                        <path d="M31.6102956,7.68653083 L31.6102956,24.5201438 L30.2563642,24.5201438 L30.2563642,14.7050501 L30.235653,14.7050501 L30.235653,3.01903291 C30.2523462,1.4315713 29.0257469,0.107704366 27.4416249,0.00344233767 C26.6392369,-0.0353798822 25.8559834,0.25625603 25.2743775,0.8103933 C24.6927716,1.36453057 24.3636119,2.13276973 24.3635989,2.9360963 L24.3635989,24.5200913 L23.00972,24.5203932 L23.00972,3.01903291 C23.0264198,1.43156874 21.7998169,0.10769796 20.2156918,0.00344233767 C19.4133083,-0.035372469 18.6300618,0.256266749 18.0484617,0.810403196 C17.4668616,1.36453964 17.1377054,2.13277452 17.1376921,2.9360963 L17.1376921,21.3977817 L15.815825,21.3977817 L15.815825,3.16474621 C15.8333213,1.50070257 14.5475816,0.112954621 12.8870429,0.00359983718 C12.0459432,-0.0370930822 11.2249018,0.26861342 10.6152353,0.849484524 C10.0055687,1.43035563 9.66052602,2.23565741 9.66050794,3.07774086 L9.66050794,30.6277648 C9.19740688,28.7108514 8.67807851,26.6586065 8.0972072,24.4850346 C7.35785244,21.2561938 4.53543217,18.9310994 1.22476867,18.8235573 L0,18.8235573 L3.17782819,35.5986461 C3.70097276,39.0133259 5.28696905,42.176285 7.71045403,44.638081 C18.1766638,55.34726 36.4130725,47.678294 36.4130725,32.7040414 L36.4130725,12.9237176 C36.4130725,10.1965827 34.3272072,7.92244724 31.6102956,7.68653083 Z" id="Path"></path>
                    </g>
                </g>
            </g>
        </g>
    </g>
</svg>