<?xml version="1.0" encoding="UTF-8"?>
<svg width="64px" height="64px" viewBox="0 0 64 64" version="1.1" xmlns="http://www.w3.org/2000/svg" xmlns:xlink="http://www.w3.org/1999/xlink">
    <title>07-1-08-robotics integrators@3x</title>
    <g id="-------About-Us" stroke="none" stroke-width="1" fill="none" fill-rule="evenodd">
        <g id="07-1-1-About-Us-1920" transform="translate(-1424.000000, -5633.000000)" fill-rule="nonzero">
            <g id="07-1-08-robotics-integrators" transform="translate(1424.533290, 5633.529260)">
                <g id="bg" fill="#DEE2F8">
                    <path d="M6.21724894e-15,6.32827124e-15 L63.31324,6.32827124e-15 L63.31324,63.31324 L14.38937,63.31324 C6.44234039,63.31324 6.21724894e-15,56.8708996 6.21724894e-15,48.92387 L6.21724894e-15,6.32827124e-15 Z" id="Path"></path>
                </g>
                <g id="shadow" transform="translate(14.213710, 14.213740)" fill="#2942D1" opacity="0.1">
                    <polygon id="Path" points="0 30.525 18.725 49.25 49.253 49.099 49.253 18.728 30.525 -1.77635684e-15"></polygon>
                </g>
                <g id="Слой_1" transform="translate(10.072440, 10.072510)">
                    <path d="M43.16851,24.66754 L43.16851,18.50067 L37.44536,17.36467 C37.1686661,15.8824103 36.6629464,14.4522492 35.94636,13.12554 L39.02693,8.50212 L34.66607,4.14148 L29.81597,7.38513 C28.572244,6.53247203 27.2032952,5.87874281 25.75835,5.44745 L24.66753,0 L18.50053,0 L17.36479,5.72314 C15.8824419,5.9995744 14.4522067,6.50525082 13.12553,7.22198 L8.50199,4.14148 L4.14165,8.50213 L7.38527,13.35229 C6.53250792,14.5959138 5.87866993,15.9647834 5.44727,17.40967 L-3.55271368e-15,18.50067 L-3.55271368e-15,24.66754 L5.72315,25.80354 C5.99961898,27.2858791 6.50535056,28.7160941 7.22215,30.04273 L4.14158,34.66608 L8.50193,39.02674 L13.35203,35.78315 C14.5958258,36.6356726 15.9647559,37.2893726 17.40965,37.72077 L18.50054,43.16823 L24.66754,43.16823 L25.80377,37.44509 C27.2859387,37.1685681 28.715997,36.6628879 30.04253,35.94623 L34.66607,39.02673 L39.02691,34.66607 L35.78327,29.81592 C36.635884,28.5722804 37.2895547,27.203408 37.72077,25.75854 L43.16851,24.66754 Z M21.58409,30.48564 C16.6431632,30.48564 12.63788,26.4800801 12.63788,21.5391533 C12.63788,16.5982265 16.6433965,12.5929 21.5843233,12.5929 C26.5252501,12.5929 30.53062,16.5983732 30.53062,21.5393 C30.53062,23.9120547 29.5880568,26.1876293 27.9102481,27.8654024 C26.2324393,29.5431755 23.9568447,30.48564 21.58409,30.48564 Z" id="Shape" fill="#2942D1"></path>
                    <path d="M21.58404,10.02777 C15.2264372,10.02777 10.07273,15.1818039 10.07273,21.5394067 C10.07273,27.8970094 15.2266906,33.05079 21.5842933,33.05079 C27.9418961,33.05079 33.09575,27.8969028 33.09575,21.5393 C33.09575,18.4862107 31.8829524,15.5581607 29.7240754,13.3993174 C27.5651983,11.2404741 24.6371293,10.02777 21.58404,10.02777 Z M21.58404,24.37231 C20.0194173,24.37231 18.75104,23.1039327 18.75104,21.53931 C18.75104,19.9746873 20.0194173,18.70631 21.58404,18.70631 C23.1486627,18.70631 24.41704,19.9746873 24.41704,21.53931 C24.4169793,23.1039075 23.1486375,24.3722493 21.58404,24.37231 L21.58404,24.37231 Z" id="Shape" fill="#2942D1"></path>
                    <g id="Group" opacity="0.6" transform="translate(10.072730, 10.027770)" fill="#FFFFFF">
                        <path d="M11.51131,0 C5.15370722,0 0,5.15403388 0,11.5116367 C0,17.8692394 5.15396055,23.02302 11.5115633,23.02302 C17.8691661,23.02302 23.02302,17.8691328 23.02302,11.51153 C23.02302,8.45844066 21.8102224,5.53039065 19.6513454,3.37154736 C17.4924683,1.21270406 14.5643993,0 11.51131,0 Z M11.51131,14.34454 C9.9466873,14.34454 8.67831,13.0761627 8.67831,11.51154 C8.67831,9.9469173 9.9466873,8.67854 11.51131,8.67854 C13.0759327,8.67854 14.34431,9.9469173 14.34431,11.51154 C14.3442493,13.0761375 13.0759075,14.3444793 11.51131,14.34454 L11.51131,14.34454 Z" id="Shape"></path>
                    </g>
                </g>
            </g>
        </g>
    </g>
</svg>