<?xml version="1.0" encoding="UTF-8"?>
<svg width="64px" height="64px" viewBox="0 0 64 64" version="1.1" xmlns="http://www.w3.org/2000/svg" xmlns:xlink="http://www.w3.org/1999/xlink">
    <title>07-1-09-industry organizations@3x</title>
    <g id="-------About-Us" stroke="none" stroke-width="1" fill="none" fill-rule="evenodd">
        <g id="07-1-1-About-Us-1920" transform="translate(-425.000000, -5881.000000)" fill-rule="nonzero">
            <g id="07-1-09-industry-organizations" transform="translate(425.000000, 5881.000000)">
                <g id="bg" fill="#DEE2F8">
                    <path d="M0,0 L64,0 L64,64 L14.54545,64 C6.51221979,64 0,57.4877802 0,49.45455 L0,0 Z" id="Path"></path>
                </g>
                <g id="shadow" transform="translate(8.727000, 11.692000)" fill="#2942D1">
                    <line x1="11.63664" y1="0.00044" x2="2.90936" y2="40.67164" id="Path"></line>
                    <polygon id="Path" opacity="0.1" points="26.182 2.882 23.109 11.473 11.637 -7.10542736e-15 2.909 40.672 -3.55271368e-15 41.739 10.557 52.295 55.273 52.308 55.273 31.972"></polygon>
                </g>
                <g id="Слой_1" transform="translate(8.727320, 11.692000)">
                    <polygon id="Path" fill="#2942D1" points="28.05268 29.035 26.18168 2.882 20.36368 2.882 18.49268 29.035"></polygon>
                    <polygon id="Path" fill="#2942D1" points="29.09068 20.308 29.09068 23.161 43.63668 20.308 43.63668 40.672 8.72768 40.672 8.72768 25.544"></polygon>
                    <g id="Group" opacity="0.6" transform="translate(8.727680, 20.308000)" fill="#FFFFFF">
                        <polygon id="Path" points="20.363 0 20.363 2.853 34.909 0 34.909 20.364 0 20.364 0 5.236"></polygon>
                    </g>
                    <polygon id="Path" fill="#2942D1" points="14.54568 40.672 2.90868 40.672 5.81768 -3.55271368e-15 11.63668 -3.55271368e-15"></polygon>
                    <rect id="Rectangle" fill="#2942D1" x="1.77635684e-15" y="39.50794" width="46.54545" height="2.32727"></rect>
                </g>
            </g>
        </g>
    </g>
</svg>