<?xml version="1.0" encoding="UTF-8"?>
<svg width="84px" height="84px" viewBox="0 0 84 84" version="1.1" xmlns="http://www.w3.org/2000/svg" xmlns:xlink="http://www.w3.org/1999/xlink">
    <title>07-1-03-inventiveness@3x</title>
    <g id="-------About-Us" stroke="none" stroke-width="1" fill="none" fill-rule="evenodd">
        <g id="07-1-1-About-Us-1920" transform="translate(-1081.000000, -3724.000000)" fill-rule="nonzero">
            <g id="07-1-03-inventiveness" transform="translate(1081.000000, 3724.000000)">
                <g id="подложка" fill="#E9EBF4">
                    <path d="M0,0 L84,0 L84,84 L19.0909091,84 C8.54729114,84 0,75.4527089 0,64.9090909 L0,0 Z" id="Path"></path>
                </g>
                <g id="shadow" transform="translate(34.363768, 23.206240)" fill="#2942D1" opacity="0.1">
                    <polygon id="Path" points="49.6359699 30.8449661 18.7923163 0 0 41.7032447 12.7928975 60.78956 49.6359699 60.7934975"></polygon>
                </g>
                <g id="Слой_1" transform="translate(11.454559, 7.636364)">
                    <path d="M47.7272115,28.6368886 C47.7294622,20.9544959 42.6319468,14.2040704 35.2422708,12.1036294 C27.8525949,10.0031883 19.9665691,13.063173 15.9276798,19.5981968 C11.8887904,26.1332206 12.6785529,34.5551671 17.8619798,40.2253743 C21.1361419,43.8507685 22.9363781,48.5694107 22.9090515,53.4543748 L38.1817263,53.4543748 L38.1817263,53.4521567 C38.2072194,48.5043632 40.0544144,43.739336 43.3705082,40.067166 C46.1817409,36.9241728 47.7332187,32.8536883 47.7272115,28.6368886 Z" id="Path" fill="#2942D1"></path>
                    <g id="Group" opacity="0.6" transform="translate(13.361202, 11.447459)" fill="#FFFFFF">
                        <path d="M34.3660097,17.1894297 C34.3682604,9.50703695 29.270745,2.75661142 21.8810691,0.656170408 C14.4913931,-1.44427061 6.60536735,1.61571402 2.56647801,8.15073784 C-1.47241133,14.6857617 -0.682648817,23.1077082 4.50077805,28.7779153 C7.77494013,32.4033096 9.57517633,37.1219518 9.54784978,42.0069159 L24.8205245,42.0069159 L24.8205245,42.0046978 C24.8460177,37.0569043 26.6932126,32.291877 30.0093065,28.6197071 C32.8205392,25.4767138 34.3720169,21.4062294 34.3660097,17.1894297 Z" id="Path"></path>
                    </g>
                    <polygon id="Path" fill="#2942D1" points="34.3659857 32.7084478 51.9298058 15.1446277 51.9298058 19.7199884 54.9839838 19.7199884 54.9839838 9.93008147 45.1940769 9.93008147 45.1940769 12.9842594 49.7694376 12.9842594 34.3659857 28.3877113 28.8902528 22.9119784 18.2039112 33.59832 20.362967 35.7586883 28.8902528 27.2314024"></polygon>
                    <rect id="Rectangle" fill="#2942D1" x="29.0178274" y="0" width="3.05501795" height="7.63633739"></rect>
                    <polygon id="Rectangle" fill="#2942D1" transform="translate(49.444177, 49.444255) rotate(-45.001280) translate(-49.444177, -49.444255) " points="47.9169373 45.626001 50.9714171 45.626001 50.9714171 53.262509 47.9169373 53.262509"></polygon>
                    <polygon id="Rectangle" fill="#2942D1" transform="translate(11.646478, 11.646442) rotate(-45.001280) translate(-11.646478, -11.646442) " points="10.1192123 7.82818787 13.1737446 7.82818787 13.1737446 15.4646959 10.1192123 15.4646959"></polygon>
                    <polygon id="Rectangle" fill="#2942D1" transform="translate(11.646481, 49.444264) rotate(-44.996810) translate(-11.646481, -49.444264) " points="7.82822682 47.9170236 15.4647348 47.9170236 15.4647348 50.9715035 7.82822682 50.9715035"></polygon>
                    <rect id="Rectangle" fill="#2942D1" x="53.4540861" y="29.0180637" width="7.63657364" height="3.05453233"></rect>
                    <rect id="Rectangle" fill="#2942D1" x="0" y="29.0180637" width="7.63657364" height="3.05453233"></rect>
                    <path d="M22.9090778,53.4544011 L22.9090778,57.2725304 L26.7273646,62.9998031 L34.3633607,62.9998031 L38.1816476,57.2725304 L38.1816476,53.4544011 C38.1933413,52.3938958 38.2764176,51.3353807 38.430313,50.286036 L22.6604254,50.286036 C22.8143128,51.3353815 22.8973847,52.3938962 22.9090778,53.4544011 Z" id="Path" fill="#2942D1"></path>
                </g>
            </g>
        </g>
    </g>
</svg>