<?xml version="1.0" encoding="UTF-8"?>
<svg width="64px" height="64px" viewBox="0 0 64 64" version="1.1" xmlns="http://www.w3.org/2000/svg" xmlns:xlink="http://www.w3.org/1999/xlink">
    <title>07-1-07-r&amp;d labs@3x</title>
    <g id="-------About-Us" stroke="none" stroke-width="1" fill="none" fill-rule="evenodd">
        <g id="07-1-1-About-Us-1920" transform="translate(-1091.000000, -5634.000000)" fill-rule="nonzero">
            <g id="07-1-07-r&amp;d-labs" transform="translate(1091.000000, 5634.000000)">
                <g id="bg" fill="#DEE2F8">
                    <path d="M0,0 L64,0 L64,64 L14.54545,64 C6.51221979,64 0,57.4877802 0,49.45455 L0,0 Z" id="Path"></path>
                </g>
                <g id="shadow" transform="translate(12.442000, 13.469000)" fill="#2942D1" opacity="0.1">
                    <polygon id="Path" points="51.558 10.182 41.376 5.32907052e-15 -7.10542736e-15 29.751 20.78 50.531 51.558 50.531"></polygon>
                </g>
                <g id="Слой_1" transform="translate(10.182000, 9.891000)">
                    <path d="M40.14527,33.74536 L3.49073,33.74536 C2.95065202,33.74536 2.43269331,33.5308194 2.05079957,33.1489275 C1.66890583,32.7670356 1.45436,32.249078 1.45436,31.709 L1.45436,4.65445 L42.18164,4.65445 L42.18164,31.709 C42.18164,32.249078 41.9670942,32.7670356 41.5852004,33.1489275 C41.2033067,33.5308194 40.685348,33.74536 40.14527,33.74536 Z" id="Path" fill="#2942D1"></path>
                    <g id="Group" opacity="0.6" transform="translate(1.454360, 4.654450)" fill="#FFFFFF">
                        <path d="M38.69091,29.09091 L2.03637,29.09091 C1.49629202,29.09091 0.978333313,28.8763694 0.596439571,28.4944775 C0.214545828,28.1125856 0,27.594628 0,27.05455 L0,0 L40.72728,0 L40.72728,27.05455 C40.72728,27.594628 40.5127342,28.1125856 40.1308404,28.4944775 C39.7489467,28.8763694 39.230988,29.09091 38.69091,29.09091 Z" id="Path"></path>
                    </g>
                    <polygon id="Path" fill="#2942D1" points="22.982 33.745 20.654 33.745 20.654 41.309 13.091 41.309 13.091 43.636 30.545 43.636 30.545 41.309 22.982 41.309"></polygon>
                    <polygon id="Path" fill="#2942D1" points="24.727 20.463 18.909 14.645 9.359 24.195 11.004 25.841 18.909 17.936 24.727 23.755 34.277 14.205 32.632 12.559"></polygon>
                    <polygon id="Path" fill="#2942D1" points="22.982 3.491 22.982 -1.77635684e-15 20.654 -1.77635684e-15 20.654 3.491 -1.77635684e-15 3.491 -1.77635684e-15 5.818 43.636 5.818 43.636 3.491"></polygon>
                </g>
            </g>
        </g>
    </g>
</svg>