<?xml version="1.0" encoding="UTF-8"?>
<svg width="84px" height="84px" viewBox="0 0 84 84" version="1.1" xmlns="http://www.w3.org/2000/svg" xmlns:xlink="http://www.w3.org/1999/xlink">
    <title>07-1-04-meritocracy@3x</title>
    <g id="-------About-Us" stroke="none" stroke-width="1" fill="none" fill-rule="evenodd">
        <g id="07-1-1-About-Us-1920" transform="translate(-1415.000000, -3724.000000)" fill-rule="nonzero">
            <g id="07-1-04-meritocracy" transform="translate(1415.000000, 3724.000000)">
                <g id="подложка" fill="#E9EBF4" transform="translate(0.000000, 0.000000)">
                    <path d="M0,0 L84,0 L84,83.9298925 L19.0909091,83.9298925 C8.54729114,83.9298925 0,75.3897351 0,64.854917 L0,0 Z" id="Path"></path>
                </g>
                <g id="shadow" transform="translate(13.690645, 15.839960)" fill="#2942D1" opacity="0.1">
                    <g id="Group">
                        <polygon id="Path" points="37.1606964 0 25.5871075 8.48738386 16.6437605 20.4998122 29.8750316 33.7200404 5.18698379 33.7200404 0 52.5019179 15.671201 68.1600396 36.8417599 68.1600396 66.6236043 68.0892239 70.3090928 68.0892239 70.3090928 33.1207303"></polygon>
                    </g>
                </g>
                <g id="Слой_1" transform="translate(11.454506, 12.973396)">
                    <path d="M21.287161,19.8617896 L18.8794266,23.366809 L21.6447636,26.1297593 L25.1483795,23.7195495 C25.9748801,24.1999864 26.8626244,24.5665105 27.7874675,24.8091528 L28.5661189,28.9914056 L32.4773566,28.9914056 L33.249603,24.807789 C34.1735483,24.5648871 35.0604127,24.1983709 35.8861316,23.7181857 L39.3916769,26.1297593 L42.1570139,23.366809 L39.7473633,19.8581833 C40.2266855,19.0333162 40.5927019,18.1477366 40.8355536,17.2252977 L45.0261824,16.4529746 L45.0261824,12.54567 L40.8342674,11.7663834 C40.5914202,10.844703 40.2253977,9.95991586 39.746077,9.13589762 L42.1621326,5.62968486 L39.396835,2.86681323 L35.8829554,5.27614441 C35.0583397,4.79698014 34.1727911,4.43117014 33.2502723,4.18861311 L32.4773829,0 L28.5661451,0 L27.7868375,4.18714434 C26.8634411,4.42953854 25.9770219,4.79537902 25.1515952,5.27475432 L21.6396449,2.866787 L18.8742948,5.62968486 L21.2884472,9.1322257 C20.8077356,9.95746455 20.4408538,10.8438321 20.1977631,11.767262 L16.0103368,12.54567 L16.0103368,16.4529746 L20.1964769,17.224419 C20.4392666,18.1486892 20.8061591,19.0358677 21.287161,19.8617896 Z M27.0985516,13.12565 C27.8505299,11.2532852 29.979243,10.3445177 31.8531767,11.0958562 C33.7271104,11.8471946 34.6366509,13.9741252 33.884697,15.8464998 C33.1327432,17.7188744 31.0040418,18.6276696 29.1300983,17.8763555 C27.2562026,17.1249436 26.3466771,14.998048 27.0985516,13.12565 Z" id="Shape" fill="#2942D1"></path>
                    <polygon id="Path" fill="#2942D1" points="32.0717954 35.0614457 32.0717954 33.9506895 29.0176174 33.9506895 29.0176174 35.0614457 5.8966897 35.0614457 5.8966897 49.2101454 8.95086765 49.2101454 8.95086765 38.1130746 29.0176174 38.1130746 29.0176174 49.2101454 32.0717954 49.2101454 32.0717954 38.1130746 52.1398577 38.1130746 52.1398577 49.2101454 55.1940356 49.2101454 55.1940356 35.0614457"></polygon>
                    <ellipse id="Oval" fill="#2942D1" cx="7.63633739" cy="49.9738263" rx="7.63633739" ry="7.629964"></ellipse>
                    <g id="Group" opacity="0.6" transform="translate(0.000000, 42.343862)" fill="#FFFFFF">
                        <ellipse id="Oval" cx="7.63633739" cy="7.629964" rx="7.63633739" ry="7.629964"></ellipse>
                    </g>
                    <ellipse id="Oval" fill="#2942D1" cx="30.5453627" cy="49.9738263" rx="7.63633739" ry="7.629964"></ellipse>
                    <g id="Group" opacity="0.6" transform="translate(22.909025, 42.343862)" fill="#FFFFFF">
                        <ellipse id="Oval" cx="7.63633739" cy="7.629964" rx="7.63633739" ry="7.629964"></ellipse>
                    </g>
                    <ellipse id="Oval" fill="#2942D1" cx="53.454388" cy="49.9738263" rx="7.63633739" ry="7.629964"></ellipse>
                    <g id="Group" opacity="0.6" transform="translate(45.818051, 42.343862)" fill="#FFFFFF">
                        <ellipse id="Oval" cx="7.63633739" cy="7.629964" rx="7.63633739" ry="7.629964"></ellipse>
                    </g>
                </g>
            </g>
        </g>
    </g>
</svg>