<?xml version="1.0" encoding="UTF-8"?>
<svg width="64px" height="64px" viewBox="0 0 64 64" version="1.1" xmlns="http://www.w3.org/2000/svg" xmlns:xlink="http://www.w3.org/1999/xlink">
    <title>07-1-10-investors@3x</title>
    <g id="-------About-Us" stroke="none" stroke-width="1" fill="none" fill-rule="evenodd">
        <g id="07-1-1-About-Us-1920" transform="translate(-758.000000, -5881.000000)" fill-rule="nonzero">
            <g id="07-1-10-investors" transform="translate(758.000000, 5881.000000)">
                <g id="bg" fill="#DEE2F8">
                    <path d="M0,0 L64,0 L64,64 L14.54545,64 C6.51221979,64 0,57.4877802 0,49.45455 L0,0 Z" id="Path"></path>
                </g>
                <g id="shadow" transform="translate(8.727000, 17.455000)" fill="#2942D1" opacity="0.1">
                    <polygon id="Path" points="-3.55271368e-15 29.09 17.455 46.545 55.273 46.545 55.273 5.818 49.455 0"></polygon>
                </g>
                <g id="Слой_1" transform="translate(8.727270, 17.454550)">
                    <rect id="Rectangle" fill="#2942D1" x="5.81818" y="0" width="43.63636" height="23.27273"></rect>
                    <rect id="Rectangle" fill="#2942D1" x="3.55271368e-15" y="5.81818" width="43.63636" height="23.27273"></rect>
                    <g id="Group" opacity="0.6" transform="translate(0.000000, 5.818180)" fill="#FFFFFF">
                        <rect id="Rectangle" x="0" y="-7.10542736e-15" width="43.63636" height="23.27273"></rect>
                    </g>
                    <rect id="Rectangle" fill="#2942D1" x="20.65447" y="8.72721" width="2.32727" height="2.90909"></rect>
                    <path d="M22.99828,16.2908 L20.63793,16.2908 C19.6739446,16.2908 18.89248,15.5093354 18.89248,14.54535 C18.89248,13.5813646 19.6739446,12.7999 20.63793,12.7999 L25.94579,12.7999 L25.94579,10.47263 L22.98173,10.47263 L22.98173,8.7272 L20.65453,8.7272 L20.65453,10.47263 L20.63793,10.47263 C18.3886123,10.4726301 16.5651801,12.2960623 16.5651801,14.54538 C16.5651801,16.7946977 18.3886123,18.6181299 20.63793,18.61813 L22.99828,18.61813 C23.960637,18.6204335 24.7395621,19.4012252 24.7395621,20.363585 C24.7395621,21.3259448 23.960637,22.1067365 22.99828,22.10904 L16.96361,22.10904 L16.96361,24.43631 L20.65453,24.43631 L20.65453,26.18173 L22.98173,26.18173 L22.98173,24.43631 L22.99833,24.43631 C24.4549053,24.4385924 25.801814,23.6628292 26.5307613,22.401777 C27.2597086,21.1407248 27.2597086,19.5863852 26.5307613,18.325333 C25.801814,17.0642808 24.4549053,16.2885176 22.99833,16.2908 L22.99828,16.2908 Z" id="Path" fill="#2942D1"></path>
                </g>
            </g>
        </g>
    </g>
</svg>