<svg width="24" height="24" viewBox="0 0 24 24" xmlns="http://www.w3.org/2000/svg" xmlns:xlink="http://www.w3.org/1999/xlink">
    <defs>
        <path d="M7 8.25c1.066-.023 1.951-.39 2.654-1.099.703-.709 1.067-1.59 1.09-2.645-.023-1.067-.387-1.951-1.09-2.654C8.951 1.148 8.066.779 7 .744c-1.066.035-1.951.404-2.654 1.108-.703.703-1.067 1.587-1.09 2.654.023 1.055.387 1.936 1.09 2.645.703.71 1.588 1.076 2.654 1.099zm0-1.494c-.633-.024-1.163-.246-1.59-.668-.429-.422-.648-.95-.66-1.582.012-.645.231-1.178.66-1.6.427-.422.957-.638 1.59-.65.633.012 1.163.228 1.59.65.429.422.648.955.66 1.6-.012.633-.231 1.16-.66 1.582-.427.422-.957.644-1.59.668zm5.994 8.982c.211 0 .39-.07.536-.21a.7.7 0 0 0 .22-.528v-1.494a3.76 3.76 0 0 0-.281-1.442 3.605 3.605 0 0 0-.818-1.212 3.889 3.889 0 0 0-1.221-.818 3.619 3.619 0 0 0-1.424-.29H3.994c-.492 0-.967.097-1.424.29a3.889 3.889 0 0 0-1.221.818c-.358.351-.63.755-.818 1.212a3.76 3.76 0 0 0-.281 1.442V15a.7.7 0 0 0 .22.527c.146.141.325.211.536.211A.715.715 0 0 0 1.744 15v-1.494c.024-.645.246-1.178.668-1.6.422-.422.95-.638 1.582-.65h6.012c.633.012 1.16.228 1.582.65.422.422.644.955.668 1.6V15a.715.715 0 0 0 .738.738z" id="ciwazy7i5a"/>
    </defs>
    <g fill="none" fill-rule="evenodd">
        <path d="M0 0h24v24H0z"/>
        <g transform="translate(6 4)">
            <mask id="dp7y2j6f2b" fill="#fff">
                <use xlink:href="#ciwazy7i5a"/>
            </mask>
            <use fill="#848495" fill-rule="nonzero" xlink:href="#ciwazy7i5a"/>
            <g mask="url(#dp7y2j6f2b)" fill="#848495">
                <path d="M-5-4h24v24H-5z"/>
            </g>
        </g>
    </g>
</svg>
