<?xml version="1.0" encoding="UTF-8"?>
<svg width="122px" height="44px" viewBox="0 0 122 44" version="1.1" xmlns="http://www.w3.org/2000/svg" xmlns:xlink="http://www.w3.org/1999/xlink">
    <title>Logo_black</title>
    <g id="Logo_black" stroke="none" stroke-width="1" fill="none" fill-rule="evenodd">
        <path d="M25.06,36 L11.46,22.4 L25.06,8.8 L18.668,8.8 L6.904,20.53 L5,22.434 L6.904,24.304 L18.668,36 L25.06,36 Z M42.57,36 C46.344,36 49.506,34.64 52.158,31.988 C54.844,29.37 56.204,26.174 56.204,22.4 C56.204,18.66 54.844,15.464 52.158,12.812 C49.506,10.16 46.344,8.8 42.57,8.8 C38.796,8.8 35.6,10.16 32.982,12.812 C30.33,15.464 28.97,18.66 28.97,22.4 C28.97,26.174 30.33,29.336 32.982,31.988 C35.634,34.64 38.796,36 42.57,36 Z M42.57,31.444 C40.088,31.444 37.912,30.594 36.144,28.826 C34.376,27.058 33.526,24.882 33.526,22.4 C33.526,19.918 34.376,17.776 36.144,16.008 C37.946,14.206 40.088,13.356 42.57,13.356 C45.052,13.356 47.194,14.24 48.962,16.008 C50.73,17.776 51.614,19.918 51.614,22.4 C51.614,24.882 50.764,27.024 48.962,28.826 C47.194,30.594 45.052,31.444 42.57,31.444 Z M75.38,36 C79.154,36 82.316,34.64 84.968,31.988 C87.654,29.37 89.014,26.174 89.014,22.4 C89.014,18.66 87.654,15.464 84.968,12.812 C82.316,10.16 79.154,8.8 75.38,8.8 C71.606,8.8 68.41,10.16 65.792,12.812 C63.14,15.464 61.78,18.66 61.78,22.4 C61.78,26.174 63.14,29.336 65.792,31.988 C68.444,34.64 71.606,36 75.38,36 Z M75.38,31.444 C72.898,31.444 70.722,30.594 68.954,28.826 C67.186,27.058 66.336,24.882 66.336,22.4 C66.336,19.918 67.186,17.776 68.954,16.008 C70.756,14.206 72.898,13.356 75.38,13.356 C77.862,13.356 80.004,14.24 81.772,16.008 C83.54,17.776 84.424,19.918 84.424,22.4 C84.424,24.882 83.574,27.024 81.772,28.826 C80.004,30.594 77.862,31.444 75.38,31.444 Z M99.112,36 L99.112,26.956 L108.19,26.956 C110.672,26.956 112.814,26.072 114.582,24.304 C116.384,22.536 117.234,20.36 117.234,17.878 C117.234,15.396 116.35,13.254 114.582,11.452 C112.814,9.684 110.672,8.8 108.19,8.8 L94.59,8.8 L99.112,13.356 L108.19,13.356 C109.414,13.356 110.468,13.798 111.352,14.682 C112.27,15.566 112.712,16.654 112.712,17.878 C112.712,19.136 112.236,20.19 111.352,21.074 C110.468,21.958 109.414,22.4 108.19,22.4 L94.59,22.4 L94.59,36 L99.112,36 Z" id="KOOP" fill="#222222" fill-rule="nonzero"></path>
    </g>
</svg>