<svg width="24" height="24" viewBox="0 0 24 24" xmlns="http://www.w3.org/2000/svg" xmlns:xlink="http://www.w3.org/1999/xlink">
    <defs>
        <path d="M14.75 15.006c.2 0 .375-.076.527-.228a.724.724 0 0 0 0-1.055l-3.392-3.392c1.043-1.383 1.491-2.889 1.344-4.518-.146-1.629-.852-3.03-2.118-4.201C9.787.487 8.311-.05 6.681.004 5.054.056 3.618.68 2.376 1.876 1.18 3.118.555 4.553.503 6.182c-.053 1.63.483 3.106 1.608 4.43 1.172 1.266 2.573 1.972 4.202 2.118 1.628.147 3.134-.302 4.517-1.345l3.393 3.393a.724.724 0 0 0 .527.228zm-7.875-3.761c-1.383-.035-2.531-.51-3.445-1.424-.914-.914-1.389-2.063-1.424-3.445.035-1.383.51-2.532 1.424-3.446.914-.914 2.062-1.388 3.445-1.424 1.383.036 2.531.51 3.445 1.424.914.914 1.389 2.063 1.424 3.446-.035 1.382-.51 2.53-1.424 3.445-.914.914-2.062 1.389-3.445 1.424z" id="imgmfvo2ja"/>
    </defs>
    <g transform="translate(4 4)" fill="none" fill-rule="evenodd">
        <mask id="whvuermdkb" fill="#fff">
            <use xlink:href="#imgmfvo2ja"/>
        </mask>
        <use fill="#848495" fill-rule="nonzero" xlink:href="#imgmfvo2ja"/>
        <g mask="url(#whvuermdkb)" fill="#BDBDBD">
            <path d="M-4-4h24v24H-4z"/>
        </g>
    </g>
</svg>
